<svg width="21" height="24" viewBox="0 0 21 24" fill="none" xmlns="http://www.w3.org/2000/svg">
<path d="M16.5366 7.85706H4.46378C4.19523 7.85706 3.97754 8.07475 3.97754 8.3433V18.4674C3.97754 18.7359 4.19523 18.9536 4.46378 18.9536H6.61609V22.3654C6.61609 23.1571 7.25781 23.7988 8.04948 23.7988C8.84109 23.7988 9.48287 23.1571 9.48287 22.3654V18.9536H11.4877V22.3654C11.4877 23.1571 12.1294 23.7988 12.9211 23.7988C13.7127 23.7988 14.3545 23.1571 14.3545 22.3654V18.9536H16.5367C16.8052 18.9536 17.0229 18.7359 17.0229 18.4674V8.3433C17.0229 8.07475 16.8052 7.85706 16.5366 7.85706Z" fill="#1FADAD"/>
<path d="M1.93339 7.85474C1.14178 7.85474 0.5 8.49646 0.5 9.28813V15.11C0.5 15.9016 1.14172 16.5434 1.93339 16.5434C2.725 16.5434 3.36678 15.9017 3.36678 15.11V9.28813C3.36672 8.49652 2.725 7.85474 1.93339 7.85474Z" fill="#1FADAD"/>
<path d="M19.0667 7.85474C18.2751 7.85474 17.6333 8.49646 17.6333 9.28813V15.11C17.6333 15.9016 18.275 16.5434 19.0667 16.5434C19.8583 16.5434 20.5001 15.9017 20.5001 15.11V9.28813C20.5001 8.49652 19.8584 7.85474 19.0667 7.85474Z" fill="#1FADAD"/>
<path d="M4.56146 7.14704H16.4104C16.7195 7.14704 16.95 6.86229 16.8866 6.55975C16.4946 4.69173 15.3053 3.11749 13.6915 2.20808L14.7044 0.38044C14.773 0.256704 14.7283 0.100767 14.6045 0.0322165C14.4805 -0.0365065 14.3248 0.00836793 14.2562 0.132104L13.2357 1.97351C12.3997 1.5856 11.4681 1.36895 10.4859 1.36895C9.50364 1.36895 8.57205 1.5856 7.73614 1.97351L6.71555 0.132046C6.64694 0.00825273 6.491 -0.0363913 6.36732 0.0321589C6.24359 0.100709 6.19889 0.256646 6.26744 0.380382L7.28037 2.20802C5.66656 3.11749 4.47724 4.69167 4.08529 6.55975C4.02175 6.86229 4.25229 7.14704 4.56146 7.14704ZM14.0215 4.42329C14.0215 4.72756 13.7748 4.97428 13.4705 4.97428C13.1662 4.97428 12.9195 4.72762 12.9195 4.42329C12.9195 4.11902 13.1662 3.8723 13.4705 3.8723C13.7748 3.8723 14.0215 4.11902 14.0215 4.42329ZM7.50122 3.8723C7.80549 3.8723 8.05222 4.11896 8.05222 4.42329C8.05222 4.72756 7.80555 4.97428 7.50122 4.97428C7.19695 4.97428 6.95023 4.72762 6.95023 4.42329C6.95023 4.11902 7.1969 3.8723 7.50122 3.8723Z" fill="#1FADAD"/>
</svg>
