<svg width="52" height="58" viewBox="0 0 52 58" fill="none" xmlns="http://www.w3.org/2000/svg">
<path d="M0 57.971C1.89014 54.1219 3.79878 50.2577 5.68893 46.4086C5.95533 45.8688 6.24365 45.2863 6.76152 44.8616C7.26432 44.4246 8.0789 44.1523 8.69764 44.3867C9.69872 44.7525 9.54825 45.9637 9.23398 46.8889C8.67459 48.5838 8.08163 50.2814 7.52225 51.9762C12.3174 48.1433 17.0708 44.2458 21.7755 40.3387C28.2962 34.9179 34.7634 29.3925 39.8965 23.1069C45.0296 16.8213 48.7969 9.62821 49.2516 2.35764C49.309 1.49475 49.4389 0.448722 50.4083 0C52.2291 1.52327 52.168 4.02096 51.7752 6.2467C50.4442 13.6177 46.2726 20.722 40.8257 26.9929C35.3939 33.2763 28.6951 38.7937 21.7838 44.0156C16.6865 47.8737 11.4569 51.5931 6.09511 55.1737C9.74043 53.6434 13.7552 52.7496 17.7112 52.5963C12.8509 56.2848 6.24242 58.2669 0 57.971ZM8.19962 47.8607C8.10233 47.8415 7.97286 47.9477 7.97768 48.0426C8.10854 48.059 8.23801 47.9528 8.19962 47.8607ZM7.4284 48.9875C7.38317 48.9504 7.2907 49.0262 7.33592 49.0633C7.38115 49.1004 7.47363 49.0246 7.4284 48.9875ZM7.49709 49.7718C7.46694 49.747 7.41829 49.7375 7.38472 49.7403C7.22852 49.7942 7.31695 50.0183 7.47315 49.9644C7.59236 49.9409 7.57247 49.8336 7.49709 49.7718ZM6.54386 51.9626C6.44656 51.9435 6.31709 52.0496 6.32191 52.1446C6.4377 52.1485 6.56717 52.0424 6.54386 51.9626ZM6.20891 52.3856C6.12669 52.3788 6.03764 52.4271 5.99723 52.485C5.95681 52.5428 6.05069 52.5895 6.12125 52.5563C6.19182 52.5232 6.20207 52.4406 6.20891 52.3856ZM5.75958 52.927C5.7445 52.9147 5.69585 52.9051 5.67736 52.9203C5.64037 52.9506 5.71575 53.0124 5.76781 52.9945C5.78973 52.9518 5.77466 52.9394 5.75958 52.927ZM6.71388 52.466C6.66866 52.4289 6.57618 52.5047 6.62141 52.5418C6.67005 52.5513 6.74404 52.4907 6.71388 52.466ZM51.4658 4.32478C51.4493 4.18995 51.3657 4.06073 51.4314 3.93265C51.2821 3.9315 51.1642 4.07755 51.2177 4.18205L51.1992 4.19722C51.1821 4.33485 51.1801 4.48485 51.1815 4.60732C51.361 4.63319 51.4822 4.45961 51.4658 4.32478ZM9.56886 52.3501C9.62776 52.2771 9.58937 52.1849 9.52907 52.1355C9.49892 52.1108 9.45027 52.1012 9.4167 52.104C9.26734 52.1029 9.14953 52.2489 9.20299 52.3534C9.27495 52.4427 9.47296 52.4535 9.56886 52.3501ZM51.2536 5.36406C51.2084 5.32697 51.1159 5.4028 51.1611 5.43988C51.1913 5.4646 51.2838 5.38878 51.2536 5.36406ZM51.3032 6.43595C51.2833 6.32865 51.2819 6.20618 51.2805 6.08371C51.0215 6.29602 51.0107 6.65107 51.2183 6.85166C51.4382 6.81967 51.4019 6.57753 51.3032 6.43595ZM51.1306 7.02243C51.1341 6.9949 51.1039 6.97018 51.0738 6.94546C51.0285 6.90837 50.9312 6.88926 50.8641 6.89486C50.8168 7.00778 50.8333 7.14261 50.9238 7.21678L50.9204 7.24431C51.0731 7.21792 51.169 7.11456 51.1306 7.02243ZM51.0144 7.95835C50.9322 7.9516 50.8431 7.9999 50.8027 8.05775C50.7472 8.10325 50.8562 8.16225 50.9267 8.12912C50.9822 8.08362 50.989 8.02857 51.0144 7.95835ZM50.844 9.06223C50.6912 9.08861 50.5083 9.09027 50.3809 9.04643C50.1521 9.28347 50.0624 9.60424 50.1289 9.8711C50.4063 9.64361 50.657 9.36388 50.844 9.06223ZM50.3667 10.0964C50.3215 10.0593 50.229 10.1352 50.2742 10.1722C50.3195 10.2093 50.3969 10.1211 50.3667 10.0964ZM49.5057 10.8766C49.4687 10.9069 49.544 10.9687 49.5961 10.9508C49.6516 10.9053 49.5762 10.8435 49.5057 10.8766ZM50.2531 10.6099C50.2161 10.6402 50.2915 10.702 50.3435 10.684C50.384 10.6262 50.3086 10.5644 50.2531 10.6099ZM49.9983 11.1896C49.8675 11.1733 49.7462 11.3469 49.8552 11.4059C49.736 11.4294 49.6702 11.5575 49.7086 11.6496C49.8566 11.5283 49.9593 11.3699 49.9983 11.1896ZM48.7683 13.3354C48.6004 13.3494 48.4525 13.4708 48.4354 13.6084L48.4505 13.6208C48.5882 13.582 48.7361 13.4607 48.7683 13.3354ZM48.9178 14.004L48.9027 13.9916C48.9836 13.8759 49.0644 13.7602 49.1788 13.6417C48.8664 13.7495 48.6342 14.014 48.6185 14.2741C48.7712 14.2478 48.9041 14.1141 48.9178 14.004ZM48.0863 15.0814C48.041 15.0443 47.9924 15.0347 47.9403 15.0527C47.9116 15.1504 48.0171 15.237 48.1363 15.2134C48.1432 15.1583 48.1315 15.1184 48.0863 15.0814ZM47.2445 16.2413C47.3034 16.1683 47.2986 16.0734 47.2417 15.9964C47.1595 15.9896 47.0889 16.0228 47.0636 16.093L47.0602 16.1205C46.9595 16.1289 46.8937 16.257 46.9876 16.3036C47.063 16.3654 47.1856 16.3143 47.2445 16.2413ZM47.6254 16.2504C47.6104 16.238 47.6104 16.238 47.5953 16.2256C47.4829 16.1942 47.387 16.2975 47.3583 16.3953C47.3295 16.493 47.3343 16.588 47.2418 16.6638C47.3275 16.643 47.3981 16.6099 47.4652 16.6043L47.4535 16.5644C47.5611 16.5009 47.7159 16.3245 47.6254 16.2504ZM45.7571 19.3893C46.1811 18.9181 46.4625 18.3906 46.7591 17.8755C46.8468 17.7047 46.9529 17.5188 47.0406 17.348C47.1029 17.2475 47.12 17.1098 47.0446 17.048C47.0295 17.0357 46.9994 17.0109 46.9473 17.0289C46.8466 17.0373 46.7994 17.1502 46.7555 17.2356C46.583 17.8221 46.2344 18.3552 45.8673 18.9034C45.7426 19.1045 45.6029 19.2933 45.4782 19.4944C45.5721 19.541 45.6831 19.45 45.7571 19.3893ZM45.3105 20.1758C45.2434 20.1814 45.1577 20.2022 45.1173 20.26C45.0769 20.3179 45.1338 20.3948 45.2044 20.3617C45.2598 20.3162 45.3188 20.2432 45.3105 20.1758ZM44.6694 20.924C44.6392 20.8993 44.5906 20.8897 44.5419 20.8801C44.4077 20.8914 44.2898 21.0374 44.3618 21.1267C44.4338 21.2161 44.6318 21.2268 44.7126 21.1111C44.753 21.0532 44.7297 20.9734 44.6694 20.924ZM44.1728 21.5784C44.1577 21.566 44.1091 21.5565 44.0906 21.5716C44.0536 21.602 44.129 21.6638 44.181 21.6458C44.1995 21.6306 44.1879 21.5907 44.1728 21.5784ZM43.3386 23.0782C43.6599 22.7654 43.827 22.3564 43.7926 21.9643C43.6529 22.153 43.5132 22.3418 43.3584 22.5181C42.9207 23.0995 42.483 23.6809 42.0453 24.2623C42.0234 24.305 42.0015 24.3477 42.0132 24.3876C42.3831 24.0842 42.7263 23.7287 42.9721 23.354C43.0715 23.2231 43.1708 23.0923 43.3386 23.0782ZM41.4056 25.133L41.4275 25.0903C41.2378 25.147 41.1467 25.3453 41.2303 25.4745C41.3865 25.4206 41.4926 25.2347 41.4056 25.133ZM6.46969 54.2979C5.92711 54.5203 5.47979 54.9118 5.2723 55.3786C5.76422 55.2967 5.85794 54.6759 6.31489 54.4743C6.8239 54.2547 7.26438 53.9183 7.5959 53.5228C7.20128 53.6239 6.84163 53.8446 6.62108 54.1491C6.58067 54.2069 6.54026 54.2648 6.46969 54.2979ZM7.78769 53.3161C8.19397 53.2549 8.57212 53.019 8.77759 52.7022C8.35282 52.7786 7.97467 53.0145 7.78769 53.3161ZM39.6891 27.1832C39.6069 27.1765 39.5178 27.2248 39.4774 27.2826C39.4219 27.3281 39.5309 27.3871 39.6014 27.354C39.6569 27.3085 39.6638 27.2534 39.6891 27.1832ZM38.5904 28.4055C38.4006 28.4622 38.2444 28.5161 38.0546 28.5728L38.0361 28.588C38.004 28.7133 38.2136 28.7639 38.3363 28.7128C38.4774 28.6465 38.5431 28.5184 38.5904 28.4055ZM37.4971 29.4503C37.43 29.4559 37.3443 29.4766 37.3039 29.5345C37.2635 29.5924 37.3204 29.6693 37.391 29.6362C37.4615 29.6031 37.5054 29.5177 37.4971 29.4503ZM13.4509 49.3153C13.3098 49.3816 13.1721 49.4204 13.0378 49.4316C13.009 49.5293 13.1146 49.6159 13.2338 49.5923C13.3564 49.5412 13.4372 49.4255 13.4509 49.3153ZM36.9553 30.0676C36.7875 30.0816 36.6395 30.2029 36.6224 30.3406L36.619 30.3681C36.6827 30.39 36.7464 30.4119 36.8102 30.4338C36.8608 30.2934 36.9081 30.1805 36.9553 30.0676ZM36.195 30.8394C36.0977 30.8202 35.9682 30.9264 35.973 31.0213C36.1039 31.0377 36.2149 30.9467 36.195 30.8394ZM34.6086 32.511C34.8962 32.2009 35.1654 31.906 35.4531 31.596C34.9037 31.8734 34.4865 32.2896 34.2455 32.7593C34.3983 32.7329 34.4942 32.6295 34.6086 32.511ZM25.7486 40.0477C25.6814 40.0533 25.5958 40.0741 25.5554 40.132C25.515 40.1898 25.5718 40.2668 25.6424 40.2337C25.713 40.2005 25.7568 40.1151 25.7486 40.0477ZM28.5414 37.7577C28.6387 37.7768 28.7682 37.6707 28.7448 37.5909C28.6475 37.5718 28.5181 37.678 28.5414 37.7577ZM28.116 38.1065C28.1612 38.1436 28.2537 38.0678 28.2085 38.0307C28.1598 38.0212 28.0858 38.0818 28.116 38.1065ZM27.9865 38.2127C27.9714 38.2003 27.9715 38.2003 27.9564 38.188C27.881 38.1262 27.6392 38.2009 27.6926 38.3054C27.7276 38.425 28.0366 38.3447 27.9865 38.2127ZM28.9873 37.2438C29.1483 37.2848 29.2462 37.0315 29.1003 37.0028C28.9393 36.9617 28.8263 37.2027 28.9873 37.2438ZM33.0666 33.8248C33.1371 33.7917 33.1961 33.7186 33.1727 33.6389C33.0535 33.6624 32.9309 33.7135 32.8686 33.8141C32.8247 33.8995 32.9234 34.041 33.031 33.9776C33.0529 33.9349 33.0597 33.8798 33.0666 33.8248ZM18.5428 45.6347C18.9141 45.4539 19.2285 45.1961 19.449 44.8916C19.0777 45.0725 18.7633 45.3303 18.5428 45.6347ZM32.52 34.3472C32.5652 34.3843 32.6577 34.3084 32.6124 34.2713C32.5672 34.2342 32.4932 34.2949 32.52 34.3472ZM29.8833 36.5832C29.8025 36.699 29.6765 36.7776 29.5237 36.804C29.438 36.8247 29.3373 36.8332 29.2969 36.891C29.2531 36.9764 29.362 37.0354 29.4627 37.027C29.5635 37.0186 29.6559 36.9427 29.7299 36.8821C29.8375 36.8186 29.9553 36.6726 29.8833 36.5832ZM27.2618 38.8317C27.1275 38.8429 27.0014 38.9215 26.9391 39.0221C26.8165 39.0732 26.7357 39.1889 26.7069 39.2866C26.9522 39.1844 27.1556 39.0176 27.2618 38.8317ZM25.2307 40.4723C24.9114 40.6352 24.6374 40.8352 24.4086 41.0722C24.4505 41.1368 24.5546 41.1009 24.6286 41.0402C24.8622 40.8981 25.069 40.7038 25.2307 40.4723ZM24.1113 41.1924C23.7887 41.3828 23.4927 41.6254 23.2571 41.9175C23.4654 41.8457 23.6736 41.7738 23.8367 41.6648C24.0182 41.5407 24.1395 41.3671 24.1113 41.1924ZM21.4445 43.4037C21.609 43.4173 21.7789 43.2532 21.7288 43.1212L21.6583 43.1543C21.5692 43.2026 21.4733 43.306 21.4445 43.4037ZM21.2795 43.6627C21.2644 43.6503 21.2644 43.6503 21.2644 43.6503C21.189 43.5885 20.9924 43.7003 21.0644 43.7896L21.2576 43.7054L21.2795 43.6627ZM20.0272 44.5164C19.9217 44.4299 19.7066 44.5568 19.7601 44.6613C19.871 44.5703 20.0087 44.5316 20.1581 44.5327C20.1985 44.4749 20.0526 44.4462 20.0272 44.5164ZM17.7708 46.3666C17.8783 46.3032 18.0229 46.2094 18.0215 46.0869C18.0064 46.0745 18.0098 46.047 17.9947 46.0346C17.9194 45.9728 17.77 45.9717 17.7748 46.0666C17.7543 46.2318 17.5878 46.3683 17.4131 46.4373C17.2384 46.5064 17.0336 46.5508 16.8555 46.6474C16.837 46.6625 16.8034 46.6653 16.8 46.6929C16.7596 46.7507 16.8165 46.8277 16.9172 46.8193C16.9994 46.826 17.0885 46.7777 17.1439 46.7322C17.3406 46.6205 17.5557 46.4935 17.7708 46.3666ZM16.6582 47.0316C16.5911 47.0372 16.5055 47.058 16.465 47.1158C16.4246 47.1737 16.4815 47.2507 16.5521 47.2175C16.6076 47.172 16.6665 47.099 16.6582 47.0316ZM15.789 47.7444C15.5286 47.8342 15.3135 47.9612 15.1135 48.1005C15.2176 48.0645 15.3217 48.0286 15.441 48.005L15.4259 47.9926C15.5718 48.0213 15.7869 47.8944 15.789 47.7444ZM14.0606 49.0874C14.3161 48.9026 14.56 48.6779 14.7552 48.4436C14.5805 48.5127 14.3873 48.597 14.2126 48.666L14.1825 48.6413C14.1352 48.7542 13.979 48.8081 13.853 48.8868C13.742 48.9778 13.7215 49.1429 13.8524 49.1592C13.9531 49.1508 13.9901 49.1205 14.0606 49.0874ZM12.6974 50.0321C12.783 50.0113 12.8084 49.9411 12.8001 49.8737C12.5905 49.8231 12.3267 49.9404 12.2692 50.1359C12.4151 50.1646 12.5679 50.1382 12.694 50.0596L12.6974 50.0321ZM11.7274 50.7533C11.8802 50.7269 12.0281 50.6056 12.0603 50.4803C11.9781 50.4735 11.874 50.5095 11.8486 50.5797C11.7781 50.6128 11.7192 50.6858 11.7274 50.7533ZM11.0567 51.2043C10.5429 51.3289 10.1243 51.6227 9.70579 51.9164C9.68729 51.9316 9.6688 51.9468 9.6503 51.9619C9.62839 52.0046 9.65512 52.0569 9.71884 52.0788C9.76749 52.0883 9.82298 52.0428 9.87504 52.0249C10.2415 51.7491 10.6567 51.4829 11.0567 51.2043ZM4.19022 57.4031C3.94838 57.4778 3.70654 57.5525 3.47978 57.6395C3.42429 57.685 3.57365 57.6862 3.62914 57.6407L3.62572 57.6682C3.82373 57.6789 4.00666 57.6772 4.1896 57.6756C4.18478 57.5806 4.17996 57.4857 4.19022 57.4031ZM5.23917 57.3836C4.94387 57.3538 4.63147 57.4616 4.45817 57.6532L4.77057 57.5453L4.75891 57.5054C4.8946 57.6167 5.17001 57.5392 5.23917 57.3836ZM7.62462 56.3671C7.52733 56.348 7.39786 56.4542 7.40268 56.5491C7.51847 56.5531 7.64794 56.4469 7.62462 56.3671ZM10.0814 55.7125C10.0663 55.7001 10.0513 55.6877 10.0513 55.6877C10.006 55.6507 9.8834 55.7018 9.92521 55.7664C10.0293 55.7304 10.1301 55.722 10.2239 55.7687C10.2678 55.6833 10.1067 55.6422 10.0814 55.7125ZM11.2379 55.6295C11.1927 55.5924 11.1002 55.6682 11.1454 55.7053C11.1907 55.7424 11.2831 55.6666 11.2379 55.6295ZM14.5598 53.8946C14.009 54.0496 13.5836 54.3984 13.0328 54.5534C12.7053 54.6488 12.299 54.71 12.2162 54.9757C12.7738 54.7657 13.3315 54.5557 13.8891 54.3456C14.1495 54.2558 14.4502 54.1081 14.5598 53.8946ZM15.0065 53.7756C14.9914 53.7632 14.9763 53.7509 14.9763 53.7509C14.9311 53.7138 14.8085 53.7649 14.8503 53.8295C14.9544 53.7936 15.0551 53.7852 15.149 53.8318C15.1928 53.7464 15.0167 53.693 15.0065 53.7756ZM15.6231 53.4925C15.608 53.4802 15.608 53.4802 15.5895 53.4954C15.571 53.5105 15.571 53.5105 15.5861 53.5229C15.6162 53.5476 15.6868 53.5145 15.7238 53.4841L15.7423 53.469C15.9451 53.5746 16.2945 53.4365 16.3218 53.2163C16.0498 53.2662 15.8231 53.3533 15.6231 53.4925Z" fill="#1FADAD"/>
</svg>
