<svg width="84" height="100" viewBox="0 0 84 100" fill="none" xmlns="http://www.w3.org/2000/svg">
<path d="M11.9746 87.6062C19.7707 95.4023 30.5653 100 41.7597 100C52.7542 100 63.7487 95.4023 71.5448 87.6062C87.9366 71.0145 87.3369 44.4278 70.9451 28.8356C70.5453 28.6357 70.3454 28.2359 69.9456 28.036C70.7452 27.8361 71.5448 27.6362 72.3444 27.2364C73.3439 26.6367 74.1435 26.037 74.7432 25.4373C75.5428 24.6377 76.1425 23.8381 76.5423 23.0385C77.142 22.039 77.5418 21.0395 77.5418 19.8401C76.1425 20.04 75.143 20.4398 74.3434 20.8396C73.3439 21.4393 72.5443 22.039 71.9446 22.6387C71.145 23.4383 70.5453 24.2379 70.1455 25.0375C69.7457 25.8371 69.5458 26.6367 69.3459 27.4363C63.3489 22.2389 55.9526 19.0405 48.1565 18.041C48.7562 15.4423 49.156 13.0435 49.3559 10.4448C49.5558 8.24588 49.7557 5.84708 49.9556 3.64818C52.3544 3.24838 54.5533 2.84858 56.9521 2.04898C54.5533 1.24938 52.1545 0.849575 49.7557 0.449775C44.9581 -0.149925 39.9606 -0.149925 35.5628 0.449775C33.164 0.849575 30.7652 1.24938 28.3664 2.04898C30.7652 2.84858 32.9641 3.24838 35.3629 3.64818C35.5628 8.24588 35.9626 13.2434 37.162 17.8411C28.1665 18.6407 19.3709 22.4388 12.7742 28.8356C-3.81753 44.4278 -4.41722 71.0145 11.9746 87.6062ZM26.5673 21.2394C31.3649 19.0405 36.5623 17.8411 41.7597 17.6412C40.1605 17.6412 38.7612 17.6412 37.162 17.8411C37.7617 15.4423 38.1615 12.8436 38.3614 10.4448C38.5613 8.44578 38.7612 6.64668 38.7612 4.64768H46.1575C46.3574 6.64668 46.3574 8.44578 46.5573 10.4448C46.7572 13.0435 47.157 15.4423 47.7567 18.041C45.7577 17.8411 43.5588 17.6412 41.5598 17.8411C46.7572 18.041 51.9546 19.2404 56.7522 21.4393C61.5498 23.6382 65.7477 26.6367 69.3459 30.4348C84.3384 46.027 83.5388 70.6147 68.7462 85.2074C61.5498 92.2039 51.7547 96.4018 41.7597 96.4018C31.7647 96.4018 21.7697 92.4038 14.7732 85.2074C-0.219324 70.6147 -0.819025 46.027 14.1735 30.4348C17.5718 26.4368 21.9696 23.4383 26.5673 21.2394Z" fill="#1FADAD"/>
<path d="M20.1705 79.6101C25.9676 85.0074 33.9636 88.0059 41.7597 87.6061C33.9636 87.2063 26.5673 83.808 21.5698 78.2108C10.7752 66.8165 11.3749 48.8255 22.1695 38.2308C27.3669 33.0334 34.5633 30.0349 41.7597 30.2348C48.9561 30.2348 56.1525 33.2333 61.3499 38.2308C72.1445 48.8255 72.7442 66.6166 61.9496 78.2108C56.9521 83.808 49.3559 87.2063 41.7597 87.6061C49.5558 88.0059 57.5518 85.0074 63.3489 79.6101C75.5428 68.0159 76.3424 48.2258 63.9486 35.6321C58.1515 29.6351 49.9556 26.2368 41.5598 26.2368C33.164 26.2368 24.9681 29.6351 19.171 35.6321C6.97706 48.2258 7.77666 68.0159 20.1705 79.6101Z" fill="#1FADAD"/>
<path d="M42.5593 34.4329C41.7597 36.4319 41.3599 38.231 40.9601 40.23C40.3604 43.8282 40.3604 47.8262 40.9601 51.8242C41.3599 53.8232 41.7597 55.6223 42.5593 57.6213C43.9586 54.223 44.5583 49.8252 44.5583 46.0271C44.5583 44.0281 44.3584 42.229 44.1585 40.23C43.7587 38.231 43.3589 36.232 42.5593 34.4329Z" fill="#1FADAD"/>
</svg>
