<svg width="99" height="100" viewBox="0 0 99 100" fill="none" xmlns="http://www.w3.org/2000/svg">
<path d="M3.8438 25.2682C3.02712 17.714 7.11049 9.95558 13.6439 6.48472C19.9731 2.60553 28.7523 3.01386 34.8773 7.50556C41.2065 11.7931 44.6774 20.164 43.2482 28.3307C43.8607 26.289 44.4732 24.2473 44.4732 22.2057C44.4732 20.164 44.2691 17.9181 43.6566 15.8764C43.0441 13.8348 42.2274 11.7931 41.0024 9.95558C39.7774 8.11806 38.3482 6.48472 36.7148 5.05554C31.8148 0.972184 24.8731 -1.0695 17.7272 0.563848C15.4814 0.768016 13.4397 1.58469 11.398 2.8097C2.41462 8.11806 -0.852067 17.5098 0.577109 25.6765C0.985445 27.9224 1.59795 29.964 2.61879 32.0057C3.63963 33.8432 4.86464 35.6807 6.49798 37.3141C8.13133 38.7433 9.76467 40.1724 11.6022 41.1933C13.4397 42.2141 15.4814 42.8266 17.5231 43.235C9.76467 39.9683 4.4563 32.8224 3.8438 25.2682Z" fill="#1FADAD"/>
<path d="M36.7149 20.5722C36.3066 19.3472 35.8982 18.1222 35.2857 16.8972C34.6732 15.6722 33.6524 14.6514 32.6315 13.8347C28.5482 10.1597 22.219 9.54717 16.9106 12.4055C11.6022 15.468 9.15221 21.3889 10.3772 26.6973C10.5814 28.1265 10.9897 29.3515 11.8064 30.5765C12.4189 31.8015 13.2356 32.8223 14.2564 33.639C16.0939 35.4765 18.5439 36.4973 20.994 36.7015C16.5023 34.6598 13.8481 30.3723 13.6439 26.2889C13.4397 22.0014 15.6856 17.9181 19.1564 16.0805C22.6273 14.0389 27.3232 14.0389 30.794 16.4889C34.2649 18.7347 36.5107 23.2264 36.1024 28.1265C37.1232 25.6764 37.3274 23.0223 36.7149 20.5722Z" fill="#1FADAD"/>
<path d="M96.9444 74.6768C96.5361 73.8602 96.1277 73.0435 95.9236 72.2268C95.7194 71.4102 95.7194 70.3893 95.7194 69.5726C95.7194 69.1643 95.9236 68.756 95.9236 68.3476C96.1277 67.7351 96.1277 67.3268 96.1277 66.7143C96.3319 64.4684 95.5152 62.2226 94.4944 60.3851L82.8568 39.5599L81.4277 36.9058L80.611 35.6808C80.4068 35.2724 79.9985 34.6599 79.5901 34.2516C77.9568 32.4141 75.3026 31.3932 72.8526 31.5974C70.4026 31.8016 67.9526 33.4349 66.9317 35.6808C66.9317 35.8849 66.7276 36.0891 66.7276 36.0891C64.89 34.4557 62.2359 33.8432 59.7858 34.4557C57.3358 35.0682 55.2941 36.7016 54.2733 38.9474C52.4358 37.3141 49.7816 36.7016 47.3316 37.3141C45.0857 37.7224 43.2482 39.3558 42.2274 41.1933C33.0398 25.064 33.4482 25.8807 33.0398 25.2682C31.2023 22.8182 28.1398 21.7973 25.2814 22.2057C20.3814 23.0223 17.5231 28.1265 19.1564 32.8224C19.3606 33.4349 19.5647 33.8432 19.7689 34.4557C22.8314 39.5599 30.9982 53.4434 38.144 65.8976C35.4898 65.2851 33.0398 64.4684 30.3856 63.8559C29.569 63.6518 28.1398 63.2434 26.9148 63.4476C22.8314 63.8559 19.7689 67.3268 19.9731 71.206C20.1772 73.8602 21.6064 76.106 23.8523 77.331C25.0773 78.1477 24.6689 77.9435 47.7399 83.6602C49.5774 84.0686 51.415 84.8852 53.2525 85.9061C56.7233 87.7436 59.5817 90.6019 61.4192 94.0728L63.0525 96.727C63.4609 97.5437 64.2775 98.5645 65.0942 99.177C66.9317 100.402 69.5859 100.198 71.2192 98.9728L79.1818 94.0728L87.1444 89.7853L92.4527 86.9269L95.1069 85.4977C95.9236 85.0894 96.9444 84.4769 97.5569 83.4561C98.9861 81.6186 98.9861 78.9644 97.7611 77.1269L96.9444 74.6768ZM97.1486 82.8436C96.7402 83.6602 95.9236 84.0686 95.1069 84.4769L92.6569 86.1103L87.5527 89.1728L79.7943 93.8686L71.6276 98.3603C69.9942 99.3812 67.7484 99.3812 66.3192 98.3603C65.5025 97.7478 65.0942 97.1353 64.6859 96.1145L63.2567 93.4603C61.4192 89.7853 58.5608 86.5186 54.8858 84.2727C53.0483 83.2519 51.2108 82.2311 49.1691 81.6186C25.894 75.0852 26.9148 75.4935 26.0981 74.881C24.6689 74.0643 23.8523 72.431 23.8523 71.0018C23.8523 68.5518 25.6898 66.5101 27.9356 66.5101C28.7523 66.5101 29.3648 66.7143 30.3856 66.9185C34.2648 67.9393 38.144 69.1643 42.2274 70.1852C42.6357 70.3893 43.0441 70.1851 43.4524 69.981C44.2691 69.5726 44.6774 68.3476 44.0649 67.531C25.4856 34.8641 29.1606 41.6016 23.8523 32.2099C23.6481 32.0057 23.6481 31.5974 23.4439 31.3932C22.6273 29.1474 24.0564 26.289 26.5065 25.8807C27.9356 25.6765 29.3648 26.0849 30.3856 27.514C30.794 27.9224 42.6357 48.5433 42.8399 48.7475C43.4524 49.7683 44.4732 49.9725 45.4941 49.36C46.5149 48.7475 46.7191 47.7267 46.1066 46.7058C45.4941 45.685 45.2899 44.2558 45.9024 43.0308C46.3108 41.8058 47.5358 40.9891 48.7608 40.5808C49.9858 40.3766 51.415 40.5808 52.4358 41.3975L53.0483 42.01C53.0483 42.2141 53.2525 42.2141 53.2525 42.4183C53.4566 42.6225 55.09 45.685 55.09 45.4808C55.7025 46.2975 56.7233 46.7058 57.54 46.0933C58.3567 45.4808 58.765 44.46 58.1525 43.6433C57.54 42.4183 57.3358 40.9891 57.9483 39.7641C58.3567 38.5391 59.5817 37.5183 60.8067 37.3141C62.0317 36.9058 63.4609 37.3141 64.4817 38.1308C64.6859 38.3349 64.89 38.5391 65.0942 38.9474C65.2984 39.3558 65.2984 39.3558 65.7067 39.9683C65.9109 40.1725 67.3401 42.6225 67.1359 42.4183C67.5442 43.235 68.7692 43.4391 69.5859 43.0308C70.4026 42.6225 70.6067 41.3975 70.1984 40.5808C69.3817 39.3558 69.3817 37.7224 69.9942 36.4974C70.6068 35.2724 71.8318 34.2516 73.2609 34.0474C74.6901 33.8432 76.3235 34.4557 77.1401 35.4766C77.5485 35.8849 78.161 36.9058 78.5693 37.7224L79.9985 40.3766L92.2486 60.7934C93.2694 62.4268 93.8819 64.0601 93.6777 65.8976C93.6777 66.306 93.6777 66.7143 93.4736 67.1226C93.8819 68.3476 93.6777 68.756 93.6777 69.3685C93.6777 70.3893 93.6777 71.6143 94.0861 72.6352C94.2902 73.656 94.9027 74.6768 95.5152 75.4935L97.1486 77.9435C98.1694 79.5769 98.1694 81.4144 97.1486 82.8436Z" fill="#1FADAD"/>
</svg>
