<svg width="13" height="55" viewBox="0 0 13 55" fill="none" xmlns="http://www.w3.org/2000/svg">
<path d="M4.12857 0.167175C3.45987 -0.167175 2.54042 2.4911e-07 2.20607 0.668699C1.78813 1.42098 1.45376 2.17327 1.03583 2.92556C0.868652 3.2599 0.701493 3.67784 0.450731 4.01219C0.367144 4.17937 0.283541 4.34654 0.199954 4.5973C0.0327791 4.93165 -0.0507929 5.34959 0.0327944 5.68394C0.0327944 5.76752 0.0327944 5.76752 0.0327944 5.85111C0.0327944 6.35263 0.367139 6.77057 0.785075 6.93775C1.20301 7.10492 1.62094 7.02133 1.95529 6.77057C2.12247 6.68698 2.20605 6.6034 2.37323 6.51981C2.5404 6.43622 2.62399 6.26905 2.70757 6.10187C2.79116 5.9347 2.87476 5.76752 2.95835 5.51676C3.12552 5.09883 3.37627 4.76448 3.54345 4.34654C3.96138 3.59425 4.29575 2.84197 4.71369 2.08968C5.04804 1.50457 4.88085 0.585111 4.12857 0.167175Z" fill="#1FADAD"/>
<path d="M12.6546 3.92851C12.153 3.51058 11.4007 3.42699 10.9828 3.92851C10.3977 4.51363 9.81258 5.01515 9.31106 5.60026C8.72595 6.18537 7.97366 6.77048 7.55572 7.52277C7.30496 7.94071 7.38853 8.52582 7.72288 8.86017C8.05723 9.19452 8.64235 9.2781 9.06028 9.02734C9.81257 8.6094 10.3977 7.94071 10.9828 7.27201C11.5679 6.6869 12.0694 6.10178 12.6546 5.60026C13.0725 5.18232 13.1561 4.34645 12.6546 3.92851Z" fill="#1FADAD"/>
<path d="M5.1504 44.1028C5.48475 44.6879 6.15344 45.1894 6.73856 45.6074C7.15649 45.9417 7.57443 46.2761 7.99237 46.5268C8.82824 47.1955 9.66411 47.7806 10.5 48.4493C10.8343 48.7001 11.4194 48.7001 11.7538 48.6165C12.0881 48.5329 12.5061 48.1986 12.6733 47.8642C12.8404 47.5299 13.0076 47.0284 12.8404 46.6104C12.6732 46.1925 12.4225 45.9417 12.0881 45.691C11.2523 45.0223 10.4164 44.4371 9.58052 43.7684C9.16258 43.4341 8.74465 43.1833 8.4103 42.849C7.90878 42.5146 7.40726 42.0131 6.82215 41.8459C6.23704 41.6788 5.65191 41.9295 5.23397 42.3475C4.89962 42.9326 4.89964 43.6013 5.1504 44.1028Z" fill="#1FADAD"/>
<path d="M0.0516219 47.4464C0.218796 48.0315 0.553145 48.6166 0.887495 49.1181C1.13826 49.6196 1.47261 50.0376 1.72337 50.5391C2.30848 51.4586 2.89359 52.4616 3.39511 53.3811C3.81305 54.0498 4.73251 54.3005 5.4012 53.8826C6.0699 53.4647 6.32067 52.6288 5.90273 51.8765C5.31762 50.957 4.8161 49.954 4.23099 49.0345C3.98022 48.533 3.64588 48.1151 3.39511 47.6135C3.06076 47.112 2.80999 46.4433 2.30846 46.0254C1.89053 45.6074 1.13824 45.4403 0.636718 45.7746C0.135194 46.1926 -0.115553 46.7777 0.0516219 47.4464Z" fill="#1FADAD"/>
</svg>
