<svg width="127" height="43" viewBox="0 0 127 43" fill="none" xmlns="http://www.w3.org/2000/svg">
<path fill-rule="evenodd" clip-rule="evenodd" d="M12.0941 4.27246C10.3227 4.27377 8.88913 5.7084 8.89044 7.47621C8.88913 9.24402 10.324 10.6787 12.0954 10.68H15.3003V7.47752C15.3016 5.70971 13.8667 4.27507 12.0941 4.27246C12.0954 4.27246 12.0954 4.27246 12.0941 4.27246V4.27246ZM12.0941 12.8175H3.5502C1.77886 12.8188 0.34397 14.2535 0.345279 16.0213C0.342661 17.7891 1.77755 19.2237 3.5489 19.2263H12.0941C13.8654 19.225 15.3003 17.7904 15.299 16.0226C15.3003 14.2535 13.8654 12.8188 12.0941 12.8175Z" fill="#888888"/>
<path fill-rule="evenodd" clip-rule="evenodd" d="M32.3891 16.0213C32.3904 14.2535 30.9555 12.8188 29.1841 12.8175C27.4128 12.8188 25.9779 14.2535 25.9792 16.0213V19.2263H29.1841C30.9555 19.225 32.3904 17.7904 32.3891 16.0213ZM23.8439 16.0213V7.47621C23.8452 5.70971 22.4116 4.27507 20.6403 4.27246C18.8689 4.27377 17.4341 5.7084 17.4354 7.47621V16.0213C17.4327 17.7891 18.8676 19.2237 20.639 19.2263C22.4103 19.225 23.8452 17.7904 23.8439 16.0213Z" fill="#888888"/>
<path fill-rule="evenodd" clip-rule="evenodd" d="M20.6403 36.3165C22.4116 36.3152 23.8465 34.8806 23.8452 33.1128C23.8465 31.345 22.4116 29.9103 20.6403 29.909H17.4354V33.1128C17.4341 34.8793 18.8689 36.3139 20.6403 36.3165ZM20.6403 27.7701H29.1855C30.9568 27.7688 32.3917 26.3342 32.3904 24.5664C32.393 22.7986 30.9581 21.3639 29.1868 21.3613H20.6416C18.8702 21.3626 17.4354 22.7973 17.4367 24.5651C17.4354 26.3342 18.8689 27.7688 20.6403 27.7701Z" fill="#888888"/>
<path fill-rule="evenodd" clip-rule="evenodd" d="M0.345277 24.5665C0.343968 26.3344 1.77885 27.769 3.5502 27.7703C5.32155 27.769 6.75644 26.3344 6.75513 24.5665V21.3628H3.5502C1.77885 21.3641 0.343968 22.7987 0.345277 24.5665ZM8.89043 24.5665V33.1116C8.88782 34.8794 10.3227 36.3141 12.0941 36.3167C13.8654 36.3154 15.3003 34.8807 15.299 33.1129V24.5692C15.3016 22.8013 13.8667 21.3667 12.0954 21.3641C10.3227 21.3641 8.88912 22.7987 8.89043 24.5665C8.89043 24.5665 8.89043 24.5679 8.89043 24.5665Z" fill="#888888"/>
<path d="M41.8059 27.9945L44.8435 26.2253C46.1787 28.1836 47.9144 29.1627 50.0507 29.1627C51.0966 29.1627 51.92 28.9625 52.5208 28.5619C53.1439 28.1391 53.4554 27.5828 53.4554 26.8929C53.4554 26.3366 53.1995 25.847 52.6877 25.4242C52.1981 25.0014 51.6752 24.6899 51.1188 24.4896C50.5625 24.2671 49.728 23.9778 48.6154 23.6217C48.4151 23.555 48.2705 23.5105 48.1814 23.4882C47.3803 23.2212 46.7016 22.9653 46.1453 22.7205C45.6112 22.4534 45.0438 22.1085 44.4429 21.6857C43.8421 21.2407 43.3859 20.6955 43.0744 20.0501C42.7628 19.3825 42.6071 18.6148 42.6071 17.7469C42.6071 16.0557 43.3192 14.6983 44.7433 13.6746C46.1675 12.651 47.9367 12.1392 50.0507 12.1392C51.6307 12.1392 53.1216 12.562 54.5236 13.4076C55.9255 14.231 56.9714 15.288 57.6612 16.5786L54.8574 18.281C53.5444 16.4785 51.9533 15.5773 50.0841 15.5773C49.0604 15.5773 48.2705 15.7887 47.7141 16.2115C47.1801 16.612 46.913 17.1461 46.913 17.8137C46.913 18.37 47.1467 18.8707 47.614 19.3158C48.1036 19.7386 48.6043 20.0501 49.1161 20.2504C49.6279 20.4507 50.3511 20.7066 51.2857 21.0181C51.5305 21.0849 51.7085 21.1405 51.8198 21.185C55.7809 22.4534 57.7614 24.3672 57.7614 26.9263C57.7614 28.5063 57.0938 29.8526 55.7586 30.9652C54.4457 32.0556 52.5764 32.6008 50.1508 32.6008C48.2816 32.6008 46.6126 32.1892 45.1439 31.3658C43.6975 30.5424 42.5848 29.4186 41.8059 27.9945ZM61.4331 32V4.72891H65.6389V32H61.4331ZM73.7168 26.5925C73.7168 27.3046 73.995 27.9054 74.5513 28.395C75.1299 28.8623 75.8865 29.096 76.8211 29.096C78.1563 29.096 79.2912 28.6509 80.2258 27.7608C81.1827 26.8707 81.6611 25.7024 81.6611 24.2559V22.4868C80.6375 22.7316 79.4024 22.9653 77.956 23.1878C75.1299 23.6329 73.7168 24.7678 73.7168 26.5925ZM69.4442 26.9597C69.4442 23.3324 72.1368 21.1183 77.5221 20.3172C79.4803 20.0279 80.86 19.7608 81.6611 19.516V18.4813C81.6611 17.5467 81.3273 16.8123 80.6597 16.2782C79.9922 15.7442 79.102 15.4771 77.9894 15.4771C75.8753 15.4771 74.0506 16.345 72.5151 18.0807L69.9449 15.8777C70.9463 14.6983 72.1368 13.7859 73.5165 13.1406C74.9185 12.473 76.3872 12.1392 77.9226 12.1392C80.7933 12.1392 82.8405 12.8401 84.0645 14.2421C85.2884 15.6218 85.9003 17.5578 85.9003 20.0501V32H81.7947V29.5967C81.3941 30.42 80.6931 31.1321 79.6917 31.733C78.7126 32.3115 77.5554 32.6008 76.2203 32.6008C74.1062 32.6008 72.4484 32.0779 71.2467 31.032C70.045 29.9861 69.4442 28.6287 69.4442 26.9597ZM89.1381 22.3867C89.1381 19.2935 89.9615 16.8123 91.6082 14.943C93.2772 13.0738 95.4246 12.1392 98.0505 12.1392C99.9643 12.1392 101.578 12.7177 102.891 13.8749C104.203 15.0321 105.027 16.3561 105.361 17.8471L101.756 18.8485C101.489 18.0028 101.032 17.2796 100.387 16.6788C99.7417 16.0557 98.974 15.7442 98.0839 15.7442C96.6374 15.7442 95.5025 16.3784 94.6792 17.6468C93.878 18.9152 93.4775 20.4952 93.4775 22.3867C93.4775 24.4785 93.9114 26.1029 94.7793 27.2601C95.6472 28.4173 96.7487 28.9958 98.0839 28.9958C99.063 28.9958 99.9197 28.662 100.654 27.9945C101.411 27.3046 101.934 26.5258 102.223 25.6579L105.828 26.6927C105.405 28.2504 104.482 29.6301 103.057 30.8317C101.633 32.0111 99.9643 32.6008 98.0505 32.6008C95.4246 32.6008 93.2772 31.6773 91.6082 29.8303C89.9615 27.9611 89.1381 25.4799 89.1381 22.3867ZM108.999 32V4.72891H113.205V20.4173L120.048 12.74H125.355L118.245 20.5842L125.789 32H120.849L115.508 23.555L113.205 26.0918V32H108.999Z" fill="#888888"/>
</svg>
