<svg width="116.64" height="34.992" viewBox="0 0 116.64 34.992" xmlns="http://www.w3.org/2000/svg"><g id="svgGroup" stroke-linecap="round" fill-rule="evenodd" font-size="9pt" stroke="#878484" stroke-width="0.25mm" fill="#878484" style="stroke:#878484;stroke-width:0.25mm;fill:#878484"><path d="M 19.152 3.06 L 17.892 5.904 Q 16.38 5.076 14.814 4.536 Q 13.248 3.996 11.34 3.996 A 7.247 7.247 0 0 0 8.645 4.489 A 6.811 6.811 0 0 0 7.308 5.202 A 7.306 7.306 0 0 0 5.391 7.152 A 9.885 9.885 0 0 0 4.518 8.748 A 11.381 11.381 0 0 0 3.782 11.171 Q 3.492 12.674 3.492 14.472 Q 3.492 17.103 4.201 19.067 A 9.373 9.373 0 0 0 4.428 19.638 A 8.705 8.705 0 0 0 5.484 21.455 A 6.877 6.877 0 0 0 7.02 22.932 A 6.455 6.455 0 0 0 10.552 24.079 A 7.918 7.918 0 0 0 10.836 24.084 A 8.194 8.194 0 0 0 12.851 23.845 A 6.78 6.78 0 0 0 14.418 23.238 Q 15.617 22.59 16.426 21.911 A 7.178 7.178 0 0 0 16.884 21.492 L 16.884 15.984 L 11.664 15.984 L 11.664 13.284 L 20.124 13.284 L 20.124 26.64 L 17.1 26.64 L 17.1 24.12 A 12.918 12.918 0 0 1 15.524 25.305 A 17.047 17.047 0 0 1 14.04 26.154 A 8.494 8.494 0 0 1 10.654 27.054 A 10.127 10.127 0 0 1 10.044 27.072 A 9.566 9.566 0 0 1 6.692 26.496 A 8.824 8.824 0 0 1 4.86 25.56 A 9.68 9.68 0 0 1 2.005 22.573 A 12.222 12.222 0 0 1 1.296 21.258 A 13.51 13.51 0 0 1 0.249 17.813 A 18.661 18.661 0 0 1 0 14.688 A 20.268 20.268 0 0 1 0.301 11.118 A 15.326 15.326 0 0 1 1.368 7.578 Q 2.736 4.5 5.31 2.754 A 10.02 10.02 0 0 1 9.403 1.17 A 13.343 13.343 0 0 1 11.52 1.008 Q 13.86 1.008 15.696 1.584 Q 17.532 2.16 19.152 3.06 Z M 69.264 33.408 L 70.452 30.6 A 7.402 7.402 0 0 0 71.826 31.454 A 8.905 8.905 0 0 0 72.468 31.734 A 6.086 6.086 0 0 0 73.616 32.049 Q 74.371 32.184 75.276 32.184 A 7.812 7.812 0 0 0 76.904 32.024 Q 77.948 31.802 78.74 31.269 A 4.527 4.527 0 0 0 79.29 30.834 A 4.087 4.087 0 0 0 80.337 29.216 Q 80.581 28.554 80.68 27.732 A 10.023 10.023 0 0 0 80.748 26.532 L 80.748 24.228 A 5.687 5.687 0 0 1 80.029 24.941 Q 79.459 25.419 78.678 25.866 A 5.726 5.726 0 0 1 76.813 26.527 A 7.772 7.772 0 0 1 75.456 26.64 Q 73.332 26.64 71.424 25.542 A 8.005 8.005 0 0 1 68.799 23.08 A 9.877 9.877 0 0 1 68.328 22.32 A 9.065 9.065 0 0 1 67.352 19.575 A 12.612 12.612 0 0 1 67.14 17.208 A 11.542 11.542 0 0 1 67.47 14.397 A 9.605 9.605 0 0 1 68.31 12.204 A 9.254 9.254 0 0 1 70.493 9.46 A 8.801 8.801 0 0 1 71.46 8.748 Q 73.44 7.488 75.816 7.488 Q 77.4 7.488 78.696 8.028 A 9.254 9.254 0 0 1 80.074 8.737 A 7.559 7.559 0 0 1 80.928 9.36 L 80.928 7.92 L 83.88 7.92 L 83.88 26.208 A 14.65 14.65 0 0 1 83.753 28.2 Q 83.509 29.972 82.8 31.248 Q 81.72 33.192 79.794 34.092 Q 77.868 34.992 75.276 34.992 Q 73.62 34.992 72.054 34.596 Q 70.488 34.2 69.264 33.408 Z M 116.532 18.612 L 103.428 18.612 A 8.672 8.672 0 0 0 103.838 20.421 Q 104.267 21.643 105.063 22.509 A 5.393 5.393 0 0 0 105.264 22.716 A 5.092 5.092 0 0 0 108.009 24.088 A 7.208 7.208 0 0 0 109.26 24.192 Q 110.88 24.192 112.176 23.85 Q 113.472 23.508 114.66 22.968 L 115.416 25.74 A 14.677 14.677 0 0 1 113.856 26.325 A 18.671 18.671 0 0 1 112.5 26.694 A 14.009 14.009 0 0 1 110.667 26.989 A 18.729 18.729 0 0 1 108.864 27.072 A 10.194 10.194 0 0 1 106.076 26.71 A 7.599 7.599 0 0 1 102.474 24.498 Q 100.383 22.216 100.146 18.306 A 16.965 16.965 0 0 1 100.116 17.28 A 12.729 12.729 0 0 1 100.416 14.464 A 10.382 10.382 0 0 1 101.178 12.258 A 8.871 8.871 0 0 1 102.984 9.709 A 8.239 8.239 0 0 1 104.148 8.766 A 7.577 7.577 0 0 1 107.842 7.516 A 9.434 9.434 0 0 1 108.576 7.488 Q 111.019 7.488 112.711 8.446 A 6.197 6.197 0 0 1 113.058 8.658 Q 114.84 9.828 115.74 11.808 A 10.147 10.147 0 0 1 116.614 15.359 A 12.036 12.036 0 0 1 116.64 16.164 A 27.073 27.073 0 0 1 116.536 18.575 A 24.948 24.948 0 0 1 116.532 18.612 Z M 89.28 20.772 L 89.28 0 L 92.52 0 L 92.52 20.448 A 7.432 7.432 0 0 0 92.588 21.488 Q 92.754 22.663 93.33 23.328 A 2.651 2.651 0 0 0 94.98 24.219 A 3.861 3.861 0 0 0 95.58 24.264 Q 96.264 24.264 96.93 24.102 A 7.989 7.989 0 0 0 97.457 23.956 Q 97.709 23.876 97.925 23.785 A 4.299 4.299 0 0 0 98.064 23.724 L 98.856 26.352 A 6.534 6.534 0 0 1 98.279 26.574 Q 97.993 26.67 97.664 26.756 A 12.593 12.593 0 0 1 97.254 26.856 Q 96.3 27.072 95.148 27.072 A 7.51 7.51 0 0 1 93.388 26.873 A 6.316 6.316 0 0 1 92.16 26.442 Q 90.828 25.812 90.054 24.408 A 5.672 5.672 0 0 1 89.525 23.021 Q 89.28 22.028 89.28 20.772 Z M 30.118 26.59 A 9.797 9.797 0 0 0 33.228 27.072 A 11.061 11.061 0 0 0 34.047 27.042 A 9.093 9.093 0 0 0 37.998 25.848 Q 40.104 24.624 41.328 22.41 A 9.452 9.452 0 0 0 42.283 19.839 A 12.306 12.306 0 0 0 42.552 17.208 A 12.435 12.435 0 0 0 42.378 15.081 A 9.286 9.286 0 0 0 41.31 12.042 Q 40.068 9.864 37.962 8.676 A 8.945 8.945 0 0 0 36.291 7.946 A 9.986 9.986 0 0 0 33.228 7.488 A 11.277 11.277 0 0 0 32.659 7.502 A 9.421 9.421 0 0 0 28.476 8.676 Q 26.352 9.864 25.128 12.06 A 9.368 9.368 0 0 0 24.138 14.792 A 12.602 12.602 0 0 0 23.904 17.28 A 12.535 12.535 0 0 0 24 18.847 A 9.882 9.882 0 0 0 25.11 22.374 Q 26.316 24.588 28.44 25.83 A 8.841 8.841 0 0 0 30.118 26.59 Z M 51.646 26.59 A 9.797 9.797 0 0 0 54.756 27.072 A 11.061 11.061 0 0 0 55.575 27.042 A 9.093 9.093 0 0 0 59.526 25.848 Q 61.632 24.624 62.856 22.41 A 9.452 9.452 0 0 0 63.811 19.839 A 12.306 12.306 0 0 0 64.08 17.208 A 12.435 12.435 0 0 0 63.906 15.081 A 9.286 9.286 0 0 0 62.838 12.042 Q 61.596 9.864 59.49 8.676 A 8.945 8.945 0 0 0 57.819 7.946 A 9.986 9.986 0 0 0 54.756 7.488 A 11.277 11.277 0 0 0 54.187 7.502 A 9.421 9.421 0 0 0 50.004 8.676 Q 47.88 9.864 46.656 12.06 A 9.368 9.368 0 0 0 45.666 14.792 A 12.602 12.602 0 0 0 45.432 17.28 A 12.535 12.535 0 0 0 45.528 18.847 A 9.882 9.882 0 0 0 46.638 22.374 Q 47.844 24.588 49.968 25.83 A 8.841 8.841 0 0 0 51.646 26.59 Z M 33.228 24.192 A 6.747 6.747 0 0 0 35.11 23.943 A 5.04 5.04 0 0 0 37.656 22.266 A 6.769 6.769 0 0 0 39.031 19.354 A 9.758 9.758 0 0 0 39.24 17.28 A 7.695 7.695 0 0 0 38.799 14.657 A 7.205 7.205 0 0 0 38.448 13.842 A 6.911 6.911 0 0 0 36.946 11.837 A 6.541 6.541 0 0 0 36.306 11.322 Q 34.956 10.368 33.228 10.368 A 6.93 6.93 0 0 0 31.347 10.61 A 5.053 5.053 0 0 0 28.8 12.24 A 6.436 6.436 0 0 0 27.478 14.895 Q 27.216 15.95 27.216 17.208 Q 27.216 19.08 28.008 20.682 A 6.997 6.997 0 0 0 29.279 22.496 A 6.346 6.346 0 0 0 30.15 23.238 Q 31.5 24.192 33.228 24.192 Z M 54.756 24.192 A 6.747 6.747 0 0 0 56.638 23.943 A 5.04 5.04 0 0 0 59.184 22.266 A 6.769 6.769 0 0 0 60.559 19.354 A 9.758 9.758 0 0 0 60.768 17.28 A 7.695 7.695 0 0 0 60.327 14.657 A 7.205 7.205 0 0 0 59.976 13.842 A 6.911 6.911 0 0 0 58.474 11.837 A 6.541 6.541 0 0 0 57.834 11.322 Q 56.484 10.368 54.756 10.368 A 6.93 6.93 0 0 0 52.875 10.61 A 5.053 5.053 0 0 0 50.328 12.24 A 6.436 6.436 0 0 0 49.006 14.895 Q 48.744 15.95 48.744 17.208 Q 48.744 19.08 49.536 20.682 A 6.997 6.997 0 0 0 50.807 22.496 A 6.346 6.346 0 0 0 51.678 23.238 Q 53.028 24.192 54.756 24.192 Z M 80.64 21.6 L 80.64 11.808 Q 79.861 11.241 78.767 10.779 A 12.943 12.943 0 0 0 78.732 10.764 A 5.85 5.85 0 0 0 77.363 10.386 A 7.968 7.968 0 0 0 76.14 10.296 Q 74.664 10.296 73.368 11.088 A 5.665 5.665 0 0 0 71.64 12.754 A 7.062 7.062 0 0 0 71.262 13.374 Q 70.5 14.78 70.455 16.777 A 11.213 11.213 0 0 0 70.452 17.028 A 8.755 8.755 0 0 0 70.624 18.805 A 6.592 6.592 0 0 0 71.262 20.592 A 6.687 6.687 0 0 0 72.31 22.059 A 5.689 5.689 0 0 0 73.368 22.932 Q 74.664 23.76 76.176 23.76 A 5.499 5.499 0 0 0 77.824 23.519 A 4.898 4.898 0 0 0 78.768 23.112 Q 79.92 22.464 80.64 21.6 Z M 103.392 15.984 L 113.652 15.984 A 8.768 8.768 0 0 0 113.507 14.333 Q 113.206 12.767 112.284 11.772 A 4.496 4.496 0 0 0 109.778 10.413 A 6.622 6.622 0 0 0 108.504 10.296 A 4.889 4.889 0 0 0 106.664 10.633 A 4.509 4.509 0 0 0 105.048 11.754 A 5.459 5.459 0 0 0 103.99 13.442 Q 103.686 14.184 103.519 15.091 A 11.528 11.528 0 0 0 103.392 15.984 Z" vector-effect="non-scaling-stroke"/></g></svg>