<svg width="171" height="36" viewBox="0 0 171 36" fill="none" xmlns="http://www.w3.org/2000/svg">
<path d="M48.9329 19.3262C49.803 18.5417 50.3908 17.3769 50.7201 15.8081C50.8141 15.2613 50.8847 14.6671 50.8847 14.049C50.8847 13.3597 50.7436 12.6228 50.4614 11.8859C50.1087 10.9588 49.6383 10.4596 49.074 10.3408C48.2274 10.1744 47.4044 10.6498 46.6283 11.8146C45.9934 12.7179 45.5936 13.6687 45.382 14.6433C45.2644 15.19 45.2174 15.7843 45.2174 16.3786C45.2174 17.0679 45.3585 17.8048 45.6407 18.5417C45.9934 19.4688 46.4637 19.968 47.0281 20.0868C47.616 20.2057 48.2509 19.9442 48.9329 19.3262Z" fill="#888888"/>
<path d="M35.9762 15.8081C35.6469 17.3769 35.059 18.5417 34.189 19.3262C33.507 19.9442 32.8721 20.2057 32.2842 20.0868C31.7198 19.968 31.2495 19.4688 30.8968 18.5417C30.6146 17.8048 30.4735 17.0679 30.4735 16.3786C30.4735 15.7843 30.5205 15.19 30.6381 14.6433C30.8497 13.6687 31.2495 12.7179 31.8844 11.8146C32.6604 10.6498 33.4835 10.1744 34.3301 10.3408C34.8944 10.4596 35.3647 10.9588 35.7175 11.8859C35.9997 12.6228 36.1408 13.3597 36.1408 14.049C36.1408 14.6671 36.0937 15.2613 35.9762 15.8081Z" fill="#888888"/>
<path fill-rule="evenodd" clip-rule="evenodd" d="M5.59385 0.571045H52.4136C55.3766 0.571045 57.7752 2.99567 57.7752 5.99079V24.0566C57.7752 27.0518 55.3766 29.4764 52.4136 29.4764H35.6234L37.9279 35.1814L27.7927 29.4764H5.61737C2.65439 29.4764 0.255787 27.0518 0.255787 24.0566V5.99079C0.232271 3.01944 2.63087 0.571045 5.59385 0.571045ZM3.12473 5.49148C3.45395 5.03984 3.94778 4.80213 4.60622 4.75459C5.80552 4.6595 6.48748 5.23001 6.65209 6.46609C7.38107 11.4342 8.18061 15.6416 9.02717 19.0884L14.1771 9.17596C14.6474 8.27267 15.2353 7.79726 15.9408 7.74971C16.9755 7.6784 17.6104 8.34398 17.8691 9.74646C18.457 12.908 19.2095 15.5941 20.1031 17.8761C20.7145 11.8383 21.7492 7.48824 23.2071 4.80213C23.5599 4.13655 24.0772 3.80376 24.7592 3.75622C25.3 3.70867 25.7939 3.87507 26.2407 4.23163C26.6875 4.58819 26.9226 5.03984 26.9696 5.58657C26.9932 6.01444 26.9226 6.37101 26.7345 6.72757C25.8174 8.43907 25.0649 11.3153 24.4535 15.3088C23.8656 19.1835 23.6539 22.2024 23.795 24.3655C23.8421 24.9598 23.748 25.4828 23.5128 25.9344C23.2306 26.4574 22.8074 26.7426 22.2665 26.7902C21.6551 26.8377 21.0202 26.5524 20.4088 25.9106C18.2218 23.6524 16.4816 20.277 15.2118 15.7843C13.6833 18.8269 12.5545 21.1089 11.8255 22.6303C10.4381 25.3164 9.26233 26.6951 8.27467 26.7664C7.63975 26.8139 7.09889 26.2672 6.62857 25.1262C5.42927 22.0122 4.13591 15.9982 2.74848 7.08413C2.67794 6.46609 2.79551 5.91936 3.12473 5.49148ZM53.683 9.22355C52.8365 7.72598 51.5901 6.82269 49.9205 6.46613C49.4737 6.37104 49.0504 6.3235 48.6507 6.3235C46.3932 6.3235 44.5589 7.51204 43.1245 9.88913C41.9017 11.9096 41.2903 14.1441 41.2903 16.5925C41.2903 18.4229 41.6665 19.9917 42.419 21.2991C43.2656 22.7967 44.5119 23.7 46.1815 24.0565C46.6283 24.1516 47.0516 24.1992 47.4514 24.1992C49.7324 24.1992 51.5666 23.0106 52.9776 20.6336C54.2004 18.5893 54.8118 16.3548 54.8118 13.9064C54.8118 12.0523 54.4355 10.5072 53.683 9.22355ZM35.1766 6.46613C36.8227 6.82269 38.0926 7.72598 38.9391 9.22355C39.6916 10.5072 40.0679 12.0523 40.0679 13.9064C40.0679 16.3548 39.4565 18.5893 38.2337 20.6336C36.8227 23.0106 34.9885 24.1992 32.7075 24.1992C32.3077 24.1992 31.8844 24.1516 31.4376 24.0565C29.768 23.7 28.5217 22.7967 27.6751 21.2991C26.9226 19.9917 26.5464 18.4229 26.5464 16.5925C26.5464 14.1441 27.1578 11.9096 28.3806 9.88913C29.8151 7.51204 31.6493 6.3235 33.9068 6.3235C34.3065 6.3235 34.7298 6.37104 35.1766 6.46613Z" fill="#888888"/>
<path d="M61.3731 15.0002C61.3731 12.5755 62.1491 10.5788 63.7246 9.00992C65.3002 7.44105 67.2755 6.65661 69.6741 6.68038C70.5912 6.68038 71.4613 6.77547 72.2373 6.9894V10.8403C71.3907 10.6026 70.6147 10.4837 69.8857 10.4837C68.757 10.4837 67.8399 10.9116 67.0874 11.7911C66.3584 12.6469 65.9821 13.7641 65.9821 15.119C65.9821 16.569 66.3584 17.71 67.1109 18.5658C67.8634 19.3978 68.8511 19.8257 70.0974 19.8257C70.7088 19.8257 71.4143 19.7068 72.2373 19.4691V23.32C71.3437 23.5814 70.5207 23.7003 69.7917 23.7003C67.2755 23.7003 65.2532 22.8921 63.7011 21.2994C62.1491 19.7068 61.3731 17.5912 61.3731 15.0002Z" fill="#888888"/>
<path fill-rule="evenodd" clip-rule="evenodd" d="M74.9651 8.84352C76.1879 7.3935 77.8811 6.6566 80.0445 6.6566C82.3491 6.6566 84.1127 7.3935 85.3591 8.84352C86.5819 10.3173 87.1933 12.4092 87.1933 15.119C87.1933 17.8289 86.5819 19.9445 85.3826 21.4421C84.1833 22.9396 82.4666 23.7003 80.2326 23.7003C77.9281 23.7003 76.1644 22.9396 74.9651 21.4421C73.7658 19.9445 73.1544 17.7814 73.1544 14.9526C73.1544 12.3378 73.7423 10.2935 74.9651 8.84352ZM80.0445 20.0158C80.844 20.0158 81.479 19.683 81.9023 19.0174C82.3255 18.3519 82.5607 17.0207 82.5842 15.0715C82.5842 11.91 81.7376 10.3411 80.0916 10.3411C78.516 10.3411 77.74 11.8862 77.74 15.0002C77.74 17.0207 77.9281 18.3519 78.3279 19.0174C78.7276 19.683 79.292 20.0158 80.0445 20.0158Z" fill="#888888"/>
<path d="M97.9635 10.7452L98.81 7.10826H104.407L106.57 23.2962H102.29L101.138 12.1714L98.4573 23.2962H95.5414L92.743 12.1477L91.6377 23.2962H87.546L89.5919 7.10826H95.0475C95.8235 10.6026 96.435 13.5977 96.8818 16.1174L97.3521 13.5977C97.5402 12.6231 97.7518 11.6723 97.9635 10.7452Z" fill="#888888"/>
<path d="M117.552 10.7452L118.399 7.10826H123.972L126.135 23.2962H121.855L120.703 12.1714L118.046 23.2962H115.13L112.332 12.1477L111.226 23.2962H107.135L109.18 7.10826H114.636C115.412 10.6026 116.024 13.5977 116.47 16.1174L116.941 13.5977C117.129 12.6231 117.34 11.6723 117.552 10.7452Z" fill="#888888"/>
<path d="M135.542 16.9018H131.708V19.8732H136.153V23.32H127.382V7.13202H136.129V10.5788H131.708V13.5501H135.542V16.9018Z" fill="#888888"/>
<path fill-rule="evenodd" clip-rule="evenodd" d="M149.016 12.0526C149.016 12.837 148.781 13.5977 148.334 14.3346C147.887 15.0715 147.229 15.6182 146.406 15.9986L149.863 23.2962H145.301L141.797 15.9272H141.726V23.2962H137.399V7.10826H142.432C144.454 7.10826 146.077 7.5599 147.252 8.43942C148.428 9.31894 149.016 10.5313 149.016 12.0526ZM141.703 10.2222V14.0731C143.607 14.0493 144.572 13.4788 144.572 12.3616C144.572 11.6009 144.36 11.078 143.913 10.7452C143.466 10.4124 142.737 10.246 141.703 10.2222Z" fill="#888888"/>
<path d="M149.204 15.0002C149.204 12.5755 149.98 10.5788 151.556 9.00992C153.131 7.44105 155.13 6.65661 157.505 6.68038C158.422 6.68038 159.292 6.77547 160.068 6.9894V10.8403C159.222 10.6026 158.446 10.4837 157.717 10.4837C156.588 10.4837 155.671 10.9116 154.918 11.7911C154.189 12.6469 153.813 13.7641 153.813 15.119C153.813 16.569 154.189 17.71 154.942 18.5658C155.694 19.3978 156.682 19.8257 157.928 19.8257C158.54 19.8257 159.245 19.7068 160.068 19.4691V23.32C159.175 23.5814 158.352 23.7003 157.623 23.7003C155.107 23.7003 153.084 22.8921 151.532 21.2994C149.98 19.7068 149.204 17.5912 149.204 15.0002Z" fill="#888888"/>
<path d="M165.595 16.8781V19.8494H170.063V23.2962H161.291V7.10826H170.039V10.555H165.595V13.5264H169.428V16.8781H165.595Z" fill="#888888"/>
</svg>
