<svg width="132" height="40" viewBox="0 0 132 40" fill="none" xmlns="http://www.w3.org/2000/svg">
<path d="M75.9829 1.84468V4.83707C75.991 5.03774 76.0775 5.22722 76.2238 5.36479C76.3701 5.50236 76.5646 5.57705 76.7654 5.57281H83.716L75.7076 17.0331C75.2013 17.7698 75.2013 18.5978 75.2013 19.0581V22.0955C75.2013 22.5558 75.7073 23.0159 76.1676 22.7858C80.6779 20.3464 86.155 20.5765 90.2513 22.7398C90.7572 23.0156 91.2175 22.5097 91.2175 22.0494V18.8737C91.1713 18.4595 91.0333 17.9992 90.5271 17.723C88.2262 16.4347 85.5104 16.0666 82.9329 16.1126L89.8366 6.26318C90.481 5.34232 90.8492 4.7903 90.8492 4.37608V1.84468C90.8412 1.64389 90.7548 1.45424 90.6085 1.31652C90.4621 1.1788 90.2676 1.10401 90.0667 1.10824H76.7193C76.6212 1.10301 76.5231 1.11848 76.4314 1.15364C76.3397 1.1888 76.2564 1.24286 76.1869 1.31232C76.1175 1.38177 76.0634 1.46507 76.0283 1.55678C75.9931 1.6485 75.9776 1.74659 75.9829 1.84468Z" fill="#888888"/>
<path d="M23.284 23.3845H27.3342C27.533 23.3915 27.7275 23.3251 27.8804 23.1978C28.0332 23.0704 28.1337 22.8911 28.1626 22.6943V11.6481C28.1626 11.5759 28.1626 11.503 28.1625 11.4295C28.1598 9.0156 28.1564 5.89489 30.9702 5.89489C33.5394 5.89489 33.4969 8.69319 33.4629 10.9305C33.4592 11.1781 33.4555 11.4188 33.4555 11.6481V22.6943C33.4555 23.0625 33.7777 23.3846 34.192 23.4307H38.2422C38.4431 23.4349 38.6376 23.3601 38.7839 23.2224C38.9302 23.0847 39.0166 22.895 39.0246 22.6943V11.6481C39.0246 11.5426 39.0242 11.4329 39.0238 11.3197C39.02 10.1486 39.015 8.60916 39.3927 7.64392C39.589 7.15311 39.9244 6.73039 40.3579 6.42781C40.7913 6.12524 41.3037 5.95601 41.8321 5.94096C43.0288 5.94096 43.9034 6.35518 44.2254 7.73592C44.3698 8.38604 44.3443 9.88646 44.3266 10.9249C44.3217 11.2097 44.3174 11.4598 44.3174 11.6481V22.6943C44.3174 23.0625 44.6397 23.3846 45.0539 23.4307H49.0586C49.2595 23.4349 49.454 23.3601 49.6003 23.2224C49.7466 23.0847 49.833 22.895 49.841 22.6943V9.53102C49.841 9.19562 49.847 8.85411 49.8532 8.50997C49.8884 6.54013 49.9251 4.48427 48.8284 2.99548C47.6777 1.38452 45.8367 0.694155 44.1337 0.694155C41.7401 0.694155 39.4846 1.93682 38.5183 4.56023C37.4136 1.93682 35.8028 0.694155 33.2714 0.694155C30.7861 0.694155 28.8987 1.93682 27.9324 4.56023H27.8404V1.84468C27.8256 1.65861 27.7419 1.48476 27.6057 1.3571C27.4695 1.22943 27.2906 1.15713 27.104 1.15431H23.3299C23.129 1.15011 22.9345 1.22492 22.7882 1.36264C22.6419 1.50035 22.5555 1.68998 22.5475 1.89075V22.6941C22.5775 22.8741 22.6659 23.0392 22.7989 23.1639C22.932 23.2887 23.1025 23.3662 23.284 23.3845Z" fill="#888888"/>
<path fill-rule="evenodd" clip-rule="evenodd" d="M111.653 12.4306C111.653 5.84896 108.385 0.694155 102.355 0.694155C96.4642 0.694155 93.1963 5.75682 93.2424 12.2464C93.2424 18.69 96.4642 23.8448 102.355 23.8448C108.063 23.8448 111.653 18.7821 111.653 12.4306ZM99.1797 11.6021C99.1797 9.07073 99.3637 4.97444 102.355 4.97444C103.644 4.97444 104.565 5.5266 105.025 6.99948C105.531 8.65651 105.623 10.7736 105.623 12.5226C105.623 15.1921 105.439 19.5645 102.309 19.5645C99.1777 19.5645 99.179 14.2833 99.1797 11.7092L99.1797 11.6021Z" fill="#888888"/>
<path d="M115.381 23.3845H119.431C119.635 23.3826 119.831 23.3074 119.983 23.172C120.135 23.0366 120.233 22.8506 120.259 22.6485V11.4177C120.259 9.9909 120.351 8.74781 120.903 7.4595C121.364 6.44677 122.284 5.80261 123.251 5.80261C125.832 5.80261 125.806 8.60551 125.786 10.8459C125.784 11.0416 125.782 11.2331 125.782 11.418V22.7399C125.828 23.062 126.15 23.338 126.518 23.3841H130.569C130.756 23.3924 130.939 23.3311 131.084 23.2122C131.228 23.0932 131.324 22.925 131.351 22.7399V9.62275C131.351 7.59757 131.351 4.79002 130.293 3.13313C129.142 1.33789 127.347 0.693732 125.552 0.693732C122.745 0.693732 121.18 2.0284 120.029 4.88203H119.937V1.70632C119.896 1.54004 119.802 1.39166 119.669 1.28367C119.536 1.17568 119.372 1.11399 119.201 1.10796H115.427C115.235 1.10941 115.05 1.18006 114.906 1.30691C114.763 1.43376 114.669 1.60827 114.644 1.79832V22.6481C114.644 23.0163 114.966 23.3384 115.381 23.3845Z" fill="#888888"/>
<path fill-rule="evenodd" clip-rule="evenodd" d="M68.9793 23.54C69.1526 23.5235 69.3164 23.4531 69.4476 23.3386L69.4491 23.3384C69.7432 23.0933 70.1185 22.7729 70.5194 22.4305C71.2478 21.8085 72.0608 21.1142 72.6248 20.6689C72.9469 20.4389 72.901 19.9786 72.6248 19.6104C72.5361 19.4829 72.4467 19.3587 72.3581 19.2356C71.7112 18.3369 71.106 17.4961 71.106 15.8364V9.53089C71.106 9.32017 71.1072 9.11058 71.1083 8.90237C71.1216 6.47355 71.1339 4.23072 69.3111 2.53505C67.7462 1.01623 65.1688 0.51001 63.1897 0.51001C59.3237 0.51001 55.0432 1.93682 54.1228 6.72348C54.0308 7.22984 54.3991 7.45992 54.7212 7.55192L58.6333 7.96614C59.0016 7.96614 59.2317 7.59785 59.3237 7.2297C59.6459 5.57267 61.0266 4.7903 62.5915 4.7903C63.4193 4.7903 64.3398 5.11238 64.8461 5.84882C65.375 6.58127 65.3643 7.5658 65.3548 8.4519C65.3535 8.56804 65.3523 8.68248 65.3523 8.79445V9.30067C64.9707 9.34557 64.5696 9.38805 64.1559 9.43186C62.0256 9.65746 59.5621 9.91836 57.7122 10.7275C55.18 11.8322 53.3851 14.0414 53.3851 17.3552C53.3851 21.5435 56.0546 23.6606 59.4605 23.6606C62.314 23.6606 63.9249 22.9696 66.1341 20.715C66.2417 20.8696 66.3394 21.0134 66.4321 21.1497C66.9741 21.9467 67.3416 22.4873 68.4814 23.4306C68.6318 23.5183 68.8059 23.5565 68.9793 23.54ZM65.3516 13.6903C65.3514 13.6086 65.3513 13.5262 65.3513 13.4432V12.5694C62.4057 12.5694 59.322 13.2138 59.322 16.6656C59.322 18.4147 60.2424 19.6113 61.8073 19.6113C62.958 19.6113 63.9707 18.9209 64.6149 17.7702C65.3559 16.4185 65.3539 15.1499 65.3516 13.6903Z" fill="#888888"/>
<path fill-rule="evenodd" clip-rule="evenodd" d="M15.7738 23.54C15.9471 23.5235 16.1109 23.4531 16.2421 23.3386L16.2436 23.3384C16.5377 23.0933 16.913 22.7729 17.3139 22.4305C18.0423 21.8085 18.8552 21.1142 19.4193 20.6689C19.7414 20.4389 19.6955 19.9786 19.4193 19.6104C19.3306 19.4829 19.2412 19.3587 19.1526 19.2356C18.5057 18.3369 17.9005 17.4961 17.9005 15.8364V9.53089C17.9005 9.32017 17.9017 9.11059 17.9028 8.90238C17.9161 6.47355 17.9284 4.23072 16.1055 2.53505C14.5407 1.01623 11.9633 0.51001 9.98422 0.51001C6.11815 0.51001 1.83771 1.93682 0.917268 6.72348C0.825265 7.22984 1.19355 7.45992 1.51563 7.55192L5.42778 7.96614C5.79607 7.96614 6.02614 7.59785 6.11815 7.2297C6.44037 5.57267 7.8211 4.7903 9.38599 4.7903C10.2137 4.7903 11.1343 5.11238 11.6405 5.84882C12.1694 6.58127 12.1588 7.56581 12.1493 8.4519C12.148 8.56804 12.1468 8.68248 12.1468 8.79445V9.30067C11.7652 9.34557 11.3641 9.38805 10.9504 9.43186C8.82008 9.65746 6.35659 9.91836 4.50663 10.7275C1.97453 11.8322 0.179565 14.0414 0.179565 17.3552C0.179565 21.5435 2.84904 23.6606 6.25496 23.6606C9.10844 23.6606 10.7194 22.9696 12.9286 20.715C13.0362 20.8696 13.1339 21.0134 13.2266 21.1497C13.7685 21.9467 14.1361 22.4873 15.2758 23.4306C15.4263 23.5183 15.6004 23.5565 15.7738 23.54ZM12.1921 13.6904C12.192 13.6086 12.1919 13.5262 12.1919 13.4432V12.5694C9.24624 12.5694 6.16254 13.2138 6.16254 16.6656C6.16254 18.4147 7.08298 19.6113 8.64787 19.6113C9.79853 19.6113 10.8113 18.9209 11.4554 17.7702C12.1964 16.4185 12.1944 15.1499 12.1921 13.6904Z" fill="#888888"/>
<path d="M84.7271 27.7569C83.7609 26.5143 78.2836 27.1586 75.8443 27.4808C75.1078 27.5728 74.9698 26.9285 75.6601 26.4682C80.0326 23.3845 87.1665 24.3049 87.9949 25.3175C88.8234 26.3301 87.7649 33.5095 83.6679 36.9159C83.0237 37.4221 82.4252 37.146 82.7016 36.4556L82.7498 36.3352C83.6924 33.9808 85.6771 29.0232 84.7271 27.7569Z" fill="#888888"/>
<path d="M81.5516 31.3932C73.9574 37.0086 62.9114 40 53.3841 40C40.0367 40 28.0702 35.0753 18.9572 26.8829C18.2668 26.2387 18.8652 25.364 19.7396 25.8703C29.543 31.5774 41.6477 34.9833 54.1665 34.9833C62.5891 34.9833 71.8862 33.2344 80.4469 29.5983C81.7352 29.092 82.7943 30.4728 81.5516 31.3932Z" fill="#888888"/>
</svg>
