<svg width="170" height="29" viewBox="0 0 170 29" fill="none" xmlns="http://www.w3.org/2000/svg">
<g opacity="0.8">
<path d="M69.4513 8.82594H64.2563C64.176 8.82528 64.0967 8.84464 64.0257 8.88227C63.9547 8.9199 63.8942 8.97461 63.8497 9.04147L59.9864 14.7855L56.1232 9.04147C56.0785 8.97474 56.018 8.92013 55.947 8.88252C55.876 8.8449 55.7969 8.82547 55.7165 8.82594H50.5764C50.4881 8.82542 50.4014 8.84896 50.3255 8.89403C50.2495 8.9391 50.1873 9.00401 50.1455 9.08177C50.1037 9.15954 50.0839 9.24723 50.0881 9.33542C50.0924 9.42361 50.1206 9.50897 50.1698 9.58232L56.357 18.7605L50.0417 27.5362C49.9891 27.6084 49.9576 27.6938 49.9506 27.7829C49.9436 27.872 49.9614 27.9613 50.002 28.0409C50.0427 28.1205 50.1045 28.1872 50.1808 28.2338C50.2571 28.2804 50.3447 28.3049 50.4341 28.3047H55.6739C55.7511 28.3049 55.8272 28.2866 55.8959 28.2512C55.9645 28.2158 56.0237 28.1644 56.0683 28.1014L60.0312 22.5384L63.994 28.1014C64.0388 28.1643 64.0979 28.2156 64.1666 28.251C64.2352 28.2863 64.3113 28.3048 64.3885 28.3047H69.5937C69.683 28.3049 69.7707 28.2804 69.847 28.2338C69.9232 28.1872 69.9851 28.1205 70.0257 28.0409C70.0664 27.9613 70.0842 27.872 70.0772 27.7829C70.0702 27.6938 70.0387 27.6084 69.9861 27.5362L63.6707 18.7605L69.8539 9.58232C69.9029 9.50925 69.9311 9.42427 69.9355 9.33643C69.9399 9.2486 69.9205 9.16121 69.8791 9.08357C69.8378 9.00594 69.7762 8.94097 69.7009 8.8956C69.6255 8.85023 69.5393 8.82616 69.4513 8.82594Z" fill="#888888"/>
<path d="M81.224 20.436V13.5005H85.4939C85.6225 13.5005 85.7458 13.4496 85.8368 13.3589C85.9279 13.2682 85.9793 13.1451 85.9799 13.0166V9.31194C85.9799 9.18306 85.9287 9.05945 85.8376 8.96832C85.7464 8.87719 85.6228 8.82599 85.4939 8.82599H81.224V3.89529C81.2235 3.76676 81.1721 3.64368 81.081 3.55299C80.9899 3.46229 80.8666 3.41138 80.7381 3.41138H76.3117C76.1828 3.41138 76.0592 3.46257 75.968 3.55371C75.8769 3.64484 75.8257 3.76845 75.8257 3.89733C75.8257 9.38718 76.2771 8.82599 72.2817 8.82599C72.1989 8.82572 72.1169 8.84176 72.0403 8.87319C71.9638 8.90462 71.8941 8.95082 71.8354 9.00917C71.7767 9.06751 71.73 9.13684 71.6981 9.21322C71.6662 9.28959 71.6496 9.3715 71.6494 9.45427V12.8722C71.6494 12.9549 71.6657 13.0368 71.6974 13.1131C71.7291 13.1895 71.7755 13.2588 71.8341 13.3172C71.8926 13.3756 71.9621 13.4218 72.0386 13.4533C72.1151 13.4847 72.197 13.5008 72.2797 13.5005H75.8277V21.4872C75.8277 26.239 79.1725 28.5386 83.3509 28.5386C84.3771 28.5609 85.402 28.4522 86.4008 28.2153C86.5056 28.1884 86.5986 28.1275 86.6651 28.0421C86.7317 27.9568 86.7682 27.8518 86.7688 27.7436V24.0471C86.7681 23.973 86.7505 23.9001 86.7174 23.8338C86.6843 23.7676 86.6365 23.7097 86.5777 23.6647C86.519 23.6196 86.4507 23.5885 86.3781 23.5737C86.3055 23.559 86.2305 23.5609 86.1588 23.5794C85.635 23.6968 85.0994 23.7527 84.5627 23.7462C82.2407 23.7462 81.224 22.8109 81.224 20.436Z" fill="#888888"/>
<path d="M103.332 11.0079C102.466 9.76145 100.38 8.39712 97.6651 8.39712C92.4315 8.39712 88.4178 13.033 88.4178 18.5635C88.4178 24.094 92.4315 28.7299 97.6651 28.7299C100.38 28.7299 102.466 27.3656 103.332 26.1192V27.6705C103.332 27.7533 103.348 27.8353 103.38 27.9118C103.412 27.9882 103.458 28.0577 103.516 28.1162C103.575 28.1748 103.645 28.2212 103.721 28.2529C103.797 28.2846 103.879 28.3009 103.962 28.3009H108.232C108.361 28.3009 108.485 28.2497 108.576 28.1585C108.667 28.0674 108.718 27.9438 108.718 27.8149V1.057C108.718 0.928115 108.667 0.804511 108.576 0.713377C108.485 0.622243 108.361 0.571045 108.232 0.571045H103.816C103.752 0.571044 103.689 0.583627 103.63 0.608074C103.571 0.63252 103.518 0.668346 103.473 0.713498C103.428 0.758649 103.392 0.812237 103.368 0.871184C103.344 0.930131 103.332 0.993278 103.332 1.057V11.0079ZM98.8058 23.8643C95.8555 23.8643 93.8487 21.6033 93.8487 18.5655C93.8487 15.5278 95.8555 13.2668 98.8058 13.2668C101.756 13.2668 103.763 15.5258 103.763 18.5655C103.763 21.6053 101.76 23.8643 98.8058 23.8643Z" fill="#888888"/>
<path d="M167.744 8.59242C165.54 8.59242 163.533 10.034 162.864 11.9433V9.3122C162.864 9.18332 162.813 9.05971 162.722 8.96858C162.631 8.87745 162.507 8.82625 162.378 8.82625H157.958C157.829 8.82625 157.705 8.87745 157.614 8.96858C157.523 9.05971 157.472 9.18332 157.472 9.3122V27.815C157.472 27.9439 157.523 28.0675 157.614 28.1586C157.705 28.2498 157.829 28.301 157.958 28.301H162.378C162.507 28.301 162.631 28.2498 162.722 28.1586C162.813 28.0675 162.864 27.9439 162.864 27.815V18.9906C162.864 15.7963 164.556 13.8078 167.114 13.8078C167.732 13.808 168.348 13.8914 168.944 14.0558C169.015 14.0752 169.091 14.0778 169.164 14.0633C169.237 14.0489 169.305 14.0179 169.364 13.9727C169.423 13.9274 169.471 13.8692 169.504 13.8025C169.537 13.7359 169.554 13.6625 169.554 13.5882V9.20444C169.553 9.09183 169.514 8.98285 169.442 8.89582C169.371 8.8088 169.272 8.74905 169.161 8.72662C168.695 8.63086 168.22 8.58587 167.744 8.59242Z" fill="#888888"/>
<path d="M121.747 8.39722C116.04 8.39722 111.398 12.8704 111.398 18.5636C111.398 24.2568 116.04 28.73 121.747 28.73C127.455 28.73 132.095 24.2568 132.095 18.5636C132.095 12.8704 127.453 8.39722 121.747 8.39722ZM121.747 23.7464C118.913 23.7464 116.829 21.5647 116.829 18.5656C116.829 15.5666 118.913 13.3848 121.747 13.3848C124.582 13.3848 126.627 15.5666 126.627 18.5656C126.627 21.5647 124.58 23.7464 121.747 23.7464Z" fill="#888888"/>
<path d="M144.459 8.39722C138.754 8.39722 134.11 12.8704 134.11 18.5636C134.11 24.2568 138.754 28.73 144.459 28.73C150.164 28.73 154.808 24.2568 154.808 18.5636C154.808 12.8704 150.152 8.39722 144.459 8.39722ZM144.459 23.7464C141.625 23.7464 139.54 21.5647 139.54 18.5656C139.54 15.5666 141.612 13.3848 144.459 13.3848C147.306 13.3848 149.339 15.5666 149.339 18.5656C149.339 21.5647 147.281 23.7464 144.459 23.7464Z" fill="#888888"/>
<path d="M17.2816 8.16309C13.6583 8.16309 10.5718 9.82631 8.83942 12.372C8.69506 12.5753 8.44903 13.0368 8.11964 13.0389C6.53572 13.0511 6.43812 11.0971 6.38729 9.35459C6.38157 9.22978 6.32819 9.11192 6.23816 9.0253C6.14813 8.93867 6.02831 8.88987 5.90337 8.88896L1.3163 8.85847C1.25153 8.85846 1.1874 8.87134 1.12766 8.89637C1.06791 8.9214 1.01376 8.95808 0.968335 9.00426C0.922914 9.05044 0.887137 9.1052 0.863097 9.16534C0.839058 9.22549 0.827235 9.28982 0.828315 9.35459C0.929979 13.6102 1.71279 16.5016 6.87121 17.6524C7.00866 17.6843 7.13111 17.7621 7.21835 17.873C7.30559 17.9839 7.35241 18.1213 7.35106 18.2624V27.8188C7.35106 27.8824 7.36366 27.9454 7.38813 28.0041C7.4126 28.0629 7.44846 28.1162 7.49364 28.161C7.53882 28.2058 7.59242 28.2412 7.65136 28.2651C7.71029 28.2891 7.7734 28.3012 7.83702 28.3007H12.296C12.4249 28.3007 12.5485 28.2495 12.6396 28.1583C12.7307 28.0672 12.7819 27.9436 12.7819 27.8147V17.9472C12.7819 15.7533 14.3374 13.2707 17.2877 13.2707C20.0956 13.2707 21.7914 15.7594 21.7914 17.9472V27.8188C21.7914 27.9476 21.8426 28.0713 21.9337 28.1624C22.0249 28.2535 22.1485 28.3047 22.2773 28.3047H26.7323C26.8608 28.3042 26.9839 28.2527 27.0746 28.1617C27.1653 28.0706 27.2162 27.9473 27.2162 27.8188V17.2152C27.2141 12.1442 22.8873 8.16309 17.2816 8.16309Z" fill="#888888"/>
<path d="M39.8286 8.39722C33.8467 8.39722 29.4792 12.7993 29.4792 18.5636C29.4792 24.7183 34.0439 28.6222 39.9058 28.73C44.5092 28.8154 47.5733 26.1803 48.3012 25.2571C48.3398 25.206 48.3677 25.1477 48.3834 25.0857C48.3991 25.0236 48.4022 24.959 48.3925 24.8957C48.3828 24.8325 48.3606 24.7717 48.3271 24.7172C48.2936 24.6626 48.2496 24.6153 48.1975 24.578L45.1374 22.1869C44.804 21.8555 44.5458 22.0344 44.3465 22.1971C43.8565 22.5936 42.9232 23.7383 39.9465 23.8603C37.35 23.966 35.026 22.4187 34.7128 19.808H48.9824C49.1056 19.8072 49.2241 19.7598 49.3138 19.6753C49.4036 19.5908 49.4581 19.4755 49.4663 19.3525C49.507 18.7771 49.507 18.3521 49.507 17.978C49.5049 11.6708 44.9829 8.39722 39.8286 8.39722ZM34.908 16.1887C35.4204 13.8118 37.6631 12.7993 39.67 12.7993C41.6768 12.7993 43.645 13.8911 44.1167 16.1887H34.908Z" fill="#888888"/>
</g>
</svg>
