<svg width="44" height="42" viewBox="0 0 44 42" fill="none" xmlns="http://www.w3.org/2000/svg">
<path d="M42.6559 20.5852L35.6703 15.2755L42.6774 9.90285C42.9547 9.69044 43.1742 9.41472 43.3166 9.09998C43.4591 8.78524 43.52 8.44114 43.4942 8.09797C43.46 7.7561 43.3452 7.42661 43.1587 7.13532C42.9722 6.84403 42.7192 6.59886 42.4195 6.41901L31.3715 0.269836C30.9835 0.0567072 30.5373 -0.0335332 30.0945 0.0115794C29.6517 0.0566919 29.2342 0.234931 28.8996 0.52168L22 6.39803L15.1004 0.52168C14.7658 0.234931 14.3483 0.0566919 13.9055 0.0115794C13.4627 -0.0335332 13.0165 0.0567072 12.6285 0.269836L1.58049 6.41901C1.28076 6.59886 1.02775 6.84403 0.841294 7.13532C0.654838 7.42661 0.54 7.7561 0.50578 8.09797C0.479955 8.44114 0.540943 8.78524 0.683375 9.09998C0.825807 9.41472 1.04531 9.69044 1.32256 9.90285L8.32968 15.2755L1.34405 20.5013C1.06288 20.7114 0.839228 20.9861 0.692985 21.301C0.546741 21.6159 0.482435 21.9612 0.50578 22.3061C0.529596 22.6507 0.640144 22.9843 0.827618 23.2771C1.01509 23.57 1.27369 23.8132 1.58049 23.9851L8.91002 28.1825V33.3663C8.91155 33.7249 9.00719 34.0772 9.18781 34.3895C9.36842 34.7018 9.62799 34.9637 9.94174 35.1502L20.8823 41.7191C21.2091 41.9033 21.5797 42.0002 21.957 42.0002C22.3343 42.0002 22.705 41.9033 23.0317 41.7191L33.9723 35.1502C34.286 34.9637 34.5456 34.7018 34.7262 34.3895C34.9068 34.0772 35.0025 33.7249 35.004 33.3663V28.1615L42.3335 24.069C42.6403 23.8971 42.8989 23.654 43.0864 23.3611C43.2739 23.0682 43.3844 22.7347 43.4082 22.3901C43.4417 22.0523 43.3907 21.7116 43.2596 21.3972C43.1286 21.0829 42.9215 20.8042 42.6559 20.5852ZM30.5977 4.65611L37.5403 8.51771L32.0593 12.7151L25.611 8.8535L30.5977 4.65611ZM28.2548 15.4014L22 19.5988L15.7452 15.4014L22 11.6448L28.2548 15.4014ZM6.50267 8.51771L13.4023 4.65611L18.3675 8.8535L11.9192 12.7151L6.50267 8.51771ZM6.50267 21.9284L11.8762 17.8989L18.3245 22.2642L13.5528 25.8949L6.50267 21.9284ZM30.7696 32.128L22 37.4167L13.2089 32.128V30.4491C13.5229 30.5243 13.8503 30.5295 14.1666 30.4641C14.4829 30.3987 14.7801 30.2644 15.0359 30.0713L22 24.8246L28.9641 30.0713C29.3393 30.3556 29.8004 30.5106 30.2753 30.512C30.4466 30.5323 30.6198 30.5323 30.7911 30.512L30.7696 32.128ZM30.4472 25.8319L25.654 22.2642L32.1023 17.8989L37.4973 21.9703L30.4472 25.8319Z" fill="#383B3F"/>
</svg>
