<svg width="36" height="36" viewBox="0 0 36 36" fill="none" xmlns="http://www.w3.org/2000/svg">
<path d="M30.6 0.000244141H5.4C3.96831 0.00180689 2.59571 0.571236 1.58335 1.58359C0.570992 2.59595 0.00156275 3.96855 0 5.40024V30.6002C0.00156275 32.0319 0.570992 33.4045 1.58335 34.4169C2.59571 35.4293 3.96831 35.9987 5.4 36.0002H30.6C32.0317 35.9987 33.4043 35.4293 34.4166 34.4169C35.429 33.4045 35.9984 32.0319 36 30.6002V5.40024C35.9984 3.96855 35.429 2.59595 34.4166 1.58359C33.4043 0.571236 32.0317 0.00180689 30.6 0.000244141ZM27 10.8002C24.0135 10.8002 21.8584 14.7193 19.5768 18.8677C16.8908 23.7509 14.1135 28.8002 9 28.8002C8.52261 28.8002 8.06477 28.6106 7.72721 28.273C7.38964 27.9355 7.2 27.4776 7.2 27.0002C7.2 26.5229 7.38964 26.065 7.72721 25.7274C8.06477 25.3899 8.52261 25.2002 9 25.2002C11.9865 25.2002 14.1416 21.2812 16.4232 17.1328C19.1092 12.2496 21.8865 7.20024 27 7.20024C27.4774 7.20024 27.9352 7.38989 28.2728 7.72745C28.6104 8.06502 28.8 8.52285 28.8 9.00024C28.8 9.47763 28.6104 9.93547 28.2728 10.273C27.9352 10.6106 27.4774 10.8002 27 10.8002Z" fill="#383B3F"/>
</svg>
