<svg width="36" height="36" viewBox="0 0 36 36" fill="none" xmlns="http://www.w3.org/2000/svg">
<path d="M0.5 22.8062C0.5 23.761 0.868749 24.6767 1.52513 25.3518C2.1815 26.027 3.07174 26.4062 4 26.4062C4.92826 26.4062 5.8185 26.027 6.47487 25.3518C7.13125 24.6767 7.5 23.761 7.5 22.8062V19.2062H4C3.07174 19.2062 2.1815 19.5855 1.52513 20.2607C0.868749 20.9358 0.5 21.8515 0.5 22.8062ZM22.62 16.7942C23.5483 16.7942 24.4385 16.415 25.0949 15.7398C25.7513 15.0647 26.12 14.149 26.12 13.1942V3.60024C26.12 2.64546 25.7513 1.72979 25.0949 1.05466C24.4385 0.379529 23.5483 0.000244141 22.62 0.000244141C21.6917 0.000244141 20.8015 0.379529 20.1451 1.05466C19.4887 1.72979 19.12 2.64546 19.12 3.60024V13.1942C19.12 13.67 19.2117 14.1411 19.3897 14.5803C19.5678 15.0194 19.8287 15.4179 20.1575 15.7526C20.4862 16.0874 20.8762 16.3518 21.3049 16.5306C21.7335 16.7094 22.1924 16.799 22.655 16.7942H22.62ZM35.43 13.1942C35.43 12.2395 35.0613 11.3238 34.4049 10.6487C33.7485 9.97353 32.8583 9.59424 31.93 9.59424C31.0017 9.59424 30.1115 9.97353 29.4551 10.6487C28.7987 11.3238 28.43 12.2395 28.43 13.1942V16.7942H31.93C32.3955 16.8038 32.8581 16.7178 33.2909 16.5412C33.7236 16.3645 34.1178 16.1009 34.4502 15.7656C34.7827 15.4304 35.0468 15.0303 35.227 14.5887C35.4073 14.1472 35.5001 13.6731 35.5 13.1942H35.43ZM13.345 19.2062C12.4167 19.2062 11.5265 19.5855 10.8701 20.2607C10.2137 20.9358 9.845 21.8515 9.845 22.8062V32.4002C9.845 33.355 10.2137 34.2707 10.8701 34.9458C11.5265 35.621 12.4167 36.0002 13.345 36.0002C14.2733 36.0002 15.1635 35.621 15.8199 34.9458C16.4763 34.2707 16.845 33.355 16.845 32.4002V22.8062C16.845 21.8515 16.4763 20.9358 15.8199 20.2607C15.1635 19.5855 14.2733 19.2062 13.345 19.2062ZM22.655 28.8002H19.155V32.4002C19.155 33.1123 19.3603 33.8083 19.7449 34.4003C20.1294 34.9923 20.6761 35.4537 21.3156 35.7262C21.9552 35.9987 22.6589 36.07 23.3378 35.9311C24.0167 35.7922 24.6404 35.4493 25.1299 34.9458C25.6194 34.4424 25.9527 33.8009 26.0877 33.1026C26.2228 32.4042 26.1535 31.6804 25.8886 31.0226C25.6237 30.3648 25.1751 29.8025 24.5995 29.407C24.0239 29.0114 23.3472 28.8002 22.655 28.8002ZM32 19.2062H22.655C21.7267 19.2062 20.8365 19.5855 20.1801 20.2607C19.5238 20.9358 19.155 21.8515 19.155 22.8062C19.155 23.761 19.5238 24.6767 20.1801 25.3518C20.8365 26.027 21.7267 26.4062 22.655 26.4062H32C32.9283 26.4062 33.8185 26.027 34.4749 25.3518C35.1312 24.6767 35.5 23.761 35.5 22.8062C35.5 21.8515 35.1312 20.9358 34.4749 20.2607C33.8185 19.5855 32.9283 19.2062 32 19.2062ZM13.345 9.59424H4C3.07174 9.59424 2.1815 9.97353 1.52513 10.6487C0.868749 11.3238 0.5 12.2395 0.5 13.1942C0.5 14.149 0.868749 15.0647 1.52513 15.7398C2.1815 16.415 3.07174 16.7942 4 16.7942H13.345C14.2733 16.7942 15.1635 16.415 15.8199 15.7398C16.4763 15.0647 16.845 14.149 16.845 13.1942C16.845 12.2395 16.4763 11.3238 15.8199 10.6487C15.1635 9.97353 14.2733 9.59424 13.345 9.59424ZM13.345 0.000244141C12.4167 0.000244141 11.5265 0.379529 10.8701 1.05466C10.2137 1.72979 9.845 2.64546 9.845 3.60024C9.845 4.55502 10.2137 5.4707 10.8701 6.14583C11.5265 6.82096 12.4167 7.20024 13.345 7.20024H16.845V3.60024C16.845 2.64546 16.4763 1.72979 15.8199 1.05466C15.1635 0.379529 14.2733 0.000244141 13.345 0.000244141Z" fill="#383B3F"/>
</svg>
