<svg width="39" height="46" viewBox="0 0 39 46" fill="none" xmlns="http://www.w3.org/2000/svg">
<path d="M38.6969 16.2269C38.0411 12.4896 36.3247 9.02611 33.7569 6.25866C32.6626 5.06494 31.4235 4.0159 30.0692 3.13646C27.5763 1.50158 24.7439 0.471047 21.7928 0.125134C21.4263 0.105041 21.0613 0.0633405 20.6996 0.000244141H18.1205C18.0926 0.0660931 18.0328 0.042081 17.9853 0.046566C17.3212 0.105814 16.6603 0.182266 16.0048 0.307961C11.3472 1.14189 7.15714 3.6843 4.23666 7.44856C1.77144 10.5353 0.310797 14.3182 0.0551845 18.2781C-0.0899569 20.2271 0.0515961 22.1871 0.475219 24.0941C0.788334 25.5176 1.26462 26.8993 1.89442 28.2111C1.95007 28.3231 2.00488 28.4352 2.06149 28.547C3.08459 30.6097 4.45655 32.4753 6.11529 34.0594C9.66007 37.4514 14.3384 39.367 19.2172 39.4241C19.4449 39.4273 19.507 39.484 19.5056 39.7196C19.4952 41.7287 19.4996 43.7381 19.5002 45.7476C19.5003 45.8256 19.5062 45.9034 19.5107 46.0002C19.5749 45.9739 19.6152 45.9588 19.6539 45.9403C23.3755 44.1971 26.8167 41.8975 29.8622 39.1186C30.4692 38.5595 31.0519 37.9749 31.6102 37.365C31.8496 37.1043 32.087 36.839 32.3269 36.5786C32.6975 36.1777 33.0182 35.7297 33.3676 35.3076C33.7711 34.8206 34.1333 34.303 34.4907 33.782C35.2842 32.6353 35.9827 31.4242 36.5788 30.1609C36.8788 29.5195 37.1644 28.8731 37.4172 28.2115C37.4268 28.2 37.4352 28.1876 37.4423 28.1744C38.1224 26.368 38.581 24.484 38.8077 22.5647C38.8897 21.8948 38.9428 21.2207 38.9764 20.547C39.0487 19.1009 38.9548 17.6511 38.6969 16.2269ZM17.8044 22.7113C17.8063 23.5268 17.637 24.3334 17.3078 25.0777C16.9786 25.822 16.497 26.4872 15.8947 27.0292C15.8301 27.0898 15.7674 27.1531 15.7044 27.2152C15.0756 27.7215 14.3542 28.0972 13.5815 28.3207C13.2465 28.4063 12.9067 28.4715 12.564 28.5159C12.4481 28.5338 12.3297 28.508 12.2313 28.4435C12.1329 28.379 12.0612 28.2803 12.0299 28.166L12.0326 25.9393C12.0454 25.7208 11.9584 25.4867 12.1315 25.2939C12.2137 25.1978 12.3235 25.13 12.4456 25.0999C12.8369 25.0275 13.2154 24.8969 13.569 24.7125C13.8767 24.5327 14.1443 24.2903 14.3548 24.0006C14.5654 23.711 14.7143 23.3804 14.7922 23.0296C14.8199 22.9143 14.8464 22.7984 14.8727 22.6826C13.3256 22.6797 11.7786 22.6771 10.2318 22.6748C10.0985 22.6791 9.96519 22.6652 9.83554 22.6334C9.64074 22.581 9.4678 22.4665 9.34231 22.3069C9.21681 22.1473 9.14542 21.951 9.13869 21.7472C9.13578 19.3807 9.13694 17.014 9.14215 14.6471C9.10522 14.4667 9.11475 14.2797 9.16984 14.1041C9.22492 13.9285 9.32371 13.7702 9.45672 13.6443C9.61585 13.4963 9.82325 13.4128 10.0394 13.4096C12.314 13.4092 14.5888 13.4088 16.8636 13.4083C17.0092 13.4089 17.1526 13.4435 17.2828 13.5093C17.413 13.5751 17.5265 13.6705 17.6143 13.7879C17.7021 13.9053 17.762 14.0417 17.7892 14.1863C17.8165 14.331 17.8104 14.48 17.7714 14.6219C17.807 14.7355 17.8199 14.8551 17.8091 14.9738C17.8097 17.5526 17.8239 20.1325 17.8044 22.7113ZM29.8605 22.7228C29.8493 23.8668 29.5086 24.9826 28.8801 25.9336C28.2516 26.8846 27.3625 27.6294 26.3219 28.077C26.2687 28.1 26.2181 28.1297 26.1662 28.1562L26.0795 28.1807L26.0304 28.2089C25.5911 28.3377 25.1439 28.437 24.6918 28.5064C24.6178 28.5256 24.5405 28.5272 24.4658 28.5108C24.3912 28.4945 24.3214 28.4608 24.2619 28.4123C24.2024 28.3639 24.1549 28.302 24.1232 28.2318C24.0915 28.1615 24.0765 28.0847 24.0793 28.0075C24.0758 27.7606 24.074 27.513 24.0721 27.2658L24.0847 25.9381C24.0828 25.8403 24.0793 25.7433 24.0796 25.646C24.08 25.306 24.2092 25.1626 24.627 25.0661C25.1591 24.9739 25.6568 24.7379 26.0674 24.3832C26.5348 23.9301 26.8373 23.3307 26.9258 22.682L22.6386 22.6737C22.4832 22.6735 22.3276 22.6757 22.1719 22.673C22.0402 22.6775 21.909 22.6542 21.7866 22.6047C21.6642 22.5553 21.5533 22.4806 21.4609 22.3855C21.3685 22.2905 21.2966 22.177 21.2498 22.0524C21.203 21.9277 21.1822 21.7946 21.1888 21.6615C21.1895 19.324 21.1913 16.9866 21.1942 14.6493L21.1904 14.5818C21.1537 14.3815 21.1785 14.1746 21.2613 13.9889C21.3441 13.8033 21.4811 13.6477 21.6538 13.5429C21.7988 13.4523 21.9667 13.4058 22.1371 13.4092C24.3968 13.408 26.6565 13.4073 28.9161 13.4073C29.0617 13.4079 29.2051 13.4425 29.3352 13.5084C29.4654 13.5743 29.5788 13.6696 29.6666 13.7871C29.7544 13.9045 29.8142 14.0408 29.8414 14.1855C29.8687 14.3301 29.8626 14.4791 29.8236 14.621C29.859 14.7345 29.8718 14.8541 29.8612 14.9726C29.8612 17.556 29.861 20.1394 29.8605 22.7228Z" fill="#1FADAD"/>
</svg>
