<svg width="32" height="36" viewBox="0 0 32 36" fill="none" xmlns="http://www.w3.org/2000/svg">
<path d="M8.98533 10.8003H21.1187L20.8109 14.4003H12.5266C12.066 14.4003 11.6243 14.5899 11.2986 14.9275C10.9729 15.265 10.7899 15.7229 10.7899 16.2003C10.7899 16.6777 10.9729 17.1355 11.2986 17.4731C11.6243 17.8106 12.066 18.0003 12.5266 18.0003H20.5031L20.0451 23.3581L16.0001 24.3091L11.9568 23.3563L11.7905 21.4403C11.7703 21.2048 11.7055 20.9758 11.5998 20.7663C11.4941 20.5568 11.3497 20.3709 11.1747 20.2193C10.9997 20.0677 10.7977 19.9532 10.58 19.8825C10.3624 19.8118 10.1334 19.7863 9.90627 19.8073C9.67909 19.8283 9.45813 19.8955 9.256 20.005C9.05387 20.1145 8.87453 20.2642 8.72823 20.4455C8.58192 20.6269 8.47151 20.8363 8.4033 21.0619C8.33508 21.2875 8.31041 21.5247 8.33068 21.7602L8.60881 24.9822C8.64166 25.3614 8.78948 25.72 9.03109 26.0067C9.2727 26.2935 9.59569 26.4935 9.95377 26.5783L15.6151 27.9107C15.8686 27.9693 16.1315 27.9693 16.3851 27.9107L22.0481 26.5783C22.4064 26.4935 22.7296 26.2931 22.9712 26.006C23.2128 25.719 23.3605 25.3599 23.393 24.9805L24.1425 16.2182L24.146 16.2002L24.1446 16.1932L24.7464 9.15839C24.7673 8.9097 24.7381 8.65923 24.6607 8.42284C24.5833 8.18646 24.4593 7.96933 24.2967 7.78522C24.134 7.60111 23.9363 7.45404 23.7159 7.35333C23.4955 7.25262 23.2573 7.20047 23.0165 7.20018H8.98533C8.52473 7.20018 8.08299 7.38983 7.75729 7.72739C7.43159 8.06496 7.24861 8.5228 7.24861 9.00019C7.24861 9.47758 7.43159 9.93541 7.75729 10.273C8.08299 10.6105 8.52473 10.8002 8.98533 10.8002V10.8003ZM31.0455 0.585587C30.8825 0.401254 30.6844 0.254034 30.4637 0.153268C30.243 0.0525026 30.0044 0.00039213 29.7633 0.000244332H2.23688C1.99576 0.000128999 1.75727 0.0520716 1.53659 0.152762C1.31591 0.253452 1.11788 0.400682 0.955132 0.585071C0.792383 0.76946 0.668477 0.986964 0.59131 1.22372C0.514143 1.46048 0.485407 1.71131 0.506932 1.96021L3.01365 31.11C3.04491 31.4743 3.18261 31.8201 3.40836 32.1012C3.63412 32.3823 3.9372 32.5853 4.27718 32.6833L15.5184 35.9334C15.8234 36.0225 16.1462 36.0225 16.4512 35.9334L27.7229 32.6709C28.0629 32.573 28.366 32.3699 28.5918 32.0889C28.8175 31.8078 28.9552 31.462 28.9865 31.0977L31.4932 1.9602C31.5145 1.71142 31.4857 1.46078 31.4086 1.22415C31.3315 0.987528 31.2079 0.770077 31.0455 0.585587ZM25.6335 29.5386L15.9848 32.3318L6.36669 29.5509L4.13472 3.60025H27.8654L25.6335 29.5386Z" fill="#383B3F"/>
</svg>
