<svg width="39" height="38" viewBox="0 0 39 38" fill="none" xmlns="http://www.w3.org/2000/svg">
<path d="M25.3386 0.000244141H13.6812C3.03329 0.000244141 0.5 2.53353 0.5 13.1617V24.819C0.5 35.4668 3.01359 38.0002 13.6614 38.0002H25.3188C35.9667 38.0002 38.5 35.4867 38.5 24.8387V13.1815C38.5 2.53353 35.9864 0.000244141 25.3386 0.000244141ZM31.177 27.1148H28.4062C27.3573 27.1148 27.0406 26.2637 25.1605 24.3835C23.5177 22.8002 22.825 22.6023 22.4094 22.6023C21.8355 22.6023 21.677 22.7606 21.677 23.5523V26.046C21.677 26.719 21.4594 27.1148 19.698 27.1148C17.9887 26.9999 16.3312 26.4807 14.8619 25.5998C13.3926 24.7189 12.1536 23.5016 11.2469 22.0481C9.09438 19.3689 7.5967 16.2245 6.87296 12.8648C6.87296 12.4492 7.03125 12.0731 7.82296 12.0731H10.5938C11.3062 12.0731 11.5636 12.3898 11.8406 13.1221C13.1864 17.0804 15.4823 20.5242 16.4125 20.5242C16.7687 20.5242 16.927 20.3659 16.927 19.4752V15.3981C16.8083 13.5377 15.8187 13.3793 15.8187 12.7065C15.8318 12.529 15.9135 12.3635 16.0465 12.2453C16.1795 12.127 16.3534 12.0652 16.5312 12.0731H20.8855C21.4792 12.0731 21.677 12.37 21.677 13.0825V18.5846C21.677 19.1784 21.9344 19.3762 22.1125 19.3762C22.4688 19.3762 22.7458 19.1784 23.3989 18.5252C24.8024 16.8137 25.9492 14.9069 26.8031 12.8648C26.8903 12.6191 27.0555 12.4086 27.2735 12.2657C27.4915 12.1227 27.7504 12.0551 28.0105 12.0731H30.7812C31.6125 12.0731 31.7906 12.4887 31.6125 13.0825C30.6043 15.3403 29.3569 17.4834 27.8917 19.4752C27.5948 19.9304 27.4761 20.1679 27.8917 20.7023C28.1688 21.1179 29.1386 21.9293 29.7917 22.7012C30.7417 23.6488 31.5305 24.7452 32.127 25.9471C32.3645 26.719 31.9687 27.1148 31.177 27.1148Z" fill="#383B3F"/>
</svg>
