<svg width="41" height="42" viewBox="0 0 41 42" fill="none" xmlns="http://www.w3.org/2000/svg">
<path d="M20.5002 0.000244141C16.4456 0.000206763 12.4821 1.23182 9.11088 3.53934C5.73964 5.84685 3.11207 9.12663 1.56047 12.9639C0.00886245 16.8012 -0.397093 21.0236 0.393938 25.0973C1.18497 29.1709 3.13746 32.9128 6.00449 35.8497C8.87153 38.7865 12.5243 40.7866 16.501 41.5968C20.4777 42.407 24.5996 41.9911 28.3454 40.4015C32.0913 38.812 35.2929 36.1203 37.5454 32.6667C39.7979 29.2132 41.0001 25.153 41 20.9995C40.9938 15.432 38.832 10.0944 34.9889 6.15762C31.1457 2.22085 25.9351 0.00645249 20.5002 0.000244141ZM2.06938 20.9995C2.06735 18.3517 2.61114 15.7334 3.66517 13.3157L12.4572 37.9916C9.34289 36.4442 6.71688 34.0297 4.87977 31.0246C3.04267 28.0196 2.06871 24.5453 2.06938 20.9995ZM20.5002 39.8814C18.7376 39.8815 16.984 39.6224 15.2932 39.1121L20.8238 22.651L26.4886 38.5507C26.5255 38.641 26.5697 38.7281 26.6207 38.8109C24.6545 39.5205 22.5848 39.8825 20.5002 39.8814ZM23.0401 12.1473C24.1497 12.0876 25.1497 11.968 25.1497 11.968C25.3489 11.9491 25.5329 11.8507 25.662 11.694C25.791 11.5373 25.8546 11.3349 25.8392 11.1306C25.8237 10.9262 25.7304 10.7362 25.5794 10.6018C25.4284 10.4673 25.2318 10.3991 25.032 10.4119C25.032 10.4119 22.0467 10.652 20.1193 10.652C18.3086 10.652 15.2654 10.4119 15.2654 10.4119C15.0659 10.3997 14.8698 10.4683 14.7193 10.6028C14.5687 10.7373 14.4757 10.9271 14.4604 11.1311C14.4451 11.3352 14.5086 11.5372 14.6373 11.6937C14.766 11.8503 14.9496 11.9488 15.1485 11.968C15.1485 11.968 16.0884 12.0876 17.0816 12.1473L19.9531 20.207L15.9188 32.5987L9.20752 12.1473C10.3179 12.0876 11.3168 11.968 11.3168 11.968C11.5159 11.949 11.6997 11.8505 11.8286 11.6938C11.9574 11.5371 12.0209 11.3348 12.0055 11.1306C11.99 10.9263 11.8968 10.7365 11.7459 10.6021C11.595 10.4676 11.3986 10.3993 11.199 10.4119C11.199 10.4119 8.21432 10.652 6.28695 10.652C5.94112 10.652 5.53322 10.6433 5.10081 10.6291C6.56616 8.34456 8.49842 6.41335 10.764 4.96901C13.0295 3.52466 15.5743 2.60165 18.2223 2.26379C20.8703 1.92592 23.5583 2.18129 26.1005 3.01221C28.6427 3.84313 30.9783 5.22978 32.946 7.07628C32.8666 7.07128 32.7891 7.06116 32.7075 7.06116C31.8639 7.0869 31.0646 7.45392 30.4845 8.0819C29.9045 8.70988 29.5909 9.54768 29.6124 10.4119C29.8056 12.0308 30.4322 13.5634 31.4228 14.8402C32.3914 16.3977 32.9176 18.2007 32.9423 20.0472C32.7508 22.1381 32.2789 24.1919 31.54 26.1508L29.7011 32.443L23.0401 12.1473ZM29.7661 37.319L35.3955 20.6458C36.2891 18.5069 36.7652 16.2095 36.7972 13.8832C36.7983 13.2339 36.757 12.5853 36.6733 11.9417C38.9766 16.2597 39.5436 21.3282 38.2535 26.0681C36.9634 30.8079 33.9181 34.8447 29.7661 37.319Z" fill="#383B3F"/>
</svg>
