<svg width="243" height="83" viewBox="0 0 243 83" fill="none" xmlns="http://www.w3.org/2000/svg">
<path d="M131.718 8.07006C93.0057 5.70147 52.9419 20.126 28.4139 33.1034C7.55879 44.0706 -7.34378 64.6195 23.77 74.7308C62.7784 87.3898 125.386 76.2813 165.661 68.7775C186.98 64.7967 206.991 58.9648 219.783 49.7691C225.721 45.3941 229.264 40.3931 230.097 35.2139C230.929 30.0348 229.025 24.8391 224.553 20.0921C205.851 1.30267 160.933 -2.95679 121.755 1.78038C83.0647 6.87953 48.6081 19.0627 23.0102 33.6607C6.12342 43.2147 -10.4678 61.2358 8.31872 72.7404C18.7885 79.1097 37.8705 81.4385 53.8285 82.6924C76.2593 84.2986 99.1095 79.1912 121.375 77.1372C180.015 72.2607 248.026 53.5111 242.707 21.4058C242.369 19.5149 236.079 19.4154 236.374 21.4058C240.596 46.9228 195.213 63.2043 148.732 70.6883C124.68 74.4932 99.358 81.0781 74.0081 80.6025C54.0817 80.2442 30.0181 78.6121 15.1578 71.6855C-11.5232 59.3051 24.5299 36.2085 43.6964 27.6895C73.2482 14.513 115.169 2.17846 156.837 2.69596C168.417 2.83621 179.757 4.28513 189.902 6.92093C200.047 9.55673 208.702 13.3024 215.139 17.843C230.59 29.029 224.764 43.2007 207.033 52.8741C190.949 61.6319 164.816 66.2497 142.019 69.4144C115.94 73.2232 88.4496 79.2751 61.343 77.7363C42.9787 76.5023 19.5062 72.8996 13.047 63.8035C7.64322 56.1205 17.9864 44.4288 27.3163 38.4775C49.5646 24.2461 92.7946 8.64727 131.93 10.976C135.94 11.2149 135.898 8.24919 131.93 7.99044L131.718 8.07006Z" fill="#1FADAD"/>
</svg>
