<svg width="691" height="575" viewBox="0 0 691 575" fill="none" xmlns="http://www.w3.org/2000/svg">
<path d="M168.673 142.186C173.311 138.829 177.949 135.472 182.578 132.153C185.019 130.386 182.278 126.593 179.837 128.36C175.199 131.717 170.56 135.074 165.931 138.394C163.49 140.161 166.231 143.953 168.673 142.186Z" fill="#1FADAD"/>
<path d="M210.642 117.672C214.013 115.226 217.374 112.818 220.745 110.372C223.186 108.606 220.445 104.813 218.004 106.58C214.633 109.026 211.272 111.434 207.901 113.88C205.46 115.647 208.201 119.439 210.642 117.672Z" fill="#1FADAD"/>
<path d="M178.379 158.231C181.346 156.12 184.285 153.962 187.252 151.852C189.693 150.085 186.952 146.292 184.511 148.059C181.544 150.17 178.605 152.328 175.638 154.438C173.197 156.205 175.938 159.998 178.379 158.231Z" fill="#1FADAD"/>
<path d="M258.147 135.327C260.682 133.505 263.218 131.682 265.753 129.859C268.194 128.092 265.453 124.3 263.011 126.067C260.476 127.889 257.941 129.712 255.406 131.535C252.928 133.292 255.669 137.085 258.147 135.327Z" fill="#1FADAD"/>
<path d="M191.63 187.131C194.597 185.02 197.536 182.863 200.503 180.752C202.944 178.985 200.203 175.193 197.762 176.96C194.795 179.07 191.856 181.228 188.889 183.339C186.448 185.105 189.189 188.898 191.63 187.131Z" fill="#1FADAD"/>
<path d="M225.309 137.871C221.938 140.317 218.577 142.726 215.206 145.171C212.765 146.938 215.506 150.731 217.947 148.964C221.318 146.518 224.679 144.11 228.05 141.664C230.491 139.897 227.75 136.105 225.309 137.871Z" fill="#1FADAD"/>
<path d="M137.72 188.559C139.492 190.994 143.294 188.26 141.523 185.826C139.761 183.353 135.958 186.087 137.72 188.559Z" fill="#1FADAD"/>
<path d="M171.277 209.522C166.207 213.167 161.174 216.822 156.104 220.467C153.663 222.234 156.404 226.026 158.845 224.259C163.915 220.614 168.948 216.959 174.018 213.314C176.459 211.547 173.718 207.755 171.277 209.522Z" fill="#1FADAD"/>
<path d="M116.616 208.575C113.245 211.02 109.884 213.429 106.513 215.874C104.072 217.641 106.813 221.434 109.254 219.667C112.625 217.221 115.986 214.813 119.357 212.367C121.798 210.6 119.057 206.808 116.616 208.575Z" fill="#1FADAD"/>
<path d="M163.656 180.416C162.388 181.327 161.121 182.238 159.853 183.15C157.412 184.916 160.153 188.709 162.595 186.942C163.862 186.031 165.13 185.119 166.397 184.208C168.838 182.441 166.097 178.649 163.656 180.416Z" fill="#1FADAD"/>
<path d="M101.881 175.007C99.7782 176.541 97.6844 178.039 95.5437 179.564C93.1025 181.33 95.8436 185.123 98.2849 183.356C100.388 181.822 102.482 180.325 104.623 178.8C107.064 177.033 104.323 173.24 101.881 175.007Z" fill="#1FADAD"/>
<path d="M126.519 230.272C123.148 232.717 119.787 235.126 116.416 237.571C113.975 239.338 116.716 243.131 119.157 241.364C122.528 238.918 125.889 236.51 129.26 234.064C131.748 232.269 128.997 228.514 126.519 230.272Z" fill="#1FADAD"/>
<path d="M142.435 159.195C140.736 160.394 139.065 161.641 137.365 162.84C134.924 164.607 137.665 168.4 140.106 166.633C141.806 165.433 143.477 164.187 145.177 162.988C147.627 161.183 144.877 157.428 142.435 159.195Z" fill="#1FADAD"/>
<path d="M140.366 206.832C138.263 208.366 136.169 209.863 134.028 211.388C131.587 213.155 134.328 216.948 136.769 215.181C138.873 213.646 140.966 212.149 143.107 210.624C145.558 208.82 142.807 205.065 140.366 206.832Z" fill="#1FADAD"/>
<path d="M270.794 98.272C272.565 100.707 276.368 97.9729 274.596 95.5381C272.825 93.1034 269.022 95.8373 270.794 98.272Z" fill="#1FADAD"/>
<path d="M192.468 84.6255C187.398 88.2707 182.365 91.9254 177.295 95.5706C174.854 97.3374 177.595 101.13 180.036 99.3631C185.106 95.7179 190.139 92.0633 195.209 88.4181C197.65 86.6513 194.909 82.8586 192.468 84.6255Z" fill="#1FADAD"/>
<path d="M247.257 168.137C243.886 170.583 240.525 172.991 237.154 175.437C234.713 177.204 237.454 180.996 239.895 179.229C243.266 176.784 246.627 174.375 249.998 171.93C252.439 170.163 249.698 166.37 247.257 168.137Z" fill="#1FADAD"/>
<path d="M244.146 104.051C245.917 106.485 249.72 103.752 247.948 101.317C246.177 98.8821 242.374 101.616 244.146 104.051Z" fill="#1FADAD"/>
<path d="M253.165 61.9861C248.968 65.0176 244.724 68.077 240.527 71.1086C238.086 72.8754 240.827 76.668 243.268 74.9011C247.465 71.8696 251.709 68.8102 255.906 65.7786C258.347 64.0118 255.597 60.2566 253.165 61.9861Z" fill="#1FADAD"/>
<path d="M304.843 109.306C300.204 112.663 295.566 116.02 290.937 119.34C288.496 121.106 291.237 124.899 293.678 123.132C298.317 119.775 302.955 116.418 307.584 113.098C310.025 111.332 307.284 107.539 304.843 109.306Z" fill="#1FADAD"/>
<path d="M245.92 99.8903C239.582 104.447 233.282 109.013 226.944 113.569C224.503 115.336 227.244 119.129 229.686 117.362C236.023 112.805 242.324 108.239 248.661 103.683C251.14 101.925 248.399 98.1329 245.92 99.8903Z" fill="#1FADAD"/>
<path d="M280.174 88.6442C273.836 93.2007 267.536 97.7667 261.198 102.323C258.757 104.09 261.498 107.883 263.939 106.116C270.277 101.559 276.577 96.9933 282.915 92.4368C285.356 90.6699 282.615 86.8774 280.174 88.6442Z" fill="#1FADAD"/>
<path d="M205.14 200.442C201.769 202.888 198.407 205.296 195.037 207.742C192.595 209.508 195.337 213.301 197.778 211.534C201.149 209.088 204.51 206.68 207.881 204.234C210.359 202.477 207.618 198.684 205.14 200.442Z" fill="#1FADAD"/>
<path d="M136.082 129.177C133.547 130.999 131.012 132.822 128.477 134.645C126.035 136.411 128.776 140.204 131.218 138.437C133.753 136.615 136.288 134.792 138.823 132.969C141.274 131.165 138.523 127.41 136.082 129.177Z" fill="#1FADAD"/>
<path d="M86.3185 243.908C84.2152 245.443 82.1215 246.94 79.9808 248.465C77.5395 250.231 80.2807 254.024 82.7219 252.257C84.8252 250.723 86.9189 249.226 89.0596 247.701C91.5009 245.934 88.7597 242.141 86.3185 243.908Z" fill="#1FADAD"/>
<path d="M164.146 114.697C162.879 115.608 161.611 116.52 160.344 117.431C157.902 119.198 160.644 122.99 163.085 121.224C164.352 120.312 165.62 119.401 166.887 118.49C169.329 116.723 166.587 112.93 164.146 114.697Z" fill="#1FADAD"/>
<path d="M219.772 67.8076C221.543 70.2424 225.346 67.5084 223.574 65.0736C221.803 62.6389 218 65.3728 219.772 67.8076Z" fill="#1FADAD"/>
<path d="M358.552 108.979C357.285 109.89 356.017 110.802 354.75 111.713C352.309 113.48 355.05 117.272 357.491 115.506C358.759 114.594 360.026 113.683 361.294 112.772C363.735 111.005 360.994 107.212 358.552 108.979Z" fill="#1FADAD"/>
<path d="M277.751 138.456C273.554 141.488 269.31 144.547 265.113 147.579C262.671 149.346 265.413 153.138 267.854 151.371C272.051 148.34 276.295 145.28 280.492 142.249C282.933 140.482 280.192 136.689 277.751 138.456Z" fill="#1FADAD"/>
<path d="M225.583 156.855C222.616 158.966 219.677 161.123 216.71 163.234C214.269 165.001 217.01 168.793 219.451 167.027C222.418 164.916 225.357 162.758 228.324 160.647C230.765 158.88 228.024 155.088 225.583 156.855Z" fill="#1FADAD"/>
<path d="M136.316 253.014C138.087 255.449 141.89 252.715 140.118 250.28C138.347 247.845 134.544 250.579 136.316 253.014Z" fill="#1FADAD"/>
<path d="M194.631 231.123C189.561 234.769 184.528 238.423 179.458 242.068C177.017 243.835 179.758 247.628 182.199 245.861C187.269 242.216 192.302 238.561 197.372 234.916C199.813 233.149 197.072 229.356 194.631 231.123Z" fill="#1FADAD"/>
<path d="M278.322 197.648C282.96 194.291 287.598 190.934 292.227 187.614C294.668 185.848 291.927 182.055 289.486 183.822C284.848 187.179 280.209 190.536 275.581 193.856C273.102 195.613 275.843 199.406 278.322 197.648Z" fill="#1FADAD"/>
<path d="M320.292 173.134C323.662 170.688 327.024 168.28 330.395 165.834C332.836 164.067 330.095 160.274 327.653 162.041C324.283 164.487 320.921 166.895 317.55 169.341C315.109 171.108 317.85 174.901 320.292 173.134Z" fill="#1FADAD"/>
<path d="M288.019 213.73C290.986 211.619 293.925 209.462 296.892 207.351C299.333 205.584 296.592 201.791 294.151 203.558C291.184 205.669 288.245 207.826 285.278 209.937C282.837 211.704 285.578 215.497 288.019 213.73Z" fill="#1FADAD"/>
<path d="M367.76 190.78C370.295 188.957 372.83 187.134 375.365 185.312C377.806 183.545 375.065 179.752 372.624 181.519C370.089 183.342 367.553 185.165 365.018 186.987C362.577 188.754 365.318 192.547 367.76 190.78Z" fill="#1FADAD"/>
<path d="M301.279 242.593C304.246 240.482 307.185 238.325 310.152 236.214C312.593 234.447 309.852 230.655 307.411 232.421C304.444 234.532 301.505 236.69 298.538 238.801C296.097 240.568 298.838 244.36 301.279 242.593Z" fill="#1FADAD"/>
<path d="M334.92 193.323C331.549 195.769 328.188 198.177 324.817 200.623C322.376 202.39 325.117 206.183 327.558 204.416C330.929 201.97 334.29 199.562 337.661 197.116C340.102 195.349 337.361 191.556 334.92 193.323Z" fill="#1FADAD"/>
<path d="M247.37 244.022C249.141 246.456 252.944 243.722 251.172 241.288C249.401 238.853 245.598 241.587 247.37 244.022Z" fill="#1FADAD"/>
<path d="M193.364 259.929C195.136 262.364 198.938 259.63 197.167 257.195C195.358 254.751 191.593 257.494 193.364 259.929Z" fill="#1FADAD"/>
<path d="M280.88 265.012C275.809 268.657 270.777 272.311 265.707 275.957C263.265 277.724 266.006 281.516 268.448 279.749C273.518 276.104 278.551 272.449 283.621 268.804C286.062 267.037 283.321 263.245 280.88 265.012Z" fill="#1FADAD"/>
<path d="M226.218 264.064C222.848 266.51 219.486 268.918 216.116 271.364C213.674 273.131 216.416 276.923 218.857 275.157C222.228 272.711 225.589 270.302 228.96 267.857C231.438 266.099 228.697 262.307 226.218 264.064Z" fill="#1FADAD"/>
<path d="M273.258 235.905C271.99 236.816 270.723 237.727 269.455 238.639C267.014 240.406 269.755 244.198 272.196 242.431C273.464 241.52 274.731 240.609 275.999 239.697C278.44 237.931 275.699 234.138 273.258 235.905Z" fill="#1FADAD"/>
<path d="M211.493 230.46C209.39 231.994 207.296 233.491 205.156 235.016C202.714 236.783 205.456 240.576 207.897 238.809C210 237.274 212.094 235.777 214.235 234.252C216.713 232.495 213.972 228.702 211.493 230.46Z" fill="#1FADAD"/>
<path d="M236.168 285.733C232.797 288.179 229.436 290.587 226.065 293.033C223.624 294.8 226.365 298.593 228.806 296.826C232.177 294.38 235.538 291.972 238.909 289.526C241.351 287.759 238.609 283.966 236.168 285.733Z" fill="#1FADAD"/>
<path d="M252.085 214.657C250.386 215.856 248.714 217.102 247.015 218.302C244.574 220.069 247.315 223.861 249.756 222.094C251.455 220.895 253.127 219.649 254.826 218.449C257.267 216.682 254.526 212.89 252.085 214.657Z" fill="#1FADAD"/>
<path d="M250.015 262.294C247.912 263.828 245.818 265.325 243.678 266.85C241.237 268.617 243.978 272.409 246.419 270.643C248.522 269.108 250.616 267.611 252.757 266.086C255.198 264.319 252.457 260.527 250.015 262.294Z" fill="#1FADAD"/>
<path d="M380.434 153.771C382.205 156.206 386.008 153.472 384.236 151.037C382.465 148.603 378.662 151.337 380.434 153.771Z" fill="#1FADAD"/>
<path d="M302.108 140.125C297.038 143.77 292.005 147.425 286.935 151.07C284.493 152.837 287.235 156.63 289.676 154.863C294.746 151.217 299.779 147.563 304.849 143.918C307.29 142.151 304.549 138.358 302.108 140.125Z" fill="#1FADAD"/>
<path d="M356.897 223.636C353.526 226.082 350.165 228.49 346.794 230.936C344.353 232.703 347.094 236.495 349.535 234.729C352.906 232.283 356.267 229.874 359.638 227.429C362.089 225.624 359.338 221.869 356.897 223.636Z" fill="#1FADAD"/>
<path d="M353.785 159.55C355.556 161.985 359.359 159.251 357.587 156.816C355.816 154.381 352.013 157.115 353.785 159.55Z" fill="#1FADAD"/>
<path d="M362.767 117.476C358.57 120.507 354.326 123.567 350.129 126.598C347.688 128.365 350.429 132.158 352.871 130.391C357.068 127.359 361.312 124.3 365.509 121.268C367.987 119.511 365.246 115.718 362.767 117.476Z" fill="#1FADAD"/>
<path d="M414.445 164.795C409.807 168.152 405.168 171.509 400.54 174.829C398.098 176.596 400.84 180.389 403.281 178.622C407.919 175.265 412.557 171.908 417.186 168.588C419.628 166.821 416.886 163.029 414.445 164.795Z" fill="#1FADAD"/>
<path d="M355.57 155.352C349.232 159.909 342.932 164.475 336.594 169.031C334.153 170.798 336.894 174.591 339.335 172.824C345.673 168.267 351.973 163.701 358.311 159.145C360.752 157.378 358.011 153.585 355.57 155.352Z" fill="#1FADAD"/>
<path d="M389.823 144.106C383.486 148.662 377.185 153.228 370.848 157.785C368.406 159.552 371.147 163.344 373.589 161.577C379.926 157.021 386.227 152.455 392.564 147.898C395.006 146.131 392.264 142.339 389.823 144.106Z" fill="#1FADAD"/>
<path d="M314.789 255.904C311.418 258.35 308.057 260.758 304.686 263.204C302.245 264.971 304.986 268.763 307.427 266.996C310.798 264.551 314.159 262.142 317.53 259.696C319.971 257.929 317.221 254.174 314.789 255.904Z" fill="#1FADAD"/>
<path d="M245.731 184.639C243.196 186.461 240.661 188.284 238.126 190.107C235.685 191.873 238.426 195.666 240.867 193.899C243.402 192.077 245.937 190.254 248.472 188.431C250.914 186.665 248.173 182.872 245.731 184.639Z" fill="#1FADAD"/>
<path d="M195.968 299.37C193.865 300.904 191.771 302.402 189.63 303.926C187.189 305.693 189.93 309.486 192.371 307.719C194.475 306.185 196.568 304.687 198.709 303.162C201.15 301.396 198.409 297.603 195.968 299.37Z" fill="#1FADAD"/>
<path d="M273.796 170.159C272.528 171.07 271.261 171.982 269.993 172.893C267.552 174.66 270.293 178.452 272.734 176.685C274.002 175.774 275.269 174.863 276.537 173.951C278.978 172.185 276.237 168.392 273.796 170.159Z" fill="#1FADAD"/>
<path d="M329.412 123.307C331.183 125.742 334.986 123.008 333.214 120.573C331.452 118.101 327.65 120.835 329.412 123.307Z" fill="#1FADAD"/>
<path d="M468.192 164.479C466.925 165.39 465.657 166.301 464.39 167.212C461.948 168.979 464.69 172.772 467.131 171.005C468.398 170.094 469.666 169.182 470.933 168.271C473.384 166.467 470.633 162.712 468.192 164.479Z" fill="#1FADAD"/>
<path d="M387.4 193.918C383.203 196.95 378.959 200.009 374.762 203.041C372.321 204.808 375.062 208.6 377.503 206.833C381.7 203.802 385.944 200.742 390.141 197.711C392.583 195.944 389.841 192.151 387.4 193.918Z" fill="#1FADAD"/>
<path d="M335.222 212.354C332.255 214.465 329.316 216.622 326.349 218.733C323.908 220.5 326.649 224.293 329.09 222.526C332.057 220.415 334.996 218.257 337.963 216.147C340.404 214.38 337.663 210.587 335.222 212.354Z" fill="#1FADAD"/>
<path d="M245.928 308.466C247.699 310.901 251.502 308.167 249.731 305.732C247.959 303.298 244.156 306.032 245.928 308.466Z" fill="#1FADAD"/>
<path d="M312.375 187.504C314.147 189.938 317.95 187.205 316.178 184.77C314.406 182.335 310.604 185.069 312.375 187.504Z" fill="#1FADAD"/>
<path d="M304.281 286.585C299.21 290.23 294.178 293.885 289.107 297.53C286.666 299.297 289.407 303.09 291.849 301.323C296.919 297.678 301.952 294.023 307.022 290.378C309.463 288.611 306.722 284.818 304.281 286.585Z" fill="#1FADAD"/>
<path d="M41.6772 333.788C46.3156 330.431 50.9539 327.074 55.5828 323.754C58.024 321.987 55.2828 318.195 52.8416 319.962C48.2033 323.319 43.5649 326.676 38.9361 329.995C36.4479 331.79 39.1986 335.545 41.6772 333.788Z" fill="#1FADAD"/>
<path d="M83.6469 309.274C87.0177 306.828 90.3791 304.42 93.7498 301.974C96.1911 300.207 93.4499 296.415 91.0087 298.181C87.6379 300.627 84.2766 303.036 80.9058 305.481C78.4271 307.239 81.1683 311.031 83.6469 309.274Z" fill="#1FADAD"/>
<path d="M51.3746 349.869C54.3415 347.758 57.2805 345.601 60.2474 343.49C62.6886 341.723 59.9474 337.931 57.5062 339.698C54.5393 341.808 51.6003 343.966 48.6334 346.077C46.1922 347.844 48.9334 351.636 51.3746 349.869Z" fill="#1FADAD"/>
<path d="M131.114 326.919C133.649 325.097 136.184 323.274 138.719 321.451C141.161 319.685 138.419 315.892 135.978 317.659C133.443 319.481 130.908 321.304 128.373 323.127C125.932 324.894 128.673 328.686 131.114 326.919Z" fill="#1FADAD"/>
<path d="M64.6254 378.77C67.5924 376.66 70.5313 374.502 73.4982 372.391C75.9395 370.624 73.1983 366.832 70.757 368.599C67.7901 370.71 64.8512 372.867 61.8843 374.978C59.443 376.745 62.1842 380.537 64.6254 378.77Z" fill="#1FADAD"/>
<path d="M98.2754 329.463C94.9046 331.909 91.5432 334.318 88.1724 336.763C85.7312 338.53 88.4724 342.323 90.9136 340.556C94.2844 338.11 97.6457 335.702 101.017 333.256C103.458 331.489 100.717 327.696 98.2754 329.463Z" fill="#1FADAD"/>
<path d="M10.7243 380.161C12.4959 382.596 16.2985 379.862 14.5269 377.427C12.7554 374.992 8.95276 377.726 10.7243 380.161Z" fill="#1FADAD"/>
<path d="M44.2341 401.151C39.1639 404.796 34.1312 408.451 29.061 412.096C26.6198 413.863 29.3609 417.656 31.8022 415.889C36.8723 412.244 41.9051 408.589 46.9752 404.944C49.4165 403.177 46.6753 399.384 44.2341 401.151Z" fill="#1FADAD"/>
<path d="M36.6132 372.045C35.3456 372.956 34.0781 373.867 32.8105 374.779C30.3693 376.545 33.1105 380.338 35.5517 378.571C36.8193 377.66 38.0868 376.749 39.3543 375.837C41.7956 374.07 39.0544 370.278 36.6132 372.045Z" fill="#1FADAD"/>
<path d="M15.4404 350.797C13.7411 351.996 12.0696 353.242 10.3703 354.442C7.92903 356.209 10.6702 360.001 13.1114 358.234C14.8108 357.035 16.4822 355.789 18.1816 354.589C20.6228 352.822 17.8817 349.03 15.4404 350.797Z" fill="#1FADAD"/>
<path d="M13.3709 398.434C11.2676 399.968 9.17385 401.465 7.03316 402.99C4.59193 404.757 7.33311 408.55 9.77434 406.783C11.8776 405.248 13.9713 403.751 16.112 402.226C18.5533 400.459 15.8121 396.667 13.3709 398.434Z" fill="#1FADAD"/>
<path d="M143.789 289.911C145.561 292.346 149.363 289.612 147.592 287.177C145.82 284.743 142.018 287.476 143.789 289.911Z" fill="#1FADAD"/>
<path d="M65.4634 276.264C60.3933 279.91 55.3605 283.564 50.2903 287.21C47.8491 288.976 50.5903 292.769 53.0315 291.002C58.1017 287.357 63.1344 283.702 68.2046 280.057C70.6458 278.29 67.9047 274.498 65.4634 276.264Z" fill="#1FADAD"/>
<path d="M120.251 359.776C116.881 362.222 113.519 364.63 110.149 367.076C107.707 368.843 110.448 372.635 112.89 370.868C116.261 368.423 119.622 366.014 122.993 363.568C125.434 361.802 122.693 358.009 120.251 359.776Z" fill="#1FADAD"/>
<path d="M117.14 295.69C118.912 298.124 122.714 295.391 120.943 292.956C119.171 290.521 115.369 293.255 117.14 295.69Z" fill="#1FADAD"/>
<path d="M126.123 253.615C121.926 256.647 117.682 259.706 113.485 262.738C111.044 264.505 113.785 268.297 116.226 266.53C120.423 263.499 124.667 260.44 128.864 257.408C131.343 255.651 128.602 251.858 126.123 253.615Z" fill="#1FADAD"/>
<path d="M177.801 300.936C173.162 304.293 168.524 307.65 163.895 310.969C161.454 312.736 164.195 316.529 166.636 314.762C171.274 311.405 175.913 308.048 180.542 304.728C182.983 302.961 180.242 299.169 177.801 300.936Z" fill="#1FADAD"/>
<path d="M118.925 291.492C112.587 296.049 106.287 300.615 99.9494 305.171C97.5082 306.938 100.249 310.731 102.691 308.964C109.028 304.407 115.329 299.841 121.666 295.285C124.108 293.518 121.366 289.725 118.925 291.492Z" fill="#1FADAD"/>
<path d="M153.179 280.245C146.841 284.802 140.541 289.368 134.203 293.924C131.762 295.691 134.503 299.484 136.944 297.717C143.282 293.16 149.582 288.594 155.92 284.038C158.361 282.271 155.62 278.478 153.179 280.245Z" fill="#1FADAD"/>
<path d="M78.1351 392.08C74.7643 394.526 71.403 396.935 68.0322 399.38C65.5909 401.147 68.3321 404.94 70.7733 403.173C74.1441 400.727 77.5054 398.319 80.8762 395.873C83.3175 394.106 80.5763 390.314 78.1351 392.08Z" fill="#1FADAD"/>
<path d="M9.08666 320.779C6.55157 322.601 4.01647 324.424 1.48139 326.247C-0.959844 328.013 1.78133 331.806 4.22256 330.039C6.75765 328.217 9.29275 326.394 11.8278 324.571C14.2691 322.804 11.5279 319.012 9.08666 320.779Z" fill="#1FADAD"/>
<path d="M37.1504 306.298C35.8829 307.21 34.6154 308.121 33.3478 309.032C30.9066 310.799 33.6478 314.592 36.089 312.825C37.3565 311.913 38.6241 311.002 39.8916 310.091C42.3328 308.324 39.5917 304.531 37.1504 306.298Z" fill="#1FADAD"/>
<path d="M92.7672 259.446C94.5388 261.881 98.3414 259.147 96.5699 256.712C94.7983 254.278 90.9956 257.012 92.7672 259.446Z" fill="#1FADAD"/>
<path d="M231.548 300.618C230.28 301.53 229.013 302.441 227.745 303.352C225.304 305.119 228.045 308.912 230.486 307.145C231.754 306.234 233.022 305.322 234.289 304.411C236.73 302.644 233.989 298.852 231.548 300.618Z" fill="#1FADAD"/>
<path d="M150.756 330.058C146.559 333.089 142.315 336.149 138.118 339.18C135.677 340.947 138.418 344.74 140.859 342.973C145.056 339.941 149.3 336.882 153.497 333.85C155.938 332.083 153.197 328.291 150.756 330.058Z" fill="#1FADAD"/>
<path d="M98.5776 348.493C95.6106 350.604 92.6717 352.762 89.7047 354.873C87.2635 356.639 90.0047 360.432 92.4459 358.665C95.4128 356.554 98.3518 354.397 101.319 352.286C103.76 350.519 101.019 346.727 98.5776 348.493Z" fill="#1FADAD"/>
<path d="M67.5977 422.715C62.5275 426.36 57.4948 430.015 52.4247 433.66C49.9834 435.427 52.7246 439.219 55.1658 437.453C60.236 433.807 65.2687 430.153 70.3389 426.507C72.8176 424.75 70.0764 420.958 67.5977 422.715Z" fill="#1FADAD"/>
<path d="M174.479 384.057C179.117 380.7 183.756 377.343 188.385 374.024C190.826 372.257 188.085 368.464 185.643 370.231C181.005 373.588 176.367 376.945 171.738 380.265C169.297 382.032 172.038 385.824 174.479 384.057Z" fill="#1FADAD"/>
<path d="M216.487 359.553C219.858 357.107 223.219 354.699 226.59 352.253C229.031 350.486 226.29 346.694 223.849 348.46C220.478 350.906 217.116 353.315 213.746 355.76C211.267 357.518 214.008 361.31 216.487 359.553Z" fill="#1FADAD"/>
<path d="M184.223 400.111C187.19 398.001 190.129 395.843 193.096 393.732C195.537 391.965 192.796 388.173 190.355 389.94C187.388 392.05 184.449 394.208 181.482 396.319C179.041 398.086 181.782 401.878 184.223 400.111Z" fill="#1FADAD"/>
<path d="M263.954 377.198C266.489 375.376 269.024 373.553 271.559 371.73C274.001 369.964 271.259 366.171 268.818 367.938C266.283 369.76 263.748 371.583 261.213 373.406C258.772 375.173 261.513 378.965 263.954 377.198Z" fill="#1FADAD"/>
<path d="M197.475 429.012C200.442 426.901 203.381 424.744 206.348 422.633C208.789 420.866 206.048 417.074 203.606 418.841C200.64 420.951 197.701 423.109 194.734 425.22C192.292 426.986 195.034 430.779 197.475 429.012Z" fill="#1FADAD"/>
<path d="M231.115 379.743C227.744 382.188 224.383 384.597 221.012 387.042C218.571 388.809 221.312 392.602 223.754 390.835C227.124 388.389 230.486 385.981 233.856 383.535C236.298 381.768 233.557 377.976 231.115 379.743Z" fill="#1FADAD"/>
<path d="M143.564 430.44C145.336 432.875 149.138 430.141 147.367 427.706C145.558 425.262 141.793 428.006 143.564 430.44Z" fill="#1FADAD"/>
<path d="M177.083 451.393C172.013 455.038 166.981 458.693 161.91 462.338C159.469 464.105 162.21 467.897 164.652 466.131C169.722 462.485 174.755 458.831 179.825 455.185C182.266 453.419 179.525 449.626 177.083 451.393Z" fill="#1FADAD"/>
<path d="M122.413 450.483C119.042 452.929 115.681 455.337 112.31 457.783C109.869 459.55 112.61 463.342 115.051 461.575C118.422 459.13 121.784 456.721 125.154 454.276C127.605 452.471 124.854 448.716 122.413 450.483Z" fill="#1FADAD"/>
<path d="M169.462 422.287C168.195 423.198 166.927 424.109 165.66 425.021C163.219 426.788 165.96 430.58 168.401 428.813C169.668 427.902 170.936 426.991 172.204 426.079C174.645 424.312 171.904 420.52 169.462 422.287Z" fill="#1FADAD"/>
<path d="M107.688 416.878C105.585 418.413 103.491 419.91 101.35 421.435C98.9091 423.202 101.65 426.994 104.091 425.227C106.195 423.693 108.289 422.196 110.429 420.671C112.87 418.904 110.129 415.111 107.688 416.878Z" fill="#1FADAD"/>
<path d="M132.364 472.152C128.993 474.598 125.632 477.006 122.261 479.452C119.819 481.219 122.561 485.012 125.002 483.245C128.373 480.799 131.734 478.391 135.105 475.945C137.546 474.178 134.805 470.385 132.364 472.152Z" fill="#1FADAD"/>
<path d="M148.28 401.076C146.581 402.275 144.909 403.522 143.21 404.721C140.769 406.488 143.51 410.281 145.951 408.514C147.651 407.314 149.322 406.068 151.021 404.868C153.463 403.102 150.721 399.309 148.28 401.076Z" fill="#1FADAD"/>
<path d="M146.211 448.713C144.108 450.247 142.014 451.744 139.873 453.269C137.432 455.036 140.173 458.829 142.614 457.062C144.718 455.527 146.811 454.03 148.952 452.505C151.393 450.738 148.652 446.946 146.211 448.713Z" fill="#1FADAD"/>
<path d="M276.629 340.19C278.401 342.625 282.203 339.891 280.432 337.456C278.67 334.984 274.867 337.718 276.629 340.19Z" fill="#1FADAD"/>
<path d="M198.313 326.506C193.243 330.151 188.21 333.806 183.14 337.451C180.698 339.218 183.44 343.011 185.881 341.244C190.951 337.599 195.984 333.944 201.054 330.299C203.495 328.532 200.754 324.739 198.313 326.506Z" fill="#1FADAD"/>
<path d="M253.101 410.017C249.73 412.463 246.369 414.872 242.998 417.317C240.557 419.084 243.298 422.877 245.739 421.11C249.11 418.664 252.471 416.256 255.842 413.81C258.283 412.043 255.542 408.251 253.101 410.017Z" fill="#1FADAD"/>
<path d="M249.99 345.931C251.761 348.366 255.564 345.632 253.792 343.197C252.021 340.763 248.218 343.496 249.99 345.931Z" fill="#1FADAD"/>
<path d="M258.963 303.895C254.766 306.926 250.522 309.986 246.325 313.017C243.884 314.784 246.625 318.577 249.066 316.81C253.263 313.778 257.507 310.719 261.704 307.687C264.155 305.883 261.404 302.128 258.963 303.895Z" fill="#1FADAD"/>
<path d="M310.65 351.177C306.012 354.534 301.373 357.891 296.745 361.211C294.303 362.978 297.045 366.77 299.486 365.003C304.124 361.646 308.762 358.289 313.391 354.97C315.833 353.203 313.091 349.41 310.65 351.177Z" fill="#1FADAD"/>
<path d="M251.764 341.771C245.426 346.328 239.126 350.894 232.788 355.45C230.347 357.217 233.088 361.01 235.529 359.243C241.867 354.686 248.167 350.12 254.505 345.564C256.946 343.797 254.205 340.004 251.764 341.771Z" fill="#1FADAD"/>
<path d="M286.019 330.524C279.681 335.081 273.381 339.647 267.043 344.203C264.602 345.97 267.343 349.763 269.784 347.996C276.122 343.439 282.422 338.874 288.76 334.317C291.201 332.55 288.46 328.758 286.019 330.524Z" fill="#1FADAD"/>
<path d="M210.984 442.322C207.613 444.768 204.252 447.177 200.881 449.622C198.44 451.389 201.181 455.182 203.622 453.415C206.993 450.969 210.354 448.561 213.725 446.115C216.166 444.348 213.425 440.556 210.984 442.322Z" fill="#1FADAD"/>
<path d="M141.927 371.058C139.392 372.881 136.857 374.703 134.321 376.526C131.88 378.293 134.621 382.085 137.063 380.318C139.598 378.496 142.133 376.673 144.668 374.851C147.109 373.084 144.368 369.291 141.927 371.058Z" fill="#1FADAD"/>
<path d="M92.125 485.779C90.0218 487.314 87.928 488.811 85.7873 490.336C83.3461 492.103 86.0873 495.895 88.5285 494.128C90.6318 492.594 92.7255 491.097 94.8662 489.572C97.3449 487.814 94.6037 484.022 92.125 485.779Z" fill="#1FADAD"/>
<path d="M169.953 356.568C168.685 357.48 167.418 358.391 166.15 359.302C163.709 361.069 166.45 364.862 168.891 363.095C170.159 362.184 171.426 361.272 172.694 360.361C175.173 358.604 172.432 354.811 169.953 356.568Z" fill="#1FADAD"/>
<path d="M222.823 327.102C224.595 329.536 228.397 326.802 226.626 324.368C224.817 321.923 221.052 324.667 222.823 327.102Z" fill="#1FADAD"/>
<path d="M364.397 350.86C363.129 351.771 361.862 352.682 360.594 353.594C358.153 355.361 360.894 359.153 363.335 357.386C364.603 356.475 365.87 355.564 367.138 354.652C369.579 352.886 366.838 349.093 364.397 350.86Z" fill="#1FADAD"/>
<path d="M283.595 380.337C279.398 383.368 275.154 386.428 270.957 389.459C268.516 391.226 271.257 395.019 273.698 393.252C277.895 390.22 282.139 387.161 286.336 384.129C288.777 382.363 286.036 378.57 283.595 380.337Z" fill="#1FADAD"/>
<path d="M231.427 398.736C228.46 400.846 225.521 403.004 222.554 405.115C220.113 406.882 222.854 410.674 225.295 408.907C228.262 406.797 231.201 404.639 234.168 402.528C236.609 400.761 233.868 396.969 231.427 398.736Z" fill="#1FADAD"/>
<path d="M142.122 494.885C143.894 497.32 147.697 494.586 145.925 492.151C144.154 489.716 140.351 492.45 142.122 494.885Z" fill="#1FADAD"/>
<path d="M200.438 472.994C195.367 476.64 190.335 480.294 185.264 483.939C182.823 485.706 185.564 489.499 188.006 487.732C193.076 484.087 198.109 480.432 203.179 476.787C205.657 475.03 202.916 471.237 200.438 472.994Z" fill="#1FADAD"/>
<path d="M407.755 227.317C412.393 223.96 417.032 220.603 421.66 217.283C424.102 215.516 421.361 211.724 418.919 213.491C414.281 216.848 409.643 220.205 405.014 223.525C402.573 225.291 405.323 229.047 407.755 227.317Z" fill="#1FADAD"/>
<path d="M449.734 202.766C453.105 200.32 456.466 197.912 459.837 195.466C462.278 193.699 459.537 189.906 457.095 191.673C453.725 194.119 450.363 196.527 446.993 198.973C444.542 200.777 447.292 204.533 449.734 202.766Z" fill="#1FADAD"/>
<path d="M417.461 243.362C420.428 241.251 423.367 239.093 426.334 236.982C428.775 235.216 426.034 231.423 423.593 233.19C420.626 235.301 417.687 237.458 414.72 239.569C412.279 241.336 415.02 245.128 417.461 243.362Z" fill="#1FADAD"/>
<path d="M497.202 220.411C499.737 218.588 502.272 216.766 504.807 214.943C507.248 213.176 504.507 209.384 502.066 211.151C499.531 212.973 496.996 214.796 494.461 216.618C492.019 218.385 494.761 222.178 497.202 220.411Z" fill="#1FADAD"/>
<path d="M430.713 272.263C433.68 270.152 436.619 267.994 439.586 265.884C442.027 264.117 439.286 260.324 436.845 262.091C433.878 264.202 430.939 266.36 427.972 268.47C425.531 270.237 428.272 274.03 430.713 272.263Z" fill="#1FADAD"/>
<path d="M464.363 222.955C460.992 225.401 457.631 227.81 454.26 230.255C451.819 232.022 454.56 235.815 457.001 234.048C460.372 231.602 463.734 229.194 467.104 226.748C469.546 224.981 466.804 221.188 464.363 222.955Z" fill="#1FADAD"/>
<path d="M376.812 273.653C378.584 276.088 382.386 273.354 380.615 270.919C378.843 268.485 375.04 271.219 376.812 273.653Z" fill="#1FADAD"/>
<path d="M297.906 319.027C299.677 321.462 303.48 318.728 301.708 316.293C299.937 313.859 296.134 316.593 297.906 319.027Z" fill="#1FADAD"/>
<path d="M410.322 294.644C405.252 298.289 400.219 301.943 395.149 305.589C392.707 307.356 395.449 311.148 397.89 309.381C402.96 305.736 407.993 302.081 413.063 298.436C415.542 296.679 412.8 292.886 410.322 294.644Z" fill="#1FADAD"/>
<path d="M355.698 293.706C352.327 296.152 348.966 298.56 345.595 301.006C343.154 302.773 345.895 306.565 348.336 304.798C351.707 302.353 355.069 299.944 358.439 297.499C360.881 295.732 358.139 291.939 355.698 293.706Z" fill="#1FADAD"/>
<path d="M402.701 265.537C401.433 266.448 400.166 267.359 398.898 268.271C396.457 270.037 399.198 273.83 401.639 272.063C402.907 271.152 404.174 270.241 405.442 269.329C407.921 267.572 405.18 263.779 402.701 265.537Z" fill="#1FADAD"/>
<path d="M340.973 260.101C338.87 261.635 336.776 263.132 334.636 264.657C332.194 266.424 334.936 270.217 337.377 268.45C339.48 266.915 341.574 265.418 343.714 263.893C346.156 262.126 343.415 258.334 340.973 260.101Z" fill="#1FADAD"/>
<path d="M365.611 315.365C362.24 317.81 358.879 320.219 355.508 322.665C353.067 324.432 355.808 328.224 358.249 326.457C361.62 324.011 364.981 321.603 368.352 319.157C370.793 317.39 368.052 313.598 365.611 315.365Z" fill="#1FADAD"/>
<path d="M381.528 244.289C379.829 245.488 378.157 246.734 376.458 247.934C374.017 249.701 376.758 253.493 379.199 251.726C380.899 250.527 382.57 249.281 384.269 248.081C386.711 246.314 383.97 242.522 381.528 244.289Z" fill="#1FADAD"/>
<path d="M379.458 291.925C377.354 293.46 375.261 294.957 373.12 296.482C370.679 298.249 373.42 302.041 375.861 300.274C377.964 298.74 380.058 297.243 382.199 295.718C384.64 293.951 381.899 290.158 379.458 291.925Z" fill="#1FADAD"/>
<path d="M509.877 183.404C511.649 185.838 515.451 183.105 513.68 180.67C511.908 178.235 508.105 180.969 509.877 183.404Z" fill="#1FADAD"/>
<path d="M431.551 169.757C426.481 173.402 421.448 177.057 416.378 180.702C413.937 182.469 416.678 186.261 419.119 184.494C424.19 180.849 429.222 177.195 434.292 173.549C436.734 171.783 433.992 167.99 431.551 169.757Z" fill="#1FADAD"/>
<path d="M486.339 253.268C482.968 255.714 479.607 258.122 476.236 260.568C473.795 262.335 476.536 266.127 478.978 264.36C482.348 261.915 485.71 259.506 489.08 257.061C491.522 255.294 488.78 251.501 486.339 253.268Z" fill="#1FADAD"/>
<path d="M483.228 189.181C485 191.616 488.802 188.882 487.031 186.447C485.259 184.013 481.457 186.747 483.228 189.181Z" fill="#1FADAD"/>
<path d="M492.247 147.117C488.05 150.149 483.806 153.208 479.609 156.239C477.168 158.006 479.909 161.799 482.35 160.032C486.547 157.001 490.791 153.941 494.988 150.91C497.43 149.143 494.688 145.35 492.247 147.117Z" fill="#1FADAD"/>
<path d="M543.887 194.427C539.249 197.784 534.611 201.141 529.982 204.461C527.541 206.228 530.282 210.02 532.723 208.253C537.361 204.896 542 201.539 546.629 198.22C549.07 196.453 546.329 192.66 543.887 194.427Z" fill="#1FADAD"/>
<path d="M485.012 184.984C478.674 189.54 472.374 194.106 466.036 198.663C463.595 200.43 466.336 204.222 468.778 202.455C475.115 197.899 481.416 193.333 487.753 188.776C490.194 187.009 487.453 183.217 485.012 184.984Z" fill="#1FADAD"/>
<path d="M519.266 173.737C512.929 178.294 506.628 182.86 500.291 187.416C497.849 189.183 500.591 192.976 503.032 191.209C509.37 186.652 515.67 182.086 522.008 177.53C524.449 175.763 521.708 171.97 519.266 173.737Z" fill="#1FADAD"/>
<path d="M444.222 285.572C440.851 288.018 437.49 290.427 434.119 292.872C431.678 294.639 434.419 298.432 436.86 296.665C440.231 294.219 443.592 291.811 446.963 289.365C449.404 287.598 446.663 283.806 444.222 285.572Z" fill="#1FADAD"/>
<path d="M375.174 214.27C372.639 216.093 370.104 217.916 367.569 219.738C365.128 221.505 367.869 225.298 370.31 223.531C372.845 221.708 375.381 219.886 377.916 218.063C380.357 216.296 377.616 212.504 375.174 214.27Z" fill="#1FADAD"/>
<path d="M325.41 329.002C323.307 330.536 321.213 332.033 319.072 333.558C316.631 335.325 319.372 339.118 321.814 337.351C323.917 335.816 326.011 334.319 328.151 332.794C330.593 331.027 327.851 327.235 325.41 329.002Z" fill="#1FADAD"/>
<path d="M403.238 199.791C401.971 200.702 400.703 201.613 399.435 202.524C396.994 204.291 399.735 208.084 402.177 206.317C403.444 205.406 404.712 204.494 405.979 203.583C408.421 201.816 405.679 198.024 403.238 199.791Z" fill="#1FADAD"/>
<path d="M458.855 152.939C460.626 155.373 464.429 152.64 462.657 150.205C460.886 147.77 457.083 150.504 458.855 152.939Z" fill="#1FADAD"/>
<path d="M597.635 194.11C596.367 195.022 595.1 195.933 593.832 196.844C591.391 198.611 594.132 202.404 596.573 200.637C597.841 199.725 599.108 198.814 600.376 197.903C602.817 196.136 600.076 192.343 597.635 194.11Z" fill="#1FADAD"/>
<path d="M516.843 223.55C512.646 226.581 508.402 229.641 504.205 232.672C501.764 234.439 504.505 238.232 506.946 236.465C511.143 233.433 515.387 230.374 519.584 227.342C522.025 225.575 519.284 221.783 516.843 223.55Z" fill="#1FADAD"/>
<path d="M464.665 241.986C461.698 244.097 458.759 246.254 455.792 248.365C453.351 250.132 456.092 253.924 458.534 252.157C461.5 250.047 464.439 247.889 467.406 245.778C469.848 244.011 467.106 240.219 464.665 241.986Z" fill="#1FADAD"/>
<path d="M375.361 338.135C377.132 340.57 380.935 337.836 379.163 335.402C377.392 332.967 373.589 335.701 375.361 338.135Z" fill="#1FADAD"/>
<path d="M433.723 316.217C428.653 319.862 423.62 323.517 418.55 327.162C416.109 328.929 418.85 332.721 421.291 330.954C426.361 327.309 431.394 323.654 436.464 320.009C438.906 318.242 436.164 314.45 433.723 316.217Z" fill="#1FADAD"/>
<path d="M289.353 462.695C293.991 459.338 298.63 455.981 303.259 452.661C305.7 450.895 302.959 447.102 300.517 448.869C295.879 452.226 291.241 455.583 286.612 458.903C284.171 460.67 286.912 464.462 289.353 462.695Z" fill="#1FADAD"/>
<path d="M331.322 438.181C334.693 435.735 338.055 433.327 341.425 430.881C343.867 429.114 341.125 425.322 338.684 427.089C335.313 429.534 331.952 431.943 328.581 434.389C326.14 436.155 328.881 439.948 331.322 438.181Z" fill="#1FADAD"/>
<path d="M299.059 478.74C302.026 476.629 304.965 474.471 307.932 472.36C310.373 470.594 307.632 466.801 305.191 468.568C302.224 470.679 299.285 472.836 296.318 474.947C293.877 476.714 296.618 480.506 299.059 478.74Z" fill="#1FADAD"/>
<path d="M378.837 455.799C381.372 453.976 383.908 452.153 386.443 450.331C388.884 448.564 386.143 444.771 383.701 446.538C381.166 448.361 378.631 450.183 376.096 452.006C373.617 453.763 376.359 457.556 378.837 455.799Z" fill="#1FADAD"/>
<path d="M312.311 507.64C315.277 505.53 318.216 503.372 321.183 501.261C323.625 499.494 320.883 495.702 318.442 497.469C315.475 499.579 312.536 501.737 309.569 503.848C307.128 505.615 309.869 509.407 312.311 507.64Z" fill="#1FADAD"/>
<path d="M345.952 458.371C342.581 460.816 339.22 463.225 335.849 465.67C333.408 467.437 336.149 471.23 338.59 469.463C341.961 467.017 345.322 464.609 348.693 462.163C351.181 460.368 348.431 456.613 345.952 458.371Z" fill="#1FADAD"/>
<path d="M258.41 509.031C260.182 511.466 263.984 508.732 262.213 506.297C260.441 503.863 256.639 506.596 258.41 509.031Z" fill="#1FADAD"/>
<path d="M291.92 530.021C286.85 533.667 281.817 537.321 276.747 540.966C274.306 542.733 277.047 546.526 279.488 544.759C284.558 541.114 289.591 537.459 294.661 533.814C297.14 532.056 294.399 528.264 291.92 530.021Z" fill="#1FADAD"/>
<path d="M237.297 529.083C233.926 531.529 230.564 533.938 227.194 536.383C224.752 538.15 227.494 541.943 229.935 540.176C233.306 537.73 236.667 535.322 240.038 532.876C242.479 531.109 239.738 527.317 237.297 529.083Z" fill="#1FADAD"/>
<path d="M284.336 500.924C283.069 501.836 281.801 502.747 280.534 503.658C278.093 505.425 280.834 509.218 283.275 507.451C284.543 506.54 285.81 505.628 287.078 504.717C289.519 502.95 286.778 499.158 284.336 500.924Z" fill="#1FADAD"/>
<path d="M222.562 495.516C220.459 497.051 218.365 498.548 216.224 500.073C213.783 501.84 216.524 505.632 218.965 503.865C221.069 502.331 223.162 500.834 225.303 499.309C227.754 497.505 225.003 493.75 222.562 495.516Z" fill="#1FADAD"/>
<path d="M247.209 550.743C243.838 553.189 240.477 555.597 237.106 558.043C234.665 559.81 237.406 563.602 239.847 561.835C243.218 559.39 246.579 556.981 249.95 554.535C252.429 552.778 249.687 548.985 247.209 550.743Z" fill="#1FADAD"/>
<path d="M263.125 479.667C261.426 480.866 259.755 482.112 258.055 483.312C255.614 485.079 258.355 488.871 260.796 487.104C262.496 485.905 264.167 484.659 265.867 483.459C268.308 481.692 265.567 477.9 263.125 479.667Z" fill="#1FADAD"/>
<path d="M261.056 527.303C258.953 528.837 256.859 530.335 254.718 531.86C252.277 533.626 255.018 537.419 257.459 535.652C259.563 534.118 261.656 532.62 263.797 531.095C266.238 529.329 263.497 525.536 261.056 527.303Z" fill="#1FADAD"/>
<path d="M391.474 418.781C393.246 421.216 397.049 418.482 395.277 416.047C393.505 413.612 389.703 416.346 391.474 418.781Z" fill="#1FADAD"/>
<path d="M313.148 405.135C308.078 408.78 303.045 412.435 297.975 416.08C295.534 417.847 298.275 421.639 300.716 419.872C305.787 416.227 310.819 412.573 315.889 408.927C318.331 407.16 315.589 403.368 313.148 405.135Z" fill="#1FADAD"/>
<path d="M367.938 488.646C364.567 491.091 361.205 493.5 357.835 495.945C355.393 497.712 358.135 501.505 360.576 499.738C363.947 497.292 367.308 494.884 370.679 492.438C373.12 490.671 370.379 486.879 367.938 488.646Z" fill="#1FADAD"/>
<path d="M364.826 424.56C366.598 426.994 370.4 424.261 368.629 421.826C366.857 419.391 363.055 422.125 364.826 424.56Z" fill="#1FADAD"/>
<path d="M373.845 382.495C369.648 385.526 365.404 388.586 361.207 391.617C358.766 393.384 361.507 397.177 363.949 395.41C368.146 392.378 372.39 389.319 376.587 386.287C379.028 384.521 376.287 380.728 373.845 382.495Z" fill="#1FADAD"/>
<path d="M425.486 429.805C420.847 433.162 416.209 436.519 411.58 439.839C409.139 441.606 411.88 445.398 414.321 443.631C418.96 440.274 423.598 436.917 428.227 433.598C430.705 431.84 427.964 428.048 425.486 429.805Z" fill="#1FADAD"/>
<path d="M366.6 420.399C360.263 424.956 353.962 429.522 347.625 434.078C345.184 435.845 347.925 439.637 350.366 437.871C356.704 433.314 363.004 428.748 369.342 424.192C371.83 422.397 369.079 418.642 366.6 420.399Z" fill="#1FADAD"/>
<path d="M400.864 409.116C394.526 413.672 388.226 418.238 381.888 422.795C379.447 424.561 382.188 428.354 384.629 426.587C390.967 422.031 397.267 417.465 403.605 412.908C406.046 411.141 403.295 407.386 400.864 409.116Z" fill="#1FADAD"/>
<path d="M325.82 520.951C322.449 523.396 319.088 525.805 315.717 528.25C313.276 530.017 316.017 533.81 318.458 532.043C321.829 529.597 325.191 527.189 328.561 524.743C331.003 522.976 328.261 519.184 325.82 520.951Z" fill="#1FADAD"/>
<path d="M256.772 449.649C254.237 451.471 251.702 453.294 249.167 455.116C246.725 456.883 249.467 460.676 251.908 458.909C254.443 457.086 256.978 455.264 259.513 453.441C261.954 451.674 259.213 447.882 256.772 449.649Z" fill="#1FADAD"/>
<path d="M206.999 564.417C204.896 565.951 202.802 567.448 200.661 568.973C198.22 570.74 200.961 574.533 203.403 572.766C205.506 571.231 207.6 569.734 209.74 568.209C212.191 566.405 209.44 562.65 206.999 564.417Z" fill="#1FADAD"/>
<path d="M284.836 435.169C283.569 436.08 282.301 436.991 281.034 437.902C278.593 439.669 281.334 443.462 283.775 441.695C285.042 440.784 286.31 439.872 287.578 438.961C290.019 437.194 287.278 433.402 284.836 435.169Z" fill="#1FADAD"/>
<path d="M340.452 388.316C342.224 390.751 346.027 388.017 344.255 385.582C342.483 383.148 338.681 385.882 340.452 388.316Z" fill="#1FADAD"/>
<path d="M479.233 429.488C477.965 430.399 476.698 431.311 475.43 432.222C472.989 433.989 475.73 437.781 478.172 436.015C479.439 435.103 480.707 434.192 481.974 433.281C484.415 431.514 481.674 427.721 479.233 429.488Z" fill="#1FADAD"/>
<path d="M398.441 458.928C394.244 461.96 390 465.019 385.803 468.05C383.362 469.817 386.103 473.61 388.544 471.843C392.741 468.811 396.985 465.752 401.182 462.721C403.623 460.954 400.882 457.161 398.441 458.928Z" fill="#1FADAD"/>
<path d="M346.263 477.364C343.296 479.475 340.357 481.632 337.391 483.743C334.949 485.51 337.69 489.302 340.132 487.535C343.099 485.425 346.038 483.267 349.005 481.156C351.446 479.389 348.705 475.597 346.263 477.364Z" fill="#1FADAD"/>
<path d="M256.996 573.523C258.768 575.957 262.571 573.223 260.799 570.789C258.99 568.344 255.225 571.088 256.996 573.523Z" fill="#1FADAD"/>
<path d="M315.312 551.632C310.242 555.277 305.209 558.932 300.139 562.577C297.697 564.344 300.439 568.136 302.88 566.37C307.95 562.724 312.983 559.07 318.053 555.424C320.504 553.62 317.753 549.865 315.312 551.632Z" fill="#1FADAD"/>
<path d="M495.9 332.893C500.538 329.536 505.177 326.179 509.806 322.859C512.247 321.092 509.506 317.3 507.064 319.067C502.426 322.424 497.788 325.781 493.159 329.1C490.718 330.867 493.459 334.66 495.9 332.893Z" fill="#1FADAD"/>
<path d="M537.879 308.341C541.25 305.895 544.611 303.487 547.982 301.041C550.423 299.274 547.682 295.482 545.241 297.249C541.87 299.694 538.509 302.103 535.138 304.549C532.687 306.353 535.438 310.108 537.879 308.341Z" fill="#1FADAD"/>
<path d="M505.607 348.937C508.574 346.826 511.513 344.668 514.479 342.557C516.921 340.791 514.18 336.998 511.738 338.765C508.771 340.876 505.832 343.033 502.865 345.144C500.424 346.911 503.165 350.703 505.607 348.937Z" fill="#1FADAD"/>
<path d="M585.384 325.996C587.919 324.174 590.455 322.351 592.99 320.528C595.431 318.761 592.69 314.969 590.248 316.736C587.713 318.558 585.178 320.381 582.643 322.204C580.165 323.961 582.906 327.754 585.384 325.996Z" fill="#1FADAD"/>
<path d="M518.858 377.838C521.825 375.727 524.764 373.569 527.73 371.458C530.172 369.692 527.43 365.899 524.989 367.666C522.022 369.777 519.083 371.934 516.116 374.045C513.675 375.812 516.416 379.604 518.858 377.838Z" fill="#1FADAD"/>
<path d="M552.508 328.531C549.137 330.976 545.776 333.385 542.405 335.83C539.964 337.597 542.705 341.39 545.146 339.623C548.517 337.177 551.878 334.769 555.249 332.323C557.728 330.566 554.986 326.773 552.508 328.531Z" fill="#1FADAD"/>
<path d="M464.957 379.229C466.729 381.663 470.532 378.929 468.76 376.495C466.989 374.06 463.186 376.794 464.957 379.229Z" fill="#1FADAD"/>
<path d="M498.467 400.219C493.397 403.864 488.364 407.519 483.294 411.164C480.853 412.931 483.594 416.724 486.035 414.957C491.105 411.311 496.138 407.657 501.208 404.012C503.687 402.254 500.946 398.462 498.467 400.219Z" fill="#1FADAD"/>
<path d="M443.844 399.281C440.473 401.727 437.112 404.135 433.741 406.581C431.3 408.348 434.041 412.14 436.482 410.373C439.853 407.928 443.214 405.519 446.585 403.073C449.026 401.306 446.285 397.514 443.844 399.281Z" fill="#1FADAD"/>
<path d="M490.883 371.122C489.615 372.033 488.348 372.944 487.08 373.856C484.639 375.623 487.38 379.415 489.821 377.648C491.089 376.737 492.356 375.826 493.624 374.914C496.065 373.147 493.324 369.355 490.883 371.122Z" fill="#1FADAD"/>
<path d="M429.119 365.676C427.015 367.21 424.922 368.707 422.781 370.232C420.34 371.999 423.081 375.792 425.522 374.025C427.625 372.49 429.719 370.993 431.86 369.468C434.301 367.702 431.56 363.909 429.119 365.676Z" fill="#1FADAD"/>
<path d="M453.756 420.94C450.385 423.386 447.024 425.794 443.653 428.24C441.212 430.007 443.953 433.799 446.394 432.032C449.765 429.587 453.126 427.178 456.497 424.732C458.976 422.975 456.235 419.182 453.756 420.94Z" fill="#1FADAD"/>
<path d="M469.672 349.864C467.973 351.063 466.302 352.31 464.602 353.509C462.161 355.276 464.902 359.068 467.343 357.302C469.043 356.102 470.714 354.856 472.414 353.656C474.855 351.89 472.114 348.097 469.672 349.864Z" fill="#1FADAD"/>
<path d="M467.603 397.501C465.5 399.035 463.406 400.532 461.266 402.057C458.824 403.824 461.565 407.617 464.007 405.85C466.11 404.315 468.204 402.818 470.344 401.293C472.786 399.526 470.044 395.734 467.603 397.501Z" fill="#1FADAD"/>
<path d="M598.021 288.979C599.793 291.413 603.596 288.679 601.824 286.245C600.053 283.81 596.25 286.544 598.021 288.979Z" fill="#1FADAD"/>
<path d="M519.696 275.332C514.625 278.977 509.593 282.632 504.522 286.277C502.081 288.044 504.822 291.836 507.264 290.069C512.334 286.424 517.367 282.769 522.437 279.124C524.878 277.357 522.137 273.565 519.696 275.332Z" fill="#1FADAD"/>
<path d="M574.484 358.843C571.114 361.289 567.752 363.697 564.382 366.143C561.94 367.91 564.681 371.703 567.123 369.936C570.494 367.49 573.855 365.081 577.226 362.636C579.667 360.869 576.926 357.076 574.484 358.843Z" fill="#1FADAD"/>
<path d="M571.372 294.757C573.144 297.192 576.946 294.458 575.175 292.023C573.403 289.588 569.601 292.322 571.372 294.757Z" fill="#1FADAD"/>
<path d="M580.392 252.692C576.195 255.724 571.952 258.783 567.754 261.815C565.313 263.582 568.054 267.374 570.496 265.608C574.693 262.576 578.937 259.517 583.134 256.485C585.575 254.718 582.834 250.926 580.392 252.692Z" fill="#1FADAD"/>
<path d="M632.033 300.003C627.394 303.36 622.756 306.717 618.127 310.036C615.686 311.803 618.427 315.596 620.868 313.829C625.507 310.472 630.145 307.115 634.774 303.795C637.253 302.038 634.511 298.245 632.033 300.003Z" fill="#1FADAD"/>
<path d="M573.157 290.559C566.82 295.116 560.519 299.682 554.182 304.238C551.74 306.005 554.482 309.798 556.923 308.031C563.26 303.474 569.561 298.908 575.898 294.352C578.377 292.594 575.636 288.802 573.157 290.559Z" fill="#1FADAD"/>
<path d="M607.411 279.313C601.073 283.869 594.773 288.435 588.435 292.992C585.994 294.759 588.735 298.551 591.177 296.784C597.514 292.228 603.814 287.662 610.152 283.105C612.593 281.338 609.852 277.546 607.411 279.313Z" fill="#1FADAD"/>
<path d="M532.367 391.148C528.996 393.593 525.635 396.002 522.264 398.448C519.823 400.214 522.564 404.007 525.005 402.24C528.376 399.794 531.737 397.386 535.108 394.94C537.549 393.173 534.808 389.381 532.367 391.148Z" fill="#1FADAD"/>
<path d="M463.319 319.846C460.784 321.669 458.249 323.491 455.713 325.314C453.272 327.081 456.013 330.873 458.455 329.107C460.99 327.284 463.525 325.461 466.06 323.639C468.501 321.872 465.76 318.079 463.319 319.846Z" fill="#1FADAD"/>
<path d="M413.555 434.577C411.452 436.111 409.358 437.608 407.218 439.133C404.777 440.9 407.518 444.693 409.959 442.926C412.062 441.391 414.156 439.894 416.297 438.369C418.738 436.603 415.997 432.81 413.555 434.577Z" fill="#1FADAD"/>
<path d="M491.384 305.365C490.116 306.277 488.849 307.188 487.581 308.099C485.14 309.866 487.881 313.659 490.322 311.892C491.59 310.98 492.857 310.069 494.125 309.158C496.566 307.391 493.825 303.598 491.384 305.365Z" fill="#1FADAD"/>
<path d="M546.999 258.513C548.771 260.948 552.574 258.214 550.802 255.78C549.03 253.345 545.228 256.079 546.999 258.513Z" fill="#1FADAD"/>
<path d="M685.78 299.686C684.513 300.597 683.245 301.508 681.978 302.42C679.536 304.186 682.278 307.979 684.719 306.212C685.986 305.301 687.254 304.39 688.521 303.478C690.963 301.711 688.221 297.919 685.78 299.686Z" fill="#1FADAD"/>
<path d="M604.988 329.125C600.791 332.156 596.547 335.216 592.35 338.247C589.909 340.014 592.65 343.807 595.091 342.04C599.288 339.008 603.532 335.949 607.729 332.917C610.17 331.151 607.429 327.358 604.988 329.125Z" fill="#1FADAD"/>
<path d="M552.809 347.561C549.843 349.672 546.904 351.83 543.937 353.94C541.495 355.707 544.237 359.5 546.678 357.733C549.645 355.622 552.584 353.465 555.551 351.354C557.992 349.587 555.251 345.794 552.809 347.561Z" fill="#1FADAD"/>
<path d="M463.543 443.72C465.315 446.155 469.118 443.421 467.346 440.986C465.537 438.542 461.772 441.285 463.543 443.72Z" fill="#1FADAD"/>
<path d="M521.868 421.792C516.798 425.437 511.765 429.092 506.695 432.737C504.254 434.504 506.995 438.296 509.436 436.529C514.507 432.884 519.539 429.229 524.61 425.584C527.051 423.817 524.31 420.025 521.868 421.792Z" fill="#1FADAD"/>
<path d="M490.713 17.4702C495.348 14.1147 499.983 10.7593 504.608 7.44111C507.048 5.67507 504.305 1.8798 501.866 3.64584C497.231 7.00133 492.596 10.3568 487.97 13.675C485.531 15.441 488.273 19.2362 490.713 17.4702Z" fill="#1FADAD"/>
<path d="M500.447 33.5187C503.414 31.4079 506.353 29.2503 509.32 27.1395C511.761 25.3727 509.02 21.5801 506.578 23.347C503.611 25.4578 500.672 27.6153 497.706 29.7261C495.264 31.493 498.005 35.2855 500.447 33.5187Z" fill="#1FADAD"/>
<path d="M513.699 62.42C516.666 60.3093 519.605 58.1517 522.572 56.0409C525.013 54.2741 522.272 50.4815 519.83 52.2484C516.863 54.3591 513.924 56.5167 510.958 58.6275C508.516 60.3944 511.257 64.1869 513.699 62.42Z" fill="#1FADAD"/>
<path d="M459.788 63.8481C461.56 66.2829 465.362 63.549 463.591 61.1142C461.782 58.67 458.016 61.4133 459.788 63.8481Z" fill="#1FADAD"/>
<path d="M493.307 84.8005C488.237 88.4458 483.204 92.1004 478.134 95.7456C475.693 97.5125 478.434 101.305 480.875 99.5382C485.946 95.893 490.978 92.2383 496.048 88.5931C498.49 86.8262 495.748 83.0337 493.307 84.8005Z" fill="#1FADAD"/>
<path d="M438.637 83.8909C435.266 86.3366 431.905 88.7451 428.534 91.1908C426.093 92.9577 428.834 96.7502 431.275 94.9834C434.646 92.5376 438.007 90.1292 441.378 87.6834C443.857 85.926 441.116 82.1335 438.637 83.8909Z" fill="#1FADAD"/>
<path d="M485.686 55.6943C484.419 56.6056 483.151 57.517 481.884 58.4283C479.443 60.1951 482.184 63.9877 484.625 62.2208C485.893 61.3095 487.16 60.3982 488.428 59.4869C490.869 57.72 488.128 53.9275 485.686 55.6943Z" fill="#1FADAD"/>
<path d="M423.913 50.2862C421.809 51.8206 419.716 53.3177 417.575 54.8426C415.134 56.6095 417.875 60.4021 420.316 58.6352C422.419 57.1008 424.513 55.6037 426.654 54.0787C429.132 52.3213 426.391 48.5288 423.913 50.2862Z" fill="#1FADAD"/>
<path d="M448.587 105.56C445.217 108.005 441.855 110.414 438.485 112.86C436.043 114.626 438.785 118.419 441.226 116.652C444.597 114.206 447.958 111.798 451.329 109.352C453.77 107.585 451.029 103.793 448.587 105.56Z" fill="#1FADAD"/>
<path d="M464.504 34.4837C462.805 35.6831 461.133 36.9294 459.434 38.1289C456.993 39.8958 459.734 43.6883 462.175 41.9214C463.874 40.722 465.546 39.4757 467.245 38.2763C469.686 36.5094 466.945 32.7168 464.504 34.4837Z" fill="#1FADAD"/>
<path d="M462.435 82.1202C460.331 83.6546 458.238 85.1517 456.097 86.6767C453.656 88.4436 456.397 92.2361 458.838 90.4692C460.941 88.9348 463.035 87.4377 465.176 85.9127C467.617 84.1458 464.876 80.3533 462.435 82.1202Z" fill="#1FADAD"/>
<path d="M527.208 75.73C523.837 78.1758 520.475 80.5842 517.105 83.0299C514.663 84.7968 517.405 88.5893 519.846 86.8224C523.217 84.3767 526.578 81.9683 529.949 79.5226C532.39 77.7557 529.649 73.9631 527.208 75.73Z" fill="#1FADAD"/>
<path d="M458.15 4.46551C455.615 6.28812 453.08 8.11073 450.545 9.93334C448.104 11.7002 450.845 15.4927 453.286 13.7259C455.821 11.9033 458.357 10.0807 460.892 8.25806C463.333 6.49119 460.592 2.69865 458.15 4.46551Z" fill="#1FADAD"/>
<path d="M408.35 119.187C406.247 120.721 404.153 122.219 402.012 123.744C399.571 125.51 402.312 129.303 404.753 127.536C406.857 126.002 408.95 124.505 411.091 122.98C413.57 121.222 410.828 117.43 408.35 119.187Z" fill="#1FADAD"/>
<path d="M458.346 128.293C460.118 130.727 463.921 127.993 462.149 125.559C460.378 123.124 456.575 125.858 458.346 128.293Z" fill="#1FADAD"/>
<path d="M516.661 106.402C511.591 110.047 506.559 113.702 501.488 117.347C499.047 119.114 501.788 122.907 504.23 121.14C509.3 117.495 514.332 113.84 519.403 110.195C521.881 108.437 519.14 104.645 516.661 106.402Z" fill="#1FADAD"/>
<path d="M51.8932 354.837C87.9619 381.26 152.483 386.652 161.446 426.381C167.169 451.734 144.531 480.226 160.233 502.372C165.438 509.743 174.149 514.791 182.82 519.233C213.689 535.01 249.695 546.048 285.402 541.923C312.307 538.823 338.386 525.244 351.775 505.821C394.282 497.742 439.745 501.611 482.099 492.081C534.127 480.4 579.872 446.267 594.174 402.296C608.447 358.297 587.039 306.293 540.327 283.611C494.087 261.169 430.8 267.618 392.233 236.48C369.352 218.029 360.849 190.512 344.665 167.498C302.716 107.878 204.438 84.722 129.359 112.502C54.3133 140.257 7.94555 212.398 14.2389 281.622C16.7409 308.845 27.539 336.975 51.8932 354.837Z" fill="#F0FEFF"/>
<path d="M93.6045 313.067C115.962 328.875 144.482 335.652 168.786 348.776C180.798 355.255 191.519 363.657 195.885 375.445C199.934 386.437 197.529 397.855 194.89 408.883C190.561 427.167 186.046 446.566 203.858 460.891C223.246 476.49 254.325 486.855 280.196 491.089C307.76 495.578 336.457 492.426 359.908 478.783C365.36 475.59 370.407 471.948 374.877 467.793C380.438 462.655 382.709 457.588 391.31 456.294C407.377 453.835 423.694 452.92 439.953 452C470.924 450.266 502.233 448.377 531.05 437.671C556.565 428.212 579.281 413.147 595.748 394.063C627.164 357.705 629.922 307.951 600.33 270.087C585.971 251.745 565.244 239.318 540.804 232.219C514.923 224.679 487.414 222.297 461.524 214.858C447.496 210.833 433.909 205.133 423.123 196.452C410.125 185.981 401.995 172.232 394.409 158.692C382.37 137.114 370.063 117.272 348.574 101.343C309.933 72.7066 255.207 60.7744 204.822 68.1148C97.3096 83.8044 25.6941 194.859 66.7193 280.503C72.6075 292.811 81.3358 303.743 93.019 312.655C95.7115 314.7 100.032 311.588 97.3126 309.516C52.5781 275.395 54.7379 213.386 74.8704 169.317C93.8738 127.707 132.961 91.574 183.782 77.4756C232.876 63.8459 289.609 71.371 331.877 96.3761C354.953 110.026 370.922 128.217 383.014 149.523C395.029 170.698 405.849 193.027 429.433 206.958C470.861 231.411 527 224.577 568.46 249.007C613.436 275.532 626.957 329.625 605.047 370.979C592.856 393.984 571.272 413.075 545.767 425.84C519.892 438.782 491.217 443.738 461.601 445.882C447.017 446.93 432.417 447.477 417.828 448.575C410.862 449.094 403.915 449.74 397.036 450.615C392.342 451.2 384.269 451.175 380.307 453.558C378.402 454.717 376.878 457.978 375.402 459.664C373.007 462.394 370.303 464.931 367.463 467.333C361.823 472.016 355.33 475.97 348.402 479.121C334.851 485.341 319.813 488.213 304.456 488.287C275.247 488.454 246.71 478.797 222.036 466.175C207.731 458.853 196.658 449.728 196.256 434.856C196.017 425.978 198.674 417.13 200.694 408.467C204.778 390.969 205.746 373.603 191.598 358.98C176.259 343.081 151.473 335.534 130.373 326.74C118.468 321.77 106.959 316.324 96.727 309.104C93.9712 307.106 90.8172 311.091 93.6045 313.067Z" fill="#1FADAD"/>
</svg>
