<svg width="630" height="633" viewBox="0 0 630 633" fill="none" xmlns="http://www.w3.org/2000/svg">
<path d="M459.173 503.755C455.026 506.757 450.878 509.758 446.739 512.727C444.556 514.307 447.007 517.698 449.19 516.118C453.338 513.116 457.485 510.115 461.624 507.146C463.807 505.566 461.356 502.175 459.173 503.755Z" fill="#1FADAD"/>
<path d="M421.644 525.675C418.63 527.862 415.624 530.016 412.61 532.203C410.427 533.783 412.878 537.174 415.061 535.594C418.075 533.407 421.081 531.253 424.095 529.066C426.278 527.486 423.827 524.095 421.644 525.675Z" fill="#1FADAD"/>
<path d="M450.494 489.408C447.841 491.295 445.213 493.224 442.56 495.112C440.377 496.692 442.828 500.083 445.011 498.503C447.664 496.616 450.292 494.686 452.945 492.799C455.128 491.219 452.677 487.828 450.494 489.408Z" fill="#1FADAD"/>
<path d="M379.165 509.888C376.898 511.518 374.631 513.148 372.364 514.777C370.181 516.357 372.632 519.749 374.815 518.169C377.082 516.539 379.349 514.909 381.616 513.279C383.832 511.708 381.381 508.317 379.165 509.888Z" fill="#1FADAD"/>
<path d="M438.645 463.565C435.992 465.452 433.363 467.382 430.71 469.269C428.528 470.849 430.979 474.24 433.162 472.66C435.815 470.773 438.443 468.844 441.096 466.956C443.279 465.376 440.827 461.985 438.645 463.565Z" fill="#1FADAD"/>
<path d="M408.529 507.613C411.543 505.426 414.549 503.272 417.563 501.085C419.746 499.505 417.295 496.114 415.112 497.694C412.098 499.881 409.092 502.035 406.078 504.222C403.895 505.802 406.346 509.193 408.529 507.613Z" fill="#1FADAD"/>
<path d="M486.851 462.288C485.267 460.111 481.866 462.555 483.45 464.732C485.026 466.943 488.426 464.498 486.851 462.288Z" fill="#1FADAD"/>
<path d="M456.844 443.543C461.378 440.284 465.878 437.016 470.412 433.756C472.595 432.176 470.144 428.785 467.961 430.365C463.427 433.625 458.927 436.893 454.393 440.152C452.21 441.732 454.661 445.123 456.844 443.543Z" fill="#1FADAD"/>
<path d="M505.722 444.39C508.736 442.203 511.742 440.05 514.756 437.863C516.939 436.283 514.488 432.892 512.305 434.471C509.291 436.658 506.285 438.812 503.271 440.999C501.088 442.579 503.539 445.97 505.722 444.39Z" fill="#1FADAD"/>
<path d="M463.659 469.57C464.792 468.755 465.926 467.94 467.059 467.125C469.242 465.545 466.791 462.154 464.608 463.734C463.475 464.549 462.341 465.364 461.208 466.179C459.025 467.759 461.476 471.15 463.659 469.57Z" fill="#1FADAD"/>
<path d="M518.898 474.406C520.778 473.034 522.651 471.696 524.565 470.332C526.748 468.752 524.297 465.361 522.114 466.941C520.233 468.313 518.361 469.651 516.447 471.015C514.264 472.595 516.715 475.986 518.898 474.406Z" fill="#1FADAD"/>
<path d="M496.867 424.989C499.881 422.802 502.887 420.648 505.901 418.461C508.084 416.881 505.633 413.49 503.45 415.07C500.436 417.257 497.43 419.411 494.416 421.598C492.191 423.202 494.651 426.56 496.867 424.989Z" fill="#1FADAD"/>
<path d="M482.634 488.545C484.154 487.473 485.648 486.358 487.168 485.286C489.351 483.706 486.9 480.315 484.717 481.895C483.197 482.967 481.703 484.082 480.183 485.154C477.992 486.767 480.451 490.125 482.634 488.545Z" fill="#1FADAD"/>
<path d="M484.485 445.949C486.366 444.577 488.238 443.238 490.152 441.874C492.335 440.294 489.884 436.903 487.701 438.483C485.82 439.855 483.948 441.194 482.034 442.557C479.842 444.171 482.302 447.529 484.485 445.949Z" fill="#1FADAD"/>
<path d="M367.856 543.023C366.272 540.846 362.872 543.29 364.456 545.467C366.04 547.644 369.44 545.2 367.856 543.023Z" fill="#1FADAD"/>
<path d="M437.895 555.225C442.429 551.966 446.929 548.698 451.463 545.438C453.646 543.858 451.195 540.467 449.012 542.047C444.478 545.307 439.978 548.575 435.444 551.834C433.261 553.414 435.712 556.805 437.895 555.225Z" fill="#1FADAD"/>
<path d="M388.903 480.55C391.917 478.363 394.923 476.209 397.937 474.022C400.12 472.442 397.669 469.051 395.486 470.631C392.472 472.818 389.466 474.971 386.452 477.158C384.269 478.738 386.72 482.13 388.903 480.55Z" fill="#1FADAD"/>
<path d="M391.685 537.855C390.101 535.678 386.701 538.123 388.285 540.3C389.869 542.477 393.269 540.033 391.685 537.855Z" fill="#1FADAD"/>
<path d="M383.62 575.47C387.373 572.759 391.168 570.023 394.921 567.312C397.104 565.732 394.653 562.341 392.47 563.921C388.717 566.632 384.922 569.367 381.169 572.078C378.986 573.658 381.446 577.016 383.62 575.47Z" fill="#1FADAD"/>
<path d="M337.41 533.156C341.558 530.154 345.705 527.153 349.844 524.184C352.027 522.604 349.576 519.213 347.393 520.793C343.246 523.795 339.098 526.797 334.959 529.765C332.776 531.345 335.227 534.736 337.41 533.156Z" fill="#1FADAD"/>
<path d="M390.098 541.576C395.766 537.501 401.399 533.418 407.067 529.344C409.249 527.764 406.798 524.373 404.615 525.953C398.948 530.027 393.314 534.11 387.647 538.184C385.431 539.756 387.882 543.147 390.098 541.576Z" fill="#1FADAD"/>
<path d="M359.469 551.632C365.136 547.557 370.77 543.475 376.437 539.4C378.62 537.82 376.169 534.429 373.986 536.009C368.319 540.083 362.685 544.166 357.018 548.241C354.835 549.821 357.286 553.212 359.469 551.632Z" fill="#1FADAD"/>
<path d="M426.564 451.663C429.579 449.476 432.584 447.322 435.598 445.135C437.781 443.555 435.33 440.164 433.147 441.744C430.133 443.931 427.127 446.084 424.113 448.271C421.897 449.843 424.348 453.234 426.564 451.663Z" fill="#1FADAD"/>
<path d="M488.316 515.388C490.583 513.758 492.85 512.128 495.116 510.498C497.299 508.918 494.848 505.527 492.665 507.107C490.398 508.737 488.131 510.366 485.865 511.996C483.673 513.61 486.133 516.967 488.316 515.388Z" fill="#1FADAD"/>
<path d="M532.814 412.795C534.695 411.423 536.567 410.084 538.481 408.721C540.664 407.141 538.213 403.749 536.03 405.329C534.149 406.701 532.277 408.04 530.363 409.404C528.18 410.984 530.631 414.375 532.814 412.795Z" fill="#1FADAD"/>
<path d="M463.221 528.335C464.354 527.52 465.487 526.706 466.621 525.891C468.804 524.311 466.353 520.919 464.17 522.499C463.036 523.314 461.903 524.129 460.769 524.944C458.586 526.524 461.038 529.915 463.221 528.335Z" fill="#1FADAD"/>
<path d="M413.48 570.264C411.896 568.087 408.496 570.531 410.08 572.709C411.664 574.886 415.064 572.441 413.48 570.264Z" fill="#1FADAD"/>
<path d="M289.383 533.449C290.516 532.634 291.649 531.819 292.783 531.004C294.966 529.424 292.515 526.033 290.332 527.613C289.198 528.428 288.065 529.242 286.931 530.057C284.748 531.637 287.2 535.028 289.383 533.449Z" fill="#1FADAD"/>
<path d="M361.636 507.09C365.388 504.379 369.183 501.644 372.936 498.933C375.119 497.353 372.668 493.962 370.485 495.541C366.732 498.252 362.937 500.988 359.184 503.699C357.001 505.279 359.453 508.67 361.636 507.09Z" fill="#1FADAD"/>
<path d="M408.284 490.638C410.937 488.751 413.565 486.821 416.218 484.934C418.401 483.354 415.95 479.963 413.767 481.543C411.114 483.43 408.486 485.359 405.833 487.247C403.65 488.827 406.101 492.218 408.284 490.638Z" fill="#1FADAD"/>
<path d="M488.106 404.653C486.522 402.476 483.122 404.92 484.706 407.097C486.29 409.275 489.691 406.83 488.106 404.653Z" fill="#1FADAD"/>
<path d="M435.961 424.227C440.495 420.968 444.995 417.7 449.529 414.44C451.712 412.86 449.261 409.469 447.078 411.049C442.544 414.308 438.044 417.576 433.51 420.836C431.327 422.416 433.778 425.807 435.961 424.227Z" fill="#1FADAD"/>
<path d="M361.125 454.161C356.977 457.162 352.83 460.164 348.691 463.133C346.508 464.713 348.959 468.104 351.142 466.524C355.289 463.522 359.437 460.52 363.576 457.552C365.793 455.98 363.341 452.589 361.125 454.161Z" fill="#1FADAD"/>
<path d="M323.595 476.081C320.581 478.268 317.576 480.422 314.561 482.609C312.378 484.189 314.83 487.58 317.013 486C320.027 483.813 323.032 481.66 326.047 479.473C328.23 477.893 325.778 474.501 323.595 476.081Z" fill="#1FADAD"/>
<path d="M352.454 439.781C349.801 441.668 347.173 443.597 344.52 445.485C342.337 447.065 344.788 450.456 346.971 448.876C349.624 446.989 352.252 445.059 354.905 443.172C357.088 441.592 354.636 438.201 352.454 439.781Z" fill="#1FADAD"/>
<path d="M281.15 460.302C278.883 461.932 276.616 463.562 274.349 465.192C272.166 466.772 274.617 470.163 276.8 468.583C279.067 466.953 281.334 465.323 283.601 463.694C285.784 462.114 283.333 458.723 281.15 460.302Z" fill="#1FADAD"/>
<path d="M340.596 413.971C337.943 415.858 335.315 417.788 332.662 419.675C330.479 421.255 332.93 424.646 335.113 423.067C337.766 421.179 340.394 419.25 343.047 417.362C345.23 415.782 342.779 412.391 340.596 413.971Z" fill="#1FADAD"/>
<path d="M310.515 458.028C313.529 455.841 316.535 453.687 319.549 451.5C321.732 449.92 319.281 446.529 317.098 448.109C314.083 450.296 311.078 452.45 308.064 454.637C305.881 456.217 308.332 459.608 310.515 458.028Z" fill="#1FADAD"/>
<path d="M388.802 412.694C387.218 410.517 383.818 412.961 385.402 415.138C386.986 417.316 390.386 414.871 388.802 412.694Z" fill="#1FADAD"/>
<path d="M437.094 398.469C435.51 396.292 432.109 398.737 433.694 400.914C435.311 403.099 438.678 400.646 437.094 398.469Z" fill="#1FADAD"/>
<path d="M358.838 393.924C363.371 390.665 367.872 387.397 372.405 384.137C374.588 382.557 372.137 379.166 369.954 380.746C365.421 384.005 360.92 387.274 356.386 390.533C354.204 392.113 356.655 395.504 358.838 393.924Z" fill="#1FADAD"/>
<path d="M407.716 394.772C410.73 392.585 413.735 390.431 416.75 388.244C418.933 386.664 416.481 383.273 414.298 384.853C411.284 387.04 408.279 389.193 405.264 391.38C403.048 392.952 405.499 396.343 407.716 394.772Z" fill="#1FADAD"/>
<path d="M365.653 419.952C366.787 419.137 367.92 418.322 369.054 417.507C371.236 415.927 368.785 412.536 366.602 414.116C365.469 414.93 364.335 415.745 363.202 416.56C361.019 418.14 363.47 421.531 365.653 419.952Z" fill="#1FADAD"/>
<path d="M420.883 424.821C422.764 423.448 424.636 422.11 426.55 420.746C428.733 419.166 426.282 415.775 424.099 417.355C422.218 418.727 420.346 420.066 418.432 421.429C416.215 423.001 418.666 426.392 420.883 424.821Z" fill="#1FADAD"/>
<path d="M398.819 375.395C401.833 373.208 404.838 371.055 407.853 368.868C410.036 367.288 407.584 363.896 405.402 365.476C402.387 367.663 399.382 369.817 396.367 372.004C394.185 373.584 396.636 376.975 398.819 375.395Z" fill="#1FADAD"/>
<path d="M384.586 438.952C386.105 437.879 387.6 436.765 389.119 435.692C391.302 434.112 388.851 430.721 386.668 432.301C385.149 433.373 383.654 434.488 382.135 435.56C379.952 437.14 382.403 440.532 384.586 438.952Z" fill="#1FADAD"/>
<path d="M386.436 396.355C388.317 394.983 390.189 393.644 392.104 392.28C394.286 390.7 391.835 387.309 389.652 388.889C387.772 390.261 385.899 391.6 383.985 392.963C381.802 394.543 384.253 397.935 386.436 396.355Z" fill="#1FADAD"/>
<path d="M269.816 493.395C268.232 491.218 264.832 493.663 266.416 495.84C268 498.017 271.4 495.572 269.816 493.395Z" fill="#1FADAD"/>
<path d="M339.855 505.598C344.389 502.338 348.889 499.07 353.423 495.811C355.606 494.231 353.155 490.839 350.972 492.419C346.438 495.679 341.938 498.947 337.404 502.207C335.221 503.786 337.672 507.178 339.855 505.598Z" fill="#1FADAD"/>
<path d="M290.863 430.922C293.877 428.735 296.883 426.582 299.897 424.395C302.08 422.815 299.629 419.424 297.446 421.004C294.432 423.191 291.426 425.344 288.412 427.531C286.22 429.144 288.68 432.502 290.863 430.922Z" fill="#1FADAD"/>
<path d="M293.646 488.228C292.062 486.051 288.662 488.496 290.246 490.673C291.83 492.85 295.23 490.405 293.646 488.228Z" fill="#1FADAD"/>
<path d="M285.614 525.851C289.367 523.14 293.162 520.404 296.915 517.693C299.098 516.114 296.646 512.722 294.463 514.302C290.71 517.013 286.915 519.749 283.163 522.46C280.946 524.031 283.397 527.422 285.614 525.851Z" fill="#1FADAD"/>
<path d="M239.403 483.538C243.551 480.536 247.699 477.534 251.838 474.565C254.021 472.985 251.57 469.594 249.387 471.174C245.239 474.176 241.091 477.178 236.952 480.146C234.769 481.726 237.22 485.117 239.403 483.538Z" fill="#1FADAD"/>
<path d="M292.05 491.982C297.717 487.907 303.351 483.825 309.018 479.75C311.201 478.17 308.75 474.779 306.567 476.359C300.9 480.433 295.266 484.516 289.599 488.591C287.416 490.17 289.867 493.562 292.05 491.982Z" fill="#1FADAD"/>
<path d="M261.42 502.038C267.088 497.964 272.721 493.881 278.388 489.807C280.571 488.227 278.12 484.835 275.937 486.415C270.27 490.49 264.636 494.573 258.969 498.647C256.786 500.227 259.237 503.618 261.42 502.038Z" fill="#1FADAD"/>
<path d="M328.516 402.069C331.53 399.882 334.536 397.728 337.55 395.541C339.733 393.961 337.282 390.57 335.099 392.15C332.085 394.337 329.079 396.49 326.065 398.677C323.882 400.257 326.342 403.615 328.516 402.069Z" fill="#1FADAD"/>
<path d="M390.267 465.794C392.534 464.164 394.801 462.534 397.068 460.904C399.251 459.324 396.8 455.933 394.617 457.513C392.35 459.143 390.083 460.772 387.816 462.402C385.633 463.982 388.084 467.373 390.267 465.794Z" fill="#1FADAD"/>
<path d="M434.766 363.201C436.646 361.829 438.519 360.49 440.433 359.127C442.616 357.547 440.165 354.155 437.982 355.735C436.101 357.108 434.229 358.446 432.314 359.81C430.132 361.39 432.583 364.781 434.766 363.201Z" fill="#1FADAD"/>
<path d="M365.172 478.742C366.305 477.927 367.439 477.112 368.572 476.297C370.755 474.717 368.304 471.326 366.121 472.906C364.988 473.72 363.854 474.535 362.721 475.35C360.538 476.93 362.989 480.322 365.172 478.742Z" fill="#1FADAD"/>
<path d="M315.44 520.637C313.856 518.459 310.456 520.904 312.04 523.081C313.616 525.292 317.016 522.847 315.44 520.637Z" fill="#1FADAD"/>
<path d="M191.343 483.821C192.476 483.006 193.61 482.191 194.743 481.376C196.926 479.796 194.475 476.405 192.292 477.985C191.159 478.8 190.025 479.615 188.892 480.43C186.7 482.043 189.16 485.401 191.343 483.821Z" fill="#1FADAD"/>
<path d="M263.587 457.496C267.34 454.785 271.135 452.049 274.888 449.339C277.071 447.759 274.62 444.367 272.437 445.947C268.684 448.658 264.889 451.394 261.136 454.105C258.953 455.685 261.404 459.076 263.587 457.496Z" fill="#1FADAD"/>
<path d="M310.245 441.011C312.898 439.123 315.526 437.194 318.179 435.306C320.362 433.727 317.911 430.335 315.728 431.915C313.075 433.803 310.447 435.732 307.794 437.619C305.611 439.199 308.062 442.591 310.245 441.011Z" fill="#1FADAD"/>
<path d="M390.091 355.067C388.507 352.89 385.107 355.335 386.691 357.512C388.275 359.689 391.676 357.244 390.091 355.067Z" fill="#1FADAD"/>
<path d="M330.674 463.232C329.09 461.055 325.69 463.499 327.274 465.677C328.858 467.854 332.258 465.409 330.674 463.232Z" fill="#1FADAD"/>
<path d="M337.913 374.633C342.446 371.374 346.947 368.106 351.48 364.846C353.663 363.266 351.212 359.875 349.029 361.455C344.495 364.715 339.995 367.983 335.461 371.242C333.278 372.822 335.73 376.213 337.913 374.633Z" fill="#1FADAD"/>
<path d="M572.732 332.425C568.585 335.427 564.437 338.428 560.298 341.397C558.115 342.977 560.566 346.368 562.749 344.788C566.897 341.786 571.044 338.784 575.183 335.816C577.408 334.211 574.949 330.853 572.732 332.425Z" fill="#1FADAD"/>
<path d="M535.203 354.345C532.189 356.532 529.183 358.686 526.169 360.873C523.986 362.453 526.437 365.844 528.62 364.264C531.634 362.077 534.64 359.923 537.654 357.736C539.871 356.165 537.419 352.774 535.203 354.345Z" fill="#1FADAD"/>
<path d="M564.061 318.045C561.408 319.932 558.78 321.861 556.127 323.749C553.944 325.329 556.395 328.72 558.578 327.14C561.231 325.253 563.859 323.324 566.512 321.436C568.695 319.856 566.244 316.465 564.061 318.045Z" fill="#1FADAD"/>
<path d="M492.758 338.567C490.491 340.196 488.224 341.826 485.957 343.456C483.774 345.036 486.226 348.427 488.408 346.847C490.675 345.217 492.942 343.588 495.209 341.958C497.392 340.378 494.941 336.987 492.758 338.567Z" fill="#1FADAD"/>
<path d="M552.212 292.201C549.559 294.089 546.931 296.018 544.278 297.906C542.095 299.485 544.546 302.877 546.729 301.297C549.382 299.409 552.01 297.48 554.663 295.593C556.846 294.013 554.395 290.621 552.212 292.201Z" fill="#1FADAD"/>
<path d="M522.122 336.292C525.136 334.105 528.142 331.951 531.156 329.764C533.339 328.184 530.888 324.793 528.705 326.373C525.691 328.56 522.685 330.713 519.671 332.9C517.488 334.48 519.939 337.872 522.122 336.292Z" fill="#1FADAD"/>
<path d="M600.41 290.958C598.826 288.781 595.426 291.226 597.01 293.403C598.594 295.58 601.994 293.135 600.41 290.958Z" fill="#1FADAD"/>
<path d="M570.446 272.188C574.98 268.929 579.48 265.661 584.014 262.401C586.197 260.821 583.745 257.43 581.563 259.01C577.029 262.27 572.528 265.538 567.995 268.797C565.812 270.377 568.263 273.768 570.446 272.188Z" fill="#1FADAD"/>
<path d="M577.261 298.216C578.394 297.401 579.527 296.586 580.661 295.771C582.844 294.191 580.393 290.8 578.21 292.38C577.076 293.194 575.943 294.009 574.809 294.824C572.626 296.404 575.078 299.795 577.261 298.216Z" fill="#1FADAD"/>
<path d="M596.193 317.216C597.713 316.143 599.207 315.029 600.727 313.956C602.91 312.376 600.459 308.985 598.276 310.565C596.756 311.637 595.262 312.752 593.742 313.824C591.559 315.404 594.01 318.796 596.193 317.216Z" fill="#1FADAD"/>
<path d="M598.044 274.618C599.925 273.246 601.797 271.908 603.711 270.544C605.894 268.964 603.443 265.573 601.26 267.153C599.379 268.525 597.507 269.864 595.593 271.227C593.41 272.807 595.861 276.198 598.044 274.618Z" fill="#1FADAD"/>
<path d="M481.424 371.659C479.84 369.482 476.439 371.927 478.023 374.104C479.608 376.281 483.008 373.836 481.424 371.659Z" fill="#1FADAD"/>
<path d="M551.463 383.862C555.996 380.603 560.497 377.335 565.03 374.075C567.213 372.495 564.762 369.104 562.579 370.684C558.046 373.943 553.545 377.211 549.012 380.471C546.829 382.051 549.28 385.442 551.463 383.862Z" fill="#1FADAD"/>
<path d="M502.471 309.186C505.485 306.999 508.491 304.846 511.505 302.659C513.688 301.079 511.237 297.688 509.054 299.267C506.04 301.454 503.034 303.608 500.02 305.795C497.837 307.375 500.288 310.766 502.471 309.186Z" fill="#1FADAD"/>
<path d="M505.253 366.492C503.669 364.315 500.269 366.76 501.853 368.937C503.437 371.114 506.837 368.669 505.253 366.492Z" fill="#1FADAD"/>
<path d="M497.221 404.115C500.974 401.404 504.769 398.668 508.522 395.958C510.705 394.378 508.254 390.986 506.071 392.566C502.318 395.277 498.523 398.013 494.77 400.724C492.553 402.295 495.004 405.686 497.221 404.115Z" fill="#1FADAD"/>
<path d="M451.011 361.801C455.159 358.799 459.306 355.798 463.445 352.829C465.628 351.249 463.177 347.858 460.994 349.438C456.846 352.44 452.699 355.442 448.56 358.41C446.377 359.99 448.828 363.381 451.011 361.801Z" fill="#1FADAD"/>
<path d="M503.657 370.246C509.324 366.171 514.958 362.088 520.625 358.014C522.808 356.434 520.357 353.043 518.174 354.623C512.507 358.697 506.873 362.78 501.206 366.854C499.023 368.434 501.474 371.825 503.657 370.246Z" fill="#1FADAD"/>
<path d="M473.028 380.302C478.695 376.228 484.329 372.145 489.996 368.071C492.179 366.491 489.728 363.099 487.545 364.679C481.877 368.754 476.244 372.837 470.577 376.911C468.394 378.491 470.845 381.882 473.028 380.302Z" fill="#1FADAD"/>
<path d="M540.132 280.299C543.146 278.113 546.152 275.959 549.166 273.772C551.349 272.192 548.897 268.801 546.715 270.381C543.7 272.568 540.695 274.721 537.681 276.908C535.498 278.488 537.949 281.879 540.132 280.299Z" fill="#1FADAD"/>
<path d="M601.875 344.057C604.142 342.428 606.408 340.798 608.675 339.168C610.858 337.588 608.407 334.197 606.224 335.777C603.957 337.407 601.69 339.036 599.424 340.666C597.241 342.246 599.692 345.637 601.875 344.057Z" fill="#1FADAD"/>
<path d="M576.78 357.006C577.914 356.191 579.047 355.376 580.18 354.561C582.363 352.981 579.912 349.59 577.729 351.17C576.596 351.985 575.462 352.8 574.329 353.615C572.146 355.195 574.597 358.586 576.78 357.006Z" fill="#1FADAD"/>
<path d="M527.048 398.901C525.464 396.724 522.063 399.168 523.647 401.345C525.231 403.523 528.632 401.078 527.048 398.901Z" fill="#1FADAD"/>
<path d="M402.95 362.085C404.083 361.27 405.217 360.455 406.35 359.64C408.533 358.06 406.082 354.669 403.899 356.249C402.766 357.064 401.632 357.879 400.499 358.693C398.316 360.273 400.767 363.665 402.95 362.085Z" fill="#1FADAD"/>
<path d="M475.194 335.76C478.947 333.049 482.742 330.314 486.495 327.603C488.678 326.023 486.227 322.632 484.044 324.211C480.291 326.922 476.496 329.658 472.743 332.369C470.56 333.949 473.011 337.34 475.194 335.76Z" fill="#1FADAD"/>
<path d="M521.852 319.275C524.505 317.388 527.133 315.458 529.786 313.571C531.969 311.991 529.518 308.6 527.335 310.179C524.682 312.067 522.054 313.996 519.401 315.884C517.218 317.464 519.669 320.855 521.852 319.275Z" fill="#1FADAD"/>
<path d="M549.554 252.906C554.088 249.647 558.588 246.379 563.122 243.119C565.305 241.539 562.854 238.148 560.671 239.728C556.137 242.987 551.637 246.255 547.103 249.515C544.887 251.086 547.338 254.478 549.554 252.906Z" fill="#1FADAD"/>
<path d="M453.981 287.474C449.833 290.476 445.686 293.477 441.547 296.446C439.364 298.026 441.815 301.417 443.998 299.837C448.145 296.835 452.293 293.833 456.432 290.865C458.615 289.285 456.164 285.894 453.981 287.474Z" fill="#1FADAD"/>
<path d="M416.418 309.386C413.403 311.573 410.398 313.726 407.384 315.913C405.201 317.493 407.652 320.884 409.835 319.304C412.849 317.117 415.855 314.964 418.869 312.777C421.085 311.205 418.634 307.814 416.418 309.386Z" fill="#1FADAD"/>
<path d="M445.268 273.118C442.615 275.006 439.987 276.935 437.334 278.823C435.151 280.403 437.602 283.794 439.785 282.214C442.438 280.326 445.066 278.397 447.719 276.51C449.902 274.93 447.451 271.538 445.268 273.118Z" fill="#1FADAD"/>
<path d="M373.972 293.607C371.706 295.237 369.439 296.867 367.172 298.497C364.989 300.076 367.44 303.468 369.623 301.888C371.89 300.258 374.157 298.628 376.424 296.998C378.607 295.419 376.155 292.027 373.972 293.607Z" fill="#1FADAD"/>
<path d="M433.418 247.275C430.765 249.163 428.137 251.092 425.484 252.979C423.301 254.559 425.752 257.951 427.935 256.371C430.588 254.483 433.216 252.554 435.869 250.667C438.052 249.087 435.601 245.695 433.418 247.275Z" fill="#1FADAD"/>
<path d="M403.337 291.332C406.351 289.145 409.357 286.992 412.371 284.805C414.554 283.225 412.103 279.833 409.92 281.413C406.906 283.6 403.9 285.754 400.886 287.941C398.703 289.521 401.154 292.912 403.337 291.332Z" fill="#1FADAD"/>
<path d="M481.625 245.998C480.041 243.821 476.641 246.266 478.225 248.443C479.842 250.628 483.209 248.175 481.625 245.998Z" fill="#1FADAD"/>
<path d="M451.652 227.262C456.186 224.003 460.686 220.735 465.22 217.475C467.403 215.895 464.952 212.504 462.769 214.084C458.235 217.344 453.735 220.612 449.201 223.871C447.018 225.451 449.469 228.842 451.652 227.262Z" fill="#1FADAD"/>
<path d="M500.538 228.076C503.552 225.889 506.558 223.736 509.572 221.549C511.755 219.969 509.304 216.577 507.121 218.157C504.107 220.344 501.101 222.498 498.087 224.685C495.896 226.298 498.355 229.656 500.538 228.076Z" fill="#1FADAD"/>
<path d="M458.467 253.289C459.6 252.474 460.734 251.659 461.867 250.844C464.05 249.264 461.599 245.873 459.416 247.453C458.283 248.268 457.149 249.083 456.016 249.898C453.833 251.478 456.284 254.869 458.467 253.289Z" fill="#1FADAD"/>
<path d="M513.705 258.125C515.586 256.753 517.458 255.415 519.373 254.051C521.556 252.471 519.104 249.08 516.921 250.66C515.041 252.032 513.168 253.37 511.254 254.734C509.071 256.314 511.522 259.705 513.705 258.125Z" fill="#1FADAD"/>
<path d="M491.641 208.699C494.655 206.512 497.66 204.359 500.675 202.172C502.857 200.592 500.406 197.201 498.223 198.781C495.209 200.968 492.204 203.121 489.189 205.308C487.006 206.888 489.458 210.279 491.641 208.699Z" fill="#1FADAD"/>
<path d="M477.408 272.256C478.927 271.183 480.422 270.069 481.942 268.996C484.125 267.416 481.673 264.025 479.49 265.605C477.971 266.678 476.476 267.792 474.957 268.864C472.774 270.444 475.225 273.836 477.408 272.256Z" fill="#1FADAD"/>
<path d="M479.258 229.659C481.139 228.287 483.011 226.948 484.926 225.585C487.109 224.005 484.657 220.613 482.474 222.193C480.594 223.565 478.721 224.904 476.807 226.268C474.624 227.848 477.075 231.239 479.258 229.659Z" fill="#1FADAD"/>
<path d="M362.638 326.7C361.054 324.522 357.654 326.967 359.238 329.144C360.814 331.355 364.214 328.91 362.638 326.7Z" fill="#1FADAD"/>
<path d="M432.669 338.936C437.203 335.676 441.703 332.408 446.237 329.149C448.42 327.569 445.968 324.178 443.785 325.758C439.252 329.017 434.751 332.285 430.218 335.545C428.035 337.124 430.486 340.516 432.669 338.936Z" fill="#1FADAD"/>
<path d="M383.677 264.26C386.691 262.073 389.697 259.92 392.711 257.733C394.894 256.153 392.443 252.762 390.26 254.341C387.246 256.528 384.24 258.682 381.226 260.869C379.043 262.449 381.494 265.84 383.677 264.26Z" fill="#1FADAD"/>
<path d="M386.459 321.566C384.875 319.389 381.475 321.834 383.059 324.011C384.643 326.188 388.044 323.743 386.459 321.566Z" fill="#1FADAD"/>
<path d="M378.436 359.155C382.189 356.444 385.984 353.708 389.737 350.998C391.92 349.418 389.468 346.026 387.285 347.606C383.532 350.317 379.737 353.053 375.985 355.764C373.793 357.377 376.253 360.735 378.436 359.155Z" fill="#1FADAD"/>
<path d="M332.217 316.875C336.365 313.873 340.512 310.872 344.651 307.903C346.834 306.323 344.383 302.932 342.2 304.512C338.052 307.514 333.905 310.515 329.766 313.484C327.583 315.064 330.034 318.455 332.217 316.875Z" fill="#1FADAD"/>
<path d="M384.873 325.286C390.54 321.212 396.174 317.129 401.841 313.054C404.024 311.474 401.573 308.083 399.39 309.663C393.723 313.737 388.089 317.82 382.422 321.895C380.239 323.475 382.69 326.866 384.873 325.286Z" fill="#1FADAD"/>
<path d="M354.242 335.343C359.91 331.268 365.543 327.186 371.21 323.111C373.393 321.531 370.942 318.14 368.759 319.72C363.092 323.794 357.458 327.877 351.791 331.952C349.608 333.531 352.059 336.923 354.242 335.343Z" fill="#1FADAD"/>
<path d="M421.338 235.373C424.353 233.186 427.358 231.033 430.372 228.846C432.555 227.266 430.104 223.874 427.921 225.454C424.907 227.641 421.901 229.795 418.887 231.982C416.704 233.562 419.156 236.953 421.338 235.373Z" fill="#1FADAD"/>
<path d="M483.089 299.098C485.356 297.468 487.623 295.838 489.89 294.209C492.073 292.629 489.622 289.237 487.439 290.817C485.172 292.447 482.905 294.077 480.638 295.707C478.455 297.286 480.906 300.678 483.089 299.098Z" fill="#1FADAD"/>
<path d="M527.622 196.514C529.503 195.142 531.375 193.803 533.289 192.44C535.472 190.86 533.021 187.469 530.838 189.049C528.957 190.421 527.085 191.759 525.171 193.123C522.954 194.694 525.405 198.086 527.622 196.514Z" fill="#1FADAD"/>
<path d="M458.028 312.054C459.162 311.239 460.295 310.425 461.429 309.61C463.612 308.03 461.16 304.639 458.977 306.218C457.844 307.033 456.711 307.848 455.577 308.663C453.361 310.235 455.812 313.626 458.028 312.054Z" fill="#1FADAD"/>
<path d="M410.752 338.404C409.167 336.226 405.767 338.671 407.351 340.848C408.969 343.034 412.336 340.581 410.752 338.404Z" fill="#1FADAD"/>
<path d="M284.157 317.159C285.29 316.344 286.424 315.529 287.557 314.714C289.74 313.134 287.289 309.743 285.106 311.323C283.973 312.138 282.839 312.953 281.706 313.768C279.523 315.348 281.974 318.739 284.157 317.159Z" fill="#1FADAD"/>
<path d="M356.41 290.801C360.163 288.09 363.958 285.354 367.711 282.643C369.894 281.063 367.442 277.672 365.259 279.252C361.506 281.963 357.712 284.699 353.959 287.409C351.776 288.989 354.227 292.381 356.41 290.801Z" fill="#1FADAD"/>
<path d="M403.058 274.348C405.711 272.461 408.339 270.532 410.992 268.644C413.175 267.064 410.724 263.673 408.541 265.253C405.888 267.14 403.26 269.07 400.607 270.957C398.424 272.537 400.875 275.928 403.058 274.348Z" fill="#1FADAD"/>
<path d="M482.914 188.372C481.33 186.195 477.93 188.639 479.514 190.817C481.098 192.994 484.498 190.549 482.914 188.372Z" fill="#1FADAD"/>
<path d="M430.769 207.946C435.303 204.687 439.803 201.419 444.337 198.159C446.52 196.579 444.068 193.188 441.886 194.768C437.352 198.027 432.852 201.295 428.318 204.555C426.101 206.126 428.553 209.518 430.769 207.946Z" fill="#1FADAD"/>
<path d="M245.386 427.631C241.238 430.633 237.091 433.635 232.952 436.603C230.769 438.183 233.22 441.574 235.403 439.994C239.55 436.992 243.698 433.991 247.837 431.022C250.02 429.442 247.56 426.084 245.386 427.631Z" fill="#1FADAD"/>
<path d="M207.848 449.585C204.834 451.772 201.829 453.925 198.814 456.112C196.632 457.692 199.083 461.083 201.266 459.503C204.28 457.316 207.285 455.163 210.3 452.976C212.491 451.363 210.031 448.005 207.848 449.585Z" fill="#1FADAD"/>
<path d="M236.706 413.284C234.053 415.171 231.425 417.101 228.772 418.988C226.589 420.568 229.041 423.959 231.224 422.379C233.877 420.492 236.505 418.563 239.158 416.675C241.341 415.095 238.889 411.704 236.706 413.284Z" fill="#1FADAD"/>
<path d="M165.403 433.806C163.136 435.436 160.869 437.066 158.602 438.696C156.419 440.276 158.87 443.667 161.053 442.087C163.32 440.457 165.587 438.827 167.854 437.198C170.037 435.618 167.585 432.226 165.403 433.806Z" fill="#1FADAD"/>
<path d="M224.857 387.44C222.204 389.328 219.576 391.257 216.922 393.145C214.74 394.724 217.191 398.116 219.374 396.536C222.027 394.648 224.655 392.719 227.308 390.832C229.491 389.252 227.04 385.86 224.857 387.44Z" fill="#1FADAD"/>
<path d="M194.767 431.531C197.781 429.344 200.787 427.19 203.801 425.003C205.984 423.423 203.533 420.032 201.35 421.612C198.336 423.799 195.33 425.953 192.316 428.14C190.133 429.72 192.584 433.111 194.767 431.531Z" fill="#1FADAD"/>
<path d="M273.055 386.197C271.471 384.02 268.071 386.465 269.655 388.642C271.239 390.819 274.639 388.374 273.055 386.197Z" fill="#1FADAD"/>
<path d="M343.613 345.624C342.029 343.446 338.628 345.891 340.213 348.068C341.797 350.245 345.197 347.801 343.613 345.624Z" fill="#1FADAD"/>
<path d="M243.091 367.427C247.624 364.168 252.125 360.9 256.658 357.64C258.841 356.06 256.39 352.669 254.207 354.249C249.673 357.509 245.173 360.777 240.639 364.036C238.423 365.608 240.874 368.999 243.091 367.427Z" fill="#1FADAD"/>
<path d="M291.935 368.266C294.949 366.079 297.955 363.925 300.969 361.738C303.152 360.158 300.701 356.767 298.518 358.347C295.504 360.534 292.498 362.688 289.484 364.875C287.301 366.455 289.752 369.846 291.935 368.266Z" fill="#1FADAD"/>
<path d="M249.905 393.455C251.039 392.64 252.172 391.825 253.306 391.01C255.488 389.43 253.037 386.039 250.854 387.619C249.721 388.434 248.587 389.249 247.454 390.064C245.238 391.635 247.689 395.026 249.905 393.455Z" fill="#1FADAD"/>
<path d="M305.102 398.316C306.983 396.944 308.855 395.605 310.769 394.241C312.952 392.661 310.501 389.27 308.318 390.85C306.437 392.222 304.565 393.561 302.651 394.924C300.468 396.504 302.919 399.896 305.102 398.316Z" fill="#1FADAD"/>
<path d="M283.071 348.899C286.085 346.712 289.091 344.558 292.105 342.371C294.288 340.791 291.837 337.4 289.654 338.98C286.64 341.167 283.634 343.32 280.62 345.507C278.437 347.087 280.888 350.479 283.071 348.899Z" fill="#1FADAD"/>
<path d="M268.838 412.455C270.357 411.382 271.852 410.268 273.371 409.195C275.554 407.615 273.103 404.224 270.92 405.804C269.401 406.877 267.906 407.991 266.387 409.064C264.204 410.643 266.655 414.035 268.838 412.455Z" fill="#1FADAD"/>
<path d="M270.689 369.858C272.57 368.486 274.442 367.147 276.356 365.784C278.539 364.204 276.088 360.813 273.905 362.392C272.025 363.765 270.152 365.103 268.238 366.467C266.055 368.047 268.506 371.438 270.689 369.858Z" fill="#1FADAD"/>
<path d="M154.068 466.898C152.484 464.721 149.084 467.165 150.668 469.343C152.252 471.52 155.653 469.075 154.068 466.898Z" fill="#1FADAD"/>
<path d="M224.107 479.101C228.641 475.842 233.141 472.574 237.675 469.314C239.858 467.734 237.407 464.343 235.224 465.923C230.69 469.182 226.19 472.45 221.656 475.71C219.473 477.29 221.924 480.681 224.107 479.101Z" fill="#1FADAD"/>
<path d="M175.116 404.425C178.13 402.238 181.136 400.085 184.15 397.898C186.333 396.318 183.882 392.927 181.699 394.506C178.685 396.693 175.679 398.847 172.665 401.034C170.482 402.614 172.933 406.005 175.116 404.425Z" fill="#1FADAD"/>
<path d="M177.898 461.732C176.314 459.555 172.913 461.999 174.497 464.176C176.081 466.354 179.482 463.909 177.898 461.732Z" fill="#1FADAD"/>
<path d="M169.833 499.346C173.586 496.635 177.381 493.899 181.134 491.188C183.317 489.608 180.866 486.217 178.683 487.797C174.93 490.508 171.135 493.244 167.382 495.954C165.199 497.534 167.65 500.926 169.833 499.346Z" fill="#1FADAD"/>
<path d="M123.656 457.041C127.804 454.039 131.952 451.037 136.091 448.069C138.274 446.489 135.822 443.098 133.639 444.678C129.492 447.679 125.344 450.681 121.205 453.65C119.022 455.23 121.473 458.621 123.656 457.041Z" fill="#1FADAD"/>
<path d="M176.303 465.485C181.97 461.411 187.603 457.328 193.271 453.253C195.454 451.674 193.002 448.282 190.819 449.862C185.152 453.937 179.519 458.02 173.851 462.094C171.668 463.674 174.12 467.065 176.303 465.485Z" fill="#1FADAD"/>
<path d="M145.672 475.542C151.34 471.467 156.973 467.384 162.64 463.31C164.823 461.73 162.372 458.339 160.189 459.919C154.522 463.993 148.888 468.076 143.221 472.15C141.038 473.73 143.489 477.122 145.672 475.542Z" fill="#1FADAD"/>
<path d="M212.777 375.539C215.791 373.352 218.797 371.198 221.811 369.011C223.994 367.431 221.543 364.04 219.36 365.62C216.346 367.807 213.34 369.961 210.326 372.148C208.143 373.728 210.594 377.119 212.777 375.539Z" fill="#1FADAD"/>
<path d="M274.519 439.297C276.786 437.667 279.053 436.038 281.32 434.408C283.503 432.828 281.052 429.437 278.869 431.016C276.602 432.646 274.335 434.276 272.068 435.906C269.885 437.486 272.336 440.877 274.519 439.297Z" fill="#1FADAD"/>
<path d="M319.018 336.704C320.899 335.332 322.771 333.994 324.686 332.63C326.869 331.05 324.417 327.659 322.234 329.239C320.354 330.611 318.482 331.95 316.567 333.313C314.384 334.893 316.836 338.284 319.018 336.704Z" fill="#1FADAD"/>
<path d="M249.425 452.245C250.558 451.43 251.692 450.615 252.825 449.8C255.008 448.22 252.557 444.829 250.374 446.409C249.241 447.224 248.107 448.039 246.974 448.854C244.791 450.434 247.242 453.825 249.425 452.245Z" fill="#1FADAD"/>
<path d="M199.692 494.14C198.108 491.963 194.708 494.407 196.292 496.585C197.876 498.762 201.276 496.317 199.692 494.14Z" fill="#1FADAD"/>
<path d="M75.5954 457.324C76.7289 456.509 77.8623 455.695 78.9957 454.88C81.1787 453.3 78.7275 449.908 76.5446 451.488C75.4112 452.303 74.2777 453.118 73.1442 453.933C70.9613 455.513 73.4125 458.904 75.5954 457.324Z" fill="#1FADAD"/>
<path d="M147.84 431C151.593 428.289 155.388 425.553 159.141 422.842C161.323 421.262 158.872 417.871 156.689 419.451C152.936 422.162 149.141 424.897 145.388 427.608C143.206 429.188 145.657 432.579 147.84 431Z" fill="#1FADAD"/>
<path d="M194.497 414.514C197.15 412.627 199.778 410.697 202.431 408.81C204.614 407.23 202.163 403.839 199.98 405.419C197.327 407.306 194.699 409.235 192.046 411.123C189.863 412.703 192.314 416.094 194.497 414.514Z" fill="#1FADAD"/>
<path d="M274.353 328.537C272.769 326.36 269.368 328.804 270.952 330.982C272.537 333.159 275.937 330.714 274.353 328.537Z" fill="#1FADAD"/>
<path d="M222.165 348.137C226.699 344.877 231.199 341.609 235.733 338.35C237.916 336.77 235.465 333.379 233.282 334.958C228.748 338.218 224.248 341.486 219.714 344.746C217.531 346.326 219.982 349.717 222.165 348.137Z" fill="#1FADAD"/>
<path d="M351.261 217.156C347.113 220.158 342.966 223.16 338.826 226.128C336.643 227.708 339.095 231.099 341.278 229.519C345.425 226.517 349.573 223.516 353.712 220.547C355.895 218.967 353.444 215.576 351.261 217.156Z" fill="#1FADAD"/>
<path d="M313.732 239.076C310.718 241.263 307.712 243.417 304.698 245.604C302.515 247.184 304.966 250.575 307.149 248.995C310.163 246.808 313.169 244.655 316.183 242.468C318.366 240.888 315.915 237.496 313.732 239.076Z" fill="#1FADAD"/>
<path d="M342.581 202.809C339.928 204.697 337.3 206.626 334.647 208.513C332.464 210.093 334.915 213.485 337.098 211.905C339.751 210.017 342.379 208.088 345.032 206.2C347.215 204.62 344.764 201.229 342.581 202.809Z" fill="#1FADAD"/>
<path d="M271.244 223.323C268.977 224.953 266.71 226.582 264.443 228.212C262.26 229.792 264.712 233.183 266.894 231.604C269.161 229.974 271.428 228.344 273.695 226.714C275.912 225.143 273.46 221.751 271.244 223.323Z" fill="#1FADAD"/>
<path d="M330.732 176.966C328.079 178.854 325.451 180.783 322.798 182.67C320.615 184.25 323.066 187.642 325.249 186.062C327.902 184.174 330.53 182.245 333.183 180.357C335.366 178.777 332.915 175.386 330.732 176.966Z" fill="#1FADAD"/>
<path d="M300.65 221.023C303.664 218.836 306.67 216.682 309.684 214.495C311.867 212.915 309.416 209.524 307.233 211.104C304.219 213.291 301.213 215.445 298.199 217.632C295.974 219.237 298.434 222.594 300.65 221.023Z" fill="#1FADAD"/>
<path d="M378.93 175.722C377.346 173.545 373.945 175.99 375.529 178.167C377.114 180.344 380.514 177.899 378.93 175.722Z" fill="#1FADAD"/>
<path d="M348.965 156.953C353.499 153.693 357.999 150.425 362.533 147.166C364.716 145.586 362.265 142.195 360.082 143.775C355.548 147.034 351.048 150.302 346.514 153.562C344.298 155.133 346.749 158.524 348.965 156.953Z" fill="#1FADAD"/>
<path d="M397.81 157.792C400.824 155.605 403.829 153.451 406.844 151.264C409.027 149.684 406.575 146.293 404.392 147.873C401.378 150.06 398.373 152.213 395.359 154.4C393.176 155.98 395.627 159.372 397.81 157.792Z" fill="#1FADAD"/>
<path d="M355.747 182.971C356.88 182.157 358.013 181.342 359.147 180.527C361.33 178.947 358.879 175.556 356.696 177.136C355.562 177.95 354.429 178.765 353.295 179.58C351.112 181.16 353.564 184.551 355.747 182.971Z" fill="#1FADAD"/>
<path d="M410.985 187.807C412.866 186.435 414.738 185.096 416.652 183.733C418.835 182.153 416.384 178.762 414.201 180.341C412.321 181.714 410.448 183.052 408.534 184.416C406.343 186.029 408.802 189.387 410.985 187.807Z" fill="#1FADAD"/>
<path d="M388.946 138.424C391.96 136.237 394.966 134.083 397.98 131.896C400.163 130.316 397.712 126.925 395.529 128.505C392.515 130.692 389.509 132.846 386.495 135.033C384.279 136.604 386.73 139.995 388.946 138.424Z" fill="#1FADAD"/>
<path d="M374.713 201.98C376.233 200.907 377.728 199.793 379.247 198.721C381.43 197.141 378.979 193.749 376.796 195.329C375.276 196.402 373.782 197.516 372.262 198.589C370.079 200.169 372.531 203.56 374.713 201.98Z" fill="#1FADAD"/>
<path d="M376.564 159.384C378.445 158.012 380.317 156.673 382.231 155.309C384.414 153.729 381.963 150.338 379.78 151.918C377.899 153.29 376.027 154.629 374.113 155.992C371.93 157.572 374.381 160.964 376.564 159.384Z" fill="#1FADAD"/>
<path d="M259.944 256.424C258.36 254.247 254.959 256.691 256.544 258.869C258.128 261.046 261.528 258.601 259.944 256.424Z" fill="#1FADAD"/>
<path d="M329.983 268.626C334.517 265.367 339.017 262.099 343.551 258.839C345.734 257.259 343.283 253.868 341.1 255.448C336.566 258.707 332.066 261.976 327.532 265.235C325.349 266.815 327.8 270.206 329.983 268.626Z" fill="#1FADAD"/>
<path d="M280.99 193.951C284.005 191.764 287.01 189.61 290.024 187.423C292.207 185.844 289.756 182.452 287.573 184.032C284.559 186.219 281.553 188.373 278.539 190.56C276.356 192.14 278.808 195.531 280.99 193.951Z" fill="#1FADAD"/>
<path d="M283.773 251.257C282.189 249.079 278.788 251.524 280.372 253.701C281.957 255.878 285.357 253.434 283.773 251.257Z" fill="#1FADAD"/>
<path d="M275.708 288.871C279.461 286.16 283.256 283.424 287.009 280.713C289.192 279.134 286.74 275.742 284.557 277.322C280.804 280.033 277.01 282.769 273.257 285.48C271.074 287.059 273.525 290.451 275.708 288.871Z" fill="#1FADAD"/>
<path d="M229.531 246.566C233.679 243.564 237.826 240.562 241.965 237.594C244.148 236.014 241.697 232.623 239.514 234.203C235.367 237.205 231.219 240.206 227.08 243.175C224.863 244.746 227.315 248.138 229.531 246.566Z" fill="#1FADAD"/>
<path d="M282.186 254.977C287.853 250.903 293.487 246.82 299.154 242.745C301.337 241.165 298.886 237.774 296.703 239.354C291.036 243.429 285.402 247.511 279.735 251.586C277.51 253.191 279.97 256.549 282.186 254.977Z" fill="#1FADAD"/>
<path d="M251.548 265.067C257.215 260.992 262.849 256.909 268.516 252.835C270.699 251.255 268.248 247.864 266.065 249.444C260.398 253.518 254.764 257.601 249.097 261.675C246.914 263.255 249.374 266.613 251.548 265.067Z" fill="#1FADAD"/>
<path d="M318.652 165.064C321.666 162.877 324.672 160.723 327.686 158.536C329.869 156.957 327.418 153.565 325.235 155.145C322.221 157.332 319.215 159.486 316.201 161.673C314.018 163.253 316.469 166.644 318.652 165.064Z" fill="#1FADAD"/>
<path d="M380.395 228.822C382.662 227.192 384.929 225.563 387.195 223.933C389.378 222.353 386.927 218.962 384.744 220.542C382.477 222.171 380.211 223.801 377.944 225.431C375.761 227.011 378.212 230.402 380.395 228.822Z" fill="#1FADAD"/>
<path d="M424.902 126.197C426.782 124.825 428.655 123.486 430.569 122.122C432.752 120.542 430.301 117.151 428.118 118.731C426.237 120.103 424.365 121.442 422.45 122.805C420.259 124.419 422.719 127.777 424.902 126.197Z" fill="#1FADAD"/>
<path d="M355.3 241.77C356.433 240.955 357.566 240.14 358.7 239.325C360.883 237.746 358.432 234.354 356.249 235.934C355.115 236.749 353.982 237.564 352.848 238.379C350.665 239.959 353.117 243.35 355.3 241.77Z" fill="#1FADAD"/>
<path d="M305.568 283.665C303.984 281.488 300.583 283.933 302.167 286.11C303.752 288.287 307.152 285.843 305.568 283.665Z" fill="#1FADAD"/>
<path d="M181.47 246.85C182.604 246.035 183.737 245.22 184.871 244.405C187.053 242.825 184.602 239.434 182.419 241.014C181.286 241.829 180.153 242.644 179.019 243.458C176.836 245.038 179.287 248.43 181.47 246.85Z" fill="#1FADAD"/>
<path d="M253.715 220.525C257.468 217.814 261.263 215.078 265.015 212.367C267.198 210.787 264.747 207.396 262.564 208.976C258.811 211.687 255.016 214.422 251.263 217.133C249.081 218.713 251.532 222.104 253.715 220.525Z" fill="#1FADAD"/>
<path d="M300.372 204.039C303.025 202.152 305.653 200.223 308.306 198.335C310.489 196.755 308.037 193.364 305.854 194.944C303.201 196.831 300.573 198.761 297.92 200.648C295.737 202.228 298.189 205.619 300.372 204.039Z" fill="#1FADAD"/>
<path d="M380.194 118.054C378.61 115.877 375.21 118.322 376.794 120.499C378.411 122.685 381.778 120.231 380.194 118.054Z" fill="#1FADAD"/>
<path d="M328.049 137.629C332.582 134.369 337.083 131.101 341.616 127.842C343.799 126.262 341.348 122.871 339.165 124.45C334.631 127.71 330.131 130.978 325.597 134.238C323.406 135.851 325.866 139.209 328.049 137.629Z" fill="#1FADAD"/>
<path d="M166.567 333.225C162.419 336.227 158.271 339.229 154.132 342.197C151.949 343.777 154.401 347.169 156.583 345.589C160.731 342.587 164.879 339.585 169.018 336.616C171.201 335.036 168.75 331.645 166.567 333.225Z" fill="#1FADAD"/>
<path d="M129.029 355.179C126.015 357.366 123.009 359.52 119.995 361.707C117.812 363.287 120.263 366.678 122.446 365.098C125.46 362.911 128.466 360.758 131.48 358.571C133.672 356.957 131.212 353.599 129.029 355.179Z" fill="#1FADAD"/>
<path d="M157.887 318.879C155.234 320.766 152.606 322.695 149.953 324.583C147.77 326.163 150.221 329.554 152.404 327.974C155.057 326.087 157.685 324.157 160.338 322.27C162.521 320.69 160.07 317.299 157.887 318.879Z" fill="#1FADAD"/>
<path d="M86.5497 339.392C84.2829 341.022 82.016 342.652 79.7491 344.281C77.5662 345.861 80.0173 349.253 82.2003 347.673C84.4671 346.043 86.734 344.413 89.0009 342.783C91.2173 341.212 88.7662 337.821 86.5497 339.392Z" fill="#1FADAD"/>
<path d="M146.038 293.036C143.385 294.923 140.757 296.852 138.104 298.74C135.921 300.32 138.372 303.711 140.555 302.131C143.208 300.244 145.836 298.314 148.489 296.427C150.672 294.847 148.221 291.456 146.038 293.036Z" fill="#1FADAD"/>
<path d="M115.948 337.126C118.962 334.939 121.968 332.785 124.982 330.598C127.165 329.018 124.714 325.627 122.531 327.207C119.517 329.394 116.511 331.547 113.497 333.734C111.28 335.306 113.732 338.697 115.948 337.126Z" fill="#1FADAD"/>
<path d="M194.235 291.792C192.651 289.614 189.251 292.059 190.835 294.236C192.419 296.413 195.82 293.969 194.235 291.792Z" fill="#1FADAD"/>
<path d="M164.271 273.022C168.805 269.762 173.305 266.494 177.839 263.235C180.022 261.655 177.571 258.264 175.388 259.844C170.854 263.103 166.354 266.371 161.82 269.631C159.604 271.202 162.055 274.594 164.271 273.022Z" fill="#1FADAD"/>
<path d="M213.115 273.861C216.129 271.674 219.135 269.52 222.149 267.333C224.332 265.754 221.881 262.362 219.698 263.942C216.684 266.129 213.678 268.283 210.664 270.47C208.481 272.05 210.932 275.441 213.115 273.861Z" fill="#1FADAD"/>
<path d="M171.053 299.041C172.187 298.226 173.32 297.411 174.453 296.596C176.636 295.016 174.185 291.625 172.002 293.205C170.869 294.02 169.735 294.835 168.602 295.649C166.419 297.229 168.87 300.621 171.053 299.041Z" fill="#1FADAD"/>
<path d="M226.282 303.911C228.163 302.538 230.035 301.2 231.95 299.836C234.133 298.256 231.681 294.865 229.498 296.445C227.618 297.817 225.746 299.156 223.831 300.519C221.648 302.099 224.1 305.49 226.282 303.911Z" fill="#1FADAD"/>
<path d="M204.252 254.493C207.266 252.306 210.272 250.153 213.286 247.966C215.469 246.386 213.017 242.995 210.835 244.575C207.82 246.762 204.815 248.915 201.801 251.102C199.584 252.674 202.035 256.065 204.252 254.493Z" fill="#1FADAD"/>
<path d="M190.019 318.05C191.539 316.977 193.033 315.863 194.553 314.79C196.736 313.21 194.285 309.819 192.102 311.399C190.582 312.471 189.088 313.586 187.568 314.658C185.385 316.238 187.836 319.629 190.019 318.05Z" fill="#1FADAD"/>
<path d="M191.87 275.453C193.75 274.081 195.623 272.742 197.537 271.378C199.72 269.799 197.269 266.407 195.086 267.987C193.205 269.359 191.333 270.698 189.418 272.062C187.235 273.642 189.687 277.033 191.87 275.453Z" fill="#1FADAD"/>
<path d="M75.2497 372.493C73.6656 370.316 70.2652 372.761 71.8493 374.938C73.4335 377.115 76.8338 374.67 75.2497 372.493Z" fill="#1FADAD"/>
<path d="M145.289 384.696C149.822 381.437 154.323 378.169 158.856 374.909C161.039 373.329 158.588 369.938 156.405 371.518C151.871 374.777 147.371 378.045 142.837 381.305C140.655 382.885 143.106 386.276 145.289 384.696Z" fill="#1FADAD"/>
<path d="M96.2965 310.02C99.3106 307.833 102.316 305.68 105.33 303.493C107.513 301.913 105.062 298.521 102.879 300.101C99.8651 302.288 96.8594 304.442 93.8453 306.629C91.6623 308.209 94.1135 311.6 96.2965 310.02Z" fill="#1FADAD"/>
<path d="M99.0793 367.326C97.4952 365.149 94.0949 367.594 95.679 369.771C97.2632 371.948 100.663 369.503 99.0793 367.326Z" fill="#1FADAD"/>
<path d="M91.0135 404.94C94.7664 402.229 98.5614 399.494 102.314 396.783C104.497 395.203 102.046 391.812 99.8632 393.392C96.1102 396.102 92.3153 398.838 88.5623 401.549C86.3794 403.129 88.8305 406.52 91.0135 404.94Z" fill="#1FADAD"/>
<path d="M44.8369 362.635C48.9845 359.634 53.132 356.632 57.2712 353.663C59.4541 352.083 57.003 348.692 54.82 350.272C50.6724 353.274 46.5248 356.276 42.3857 359.244C40.1693 360.816 42.6204 364.207 44.8369 362.635Z" fill="#1FADAD"/>
<path d="M97.4832 371.08C103.15 367.005 108.784 362.922 114.451 358.848C116.634 357.268 114.183 353.877 112 355.457C106.333 359.531 100.699 363.614 95.032 367.688C92.8156 369.26 95.2667 372.651 97.4832 371.08Z" fill="#1FADAD"/>
<path d="M66.8535 381.136C72.5207 377.062 78.1544 372.979 83.8216 368.905C86.0045 367.325 83.5533 363.933 81.3704 365.513C75.7032 369.588 70.0695 373.671 64.4023 377.745C62.2194 379.325 64.6706 382.716 66.8535 381.136Z" fill="#1FADAD"/>
<path d="M133.958 281.134C136.972 278.947 139.978 276.793 142.992 274.606C145.175 273.026 142.724 269.635 140.541 271.215C137.526 273.402 134.521 275.555 131.507 277.742C129.324 279.322 131.775 282.714 133.958 281.134Z" fill="#1FADAD"/>
<path d="M195.701 344.891C197.968 343.262 200.235 341.632 202.501 340.002C204.684 338.422 202.233 335.031 200.05 336.611C197.783 338.24 195.516 339.87 193.25 341.5C191.067 343.08 193.518 346.471 195.701 344.891Z" fill="#1FADAD"/>
<path d="M240.199 242.299C242.08 240.927 243.952 239.588 245.866 238.225C248.049 236.645 245.598 233.254 243.415 234.834C241.534 236.206 239.662 237.544 237.748 238.908C235.565 240.488 238.016 243.879 240.199 242.299Z" fill="#1FADAD"/>
<path d="M170.605 357.84C171.739 357.025 172.872 356.21 174.005 355.396C176.188 353.816 173.737 350.424 171.554 352.004C170.421 352.819 169.287 353.634 168.154 354.449C165.971 356.029 168.422 359.42 170.605 357.84Z" fill="#1FADAD"/>
<path d="M120.874 399.735C119.289 397.558 115.889 400.002 117.473 402.18C119.057 404.357 122.458 401.912 120.874 399.735Z" fill="#1FADAD"/>
<path d="M95.7758 438.337C96.9092 437.523 98.0427 436.708 99.1761 435.893C101.359 434.313 98.9079 430.922 96.725 432.502C95.5915 433.316 94.458 434.131 93.3246 434.946C91.1417 436.526 93.5928 439.917 95.7758 438.337Z" fill="#1FADAD"/>
<path d="M69.0202 336.594C72.7732 333.884 76.5681 331.148 80.3211 328.437C82.504 326.857 80.0529 323.466 77.8699 325.046C74.1169 327.757 70.322 330.492 66.5691 333.203C64.3861 334.783 66.8372 338.174 69.0202 336.594Z" fill="#1FADAD"/>
<path d="M115.678 320.109C118.331 318.221 120.959 316.292 123.612 314.404C125.795 312.824 123.344 309.433 121.161 311.013C118.508 312.901 115.88 314.83 113.227 316.717C111.044 318.297 113.495 321.689 115.678 320.109Z" fill="#1FADAD"/>
<path d="M195.5 234.123C193.916 231.946 190.515 234.391 192.099 236.568C193.717 238.754 197.084 236.301 195.5 234.123Z" fill="#1FADAD"/>
<path d="M143.346 253.732C147.879 250.472 152.38 247.204 156.913 243.945C159.096 242.365 156.645 238.973 154.462 240.553C149.929 243.813 145.428 247.081 140.895 250.34C138.712 251.92 141.163 255.312 143.346 253.732Z" fill="#1FADAD"/>
<path d="M171.205 615.276C167.06 618.276 162.916 621.277 158.78 624.244C156.598 625.823 159.05 629.217 161.232 627.637C165.377 624.637 169.521 621.636 173.657 618.669C175.839 617.09 173.387 613.696 171.205 615.276Z" fill="#1FADAD"/>
<path d="M162.501 600.925C159.848 602.813 157.22 604.742 154.567 606.629C152.384 608.209 154.835 611.601 157.018 610.021C159.671 608.133 162.299 606.204 164.952 604.316C167.135 602.737 164.684 599.345 162.501 600.925Z" fill="#1FADAD"/>
<path d="M150.651 575.082C147.998 576.969 145.37 578.898 142.717 580.786C140.534 582.366 142.985 585.757 145.168 584.177C147.821 582.29 150.449 580.36 153.102 578.473C155.285 576.893 152.834 573.502 150.651 575.082Z" fill="#1FADAD"/>
<path d="M198.858 573.805C197.274 571.627 193.873 574.072 195.458 576.249C197.075 578.435 200.442 575.982 198.858 573.805Z" fill="#1FADAD"/>
<path d="M168.885 555.069C173.419 551.809 177.919 548.541 182.453 545.282C184.636 543.702 182.185 540.311 180.002 541.89C175.468 545.15 170.968 548.418 166.434 551.678C164.251 553.258 166.702 556.649 168.885 555.069Z" fill="#1FADAD"/>
<path d="M217.771 555.882C220.785 553.695 223.791 551.542 226.805 549.355C228.988 547.775 226.537 544.384 224.354 545.963C221.34 548.15 218.334 550.304 215.32 552.491C213.104 554.063 215.555 557.454 217.771 555.882Z" fill="#1FADAD"/>
<path d="M175.699 581.096C176.833 580.281 177.966 579.466 179.1 578.651C181.283 577.071 178.832 573.68 176.649 575.26C175.515 576.075 174.382 576.889 173.248 577.704C171.065 579.284 173.517 582.676 175.699 581.096Z" fill="#1FADAD"/>
<path d="M230.938 585.932C232.818 584.56 234.691 583.221 236.605 581.857C238.788 580.277 236.337 576.886 234.154 578.466C232.273 579.838 230.401 581.177 228.487 582.54C226.27 584.112 228.721 587.503 230.938 585.932Z" fill="#1FADAD"/>
<path d="M208.873 536.506C211.888 534.319 214.893 532.165 217.907 529.978C220.09 528.398 217.639 525.007 215.456 526.587C212.442 528.774 209.436 530.928 206.422 533.115C204.239 534.695 206.69 538.086 208.873 536.506Z" fill="#1FADAD"/>
<path d="M194.641 600.062C196.16 598.99 197.655 597.875 199.175 596.803C201.357 595.223 198.906 591.832 196.723 593.411C195.204 594.484 193.709 595.598 192.19 596.671C190.007 598.251 192.458 601.642 194.641 600.062Z" fill="#1FADAD"/>
<path d="M196.491 557.466C198.372 556.094 200.244 554.755 202.158 553.391C204.341 551.811 201.89 548.42 199.707 550C197.827 551.372 195.954 552.711 194.04 554.074C191.857 555.654 194.308 559.046 196.491 557.466Z" fill="#1FADAD"/>
<path d="M138.571 563.18C141.586 560.993 144.591 558.839 147.605 556.652C149.788 555.072 147.337 551.681 145.154 553.261C142.14 555.448 139.134 557.601 136.12 559.788C133.937 561.368 136.389 564.76 138.571 563.18Z" fill="#1FADAD"/>
<path d="M200.322 626.904C202.589 625.275 204.856 623.645 207.123 622.015C209.306 620.435 206.855 617.044 204.672 618.624C202.405 620.253 200.138 621.883 197.871 623.513C195.688 625.093 198.139 628.484 200.322 626.904Z" fill="#1FADAD"/>
<path d="M244.854 524.32C246.735 522.948 248.607 521.61 250.521 520.246C252.704 518.666 250.253 515.275 248.07 516.855C246.189 518.227 244.317 519.565 242.403 520.929C240.186 522.501 242.637 525.892 244.854 524.32Z" fill="#1FADAD"/>
<path d="M200.147 516.179C198.563 514.001 195.162 516.446 196.747 518.623C198.331 520.8 201.731 518.356 200.147 516.179Z" fill="#1FADAD"/>
<path d="M148.002 535.753C152.535 532.493 157.036 529.225 161.569 525.966C163.752 524.386 161.301 520.994 159.118 522.574C154.585 525.834 150.084 529.102 145.551 532.362C143.334 533.933 145.785 537.324 148.002 535.753Z" fill="#1FADAD"/>
<path d="M555.341 349.573C548.775 338.175 538.64 330.234 527.127 326.34C524.697 325.542 523.505 322.868 524.441 320.469C530.543 305.916 529.979 288.84 521.509 274.135C515.094 262.998 505.096 255.094 493.843 251.049C490.286 249.801 489.837 244.898 493.14 242.987L548.066 211.199C575.181 195.506 584.471 160.836 568.835 133.688C553.199 106.54 518.6 97.2692 491.485 112.962L445.684 139.468C442.555 141.279 438.726 138.855 439.029 135.257C439.86 125.031 437.703 114.445 432.259 104.892C417.875 79.9196 385.949 71.3649 361.006 85.8002L84.0305 246.097C59.0879 260.532 50.5154 292.526 64.8987 317.498C76.1246 336.989 98.0377 346.466 118.972 342.878C121.976 342.358 124.58 344.969 124.15 347.944C122.335 359.378 124.224 371.511 130.438 382.301L134.899 390.045C141.314 401.182 151.312 409.086 162.564 413.131C166.122 414.379 166.571 419.282 163.268 421.193L128.157 441.513C103.215 455.948 94.6421 487.942 109.025 512.914C123.409 537.887 155.335 546.442 180.278 532.006L234.943 500.369C237.811 498.71 241.39 500.699 241.608 503.995C242.056 511.915 244.259 519.863 248.469 527.172C262.852 552.145 294.778 560.7 319.721 546.265L536.122 421.025C561.151 406.539 569.705 374.615 555.341 349.573Z" stroke="#1FADAD" stroke-width="5" stroke-miterlimit="10"/>
</svg>
