<svg width="48" height="40" viewBox="0 0 48 40" fill="none" xmlns="http://www.w3.org/2000/svg">
<path d="M41.0753 27.9247C40.1319 27.3586 39.0942 26.8869 38.0565 26.6039C39.4716 25.7548 40.698 24.4341 41.4527 22.8303C41.9244 21.8869 42.1131 20.8492 42.2074 19.8114C42.2074 18.7737 42.1131 17.736 41.7357 16.6982C41.0753 14.7171 39.6602 12.9246 37.7734 11.9813C36.1697 11.1322 34.3772 10.8492 32.6791 11.1322C32.4904 8.11333 31.0753 5.1888 28.9055 3.20767C26.547 1.13219 23.4338 -0.0942203 20.415 0.188799C23.5282 0.377478 26.3584 1.69823 28.3395 3.86804C30.3206 6.03785 31.3584 8.86804 31.3584 11.6982C31.264 14.5284 30.1319 17.2643 28.0565 19.2454C26.0753 21.2265 23.3395 22.3586 20.5093 22.3586C17.6791 22.3586 14.9433 21.2265 12.9621 19.3397C10.981 17.3586 9.75458 14.6228 9.66024 11.7926C9.5659 8.96238 10.6036 6.13219 12.5848 3.96238C14.5659 1.79257 17.3961 0.471817 20.415 0.283138C17.3961 0.0944589 14.2829 1.22653 11.9244 3.30201C9.66024 5.47182 8.15081 8.58502 8.15081 11.7926C8.05647 15.6605 9.94326 19.7171 13.5282 22.1699C10.2263 23.302 7.30175 25.2831 5.0376 28.019C2.49043 30.9435 0.886657 34.8114 0.603638 38.868V38.9624C0.603638 39.4341 0.980996 39.8114 1.35835 39.8114C7.77345 39.9058 14.0942 39.9058 20.5093 39.9058C26.9244 39.9058 33.2451 39.9058 39.6602 39.8114H39.7546C40.1319 39.8114 40.415 39.5284 40.5093 39.1511C42.5848 39.5284 44.6602 39.7171 46.7357 39.8114H46.8301C47.2074 39.8114 47.5848 39.4341 47.5848 39.0567V38.9624C47.5848 37.5473 47.3018 36.0379 46.7357 34.6228C45.6036 31.8869 43.7168 29.4341 41.0753 27.9247ZM42.9621 31.8869C43.7168 32.9246 44.3772 34.0567 44.8489 35.1888C45.2263 36.1322 45.5093 37.1699 45.698 38.1133C43.9055 38.2077 42.1131 38.3963 40.3206 38.6794C39.9433 34.7171 38.3395 30.8492 35.7923 27.8303C35.698 27.736 35.6036 27.5473 35.415 27.453C35.6036 27.453 35.7923 27.3586 35.981 27.3586C36.264 27.2643 36.547 27.1699 36.8301 27.0756C38.0565 27.6416 39.1885 28.302 40.1319 29.0567C41.264 30.0001 42.2074 30.8492 42.9621 31.8869ZM32.7734 11.6982C32.7734 11.6039 32.7734 11.5096 32.7734 11.4152C34.3772 11.6039 35.8867 12.1699 37.1131 13.1133C38.5282 14.1511 39.4716 15.6605 40.0376 17.2643C40.2263 18.1133 40.415 18.868 40.415 19.7171C40.415 20.5662 40.2263 21.4152 39.9433 22.1699C39.3772 23.7737 38.3395 25.2831 36.8301 26.3209L35.981 26.8869C35.7923 26.9813 35.6036 27.0756 35.415 27.1699C33.2451 24.8114 30.5093 23.019 27.4904 21.9813C30.981 19.6228 32.8678 15.5662 32.7734 11.6982ZM2.30175 38.1133C2.39609 36.5096 2.77345 35.0001 3.33949 33.4907C3.99986 31.6982 4.94326 30.0945 5.981 28.585C8.05647 25.8492 10.8867 23.6794 14.1885 22.3586C16.0753 23.4907 18.2451 24.1511 20.5093 24.1511C22.6791 24.1511 24.9433 23.4907 26.8301 22.3586C30.0376 23.6794 32.9621 25.8492 35.0376 28.585C36.1697 30.0945 37.1131 31.6982 37.7734 33.4907C38.3395 35.0001 38.6225 36.5096 38.8112 38.019C32.7734 37.9246 26.6414 37.9246 20.6036 37.9246C14.3772 38.019 8.33949 38.019 2.30175 38.1133Z" fill="black"/>
</svg>
