<svg width="44" height="47" viewBox="0 0 44 47" fill="none" xmlns="http://www.w3.org/2000/svg">
<path d="M0.963566 2.52444C0.496078 3.36592 0.309082 4.39439 0.309082 5.23587C0.40258 17.0166 0.215584 4.76838 0.683073 37.9601C0.683073 38.3341 0.683073 38.7081 0.776571 39.1756C0.870069 39.643 0.963566 40.017 1.15056 40.391C1.52455 41.139 2.08554 41.7935 2.83352 42.261C3.5815 42.7285 4.42298 42.9155 5.26446 42.9155L7.60191 42.822C10.5938 42.7285 13.5858 42.635 16.5777 42.5415C16.5777 43.009 16.5777 43.4765 16.6712 44.0374C16.7647 44.8789 17.3257 45.5334 18.0737 45.8139C18.4476 46.0009 18.8216 45.9074 19.1956 45.9074L20.2241 45.8139L22.2811 45.7204L20.2241 45.6269L19.1956 45.5334C18.8216 45.5334 18.5411 45.5334 18.2607 45.3464C17.6997 45.0659 17.3257 44.5049 17.3257 43.9439C17.5127 40.2975 17.4192 41.326 17.5127 37.6796C17.5127 37.4926 17.6062 33.3787 17.6062 33.4722C17.6062 33.0982 17.3257 32.8177 16.9517 32.8177C16.2972 32.8177 13.5858 32.7242 13.7728 32.7242H12.2768C12.1833 32.7242 12.0898 32.6307 12.0898 32.4437C12.0898 32.4437 12.0898 32.4437 12.0898 32.3502C12.0898 32.3502 12.0898 32.3502 12.1833 32.2567C12.2768 32.1632 12.8378 31.3217 12.7443 31.4152C18.6346 22.9069 19.5696 21.411 20.7851 19.728C20.8786 19.6345 22.0006 17.9516 21.9071 18.1386L22.0006 17.9516L22.0941 18.1386C23.403 20.0085 29.9479 29.6388 31.7243 32.0697L31.8178 32.2567C31.8178 32.3502 31.9113 32.3502 31.9113 32.3502V32.4437C31.9113 32.5372 31.8178 32.7242 31.7243 32.7242H30.2284L27.1429 33.0047C26.7689 33.0047 26.4885 33.2852 26.4885 33.6592C26.582 37.7731 26.6755 39.5495 26.769 41.7935L26.8624 43.8504C26.9559 44.4114 26.6755 45.0659 26.208 45.4399C25.9275 45.6269 25.647 45.7204 25.3665 45.7204L24.338 45.8139L22.2811 45.9074L24.338 46.0009C24.712 46.0009 24.9925 46.0009 25.3665 46.0944C25.7405 46.0944 26.1145 46.0009 26.395 45.8139C27.0494 45.4399 27.5169 44.6919 27.4234 43.9439L27.5169 42.822L36.4927 43.1025L38.8302 43.196C39.6716 43.196 40.5131 43.009 41.2611 42.5415C42.0091 42.074 42.5701 41.4195 42.9441 40.6715C43.1311 40.2975 43.2246 39.83 43.3181 39.4561C43.4116 38.9886 43.4116 38.6146 43.4116 38.2406L43.692 19.541C43.7855 13.0897 43.7855 11.5002 43.7855 5.51637C43.7855 4.67489 43.5985 3.64641 43.1311 2.89843C42.6636 2.05695 41.9156 1.40247 41.1676 0.934978C40.7936 0.747982 40.3261 0.560987 39.8586 0.467489C39.2042 0.0934979 38.7367 0.0934978 38.3627 0.0934978C15.9232 2.08984e-08 23.6835 0 22.0006 0C2.55303 0.0934978 7.60191 0.0934978 5.63845 0.0934978C5.26446 0.0934978 4.79698 0.0934977 4.32949 0.186995C3.862 0.280493 3.39451 0.467489 3.02052 0.654484C2.17904 1.02848 1.43106 1.77646 0.963566 2.52444ZM42.3831 38.9886C42.3831 39.3626 42.2896 39.643 42.1026 40.017C41.8221 40.6715 41.3546 41.2325 40.7936 41.6065C40.2326 41.9805 39.4846 42.261 38.7367 42.261L36.4927 42.3545C33.5008 42.448 30.5089 42.5415 27.5169 42.635C27.6104 41.139 27.6104 40.578 27.7039 37.6796L27.7974 34.3137L30.3219 34.4072H31.9113C32.8463 34.4072 33.6878 33.4722 33.5943 32.5372C33.5943 32.2567 33.5008 32.0697 33.4073 31.8827C33.3138 31.7892 33.3138 31.6957 33.3138 31.6957L33.2203 31.5087C22.4681 15.4271 24.2445 18.1386 23.964 17.6711L23.777 17.2971L23.6835 17.1101C23.6835 17.0166 23.59 16.9231 23.4965 16.8296C23.1225 16.4556 22.655 16.2686 22.0941 16.2686C21.6266 16.2686 21.0656 16.4556 20.6916 16.8296C20.5981 16.9231 20.5046 17.0166 20.5046 17.1101C13.1183 28.0493 11.2483 30.8543 11.3418 30.7608C11.2483 30.8543 10.7808 31.6957 10.7808 31.6022C10.7808 31.6957 10.6873 31.6957 10.6873 31.7892C10.5938 31.9762 10.5003 32.2567 10.5003 32.4437C10.4068 33.3787 11.1548 34.3137 12.1833 34.3137H13.7728L16.2972 34.2202L16.3907 37.6796C16.4842 41.326 16.4842 41.0455 16.5777 42.448C11.0613 42.261 9.09787 42.261 5.26446 42.1675C4.51648 42.1675 3.862 41.887 3.20751 41.513C2.64653 41.139 2.17904 40.578 1.89854 39.9235C1.80505 39.643 1.71155 39.2691 1.61805 38.8951C1.61805 38.5211 1.61805 38.1471 1.61805 37.7731C1.89854 14.8661 1.89854 15.2401 1.99204 11.0327C5.17097 11.4067 8.44339 11.5937 11.6223 11.6872C15.0817 11.8742 18.5411 11.8742 22.0006 11.8742C25.46 11.8742 28.9194 11.7807 32.3788 11.6872C35.5577 11.5937 38.8302 11.4067 42.0091 11.0327C42.0091 16.5491 42.1026 17.5776 42.3831 37.8666V38.9886ZM1.99204 5.23587C1.89854 3.92691 2.64653 2.71143 3.7685 2.15045C4.04899 1.96345 4.32949 1.86996 4.60998 1.86996C4.98397 1.77646 5.26446 1.77646 5.63845 1.77646C9.84585 1.77646 17.7932 1.86996 22.0006 1.86996C23.6835 1.86996 15.9232 1.86996 38.3627 1.77646C38.8302 1.77646 39.0172 1.77646 39.3911 1.86996C39.6716 1.86996 39.9521 1.96345 40.2326 2.15045C41.3546 2.71143 42.1026 3.92691 42.0091 5.23587V9.91076V10.9392C38.8302 10.5652 35.5577 10.3783 32.3788 10.2848C28.9194 10.0978 25.46 10.0978 22.0006 10.0978C18.5411 10.0978 15.0817 10.1913 11.6223 10.2848C8.44339 10.3783 5.17097 10.5652 1.99204 10.9392C1.99204 10.5652 1.99204 10.2848 1.99204 9.91076V5.23587Z" fill="#282C33"/>
<path d="M33.4075 6.91904C34.9969 6.82555 36.5864 6.54505 38.1758 6.17106C36.5864 5.79707 34.9969 5.61007 33.4075 5.42308C31.818 5.32958 30.2285 5.23608 28.6391 5.23608C27.0496 5.23608 25.4601 5.32958 23.8707 5.42308C22.2812 5.51658 20.6918 5.79707 19.1023 6.17106C20.6918 6.54505 22.2812 6.73205 23.8707 6.91904C27.1431 7.19954 30.2285 7.19954 33.4075 6.91904Z" fill="#282C33"/>
<path d="M13.5857 6.91898C13.8661 7.19947 14.2401 7.19947 14.6141 6.91898C14.8011 6.73198 14.9881 6.54499 15.0816 6.171C14.8946 5.79701 14.7076 5.61001 14.6141 5.42302C14.2401 5.14252 13.9596 5.14252 13.5857 5.42302C13.3987 5.61001 13.2117 5.79701 13.1182 6.171C13.2117 6.54499 13.3987 6.73198 13.5857 6.91898Z" fill="#282C33"/>
<path d="M9.93917 6.91898C10.2197 7.19947 10.5937 7.19947 10.9676 6.91898C11.1546 6.73198 11.3416 6.54499 11.4351 6.171C11.2481 5.79701 11.0611 5.61001 10.9676 5.42302C10.5937 5.14252 10.3132 5.14252 9.93917 5.42302C9.75217 5.61001 9.56518 5.79701 9.47168 6.171C9.56518 6.54499 9.75217 6.73198 9.93917 6.91898Z" fill="#282C33"/>
<path d="M6.29293 6.91898C6.57342 7.19947 6.94741 7.19947 7.3214 6.91898C7.5084 6.73198 7.69539 6.54499 7.78889 6.171C7.6019 5.79701 7.4149 5.61001 7.3214 5.42302C6.94741 5.14252 6.66692 5.14252 6.29293 5.42302C6.10593 5.61001 5.91894 5.79701 5.82544 6.171C5.91894 6.54499 6.10593 6.73198 6.29293 6.91898Z" fill="#282C33"/>
</svg>
