<?xml version="1.0" encoding="utf-8"?>
<!-- Generator: Adobe Illustrator 24.0.0, SVG Export Plug-In . SVG Version: 6.00 Build 0)  -->
<svg version="1.1" id="Layer_1" xmlns="http://www.w3.org/2000/svg" xmlns:xlink="http://www.w3.org/1999/xlink" x="0px" y="0px"
	 viewBox="0 0 1920 60.3" style="enable-background:new 0 0 1920 60.3;" xml:space="preserve">
<style type="text/css">
	.st0{fill:#EBEBEB;}
	.st1{fill:#FCFCFC;}
</style>
<g>
	<path class="st0" d="M0,43.8v-1l0.1,0c182.1,29,438.9,14.4,736.2-2.6c31-1.8,63.1-3.6,95.3-5.4c167.2-9.3,347.3-18,530.8-19
		c11.7-0.1,23.4-0.1,35-0.1c192.4,0,363.7,8.9,522.6,27.1v1c-371.2-42.5-756.3-26.4-1088.2-8c-32.2,1.8-64.3,3.6-95.3,5.4
		C439,58.1,182.2,72.8,0,43.8z"/>
	<path class="st1" d="M0,43.3V0h1920v43.3l-0.3,0c-372.6-42.7-751.9-26.6-1088.4-8c-32.2,1.8-64,3.6-95.3,5.4
		C439.6,57.6,182.1,72.2,0,43.3z"/>
</g>
</svg>
