<svg width="1920" height="61" viewBox="0 0 1920 61" fill="none" xmlns="http://www.w3.org/2000/svg">
<path d="M1920 16.5229V17.5229H1919.9C1737.8 -11.4771 1481 3.12292 1183.7 20.1229C1152.7 21.9229 1120.6 23.7229 1088.4 25.5229C921.2 34.8229 741.1 43.5229 557.6 44.5229C545.9 44.6229 534.2 44.6229 522.6 44.6229C330.2 44.6229 158.9 35.7229 0 17.5229V16.5229C371.2 59.0229 756.3 42.9229 1088.2 24.5229C1120.4 22.7229 1152.5 20.9229 1183.5 19.1229C1481 2.12292 1737.8 -12.4771 1920 16.5229Z" fill="#EBEBEB"/>
<path d="M1920 17.0232V60.3232H0V17.0232H0.3C372.9 59.7232 752.2 43.6232 1088.7 25.0232C1120.9 23.2232 1152.7 21.4232 1184 19.6232C1480.4 2.72315 1737.9 -11.9768 1920 17.0232Z" fill="#FCFCFC"/>
</svg>
