<svg width="169" height="149" viewBox="0 0 169 149" fill="none" xmlns="http://www.w3.org/2000/svg">
<path d="M108.174 5.82641C97.5454 18.4804 86.9003 31.1246 76.272 43.7786C69.2003 52.1776 62.1225 60.6068 56.0807 69.7689C45.2718 86.1574 37.539 105.209 22.4607 117.774C35.4553 133.392 57.6596 140.038 77.5725 135.955C97.4722 131.875 122.498 121.327 132.357 103.57C143.711 83.1075 143.774 64.8589 137.997 42.1833C135.294 31.5644 128.223 12.2386 118.249 7.68111C112.929 5.24956 108.703 2.96636 108.564 6.00661" fill="#2CB5B5" fill-opacity="0.3"/>
<path d="M105.554 112.304C103.855 111.511 102.604 110.276 101.718 108.628C100.958 107.221 102.421 105.793 103.787 105.898C106.044 106.068 107.891 107.457 108.933 109.419C109.574 110.605 108.546 111.922 107.393 112.147C105.477 112.519 102.44 112.103 101.63 110.015C100.717 107.659 103.215 105.777 105.331 105.753C107.437 105.727 109.532 107.549 108.555 109.772C107.674 111.782 104.55 112.196 103.65 109.969C102.699 107.608 106.339 106.057 107.29 108.417C106.964 107.594 105.266 107.104 104.944 108.178C104.951 108.511 104.956 108.854 104.962 109.187C105.045 109.384 105.172 109.537 105.355 109.638C105.526 109.679 105.544 109.692 105.399 109.673C105.254 109.664 105.265 109.656 105.429 109.667C105.295 109.65 105.191 109.696 105.19 109.705C105.232 109.681 105.265 109.656 105.281 109.6C105.504 109.08 105.356 108.553 104.847 108.019C104.944 108.021 105.282 108.211 105.311 108.215C105.839 108.37 106.305 108.321 106.836 108.223C106.319 109.135 105.812 110.039 105.295 110.951C105.153 110.688 104.835 110.345 104.425 110.107C104.144 109.934 103.792 109.85 103.28 109.805C103.973 108.895 104.656 107.985 105.348 107.075C105.704 107.737 106.382 108.331 107.074 108.654C108.043 109.11 108.557 110.222 108.135 111.234C107.738 112.2 106.522 112.76 105.554 112.304Z" fill="#1FADAD"/>
<path d="M114.682 95.6666C117.696 96.1183 116.999 100.675 114.015 100.374C112.017 100.168 110.024 97.8417 110.399 95.8161C110.869 93.2745 113.818 92.8477 115.594 94.3449C117.235 95.7371 117.786 98.0956 117.612 100.157C117.494 101.55 116.058 102.071 114.889 101.727C112.438 101.004 110.516 98.5106 110.471 95.9426C110.451 94.874 110.979 93.8752 112.144 93.7105C114.396 93.3808 116.26 94.8698 116.791 97.0008C117.05 98.0411 116.095 99.0931 115.118 99.233C113.973 99.4001 113.145 98.6006 112.886 97.5603C112.891 97.6 112.897 97.6301 112.911 97.6711C112.994 97.7892 112.994 97.7892 112.91 97.6807C112.91 97.6807 112.908 97.6217 112.759 97.5636C112.981 97.6604 112.676 97.602 112.661 97.561C112.688 97.6621 113.229 97.555 112.721 97.6273C113.275 96.8861 113.84 96.1364 114.394 95.3952C114.419 96.8164 115.051 97.6889 116.418 98.0878C115.511 98.6081 114.602 99.138 113.695 99.6583C113.726 99.2612 113.714 98.8195 113.592 98.3933C113.524 98.1597 113.422 97.8828 113.302 97.6719C113.311 97.6828 112.905 97.1813 113.11 97.4128C112.75 97.0149 113.062 97.4849 113.184 97.3732C113.709 97.4008 114.082 97.0767 114.305 96.401C114.316 96.3143 114.318 96.2265 114.3 96.1362C114.149 96.0878 114.495 96.3665 114.546 96.4316C114.471 96.3243 114.516 96.3593 114.682 96.5173C114.524 96.4484 114.362 96.4179 114.196 96.4164C113.886 96.5433 113.575 96.6798 113.266 96.8067C113.117 97.3647 112.967 97.9227 112.828 98.4819C113.029 98.7423 113.239 99.0135 113.441 99.2739C113.415 99.2509 113.388 99.228 113.352 99.2039C113.668 99.3321 113.993 99.4712 114.309 99.5994C114.271 99.5945 114.232 99.5896 114.194 99.5847C111.67 99.205 112.158 95.2868 114.682 95.6666Z" fill="#1FADAD"/>
<path d="M129.708 84.405C130.358 86.1404 129.118 87.6647 127.363 87.8522C125.956 87.9959 124.396 87.1129 123.58 85.992C122.689 84.7735 122.618 83.102 123.591 81.9056C124.483 80.8161 126.048 80.5849 127.32 81.0401C128.704 81.5389 129.577 82.9017 129.44 84.3611C129.296 85.9564 127.973 87.2061 126.455 87.5313C123.227 88.2258 121.109 84.2792 122.633 81.6761C123.67 79.901 125.828 79.7745 127.414 80.9151C128.704 81.8421 129.683 83.2967 130.136 84.8114C130.447 85.8289 130.147 86.9545 129.092 87.4071C128.192 87.7914 126.806 87.3901 126.496 86.363C126.357 85.9151 126.2 85.4647 125.947 85.0706C125.809 84.8477 125.632 84.6199 125.441 84.4293C125.38 84.3726 125.035 84.1626 124.999 84.0602C125.081 84.2662 126.06 83.6377 126.041 83.6353C126.062 83.4717 126.046 83.5185 126.024 83.77C126.028 83.7411 126.031 83.7123 126.035 83.6834C126.086 84.1299 126.05 83.4897 125.8 83.6829C125.779 83.6997 125.697 83.6502 125.655 83.6741C125.393 83.8071 125.508 84.2911 125.603 84.4694C125.698 84.6381 125.802 84.6708 125.936 84.7662C126.021 84.7964 126.099 84.7966 126.19 84.7691C125.94 84.8155 125.953 84.7879 126.24 84.6874C126.381 84.6564 126.498 84.5833 126.581 84.4667C126.751 84.283 126.806 84.0845 126.746 83.8618C126.881 83.4879 126.443 83.6278 126.8 83.7416C126.706 83.7102 127.055 83.8914 127.055 83.8914C127.186 83.9374 127.204 83.9495 127.099 83.9264C126.808 83.9089 126.548 84.0322 126.338 84.2989C126.21 84.6151 126.071 84.9397 125.943 85.2559C125.949 85.2078 125.955 85.1597 125.972 85.1032C126.017 85.4414 126.07 85.7905 126.115 86.1287C126.092 86.0769 126.079 86.0264 126.058 85.965C125.189 83.5661 128.829 82.0145 129.708 84.405Z" fill="#1FADAD"/>
<path d="M132.613 74.1828C130.097 73.814 128.412 71.6142 128.643 69.101C128.742 68.0182 129.823 67.2854 130.856 67.3875C134.949 67.8103 137.822 71.4422 137.733 75.4503C137.718 76.2601 136.848 77.0981 136.059 77.1542C132.336 77.4336 128.781 73.9399 129.718 70.1081C129.997 68.9896 131.187 67.8599 132.441 68.5377C134.408 69.5997 135.192 71.5087 134.549 73.6468C134.234 74.6629 132.879 75.0871 131.969 74.7073C130.901 74.2585 130.593 73.1436 130.908 72.1275C130.839 72.3632 130.803 72.114 130.93 72.1889C131.837 71.6686 132.746 71.1388 133.653 70.6185C133.368 71.7851 134.115 73.3666 135.508 73.2602C134.947 73.8245 134.385 74.3985 133.834 74.9641C133.88 73.0629 132.171 71.5057 130.376 71.3165C131.114 70.7453 131.851 70.1741 132.589 69.6029C132.552 69.9699 132.795 70.2159 133.14 70.2696C135.626 70.6348 135.138 74.5529 132.613 74.1828Z" fill="#1FADAD"/>
<path d="M110.45 85.0354C109.626 86.1334 108.548 87.3068 107.286 87.9189C105.942 88.5694 104.352 88.152 103.478 86.9551C102.694 85.8873 102.54 84.4105 103.111 83.2217C103.727 81.921 104.926 81.1836 106.127 80.5051C107.244 79.8746 108.71 80.8826 108.855 82.0453C109.08 83.8147 108.61 85.5838 107.467 86.9639C106.785 87.7867 105.566 87.9934 104.692 87.3248C103.863 86.6913 103.648 85.3828 104.331 84.5504C104.827 83.9583 105.03 83.3582 104.941 82.6036C105.853 83.1206 106.757 83.6267 107.669 84.1437C107.374 84.3115 106.949 84.6487 106.743 84.8083C106.33 85.1371 106.771 84.9781 106.693 84.8215C106.68 84.6145 106.688 84.6253 106.715 84.8732C106.724 84.8059 106.703 84.7445 106.671 84.6818C106.64 84.6192 106.599 84.5553 106.536 84.5179C106.225 84.273 105.887 84.2397 105.523 84.4086C105.514 84.3977 106.141 83.9298 106.164 83.9034C106.603 83.5289 106.96 83.1049 107.303 82.64C108.844 80.5965 111.98 83.0003 110.45 85.0354Z" fill="#1FADAD"/>
<path d="M98.8874 96.0531C97.6722 95.4585 96.4569 94.8638 95.2416 94.2691C94.0997 93.7131 93.6322 92.3138 94.4336 91.2422C95.8564 89.3597 98.9073 89.1317 100.462 90.9821C101.175 91.8357 101.497 92.9916 101.297 94.1006C101.061 95.4201 100.287 96.3486 99.1489 96.9959C98.2212 97.5233 96.9375 96.8515 96.5532 95.9518C96.0935 94.8762 96.6684 93.8931 97.5973 93.3561C97.4178 93.4604 97.4467 93.4641 97.3188 93.6239C97.3926 93.4279 97.4167 93.3918 97.3804 93.5241C97.3536 93.6576 97.3585 93.6191 97.395 93.4086C97.4581 93.7589 97.369 93.2293 97.401 93.4387C97.4117 93.5085 97.4441 93.5615 97.5065 93.6086C97.3721 93.435 97.3553 93.4133 97.4393 93.5218C97.7155 93.8112 97.4971 93.5291 97.4596 93.5928C97.6581 93.6474 97.6857 93.6607 97.5329 93.6315C97.3874 93.6228 97.4175 93.6168 97.6124 93.6221C97.5522 93.634 97.4932 93.6362 97.433 93.6481C97.6365 93.586 97.6353 93.5956 97.4197 93.6758C97.551 93.6436 97.7887 93.312 97.5426 93.6328C97.2704 92.6202 97.0067 91.6184 96.7345 90.6058C97.9498 91.2005 99.165 91.7952 100.38 92.3899C101.337 92.8637 101.874 93.949 101.441 94.9697C101.074 95.9304 99.8442 96.5269 98.8874 96.0531Z" fill="#1FADAD"/>
<path d="M120.325 73.9107C119.605 74.6504 118.801 75.047 117.752 74.9917C117.063 74.9529 116.347 74.6565 115.838 74.2006C114.335 72.8749 114.466 70.6129 116.057 69.407C117.661 68.1735 119.952 68.6899 120.881 70.4608C121.629 71.886 121.185 73.8344 119.873 74.7725C119.034 75.3699 117.731 75.3118 117.101 74.4199C116.505 73.5715 116.551 72.2864 117.454 71.6482C117.744 71.4407 117.179 72.0435 117.431 71.6746C117.515 71.5485 117.477 71.6218 117.305 71.8934C117.379 71.6974 117.371 71.7648 117.269 72.1039C117.285 72.057 117.292 71.9993 117.298 71.9511C117.318 71.7972 117.316 71.885 117.313 72.2171C117.312 72.1485 117.301 72.0787 117.291 72.0089C117.317 72.11 117.344 72.2015 117.38 72.3039C117.359 72.2425 117.329 72.1702 117.298 72.1076C117.478 72.3847 117.509 72.4473 117.383 72.2846C117.452 72.3522 117.521 72.4293 117.59 72.4969C117.885 72.6419 117.939 72.6781 117.744 72.5947C118.058 72.6639 118.144 72.6846 117.98 72.6638C117.825 72.6538 117.904 72.6444 118.225 72.6559C118.026 72.6891 118.076 72.676 118.389 72.5985C118.243 72.6679 118.245 72.6583 118.402 72.5709C118.751 72.2142 117.934 73.0981 118.546 72.4424C118.523 72.4688 118.499 72.5049 118.476 72.5313C118.613 72.3728 118.686 72.1864 118.702 71.9831C118.681 72.1467 118.684 72.1274 118.689 71.9325C118.71 71.7689 118.68 71.6184 118.602 71.4618C118.686 71.6485 118.645 71.5846 118.479 71.2798C118.572 71.3895 118.554 71.3775 118.425 71.2436C118.284 71.1182 118.277 71.0977 118.392 71.1906C118.081 71.0238 118.017 70.9864 118.201 71.0783C118.528 71.1981 117.701 71.0146 118.058 71.0503C118.415 71.086 117.58 71.1167 117.911 71.0512C117.574 71.1648 117.493 71.1838 117.688 71.1108C117.492 71.1934 117.329 71.3195 117.199 71.4985C117.571 71.1154 117.939 70.8298 118.488 70.7432C118.976 70.6781 119.594 70.8154 119.974 71.1375C120.706 71.7588 121.092 73.1086 120.325 73.9107Z" fill="#1FADAD"/>
<path d="M88.9518 96.5104C88.2257 97.8361 87.0324 98.76 85.4882 98.9058C83.9741 99.0457 82.4988 98.4962 81.5581 97.2812C80.9113 96.4459 81.0561 95.1539 81.9107 94.5096C83.251 93.5065 85.0695 92.8185 86.5289 94.031C87.8297 95.106 88.0439 97.3435 86.5459 98.3559C85.6674 98.958 84.4546 98.882 83.7742 98.0033C83.1527 97.2005 83.2387 95.8325 84.1268 95.2316C83.5841 95.808 83.5022 96.3745 83.8716 96.9301C84.0949 97.1736 84.3714 97.3066 84.7023 97.3194C84.7527 97.3845 84.4166 97.5666 84.331 97.6242C84.4485 96.7003 84.5661 95.7764 84.6836 94.8525C84.8852 95.1129 84.5933 94.8704 84.752 94.9297C84.8409 94.9997 84.8409 94.9997 84.7508 94.9393C84.6498 94.8874 84.6607 94.8789 84.7616 94.9309C84.9011 94.9878 84.8626 94.9829 84.6642 94.9283C84.7219 94.9356 84.7784 94.9526 84.8362 94.96C84.8939 94.9673 84.9517 94.9747 85.0094 94.982C84.8024 94.9948 84.7735 94.9911 84.9216 94.9806C84.9601 94.9855 85.3188 94.9333 85.1081 94.975C84.877 95.0238 85.3044 94.8924 85.3562 94.8696C85.1177 94.9762 85.3356 94.9551 85.3587 94.8504C85.2332 94.9909 85.2211 95.0089 85.3128 94.9033C85.3961 94.7867 85.3924 94.8155 85.2934 94.979C85.8032 94.0463 86.8237 93.4818 87.8732 93.9185C88.7929 94.2995 89.4628 95.5681 88.9518 96.5104Z" fill="#1FADAD"/>
<path d="M91.1131 72.7569C90.7816 72.4409 91.4921 72.7757 91.0146 72.6857C90.7283 72.6297 90.4432 72.5641 90.1594 72.4888C89.4415 72.2899 88.7841 71.9227 88.3341 71.308C87.5099 70.1763 87.7058 68.6365 88.5817 67.5939C89.5167 66.4708 90.9568 66.0672 92.3409 66.4878C93.6023 66.8732 94.534 67.8524 95.2705 68.9045C95.8259 69.6891 95.7579 70.5312 95.2761 71.3207C94.8063 72.0922 94.1346 72.7598 93.3863 73.2612C92.4692 73.8584 91.3443 73.7838 90.6146 72.9086C89.3772 71.4114 89.6766 69.2882 91.0956 68.0506C91.8986 67.3508 93.2361 67.5992 93.8673 68.4032C94.5561 69.2928 94.3189 70.4655 93.5147 71.1749C93.6582 71.0465 93.7753 70.8951 93.7613 70.6977C93.752 70.5401 93.4832 70.1929 93.7376 70.4991C92.8137 70.3816 91.8898 70.264 90.9659 70.1465C91.5528 69.7615 91.7675 69.5346 92.1478 68.9278C92.1533 69.7304 92.1492 70.5318 92.1534 71.344C91.8223 70.8716 91.5717 70.4583 91.1595 70.2396C91.2856 70.3241 91.2471 70.3192 91.0356 70.2141C91.1161 70.2732 91.2123 70.2855 91.3219 70.27C91.4398 70.2655 91.5421 70.2296 91.6302 70.1528C91.4554 70.2968 91.4554 70.2968 91.6205 70.1516C91.8095 69.5888 91.7174 69.3131 91.3611 68.8081C91.3011 68.7418 91.2182 68.7019 91.1303 68.7005C91.2638 68.7272 91.3974 68.754 91.5309 68.7808C92.2646 68.9328 92.985 69.1125 93.5433 69.6431C94.3215 70.368 94.597 71.5082 93.9043 72.4176C93.2793 73.1791 91.8996 73.4926 91.1131 72.7569Z" fill="#1FADAD"/>
<path d="M109.256 68.669C107.601 69.2309 105.634 68.9318 104.507 67.4878C103.371 66.0425 103.554 63.9828 104.833 62.6981C106.166 61.3617 108.364 61.3869 109.549 62.9069C110.61 64.2545 110.566 66.4493 109.075 67.4821C108.228 68.0687 106.941 68.0322 106.303 67.1295C105.715 66.2919 105.745 64.9852 106.656 64.3578C106.796 64.2583 106.796 64.2582 106.663 64.3783C106.554 64.4623 106.471 64.5788 106.425 64.7099C106.403 64.8049 106.372 64.8987 106.35 64.9937C106.361 64.8289 106.371 64.8301 106.357 65.0141C106.363 65.2007 106.353 65.1995 106.335 65.031C106.354 65.1116 106.372 65.2019 106.401 65.2838C106.291 64.9178 106.636 65.5876 106.391 65.2826C106.534 65.467 106.706 65.5769 106.935 65.6255C107.068 65.6523 107.517 65.5823 107.204 65.6598C107.275 65.6395 107.809 65.3651 107.53 65.5546C107.586 65.503 107.642 65.4417 107.688 65.3889C107.582 65.5319 107.571 65.5403 107.658 65.3949C107.862 65.1763 107.551 65.4692 107.609 65.5548C107.628 65.479 107.658 65.3948 107.678 65.3191C107.664 65.5032 107.654 65.5019 107.666 65.3371C107.658 65.1698 107.667 65.1711 107.693 65.3504C107.673 65.2794 107.654 65.1987 107.643 65.1289C107.52 64.9469 107.496 64.9048 107.588 65.0241C107.682 65.1338 107.646 65.1096 107.491 64.9432C107.809 65.1305 107.309 64.8321 107.497 64.9733C107.685 65.1049 107.771 65.0473 107.503 65.0034C107.705 65.0291 107.967 64.9647 107.595 65.0445C107.706 65.0195 108.142 64.899 107.712 65.0496C108.684 64.7136 109.913 65.046 110.308 66.0937C110.659 67.0187 110.309 68.3139 109.256 68.669Z" fill="#1FADAD"/>
<path d="M128.163 58.2629C126.516 58.9139 124.385 58.9851 123.168 57.4807C121.85 55.8462 122.642 53.4629 124.489 52.6318C126.335 51.8007 128.383 53.0001 128.659 54.9813C128.887 56.6532 127.676 58.4845 125.935 58.6347C124.908 58.7191 123.808 58.0609 123.703 56.962C123.607 55.9522 124.279 54.8153 125.376 54.7299C125.535 54.711 125.524 54.7194 125.342 54.7648C125.192 54.7945 125.066 54.8568 124.946 54.9588C125.239 54.732 124.666 55.3144 124.89 55.0104C124.841 55.0922 124.791 55.1739 124.741 55.2652C124.814 55.0692 124.806 55.1366 124.716 55.4577C124.737 55.3723 124.749 55.0414 124.754 55.394C124.751 55.4914 124.766 55.601 124.805 55.6841C124.766 55.601 125.027 56.0155 125.133 56.0975C125.347 56.2617 125.649 56.349 125.919 56.3051C126.185 56.2118 126.245 56.1999 126.111 56.2513C125.976 56.3124 126.029 56.28 126.27 56.1542C125.962 56.3497 126.495 55.8502 126.268 56.1734C126.316 56.1013 126.355 56.028 126.403 55.9559C126.46 55.66 126.479 55.5939 126.459 55.7479C126.439 55.9019 126.438 55.8333 126.468 55.5241C126.394 55.3386 126.31 55.1519 126.236 54.9664C126.37 55.14 126.353 55.1183 126.165 54.9085C126.092 54.8699 126.028 54.8324 125.956 54.7841C126.257 54.9497 125.632 54.7919 125.994 54.789C126.484 54.7829 125.572 54.882 126.072 54.7892C126.233 54.7607 126.382 54.7405 126.543 54.7024C126.22 54.7787 126.464 54.7118 126.638 54.646C127.596 54.269 128.845 54.6725 129.234 55.6902C129.571 56.6524 129.184 57.8548 128.163 58.2629Z" fill="#1FADAD"/>
<path d="M143.983 40.7651C144.364 41.8501 144.637 43.0878 144.078 44.1707C143.7 44.9148 143.098 45.4935 142.233 45.6083C141.636 45.6889 141.028 45.6213 140.461 45.3926C138.415 44.5651 137.484 41.8063 139.025 40.0756C140.439 38.4951 143.203 38.3676 144.451 40.2379C145.619 41.9804 144.93 44.7779 142.819 45.4579C141.84 45.7735 140.627 45.4724 140.224 44.4138C139.872 43.4889 140.216 42.1636 141.268 41.8182C141.757 41.6652 141.087 42.0103 141.317 41.8147C141.249 41.8843 141.183 41.9443 141.116 42.0139C141.235 41.8433 141.218 41.8998 141.045 42.181C141.083 42.1174 141.112 42.0428 141.14 41.9779C141.118 42.0729 141.095 42.1776 141.063 42.2714C141.083 42.1956 141.091 42.1282 141.101 42.0512C141.116 42.3954 141.117 42.464 141.105 42.2474C141.042 41.8971 141.298 42.6533 141.126 42.3184C141.297 42.5847 141.33 42.6378 141.204 42.475C141.264 42.5413 141.333 42.6089 141.393 42.6752C141.223 42.5557 141.268 42.5811 141.54 42.7525C141.334 42.6775 141.401 42.6957 141.72 42.795C141.368 42.7209 142.161 42.7142 141.789 42.794C141.377 42.8785 142.238 42.6457 141.83 42.7796C141.642 42.8731 141.685 42.8395 141.967 42.6993C141.847 42.8013 141.848 42.7917 141.971 42.6704C142.095 42.5395 142.095 42.5395 142.001 42.6645C142.154 42.3808 142.18 42.3352 142.098 42.5203C142.164 42.3821 142.191 42.2485 142.171 42.0993C142.154 41.9212 142.165 41.9127 142.173 42.08C142.074 41.7838 142.069 41.7441 142.142 41.9391C141.996 41.7054 141.954 41.6512 142.046 41.7705C142.31 42.1561 141.792 41.6207 142.09 41.8151C141.842 41.6858 141.788 41.6496 141.916 41.7149C141.972 41.7415 142.027 41.7681 142.093 41.7863C141.993 41.5779 141.211 41.8012 141.785 41.6688C141.353 41.917 140.93 42.1664 140.496 42.4241C140.612 42.2824 140.631 42.2848 140.546 42.4206C140.473 42.5288 140.439 42.6418 140.433 42.7681C140.497 42.4145 140.5 43.0114 140.45 42.7898C140.416 42.6682 140.405 42.5298 140.381 42.4094C140.438 42.7297 140.408 42.5009 140.334 42.3155C139.988 41.3424 140.34 40.1158 141.378 39.7198C142.343 39.3633 143.618 39.721 143.983 40.7651Z" fill="#1FADAD"/>
<path d="M136.939 62.626C136.213 62.6413 135.515 62.5916 134.843 62.2617C133.943 61.8048 133.134 61.0955 133.125 60.0089C133.12 59.0498 133.7 58.2533 134.57 57.8749C135.697 57.3925 136.966 57.9548 137.463 59.0449C137.901 59.9808 137.395 61.266 136.419 61.6405C135.391 62.0282 134.292 61.595 133.823 60.5964C133.816 60.576 133.807 60.5651 133.8 60.5447C133.889 60.6929 133.969 60.8302 134.058 60.9784C134.05 60.9675 134.032 60.9555 134.024 60.935C134.146 61.058 134.258 61.1702 134.38 61.2932C134.362 61.2811 134.352 61.2799 134.334 61.2678C134.479 61.3548 134.625 61.4417 134.78 61.5299C134.761 61.5275 134.752 61.5166 134.733 61.5142C134.904 61.5554 135.073 61.6064 135.244 61.6476C135.225 61.6452 135.206 61.6427 135.196 61.6415C135.372 61.6443 135.549 61.6375 135.724 61.6403C135.686 61.6354 135.656 61.6413 135.615 61.6556C135.777 61.6079 135.94 61.5601 136.112 61.5136C136.071 61.5279 136.04 61.5435 136.008 61.5591C136.157 61.4703 136.294 61.39 136.442 61.3013C136.411 61.3169 136.378 61.342 136.355 61.3684C136.478 61.2472 136.591 61.1343 136.714 61.0131C136.702 61.0311 136.691 61.0395 136.679 61.0575C136.766 60.9121 136.853 60.7667 136.941 60.6116C136.918 60.6381 136.904 60.6657 136.9 60.7042C136.941 60.5334 136.992 60.3639 137.033 60.1931C137.031 60.2123 137.029 60.2219 137.037 60.2424C137.039 60.0667 137.033 59.8899 137.035 59.7142C137.042 59.7346 137.041 59.7443 137.048 59.7647C137.001 59.6022 136.953 59.4396 136.906 59.2675C136.913 59.2879 136.922 59.2988 136.939 59.3205C136.737 59.0601 136.527 58.7889 136.326 58.5286C136.448 58.6419 136.573 58.7361 136.718 58.823C136.573 58.7361 136.428 58.6491 136.272 58.5609C136.446 58.6612 136.622 58.7326 136.821 58.7872C136.65 58.7459 136.48 58.695 136.31 58.6537C136.471 58.6937 136.634 58.7146 136.8 58.7161C136.625 58.7133 136.448 58.7202 136.272 58.7174C136.302 58.7114 136.341 58.7163 136.371 58.7104C136.92 58.7019 137.402 58.7535 137.856 59.1047C138.23 59.3967 138.565 59.9088 138.611 60.3939C138.663 60.909 138.562 61.4731 138.217 61.8791C137.917 62.2419 137.438 62.6211 136.939 62.626Z" fill="#1FADAD"/>
<path d="M72.3098 88.9562C73.6667 90.8207 72.9862 93.8636 70.6693 94.6251C68.1791 95.4427 65.5641 93.3204 65.8682 90.699C66.1735 88.068 69.4818 86.8165 71.5689 88.2458C73.6102 89.6497 73.3635 92.9728 71.1975 94.0859C68.4352 95.5046 65.4782 91.8425 67.3318 89.4182C67.9641 88.5989 69.2847 88.366 70.1063 89.0573C70.9278 89.7486 71.137 90.9487 70.4672 91.8317C70.6072 91.6539 70.6691 91.3977 70.6588 91.1715C70.6577 91.1029 70.5527 90.6984 70.615 90.8236C70.7048 91.0404 70.3524 90.4284 70.6031 90.7635C70.4939 90.6224 70.3678 90.5379 70.2103 90.469C70.4603 90.579 70.1525 90.4616 70.0563 90.4494C69.8349 90.4212 69.6134 90.4713 69.4231 90.584C69.37 90.6163 69.0806 90.8925 69.1735 90.7772C69.3364 90.573 68.8995 91.1628 69.0114 91.2064C69.0114 91.2064 69.054 90.9478 69.0444 90.9465C69.043 91.0344 69.0416 91.1222 69.0402 91.2101C69.0129 91.0403 69.0142 91.0307 69.0523 91.192C69.0142 91.5686 69.1142 90.9359 69.099 91.286C69.189 91.4246 69.1794 91.4234 69.0798 91.2836C69.141 91.3403 69.1926 91.3957 69.2539 91.4524C69.3512 91.5333 69.5652 91.6191 69.326 91.5007C69.4018 91.5201 69.4775 91.5396 69.5533 91.559C69.3692 91.5453 69.3608 91.5345 69.5256 91.5457C69.9228 91.4984 69.2427 91.6172 69.6051 91.5362C69.8663 91.4814 69.3447 91.7378 69.7437 91.4463C69.722 91.4631 69.5146 91.6322 69.5062 91.6214C69.5795 91.6601 69.7403 91.3187 69.7645 91.2826C69.5579 91.6769 69.7988 91.0132 69.7573 91.2622C69.7232 91.4534 69.7277 91.0335 69.7326 90.995C69.6836 90.8421 69.692 90.8529 69.7578 91.0276C69.717 90.9637 69.6847 90.9106 69.6439 90.8468C69.8098 90.9265 69.7303 90.936 69.579 90.819C69.6582 90.8877 69.9359 91.0111 69.7195 90.9444C69.4092 90.8463 70.0072 90.9125 69.6462 90.9057C69.485 90.8657 69.4959 90.8573 69.6775 90.8902C69.5993 90.89 69.5223 90.8802 69.4344 90.8788C69.2948 90.9002 69.1454 90.9985 69.3454 90.887C69.2815 90.9278 68.8982 91.2507 69.0332 91.1114C69.1225 91.025 69.1566 90.8337 69.1008 91.0417C69.0367 91.1607 69.0259 91.1691 69.067 91.0765C69.1239 90.9371 69.1069 90.9937 69.0353 91.2486C69.0462 91.2402 69.0792 90.9803 69.0708 90.9695C69.1153 91.0045 69.0555 91.3978 69.0465 91.0837C69.123 91.3282 69.1361 91.3788 69.0751 91.2439C69.014 91.109 69.0367 91.1608 69.1458 91.38C68.5387 90.54 68.6065 89.2381 69.4984 88.6083C70.3865 88.0074 71.6595 88.0715 72.3098 88.9562Z" fill="#1FADAD"/>
<path d="M100.528 58.7862C99.1628 60.2946 97.3441 61.0608 95.3024 60.889C94.5084 60.8271 93.6305 60.0407 93.5986 59.2151C93.532 57.7397 93.6161 56.1563 94.609 54.9623C95.5573 53.8116 97.1036 53.2651 98.5479 53.6738C100.097 54.1055 101.044 55.6539 100.832 57.2406C100.643 58.6541 99.6548 59.8095 98.648 60.7278C97.8523 61.4481 96.4979 61.178 95.8763 60.3752C95.1792 59.4748 95.4332 58.3239 96.2289 57.6036C96.3073 57.5256 96.4291 57.4139 96.2832 57.5616C96.3965 57.4391 96.5003 57.3154 96.6041 57.1917C96.6861 57.0847 96.7669 56.9875 96.8406 56.8697C97.0108 56.6077 96.7535 57.0933 96.8672 56.8144C96.993 56.5175 96.8593 56.5689 96.9155 56.7423C96.9228 56.6845 96.929 56.6364 96.9363 56.5787C96.9277 56.6461 96.9288 56.7146 96.9202 56.782C96.9727 56.9843 97.0781 57.2324 97.2583 57.3531C97.3304 57.4014 97.7887 57.4891 97.5661 57.4705C97.2762 57.4434 97.9017 57.523 97.6142 57.4767C97.5047 57.4921 97.5047 57.4921 97.6154 57.467C97.7274 57.4324 97.7262 57.442 97.6238 57.4779C97.5203 57.5234 97.5203 57.5234 97.6238 57.4779C97.7407 57.4047 97.7274 57.4323 97.5659 57.5487C97.649 57.5104 97.6973 57.4383 97.7276 57.3542C97.672 57.484 97.6067 57.6126 97.5703 57.7449C97.6357 57.5381 97.5738 57.7942 97.5653 57.8616C97.5343 58.2586 97.5194 58.4523 97.5238 58.6485C96.9595 58.0877 96.3855 57.5257 95.82 56.9746C96.0233 56.9906 96.3783 56.9674 96.6661 56.8573C96.748 56.8286 97.2553 56.5312 97.0299 56.6884C97.1046 56.6392 97.593 56.183 97.4217 56.3764C98.1382 55.5874 99.2963 55.324 100.196 56.0154C100.96 56.6212 101.246 57.9875 100.528 58.7862Z" fill="#1FADAD"/>
<path d="M90.1553 111.343C89.573 112.383 88.74 113.089 87.547 113.319C86.555 113.506 85.4533 113.248 84.675 112.601C83.9591 112.002 83.7661 111.136 84.0519 110.273C84.5194 108.904 85.7717 107.978 87.1549 107.714C88.3779 107.478 89.6123 108.692 89.3979 109.916C89.1944 111.054 88.5604 112.118 87.3133 112.311C86.0976 112.489 84.8323 111.673 84.681 110.402C84.5156 109.012 85.7057 107.882 87.0772 108.017C88.5161 108.161 89.289 109.619 88.8193 110.928C88.4706 111.901 87.1711 112.43 86.2394 111.989C85.2333 111.518 84.8024 110.447 85.1789 109.409C85.1814 109.39 85.1934 109.372 85.1959 109.352C85.1996 109.861 85.2021 110.38 85.2058 110.889C85.1986 110.869 85.1998 110.859 85.1927 110.838C85.3942 111.099 85.6042 111.37 85.8058 111.63C86.364 111.701 86.9222 111.772 87.4816 111.834C87.742 111.632 88.0132 111.422 88.2735 111.221C88.2615 111.239 88.241 111.246 88.2289 111.264C88.3572 110.948 88.495 110.633 88.6245 110.307C88.6212 110.179 88.6262 110.063 88.6229 109.935C88.496 109.625 88.3595 109.315 88.2326 109.005C87.6289 108.831 87.0156 108.655 86.4119 108.48C86.1516 108.682 85.8804 108.892 85.62 109.093C85.7696 108.917 85.7623 108.975 85.5968 109.276C85.4757 109.613 85.4503 109.659 85.5002 109.42C86.2483 110.151 86.9951 110.892 87.7432 111.623C87.3218 111.706 88.0889 111.442 87.7203 111.649C87.9336 111.51 87.9854 111.487 87.8673 111.57C87.813 111.612 87.7588 111.654 87.7045 111.696C87.76 111.644 87.8167 111.583 87.8721 111.531C87.8142 111.602 87.7563 111.673 87.708 111.745C87.7467 111.672 87.7938 111.609 87.8324 111.536C87.7925 111.619 87.7623 111.703 87.732 111.787C87.5279 111.008 87.3226 110.239 87.1089 109.459C87.33 109.643 87.0104 109.388 86.9406 109.398C86.931 109.397 87.4083 109.565 87.0031 109.445C86.682 109.356 86.9466 109.428 87.0248 109.429C87.2703 109.421 86.4857 109.438 86.8888 109.421C87.174 109.408 86.7529 109.413 86.725 109.478C86.7263 109.469 86.9226 109.386 86.9322 109.387C86.8479 109.435 86.7744 109.475 86.69 109.523C86.8106 109.421 86.8094 109.43 86.6864 109.552C86.5838 109.666 86.5609 109.692 86.6201 109.612C86.713 109.496 86.6755 109.56 86.5161 109.814C87.0211 108.92 88.0634 108.26 89.096 108.753C89.9723 109.168 90.6892 110.374 90.1553 111.343Z" fill="#1FADAD"/>
<path d="M74.0297 106.495C73.5759 108.755 71.1996 110.291 68.9768 109.314C66.8934 108.394 66.215 105.501 67.6508 103.747C69.1095 101.967 72.2619 102.094 73.2426 104.302C74.1467 106.343 72.3684 109.022 70.0649 108.601C69.0509 108.424 68.1637 107.479 68.3514 106.388C68.5293 105.374 69.4734 104.487 70.5644 104.675C70.805 104.705 70.734 104.726 70.3597 104.747C70.1468 104.729 69.9625 104.794 69.8082 104.931C69.6248 105.142 69.5802 105.185 69.6731 105.07C69.766 104.955 69.7298 105.009 69.5837 105.235C69.7359 104.961 69.557 105.368 69.5578 105.515C69.5598 105.73 69.6303 105.945 69.7755 106.11C69.9448 106.317 70.1323 106.38 70.3693 106.44C69.8846 106.329 70.8071 106.535 70.3199 106.443C70.391 106.423 70.462 106.403 70.5318 106.392C70.3656 106.469 70.3547 106.477 70.4909 106.406C70.5932 106.37 70.6716 106.292 70.732 106.202C70.8371 105.991 70.8529 105.944 70.796 106.083C70.7161 106.327 70.8931 105.704 70.8057 106.084C70.7978 105.839 70.8051 105.781 70.8252 105.931C70.8466 106.07 70.8322 106.029 70.7822 105.808C70.9631 106.153 70.5227 105.618 70.8289 105.902C70.7677 105.845 70.3843 105.63 70.5719 105.693C70.7678 105.767 70.3096 105.679 70.2313 105.679C70.7584 105.687 69.8378 105.697 70.3529 105.646C70.1722 105.759 70.1421 105.765 70.2602 105.683C70.3699 105.589 70.347 105.615 70.1915 105.762C70.4086 105.516 70.1528 105.835 70.1224 105.998C70.3291 104.987 71.2251 104.094 72.3354 104.284C73.3205 104.458 74.2558 105.409 74.0297 106.495Z" fill="#1FADAD"/>
<path d="M81.6131 63.255C79.9624 63.7002 77.9198 63.3817 76.8074 61.9786C75.7778 60.6937 75.7423 58.7429 76.786 57.4577C78.0034 55.9598 80.2269 56.0862 81.3547 57.5988C82.4069 59.0138 82.1324 61.326 80.3284 61.9767C79.3541 62.3319 78.1287 61.9707 77.7327 60.9326C77.3749 59.9775 77.7399 58.7232 78.7768 58.3368C78.9839 58.2458 78.9273 58.3071 78.5983 58.5097C78.3887 58.62 78.2415 58.7773 78.1448 58.9997C78.1121 59.1031 78.0781 59.2162 78.0454 59.3196C78.0615 59.6541 78.0589 59.7516 78.0304 59.5915C78.0008 59.3628 78.1907 60.0226 78.0433 59.7203C78.2064 59.9757 78.2376 60.0384 78.1452 59.919C78.0528 59.7997 78.1044 59.8552 78.3109 60.077C78.6845 60.3691 79.3078 60.3897 79.6791 60.0849C79.8624 59.8735 79.9167 59.8314 79.8238 59.9468C79.7405 60.0633 79.7671 60.008 79.924 59.7737C79.7573 60.085 79.9728 59.4669 79.9434 59.6979C79.9141 59.9289 79.8687 59.2092 79.9424 59.6294C80.0042 59.9893 79.8395 59.362 79.928 59.5884C80.0262 59.816 79.7495 59.2234 79.9137 59.5475C79.7576 59.3907 79.7324 59.3581 79.8477 59.451C79.9643 59.5343 79.9462 59.5223 79.784 59.4136C80.1532 59.5095 79.6143 59.4409 79.8573 59.4523C80.0029 59.461 80.1557 59.4902 80.3013 59.4989C79.8813 59.4944 80.4433 59.4584 80.5023 59.4561C80.6817 59.43 80.8538 59.3835 81.0356 59.3381C82.0386 59.0648 83.176 60.0407 83.2678 61.0108C83.4012 62.1915 82.6871 62.9613 81.6131 63.255Z" fill="#1FADAD"/>
<path d="M87.6337 81.4286C86.6629 84.063 82.8013 84.6671 81.0673 82.4612C79.3237 80.2541 80.9336 76.4395 83.8218 76.3375C84.7063 76.3033 85.5515 76.6553 85.9202 77.5237C86.6864 79.3424 86.423 81.4898 85.1538 83.0104C84.4721 83.8332 83.2527 84.0399 82.3794 83.3714C81.5601 82.739 81.3355 81.4294 82.0184 80.5969C82.4684 80.0576 82.5475 79.6667 82.2816 79.0657C82.9847 79.4583 83.6782 79.8497 84.3801 80.2519C84.3608 80.2494 84.0647 80.2705 84.0635 80.2801C84.073 80.3595 84.5718 80.0514 84.361 80.1713C84.1188 80.3067 84.5841 79.9551 84.3755 80.134C84.3321 80.1676 84.1594 80.4488 84.2838 80.2397C84.4215 80.0029 84.2341 80.3996 84.2172 80.4561C84.2656 80.3058 84.3393 80.188 84.2618 80.4129C84.309 80.2722 84.2227 80.1048 84.2896 80.348C84.2693 80.277 84.0752 79.8806 84.1904 80.0517C84.2983 80.2024 84.057 79.9468 84.0138 79.9021C83.8889 79.808 84.1174 79.8566 83.9477 79.8839C83.7177 79.9231 84.0271 79.8745 84.1414 79.8988C84.0066 79.8817 83.8129 79.8668 84.0656 79.8794C84.299 79.8896 84.144 79.8013 84.015 79.8925C84.2416 79.7257 84.0175 79.8733 83.98 79.937C84.2071 79.5356 83.87 80.187 83.9993 79.9394C84.1286 79.6918 83.8166 80.3758 83.9825 79.9177C84.3541 78.9186 85.6149 78.4629 86.5623 78.8572C87.5951 79.2722 88.0065 80.4199 87.6337 81.4286Z" fill="#1FADAD"/>
<path d="M73.0306 123.188C70.1308 123.074 67.7125 120.712 67.2686 117.898C67.0727 116.67 68.2161 115.446 69.4707 115.655C71.998 116.084 73.9192 117.971 74.3601 120.502C74.4802 121.172 74.1668 121.944 73.6172 122.344C72.5193 123.133 71.0904 123.372 69.85 122.745C68.904 122.262 68.3444 121.203 68.7894 120.165C69.2769 119.024 70.1295 118.164 71.2773 117.674C73.6223 116.692 75.1739 120.331 72.8289 121.314C72.5603 121.427 72.5519 121.416 72.4394 121.685C72.0887 120.829 71.7296 119.962 71.3789 119.105C71.8284 119.339 71.4127 119.071 71.2065 119.23C70.9621 119.845 70.7081 120.458 70.4637 121.072C70.3282 120.292 69.7086 119.705 68.9808 119.583C69.7117 118.835 70.4521 118.088 71.183 117.34C71.3729 118.537 72.3906 119.224 73.5289 119.271C74.5997 119.31 75.3697 120.484 75.2424 121.484C75.0979 122.62 74.1002 123.236 73.0306 123.188Z" fill="#1FADAD"/>
<path d="M68.0219 77.5356C65.6309 78.1116 63.0925 75.6176 63.6621 73.2158C63.8697 72.3523 64.4188 71.6496 65.336 71.512C68.1972 71.0838 70.5577 73.516 70.4385 76.2979C70.389 77.4553 69.223 78.0111 68.2255 78.0114C65.9981 77.9921 64.0349 76.0505 63.8026 73.8792C63.6634 72.5901 64.7031 71.4901 66.0048 71.6361C68.5311 71.9184 70.2193 74.1771 70.0912 76.6449C70.0384 77.6748 68.8741 78.5242 67.8781 78.3584C66.7583 78.167 66.1117 77.2535 66.1646 76.1454C66.1594 76.3403 66.1786 76.3427 66.155 76.1441C66.1289 75.9648 66.0904 75.9599 66.1671 76.1261C66.1228 76.0129 66.0773 75.9093 66.0222 75.8045C66.1576 76.0467 66.0173 75.843 65.9345 75.7249C65.7569 75.5067 66.1399 75.8781 65.9165 75.7128C65.8804 75.6887 65.5812 75.5039 65.7747 75.597C65.967 75.6997 65.6328 75.5593 65.5968 75.5352C65.3563 75.4264 65.9998 75.5963 65.5077 75.5435C66.2385 74.7954 66.979 74.0485 67.7099 73.3004C67.724 73.4196 67.7394 73.5292 67.7633 73.6495C67.6822 73.2872 67.7933 73.6436 67.8317 73.7267C67.9563 73.9773 67.6709 73.5302 67.8497 73.7388C67.9181 73.816 68.1836 74.0355 67.9169 73.8255C68.0058 73.8955 68.1043 73.9667 68.1932 74.0367C68.031 73.9281 68.0466 73.9594 68.2137 74.0296C68.5479 74.1699 68.0824 74.0617 68.2882 74.0586C68.4254 74.0565 68.5782 74.0857 68.725 74.0848C67.9873 74.656 67.2496 75.2272 66.5119 75.7983C66.4966 76.2267 66.5118 75.8766 66.4771 75.7646C66.4461 75.6237 66.4617 75.655 66.5034 75.8657C66.4806 75.8139 66.4579 75.7621 66.4435 75.7212C66.4108 75.8246 66.6187 75.9586 66.4003 75.6766C66.3091 75.5476 66.0963 75.4521 66.3583 75.6223C66.2669 75.5716 66.1793 75.492 66.1 75.4232C66.4208 75.6694 66.1578 75.4305 66.0314 75.4243C65.798 75.4141 66.3742 75.4972 65.9929 75.4194C65.602 75.3403 66.3119 75.372 65.8738 75.4336C66.4345 74.8692 66.9965 74.2952 67.5477 73.7297C67.442 74.1759 67.5316 73.933 67.4348 73.6175C67.527 73.8151 67.5078 73.8126 67.3879 73.6018C67.4455 73.6874 67.5127 73.7741 67.5811 73.8513C67.407 73.6824 67.4094 73.6632 67.5776 73.802C67.3589 73.6763 67.3505 73.6655 67.5549 73.7502C67.2338 73.6604 66.9676 73.7537 67.4215 73.6452C68.4304 73.4019 69.5644 74.3285 69.6537 75.3178C69.8028 76.4517 69.091 77.2805 68.0219 77.5356Z" fill="#1FADAD"/>
<path d="M55.3704 113.255C55.7119 113.954 55.8316 114.781 55.6567 115.541C55.4635 116.367 54.8939 117.155 53.9827 117.245C51.0688 117.549 48.782 113.923 50.739 111.532C52.6489 109.202 56.5288 110.684 56.8921 113.517C57.1004 115.108 55.9596 116.773 54.3227 116.955C52.7556 117.128 51.1998 115.981 50.918 114.43C50.635 112.887 51.6275 111.312 53.0511 110.73C54.5879 110.104 56.2655 110.601 57.5172 111.602C59.5064 113.185 57.1026 116.321 55.1037 114.737C55.0412 114.69 54.4681 114.275 54.4727 114.393C54.4688 114.5 54.7705 114.127 54.785 114.09C54.8891 113.81 54.7144 113.338 54.4537 113.158C54.193 112.978 54.0051 113.072 53.7004 113.16C53.0719 113.334 53.0691 113.51 52.9752 114.095C53.0566 114.301 53.0722 114.332 53.0111 114.197C52.9584 114.073 52.9752 114.095 53.059 114.281C53.1035 114.316 53.1479 114.351 53.1911 114.396C53.0302 114.278 53.0134 114.256 53.1407 114.331C53.2694 114.396 53.2417 114.383 53.0662 114.302C53.1323 114.32 53.1901 114.327 53.2562 114.346C53.1985 114.338 53.1504 114.332 53.0926 114.325C53.1973 114.348 53.296 114.341 53.3887 114.304C53.6067 114.204 53.8501 114.059 53.9397 113.816C53.9808 113.724 53.993 113.628 53.9656 113.536C53.9454 113.387 53.9526 113.407 53.975 113.616C53.9619 113.565 53.9391 113.513 53.926 113.463C54.0098 113.649 54.0254 113.681 53.9523 113.564C53.8947 113.478 53.9043 113.479 53.9715 113.566C54.0651 113.676 54.0471 113.664 53.9199 113.511C53.7419 113.449 53.6182 113.345 53.4004 113.366C52.8396 113.931 52.2776 114.505 51.7264 115.07C51.8176 114.661 51.9138 115.211 51.7269 114.836C51.2621 113.877 51.8196 112.647 52.7711 112.24C53.7985 111.774 54.8972 112.285 55.3704 113.255Z" fill="#1FADAD"/>
<path d="M58.8009 93.5161C57.0089 94.7649 54.4115 94.5029 53.1111 92.6554C51.8671 90.903 52.4214 88.3135 54.1844 87.1393C56.1391 85.8428 58.8735 86.7187 59.8255 88.8447C60.2674 89.83 60.2613 90.9538 59.8044 91.9323C59.2506 93.1332 58.2071 93.8024 56.9717 94.1342C55.9399 94.4039 54.8711 93.4269 54.7396 92.4616C54.5737 91.306 55.3804 90.4992 56.4123 90.2295C56.1895 90.2891 56.128 90.3889 56.3173 90.2076C56.1376 90.3901 56.2132 90.4877 56.2438 90.2471C56.2109 90.4288 56.1988 90.4468 56.2172 90.3024C56.2368 90.1484 56.2331 90.1773 56.2158 90.3903C56.2804 90.5745 56.2863 90.6046 56.2349 90.471C56.1726 90.3457 56.1894 90.3674 56.2756 90.5348C56.1484 90.3817 56.1316 90.36 56.2168 90.4589C56.3117 90.559 56.2853 90.536 56.1351 90.4093C56.3094 90.5 56.3274 90.5121 56.1976 90.4564C56.0581 90.3996 56.0966 90.4045 56.2938 90.4687C56.0905 90.4526 56.0629 90.4393 56.2181 90.4492C56.3047 90.4603 56.395 90.4424 56.4697 90.3932C56.2926 90.4783 56.2637 90.4746 56.389 90.4123C56.5059 90.3392 56.4938 90.3572 56.3336 90.4639C56.3782 90.4207 56.4216 90.3871 56.4566 90.3427C56.3262 90.5217 56.3166 90.5205 56.441 90.3114C56.4156 90.357 56.3987 90.4135 56.3733 90.4592C56.297 90.6744 56.2982 90.6648 56.377 90.4304C56.3696 90.4881 56.3635 90.5362 56.3561 90.594C56.3495 90.3388 56.3507 90.3292 56.3803 90.5579C56.3684 90.4977 56.3469 90.4363 56.3337 90.3857C56.426 90.5833 56.4247 90.5929 56.3325 90.3953C56.2977 90.3616 56.2532 90.3266 56.2196 90.2832C56.4083 90.4148 56.3974 90.4232 56.2063 90.3108C56.2616 90.3374 56.3085 90.3532 56.3638 90.3797C56.1533 90.3432 56.1257 90.3299 56.2688 90.3579C56.3542 90.3786 56.4408 90.3896 56.5286 90.391C56.3229 90.3941 56.2844 90.3893 56.4324 90.3787C56.572 90.3574 56.5516 90.3645 56.3601 90.4086C56.5673 90.3176 56.5673 90.3176 56.3794 90.4111C57.2495 89.7981 58.4695 89.8946 59.1511 90.7637C59.7835 91.5581 59.6807 92.9043 58.8009 93.5161Z" fill="#1FADAD"/>
</svg>
