<svg width="109" height="89" viewBox="0 0 109 89" fill="none" xmlns="http://www.w3.org/2000/svg">
<path d="M37.871 42.5613C40.2915 41.4133 41.1076 38.7991 39.7659 36.5031C37.5805 32.7686 30.4712 28.0936 27.1931 32.7824C26.3771 33.3357 25.6993 34.0688 25.3259 35.0093C24.2747 37.6096 26.6952 40.1269 28.7699 41.2611C31.2734 42.6581 35.1047 43.8753 37.871 42.5613ZM28.4518 35.1891C28.5486 35.1891 28.6454 35.1891 28.7561 35.1615C31.2319 34.6082 34.9249 34.0688 36.4602 36.5999C37.1103 37.6788 37.2486 38.398 36.7783 39.546C36.1974 40.9568 35.6303 40.5419 34.2472 40.3344C32.0065 40.0025 29.3508 39.2279 28.5348 36.8212C28.3273 36.1988 28.3135 35.6594 28.4518 35.1891Z" fill="#1FADAD"/>
<path d="M9.90375 31.786C6.55654 29.5039 1.56335 29.9326 0.069556 34.0959C-0.207073 34.8566 0.387697 35.3684 1.03778 35.3961C1.66019 39.0337 5.56067 41.8692 9.21218 40.4584C13.1127 38.9508 13.1265 33.9852 9.90375 31.786ZM3.31996 35.562C2.22727 31.7031 6.91614 32.4776 8.63124 33.9161C8.79722 34.0544 8.96323 34.1236 9.14304 34.1651C10.3602 35.4099 10.706 37.0558 8.88024 38.2177C6.69486 39.6008 3.95621 37.7889 3.31996 35.562Z" fill="#1FADAD"/>
<path d="M18.5069 54.8712C17.8015 53.9168 16.7088 52.9071 15.4778 52.2155C15.2427 51.9251 14.8831 51.7176 14.482 51.7453C13.5829 51.3995 12.6562 51.2473 11.7848 51.4271C10.8443 51.6208 10.0835 52.1879 9.54411 52.9348C8.6174 53.3497 7.96733 54.0551 7.99499 55.4659C8.05032 57.9832 10.7889 61.1507 12.8222 62.437C13.5967 62.9211 14.4266 63.1839 15.2289 63.2116C17.0961 63.7095 18.8665 63.2392 19.8071 61.0124C20.5401 59.2696 20.1805 57.5683 19.2261 56.1437C19.0325 55.6872 18.8112 55.2585 18.5069 54.8712ZM10.8581 55.3276C12.4072 54.1796 14.4405 54.885 15.9066 55.95C16.4737 56.365 17.1514 57.1948 17.5802 58.0524V58.0662C17.7185 59.6845 16.695 60.9155 15.3672 60.957C13.7351 60.5006 12.0199 58.7716 11.273 57.5268C10.8581 56.8076 10.7336 56.0054 10.8581 55.3276Z" fill="#1FADAD"/>
<path d="M33.763 60.5836C33.7215 61.3029 34.2747 61.6348 34.828 61.6072C35.16 62.4232 35.7409 63.1701 36.4463 63.7372C38.1476 65.0789 40.7894 66.2684 43.0854 65.9779C45.3538 65.9917 47.47 64.4426 47.3317 61.9944C46.9859 55.8118 34.1779 53.0593 33.763 60.5836ZM40.2776 62.4094C39.7105 61.8838 37.3592 59.9059 37.29 59.1313C37.3453 59.076 37.4145 59.0068 37.4837 58.9515C37.6358 58.827 37.871 58.7026 38.1337 58.6057C38.7147 58.6057 39.4892 58.7717 40.1531 58.9515C40.3744 59.1175 40.6372 59.1867 40.8862 59.1728C41.1213 59.2558 41.315 59.325 41.4394 59.3665C42.8779 59.9197 46.1007 61.9806 43.7355 63.5851C43.5695 63.6957 43.3759 63.7787 43.1822 63.8479C42.1864 63.8202 41.0245 63.101 40.2776 62.4094Z" fill="#1FADAD"/>
<path d="M42.8088 78.4675C42.463 78.2047 42.0618 77.9004 41.6054 77.5823C41.5501 77.0843 41.2043 76.6279 40.568 76.5864C40.3744 76.5726 40.1531 76.5587 39.9318 76.5311C37.9124 75.4107 35.5472 74.6915 33.8875 76.0885C33.5693 76.3513 33.348 76.6417 33.182 76.9599C30.1945 78.758 31.8957 82.7276 33.8875 84.8853C34.2056 85.2311 34.6067 85.2864 34.9387 85.1481C35.976 86.2131 37.1517 87.0983 38.1891 87.7069C40.5266 89.0624 44.2611 90.0306 45.7687 87.0015C47.3178 83.9033 45.257 80.3762 42.8088 78.4675ZM37.4837 82.6446C36.8612 81.9669 36.308 81.22 35.8654 80.4177C35.6164 79.989 35.4089 79.5463 35.2291 79.0761C35.5472 78.5228 36.1143 78.343 36.9166 78.5505C37.0549 78.5228 37.207 78.509 37.3592 78.4952C37.7326 78.592 38.1061 78.7165 38.438 78.8409C40.2638 79.5602 42.1587 81.2199 42.5736 83.2393C42.8779 84.747 41.5501 85.563 40.2085 84.8438C39.1849 84.3044 38.2721 83.4883 37.4837 82.6446Z" fill="#1FADAD"/>
<path d="M67.4703 79.4909C67.0277 78.3152 66.1702 77.4577 65.1328 76.9597C64.0955 76.1022 62.8921 75.4106 61.6196 74.9818C61.0664 74.7882 60.4163 74.6222 59.7524 74.5254C59.4066 74.0136 58.6459 73.7232 58.0511 74.2764C57.982 74.3318 57.9266 74.4009 57.8713 74.4562C56.9031 74.553 56.0041 74.8988 55.3678 75.6319C53.7219 77.5545 55.3125 79.9058 56.9031 81.2198C56.9999 81.3028 57.1244 81.3858 57.2351 81.4688C58.3278 83.3084 60.1397 84.899 61.9378 85.798C63.8188 86.7524 66.4607 87.3472 67.913 85.3554C69.1163 83.7095 68.5354 81.4964 67.581 79.8228C67.5395 79.7122 67.5118 79.6015 67.4703 79.4909ZM59.0746 80.1271C58.9778 80.0718 58.8948 80.0027 58.8118 79.9335C58.3001 78.8408 58.2171 77.6651 58.9364 76.5725C59.1715 76.5863 59.4619 76.6416 59.863 76.7246C60.3333 76.8214 60.8036 76.9736 61.26 77.1395C60.9834 77.8449 61.5505 78.8823 62.5463 78.6748C63.0443 78.5642 63.5284 78.6057 63.971 78.7717C64.5381 79.2696 65.0498 79.8367 65.4786 80.4729C65.4095 80.6942 65.202 80.9017 64.87 81.1092C64.5381 81.9667 63.9433 82.188 63.0996 81.7593C61.6473 81.4965 60.278 80.9294 59.0746 80.1271ZM64.5934 84.4979C64.1508 84.5947 63.5422 84.2766 63.0166 83.9585C63.5145 84.0276 64.0263 84.0829 64.5242 84.0691C64.8009 84.0691 65.0498 84.0276 65.2988 83.9723C65.0637 84.1521 64.8286 84.3181 64.5934 84.4979Z" fill="#1FADAD"/>
<path d="M85.6864 62.5195C83.9436 61.1778 80.5549 59.2552 78.3557 60.5139C76.1565 61.7726 76.8757 64.5665 78.0929 66.2263C78.8813 67.3051 79.891 68.2595 81.0114 69.0341C82.0626 70.0438 83.3074 70.8736 84.6214 71.4131C86.2673 72.1046 88.3697 72.2706 89.3102 70.9013C90.0018 70.5417 90.4721 69.9331 90.4997 68.9373C90.5136 66.6551 87.8441 63.6813 85.6864 62.5195ZM86.862 69.1447C85.6587 69.3107 84.0266 68.4531 82.8371 67.6786C82.1317 66.9179 81.537 66.005 80.8315 65.3134C81.5646 63.5291 83.5149 63.8611 84.9118 64.6357C85.8662 65.5762 86.6546 66.6274 87.0557 67.4158C87.36 67.9967 87.4153 68.6191 87.2217 69.0479C87.1249 69.0894 87.0004 69.1171 86.862 69.1447ZM80.2921 62.3535C80.4996 62.3258 80.7209 62.3396 80.9422 62.3535C80.8177 62.4226 80.6794 62.4918 80.5549 62.5609C80.3059 62.478 80.0846 62.4365 79.8772 62.4365C80.0017 62.395 80.14 62.3673 80.2921 62.3535Z" fill="#1FADAD"/>
<path d="M59.5864 55.7838C60.3057 56.0743 61.1632 56.2679 62.0208 56.2817C68.3003 57.8032 66.516 48.0244 62.2697 46.3784C61.758 46.1709 61.3569 46.3922 61.1494 46.7518C58.1341 44.4697 53.5421 42.0353 52.8229 45.9358C52.6016 47.1253 53.058 48.3563 53.7219 49.4628C53.7496 49.8778 53.8464 50.3065 54.04 50.7491C54.9806 52.9068 57.4425 54.9124 59.5864 55.7838ZM57.816 47.0423C59.2406 47.7754 66.1564 53.1835 62.2144 54.0964C62.1314 54.1102 62.0484 54.124 61.9654 54.1379C60.7483 53.6261 59.1162 52.3259 58.6736 51.9386C57.7192 51.1364 56.8893 50.1959 56.1839 49.1585C56.1701 48.0105 56.7095 47.5541 57.5394 46.8763C57.6362 46.9455 57.733 47.0008 57.816 47.0423Z" fill="#1FADAD"/>
<path d="M60.5961 24.9122C58.4799 22.7268 54.7315 22.1183 51.979 23.3354C50.2363 24.11 48.369 25.9219 48.0924 27.9275C47.6913 28.6744 47.5806 29.5596 47.9679 30.6108C48.9776 33.3771 52.1174 36.0189 55.0081 36.4753C60.7482 37.3882 64.4965 28.9233 60.5961 24.9122ZM56.9722 33.2664C55.2848 33.2664 52.9334 31.4683 51.6333 30.3618C52.3802 28.5361 54.2612 27.2774 56.3083 27.9136C58.5767 28.619 60.6652 33.2802 56.9722 33.2664ZM59.6002 27.5817C58.715 26.6273 57.5393 25.9219 56.253 25.6729C55.354 25.507 54.4826 25.5623 53.6803 25.7974C53.5835 25.5346 53.4037 25.3133 53.1547 25.1888C53.2654 25.1473 53.376 25.1058 53.5005 25.0782C55.7274 24.4419 58.8118 25.258 59.6002 27.5817Z" fill="#1FADAD"/>
<path d="M25.5748 16.599C25.146 14.0125 22.8638 12.0208 20.3742 11.4399C17.8707 10.8451 15.215 11.8133 13.9563 14.1232C13.3892 15.1605 13.2786 16.2256 13.4861 17.2214C12.9328 18.3418 12.8221 19.5866 13.735 20.7761C14.8692 22.2837 17.2897 22.8785 19.4059 22.8093C20.8721 23.2243 22.3797 23.1413 23.666 22.0624C24.5374 21.3432 24.9939 20.4303 25.1183 19.4898C25.5609 18.6184 25.7407 17.6364 25.5748 16.599ZM21.2732 14.0955C21.9786 14.5104 22.5042 15.0499 22.85 15.6446C22.3244 15.9628 21.9924 16.765 22.5042 17.4151C22.8085 17.8023 22.9883 18.2588 23.016 18.729C22.5872 19.6004 21.7158 20.292 20.4018 20.5686C20.2082 20.6101 19.9869 20.6378 19.7517 20.6516C19.6272 20.6101 19.5166 20.5686 19.3921 20.5133C18.1196 20.0015 16.7226 19.061 16.0034 17.8715C15.9204 17.7332 15.8513 17.581 15.7959 17.4289C15.8651 17.3459 15.9481 17.2629 16.0587 17.1937C16.446 16.7788 16.9163 16.433 17.3451 16.0734C18.2026 15.3957 17.4142 14.3168 16.5152 14.303C16.6396 14.1785 16.7779 14.0678 16.9301 13.9572C18.2441 13.0996 19.9869 13.3486 21.2732 14.0955Z" fill="#1FADAD"/>
<path d="M38.1338 5.78315C38.2444 8.30047 39.6137 10.9285 41.8959 11.9935C43.86 12.9064 45.8517 12.5467 47.4562 11.4955C48.8808 11.2466 50.098 10.4029 50.7757 8.77075C51.3151 7.47059 51.2322 6.05977 50.7481 4.78728C50.6374 3.94356 50.3331 3.11367 49.7937 2.33911C48.4382 0.402707 45.3953 -0.316527 42.7258 0.12608C42.629 0.112248 42.5183 0.0984137 42.3939 0.112245C41.3565 0.264391 40.5266 0.637839 39.8904 1.1911C38.5349 2.10398 37.7188 3.51478 38.0646 5.45118C38.0784 5.56183 38.1061 5.67249 38.1338 5.78315ZM41.8959 7.35993C41.1767 6.73752 40.5958 6.19809 40.416 5.47885C40.8862 5.72782 41.5225 5.70016 41.8683 5.11924C42.9194 3.39031 45.1325 2.46359 46.9998 3.51479C47.6083 3.86057 48.1339 4.45532 48.4935 5.13306C48.5765 6.57154 47.9403 8.31431 46.8891 9.37934C45.0633 9.76662 43.2238 8.49411 41.8959 7.35993Z" fill="#1FADAD"/>
<path d="M73.6115 16.2673C74.7457 15.2299 75.3405 13.6808 74.8564 11.7582C74.0541 8.61848 70.4441 7.18001 67.4704 7.84392C65.8383 7.83008 64.3168 8.45249 63.8189 10.2921C63.7636 10.4857 63.7359 10.6932 63.7082 10.8868C62.0069 15.1331 66.4054 20.4167 70.9282 18.6878C72.0348 18.2728 72.9476 17.36 73.6115 16.2673ZM67.1246 10.0846C67.4704 10.0016 67.8991 10.0154 68.4109 10.1261C68.6045 10.1676 68.7844 10.1538 68.9504 10.1123C68.729 10.7762 69.0471 11.5922 69.9185 11.4816C70.4718 11.4124 71.2602 11.2464 71.7996 11.4401C72.8647 11.8412 72.5742 12.9892 72.2837 13.8744C72.1593 14.2341 72.0071 14.6075 71.8273 14.9671C71.4815 15.2576 71.0666 15.4789 70.6239 15.5895C69.061 15.9768 67.5257 15.1746 66.6405 13.8883C65.9627 12.8924 65.7138 11.6891 66.0872 10.9007C66.35 10.5687 66.682 10.2921 67.1246 10.0846Z" fill="#1FADAD"/>
<path d="M95.6035 27.2355C97.5952 27.2493 100.016 26.8067 101.122 25.3406C102.353 23.7223 100.901 21.6753 99.5455 20.6794C99.2965 20.4996 98.9922 20.306 98.6602 20.14C98.1346 19.6421 97.4845 19.2409 96.7653 18.9643C94.7183 18.1897 92.4637 18.2589 90.5826 19.2409C88.826 19.808 87.6089 21.6614 88.2175 23.5287C88.9505 25.7832 91.9381 26.8344 94.0544 27.1249C94.2203 27.1525 94.4002 27.1664 94.58 27.1802C94.9257 27.2355 95.2715 27.2493 95.6035 27.2355ZM93.0723 24.3032C92.2839 23.7085 91.62 22.2424 92.3808 21.3018C92.7404 20.8592 94.0267 21.0114 94.5108 21.0667C95.147 21.1497 96.5025 21.6061 97.5952 22.187C97.8027 22.5605 97.8857 23.0031 97.7474 23.5425C97.4707 24.5799 96.6547 25.0086 95.7418 25.0778C95.5067 25.0916 95.2715 25.0778 95.0364 25.064C94.2895 24.9672 93.5703 24.6905 93.0723 24.3032Z" fill="#1FADAD"/>
<path d="M83.3904 37.3604C84.5246 35.9911 85.2299 34.3036 84.5799 32.7683C83.9298 31.2469 82.2423 30.6936 80.4304 30.6106C79.6282 30.4446 78.743 30.4032 77.8439 30.4447C76.5714 30.0574 75.4926 30.3478 74.635 31.0532C73.0997 31.5512 71.7719 32.3119 71.025 33.2386C69.3099 35.3825 70.0015 38.052 72.2975 39.4074C72.4497 39.4904 72.6018 39.5596 72.7678 39.6426C72.92 40.0713 73.1274 40.4586 73.3764 40.8044C76.5576 45.2305 81.5646 41.2885 83.3904 37.3604ZM74.5382 37.5402C74.4276 36.4752 74.6212 34.359 75.4511 33.2248C75.6862 33.4184 76.0044 33.5014 76.3778 33.3769C76.8342 33.2248 77.4428 33.045 78.1067 32.9205C78.4664 33.0588 78.8122 32.9758 79.075 32.7683C79.1579 32.7545 79.2548 32.7545 79.3378 32.7545C80.4304 32.8928 81.6476 33.3631 81.9795 34.5526C82.0902 34.9399 81.9934 35.4516 81.7859 35.9911C81.0943 36.9039 79.9325 37.6785 79.1165 37.9828C77.7333 38.5084 76.0735 38.5361 74.635 38.052C74.5797 37.886 74.5521 37.72 74.5382 37.5402ZM72.4497 35.4931C72.422 35.6868 72.3943 35.8804 72.3805 36.0879C72.3667 35.8943 72.3943 35.7006 72.4497 35.4931Z" fill="#1FADAD"/>
<path d="M108.093 51.1918C106.738 45.4379 97.9548 43.4462 94.7736 48.7436C94.3033 49.5182 94.9396 50.2375 95.6312 50.3343C95.7833 51.2748 96.2121 52.2015 96.8068 52.9623C97.4431 53.7645 98.2868 54.539 99.2273 55.1753C100.472 57.3607 102.713 58.9513 105.272 58.564C107.665 58.1906 109.075 56.0882 108.868 53.7368C108.785 52.8378 108.508 51.9802 108.093 51.1918ZM100.832 49.5597C101.274 48.9926 101.067 48.301 100.638 47.9276C102.602 48.2181 104.677 49.9193 105.811 51.6483C106.779 54.9955 102.824 54.7604 100.846 53.5985C100.209 52.243 99.988 50.6386 100.832 49.5597ZM98.8262 48.1212C99.006 48.0382 99.1997 47.9829 99.3795 47.9414C99.3518 47.9691 99.3242 47.9967 99.2965 48.0244C98.5773 48.9373 98.2453 50.0162 98.19 51.1503C97.4016 50.0438 97.1665 48.8266 98.8262 48.1212Z" fill="#1FADAD"/>
</svg>
