<svg width="44" height="22" viewBox="0 0 44 22" fill="none" xmlns="http://www.w3.org/2000/svg">
<path d="M43.8422 1.6064C43.1288 5.00456 39.6653 7.62636 36.3591 8.04207C35.0901 8.21479 33.7797 8.10033 32.5285 7.76507C31.9849 8.76326 31.2205 9.70229 30.3951 10.4277C28.0856 12.5699 25.1315 14.0266 22.0802 14.6684C21.8166 15.5049 21.4058 16.3021 20.8209 17.0131C18.7341 19.6488 15.299 21.1344 11.9927 21.5501C8.30596 22.061 4.43203 21.0624 1.85353 18.3205C1.20891 17.635 0.704274 16.8687 0.319896 16.0952C-0.0375417 15.3683 1.03567 14.7487 1.43976 15.4487C4.49841 20.9619 12.0177 21.1623 16.9566 18.1864C18.1895 17.4124 19.4744 16.2973 20.1435 14.9778C18.4401 15.1524 16.4817 15.101 14.8947 14.3996C13.4549 13.7378 12.4923 12.1782 12.9531 10.6056C13.3745 9.18028 14.593 8.16572 15.9678 7.74525C17.5096 7.29062 19.2096 7.86447 20.4503 8.82799C21.7448 9.88483 22.3322 11.2255 22.3452 12.6489C23.6537 12.329 24.928 11.8421 26.1412 11.1417C27.8012 10.2455 29.7196 8.82682 30.7476 7.05123C29.4011 6.33546 28.2071 5.345 27.3128 4.1193C26.7615 3.37994 26.2497 2.49337 26.6066 1.60294C26.9438 0.786108 27.7567 0.254535 28.6183 0.130404C30.074 -0.150083 31.494 0.585409 32.4081 1.7375C33.4765 3.04931 33.617 4.58578 33.2423 5.98421C34.0519 6.20114 34.901 6.27087 35.7159 6.17368C38.8624 5.91239 41.0175 3.61052 42.3557 0.971439C42.7396 0.127667 44.0052 0.70346 43.8422 1.6064ZM16.1102 9.71611C15.43 10.0466 14.6046 10.7721 14.7754 11.6067C14.9678 12.8021 16.8131 12.981 17.7358 13.0704C18.7051 13.133 19.6672 13.0752 20.6024 12.9708C20.573 10.8725 18.1975 8.69767 16.1102 9.71611ZM30.5272 2.57457C30.2453 2.30182 29.87 2.08296 29.4554 2.01129C29.161 1.93241 28.4394 1.97572 28.3875 2.31678C28.375 2.51065 28.7916 3.0167 28.946 3.17641C29.1812 3.4761 29.4165 3.77579 29.6714 4.00187C30.2083 4.50071 30.7649 4.92595 31.3878 5.25064C31.3878 5.25064 31.3878 5.25064 31.4148 5.2973C31.6173 4.24716 31.3387 3.2259 30.5272 2.57457Z" fill="#1FADAD"/>
</svg>
