<?xml version="1.0" encoding="utf-8"?>
<!-- Generator: Adobe Illustrator 28.0.0, SVG Export Plug-In . SVG Version: 6.00 Build 0)  -->
<svg version="1.1" id="图层_1" xmlns="http://www.w3.org/2000/svg" xmlns:xlink="http://www.w3.org/1999/xlink" x="0px" y="0px"
	 viewBox="0 0 192 192" style="enable-background:new 0 0 192 192;" xml:space="preserve">
<path d="M21.05,79.92v45.24c0,11.72-3.27,17.44-10.08,17.44c-7.09,0-10.63-3.54-10.63-10.63V79.92H21.05z M108.26,131.98
	c0,7.09-3.27,10.63-9.81,10.63c-7.9,0-11.72-7.36-11.72-22.08c0-2.18,0.27-5.72,0.54-10.36c0.54-4.91,0.82-8.72,0.82-11.17
	c0-9.27-3.81-16.62-11.17-21.8c-6.81-4.63-14.99-6.81-24.8-6.81H0.61V49.4h51.51c17.17,0,30.52,4.63,40.61,14.17
	c10.36,9.54,15.53,22.62,15.53,39.25V131.98z M191.66,131.98c0,7.09-3.27,10.63-9.81,10.63c-7.9,0-11.72-7.36-11.72-22.08
	c0-2.18,0.27-5.72,0.54-10.36c0.55-4.91,0.82-8.72,0.82-11.17c0-9.27-3.82-16.62-11.45-21.8c-6.54-4.63-14.72-6.81-24.53-6.81
	h-24.25c-5.18-10.9-16.08-19.62-22.62-20.99h46.88c17.17,0,30.53,4.63,40.61,14.17c10.36,9.54,15.54,22.62,15.54,39.25V131.98z"/>
</svg>
