<svg width="8" height="8" viewBox="0 0 8 8" fill="none" xmlns="http://www.w3.org/2000/svg">
<path d="M4 0C5.09678 0 6.12903 0.451612 6.83871 1.16129C7.54839 1.87097 8 2.90322 8 4C8 5.09677 7.54839 6.12903 6.83871 6.83871L6.7742 6.90322C6.06452 7.6129 5.03226 8 4 8C2.90323 8 1.87096 7.54839 1.16128 6.83871C0.451605 6.12903 0 5.09677 0 4C0 2.90322 0.451605 1.87097 1.16128 1.16129C1.93548 0.451612 2.90323 0 4 0ZM5.29032 2.77419C4.96774 2.45161 4.51613 2.25806 4 2.25806C3.48387 2.25806 3.03226 2.45161 2.70968 2.77419C2.3871 3.09677 2.19355 3.54839 2.19355 4.06452C2.19355 4.58065 2.3871 5.03226 2.70968 5.35484C3.03226 5.67742 3.48387 5.87097 4 5.87097C4.45161 5.87097 4.90322 5.67742 5.2258 5.41935C5.2258 5.41935 5.22581 5.41936 5.29032 5.35484C5.6129 5.03226 5.80645 4.58065 5.80645 4.06452C5.80645 3.54839 5.6129 3.09677 5.29032 2.77419Z" fill="#1FADAD"/>
</svg>
