<svg width="563" height="435" viewBox="0 0 563 435" fill="none" xmlns="http://www.w3.org/2000/svg">
<g filter="url(#filter0_d)">
<rect x="60" y="20.6465" width="442.799" height="314.354" rx="10.1404" fill="white"/>
</g>
<path d="M111.513 98.7027C111.564 97.9169 111.864 97.3042 112.413 96.8648C112.971 96.4254 113.68 96.2057 114.542 96.2057C115.134 96.2057 115.645 96.3113 116.076 96.5226C116.507 96.7338 116.832 97.0211 117.052 97.3845C117.272 97.7479 117.382 98.1577 117.382 98.614C117.382 99.1379 117.242 99.5858 116.963 99.9576C116.684 100.329 116.351 100.579 115.962 100.705V100.756C116.461 100.908 116.849 101.187 117.128 101.593C117.407 101.99 117.546 102.501 117.546 103.127C117.546 103.625 117.432 104.069 117.204 104.457C116.976 104.846 116.638 105.155 116.19 105.383C115.742 105.602 115.206 105.712 114.58 105.712C113.668 105.712 112.916 105.48 112.324 105.015C111.741 104.542 111.428 103.866 111.386 102.987H112.78C112.814 103.435 112.987 103.803 113.3 104.09C113.613 104.369 114.035 104.508 114.568 104.508C115.083 104.508 115.48 104.369 115.759 104.09C116.038 103.803 116.177 103.435 116.177 102.987C116.177 102.396 115.987 101.977 115.607 101.732C115.235 101.479 114.661 101.352 113.883 101.352H113.554V100.16H113.896C114.58 100.152 115.1 100.038 115.455 99.8182C115.818 99.5985 116 99.252 116 98.7788C116 98.3732 115.869 98.0521 115.607 97.8155C115.345 97.5704 114.973 97.4479 114.492 97.4479C114.018 97.4479 113.651 97.5704 113.389 97.8155C113.127 98.0521 112.971 98.3478 112.92 98.7027H111.513ZM119.064 100.921C119.064 99.4591 119.309 98.3183 119.799 97.4986C120.298 96.6704 121.152 96.2564 122.36 96.2564C123.568 96.2564 124.418 96.6704 124.908 97.4986C125.406 98.3183 125.656 99.4591 125.656 100.921C125.656 102.4 125.406 103.557 124.908 104.394C124.418 105.222 123.568 105.636 122.36 105.636C121.152 105.636 120.298 105.222 119.799 104.394C119.309 103.557 119.064 102.4 119.064 100.921ZM124.236 100.921C124.236 100.236 124.189 99.6576 124.096 99.1844C124.012 98.7112 123.835 98.3267 123.564 98.0309C123.294 97.7267 122.892 97.5746 122.36 97.5746C121.828 97.5746 121.426 97.7267 121.156 98.0309C120.885 98.3267 120.704 98.7112 120.611 99.1844C120.526 99.6576 120.484 100.236 120.484 100.921C120.484 101.631 120.526 102.227 120.611 102.708C120.695 103.19 120.873 103.579 121.143 103.874C121.422 104.17 121.828 104.318 122.36 104.318C122.892 104.318 123.294 104.17 123.564 103.874C123.843 103.579 124.025 103.19 124.109 102.708C124.194 102.227 124.236 101.631 124.236 100.921ZM130.138 102.176L133.358 105.662H131.406L128.82 102.658V105.662H127.375V96.2817H128.82V101.732L131.355 98.6774H133.358L130.138 102.176Z" fill="#A5ADC0"/>
<path d="M112.442 151.019C113.253 150.318 113.891 149.743 114.356 149.295C114.829 148.839 115.222 148.366 115.535 147.875C115.847 147.385 116.004 146.895 116.004 146.405C116.004 145.898 115.881 145.501 115.636 145.214C115.4 144.926 115.024 144.783 114.508 144.783C114.01 144.783 113.621 144.943 113.342 145.264C113.072 145.577 112.928 145.999 112.911 146.532H111.517C111.542 145.568 111.829 144.833 112.379 144.326C112.936 143.811 113.642 143.553 114.495 143.553C115.416 143.553 116.135 143.807 116.65 144.314C117.174 144.821 117.436 145.497 117.436 146.342C117.436 146.95 117.28 147.537 116.967 148.104C116.663 148.661 116.295 149.164 115.864 149.612C115.442 150.051 114.901 150.563 114.242 151.146L113.671 151.653H117.69V152.857H111.529V151.805L112.442 151.019ZM118.959 148.243C118.959 146.781 119.204 145.64 119.694 144.821C120.193 143.992 121.046 143.578 122.255 143.578C123.463 143.578 124.312 143.992 124.803 144.821C125.301 145.64 125.55 146.781 125.55 148.243C125.55 149.722 125.301 150.88 124.803 151.716C124.312 152.544 123.463 152.958 122.255 152.958C121.046 152.958 120.193 152.544 119.694 151.716C119.204 150.88 118.959 149.722 118.959 148.243ZM124.131 148.243C124.131 147.559 124.084 146.98 123.991 146.506C123.907 146.033 123.729 145.649 123.459 145.353C123.188 145.049 122.787 144.897 122.255 144.897C121.722 144.897 121.321 145.049 121.051 145.353C120.78 145.649 120.598 146.033 120.505 146.506C120.421 146.98 120.379 147.559 120.379 148.243C120.379 148.953 120.421 149.549 120.505 150.03C120.59 150.512 120.767 150.901 121.038 151.196C121.317 151.492 121.722 151.64 122.255 151.64C122.787 151.64 123.188 151.492 123.459 151.196C123.738 150.901 123.919 150.512 124.004 150.03C124.088 149.549 124.131 148.953 124.131 148.243ZM130.033 149.498L133.252 152.984H131.3L128.714 149.98V152.984H127.269V143.604H128.714V149.054L131.25 145.999H133.252L130.033 149.498Z" fill="#A5ADC0"/>
<path d="M112.473 192.384V191.065H115.109V200.306H113.652V192.384H112.473ZM117.094 195.565C117.094 194.103 117.339 192.963 117.83 192.143C118.328 191.315 119.182 190.901 120.39 190.901C121.598 190.901 122.448 191.315 122.938 192.143C123.436 192.963 123.686 194.103 123.686 195.565C123.686 197.044 123.436 198.202 122.938 199.038C122.448 199.866 121.598 200.281 120.39 200.281C119.182 200.281 118.328 199.866 117.83 199.038C117.339 198.202 117.094 197.044 117.094 195.565ZM122.266 195.565C122.266 194.881 122.22 194.302 122.127 193.829C122.042 193.355 121.865 192.971 121.594 192.675C121.324 192.371 120.922 192.219 120.39 192.219C119.858 192.219 119.456 192.371 119.186 192.675C118.915 192.971 118.734 193.355 118.641 193.829C118.556 194.302 118.514 194.881 118.514 195.565C118.514 196.275 118.556 196.871 118.641 197.353C118.725 197.834 118.903 198.223 119.173 198.519C119.452 198.814 119.858 198.962 120.39 198.962C120.922 198.962 121.324 198.814 121.594 198.519C121.873 198.223 122.055 197.834 122.139 197.353C122.224 196.871 122.266 196.275 122.266 195.565ZM128.168 196.82L131.388 200.306H129.436L126.85 197.302V200.306H125.405V190.926H126.85V196.376L129.385 193.322H131.388L128.168 196.82Z" fill="#A5ADC0"/>
<path d="M120.849 239.63H116.602V242.152C116.78 241.915 117.042 241.717 117.388 241.556C117.743 241.396 118.119 241.316 118.516 241.316C119.226 241.316 119.801 241.468 120.24 241.772C120.688 242.076 121.005 242.461 121.191 242.925C121.385 243.39 121.482 243.88 121.482 244.396C121.482 245.021 121.36 245.579 121.115 246.069C120.878 246.551 120.519 246.931 120.037 247.21C119.564 247.488 118.981 247.628 118.288 247.628C117.367 247.628 116.628 247.4 116.07 246.943C115.512 246.487 115.178 245.883 115.069 245.131H116.476C116.568 245.528 116.776 245.845 117.097 246.082C117.418 246.31 117.819 246.424 118.301 246.424C118.901 246.424 119.349 246.242 119.644 245.879C119.949 245.515 120.101 245.034 120.101 244.434C120.101 243.825 119.949 243.36 119.644 243.039C119.34 242.71 118.892 242.545 118.301 242.545C117.887 242.545 117.536 242.651 117.249 242.862C116.97 243.065 116.767 243.344 116.64 243.699H115.271V238.362H120.849V239.63ZM125.94 244.142L129.16 247.628H127.208L124.622 244.624V247.628H123.177V238.248H124.622V243.699L127.157 240.644H129.16L125.94 244.142Z" fill="#A5ADC0"/>
<path d="M159.155 270.93V279.739H157.71V273.706L155.023 279.739H154.021L151.321 273.706V279.739H149.876V270.93H151.435L154.528 277.838L157.608 270.93H159.155ZM164.083 279.853C163.424 279.853 162.829 279.705 162.296 279.41C161.764 279.105 161.346 278.683 161.041 278.142C160.737 277.593 160.585 276.959 160.585 276.241C160.585 275.531 160.741 274.901 161.054 274.352C161.367 273.803 161.793 273.38 162.334 273.085C162.875 272.789 163.479 272.641 164.147 272.641C164.814 272.641 165.419 272.789 165.959 273.085C166.5 273.38 166.927 273.803 167.24 274.352C167.552 274.901 167.709 275.531 167.709 276.241C167.709 276.951 167.548 277.58 167.227 278.129C166.906 278.679 166.466 279.105 165.909 279.41C165.359 279.705 164.751 279.853 164.083 279.853ZM164.083 278.598C164.455 278.598 164.802 278.51 165.123 278.332C165.452 278.155 165.719 277.889 165.921 277.534C166.124 277.179 166.226 276.748 166.226 276.241C166.226 275.734 166.128 275.307 165.934 274.961C165.74 274.606 165.482 274.339 165.161 274.162C164.84 273.985 164.493 273.896 164.121 273.896C163.75 273.896 163.403 273.985 163.082 274.162C162.769 274.339 162.52 274.606 162.334 274.961C162.148 275.307 162.055 275.734 162.055 276.241C162.055 276.993 162.245 277.576 162.626 277.99C163.014 278.396 163.5 278.598 164.083 278.598ZM172.661 272.641C173.21 272.641 173.7 272.755 174.131 272.983C174.571 273.211 174.913 273.549 175.158 273.997C175.403 274.445 175.526 274.986 175.526 275.62V279.739H174.093V275.835C174.093 275.21 173.937 274.732 173.624 274.403C173.312 274.065 172.885 273.896 172.344 273.896C171.803 273.896 171.372 274.065 171.051 274.403C170.738 274.732 170.582 275.21 170.582 275.835V279.739H169.137V272.755H170.582V273.554C170.819 273.266 171.119 273.042 171.482 272.882C171.854 272.721 172.247 272.641 172.661 272.641Z" fill="#A5ADC0"/>
<path d="M213.059 270.93V272.109H210.714V279.739H209.269V272.109H206.911V270.93H213.059ZM220.847 272.755V279.739H219.402V278.915C219.174 279.203 218.874 279.431 218.502 279.6C218.139 279.76 217.75 279.841 217.336 279.841C216.787 279.841 216.293 279.727 215.853 279.498C215.422 279.27 215.08 278.932 214.826 278.484C214.581 278.037 214.459 277.496 214.459 276.862V272.755H215.891V276.646C215.891 277.272 216.048 277.753 216.36 278.091C216.673 278.421 217.1 278.586 217.64 278.586C218.181 278.586 218.608 278.421 218.921 278.091C219.242 277.753 219.402 277.272 219.402 276.646V272.755H220.847ZM229.155 276.076C229.155 276.338 229.138 276.575 229.104 276.786H223.768C223.81 277.344 224.017 277.791 224.389 278.129C224.761 278.467 225.217 278.636 225.758 278.636C226.535 278.636 227.085 278.311 227.406 277.66H228.965C228.754 278.303 228.369 278.831 227.811 279.245C227.262 279.651 226.578 279.853 225.758 279.853C225.09 279.853 224.491 279.705 223.958 279.41C223.434 279.105 223.02 278.683 222.716 278.142C222.42 277.593 222.272 276.959 222.272 276.241C222.272 275.523 222.416 274.893 222.703 274.352C222.999 273.803 223.409 273.38 223.933 273.085C224.465 272.789 225.074 272.641 225.758 272.641C226.417 272.641 227.004 272.785 227.52 273.072C228.035 273.359 228.437 273.765 228.724 274.289C229.011 274.804 229.155 275.4 229.155 276.076ZM227.647 275.62C227.638 275.087 227.448 274.661 227.076 274.339C226.705 274.018 226.244 273.858 225.695 273.858C225.196 273.858 224.769 274.018 224.414 274.339C224.06 274.652 223.848 275.079 223.781 275.62H227.647Z" fill="#A5ADC0"/>
<path d="M272.945 270.93L270.334 279.739H268.699L266.848 273.072L264.883 279.739L263.261 279.752L260.764 270.93H262.298L264.123 278.104L266.1 270.93H267.723L269.561 278.066L271.399 270.93H272.945ZM280.538 276.076C280.538 276.338 280.521 276.575 280.487 276.786H275.151C275.193 277.344 275.4 277.791 275.772 278.129C276.144 278.467 276.6 278.636 277.141 278.636C277.918 278.636 278.468 278.311 278.789 277.66H280.348C280.137 278.303 279.752 278.831 279.194 279.245C278.645 279.651 277.961 279.853 277.141 279.853C276.473 279.853 275.873 279.705 275.341 279.41C274.817 279.105 274.403 278.683 274.099 278.142C273.803 277.593 273.655 276.959 273.655 276.241C273.655 275.523 273.799 274.893 274.086 274.352C274.382 273.803 274.792 273.38 275.316 273.085C275.848 272.789 276.457 272.641 277.141 272.641C277.8 272.641 278.387 272.785 278.903 273.072C279.418 273.359 279.82 273.765 280.107 274.289C280.394 274.804 280.538 275.4 280.538 276.076ZM279.03 275.62C279.021 275.087 278.831 274.661 278.459 274.339C278.087 274.018 277.627 273.858 277.078 273.858C276.579 273.858 276.152 274.018 275.797 274.339C275.442 274.652 275.231 275.079 275.164 275.62H279.03ZM281.478 276.215C281.478 275.514 281.622 274.893 281.909 274.352C282.205 273.811 282.602 273.393 283.101 273.097C283.608 272.793 284.17 272.641 284.787 272.641C285.243 272.641 285.691 272.742 286.13 272.945C286.578 273.14 286.933 273.401 287.195 273.731V270.359H288.653V279.739H287.195V278.687C286.958 279.025 286.629 279.304 286.206 279.524C285.792 279.743 285.315 279.853 284.774 279.853C284.166 279.853 283.608 279.701 283.101 279.397C282.602 279.084 282.205 278.653 281.909 278.104C281.622 277.546 281.478 276.917 281.478 276.215ZM287.195 276.241C287.195 275.759 287.094 275.341 286.891 274.986C286.697 274.631 286.439 274.361 286.118 274.175C285.797 273.989 285.45 273.896 285.078 273.896C284.706 273.896 284.36 273.989 284.039 274.175C283.718 274.352 283.456 274.618 283.253 274.973C283.059 275.32 282.961 275.734 282.961 276.215C282.961 276.697 283.059 277.12 283.253 277.483C283.456 277.846 283.718 278.125 284.039 278.32C284.368 278.506 284.715 278.598 285.078 278.598C285.45 278.598 285.797 278.506 286.118 278.32C286.439 278.134 286.697 277.863 286.891 277.508C287.094 277.145 287.195 276.722 287.195 276.241Z" fill="#A5ADC0"/>
<path d="M327.78 270.93V272.109H325.435V279.739H323.99V272.109H321.632V270.93H327.78ZM332.856 272.641C333.388 272.641 333.861 272.755 334.275 272.983C334.698 273.211 335.027 273.549 335.264 273.997C335.509 274.445 335.632 274.986 335.632 275.62V279.739H334.199V275.835C334.199 275.21 334.043 274.732 333.73 274.403C333.418 274.065 332.991 273.896 332.45 273.896C331.909 273.896 331.478 274.065 331.157 274.403C330.844 274.732 330.688 275.21 330.688 275.835V279.739H329.243V270.359H330.688V273.566C330.933 273.271 331.242 273.042 331.613 272.882C331.994 272.721 332.408 272.641 332.856 272.641ZM343.8 272.755V279.739H342.355V278.915C342.127 279.203 341.827 279.431 341.455 279.6C341.092 279.76 340.703 279.841 340.289 279.841C339.739 279.841 339.245 279.727 338.806 279.498C338.375 279.27 338.032 278.932 337.779 278.484C337.534 278.037 337.411 277.496 337.411 276.862V272.755H338.844V276.646C338.844 277.272 339 277.753 339.313 278.091C339.625 278.421 340.052 278.586 340.593 278.586C341.134 278.586 341.561 278.421 341.873 278.091C342.194 277.753 342.355 277.272 342.355 276.646V272.755H343.8Z" fill="#A5ADC0"/>
<path d="M384.954 270.93V272.109H381.214V274.707H384.13V275.886H381.214V279.739H379.769V270.93H384.954ZM387.738 273.769C387.949 273.414 388.228 273.14 388.574 272.945C388.929 272.742 389.348 272.641 389.829 272.641V274.137H389.462C388.896 274.137 388.465 274.28 388.169 274.568C387.882 274.855 387.738 275.354 387.738 276.063V279.739H386.293V272.755H387.738V273.769ZM391.893 271.83C391.631 271.83 391.411 271.741 391.234 271.564C391.056 271.386 390.967 271.166 390.967 270.904C390.967 270.642 391.056 270.423 391.234 270.245C391.411 270.068 391.631 269.979 391.893 269.979C392.146 269.979 392.362 270.068 392.539 270.245C392.717 270.423 392.805 270.642 392.805 270.904C392.805 271.166 392.717 271.386 392.539 271.564C392.362 271.741 392.146 271.83 391.893 271.83ZM392.603 272.755V279.739H391.158V272.755H392.603Z" fill="#1F3BB2"/>
<path d="M429.839 279.828C429.247 279.828 428.715 279.727 428.241 279.524C427.768 279.313 427.396 279.017 427.126 278.636C426.856 278.256 426.72 277.813 426.72 277.306H428.267C428.301 277.686 428.449 277.998 428.71 278.244C428.981 278.489 429.357 278.611 429.839 278.611C430.337 278.611 430.726 278.493 431.005 278.256C431.284 278.011 431.423 277.698 431.423 277.318C431.423 277.022 431.334 276.782 431.157 276.596C430.988 276.41 430.772 276.266 430.51 276.165C430.257 276.063 429.902 275.953 429.446 275.835C428.871 275.683 428.402 275.531 428.039 275.379C427.684 275.218 427.38 274.973 427.126 274.644C426.873 274.314 426.746 273.875 426.746 273.325C426.746 272.818 426.873 272.375 427.126 271.994C427.38 271.614 427.734 271.323 428.191 271.12C428.647 270.917 429.175 270.816 429.775 270.816C430.629 270.816 431.326 271.031 431.867 271.462C432.416 271.885 432.72 272.468 432.779 273.211H431.182C431.157 272.89 431.005 272.616 430.726 272.387C430.447 272.159 430.079 272.045 429.623 272.045C429.209 272.045 428.871 272.151 428.609 272.362C428.347 272.573 428.216 272.878 428.216 273.275C428.216 273.545 428.296 273.769 428.457 273.947C428.626 274.116 428.837 274.251 429.091 274.352C429.344 274.454 429.691 274.563 430.13 274.682C430.713 274.842 431.186 275.003 431.55 275.163C431.922 275.324 432.234 275.573 432.488 275.911C432.75 276.241 432.881 276.684 432.881 277.242C432.881 277.69 432.758 278.113 432.513 278.51C432.277 278.907 431.926 279.228 431.461 279.473C431.005 279.71 430.464 279.828 429.839 279.828ZM434.104 276.215C434.104 275.514 434.248 274.893 434.535 274.352C434.831 273.811 435.228 273.393 435.727 273.097C436.234 272.793 436.791 272.641 437.4 272.641C437.949 272.641 438.426 272.751 438.832 272.971C439.246 273.182 439.576 273.448 439.821 273.769V272.755H441.278V279.739H439.821V278.7C439.576 279.029 439.242 279.304 438.819 279.524C438.397 279.743 437.915 279.853 437.374 279.853C436.774 279.853 436.225 279.701 435.727 279.397C435.228 279.084 434.831 278.653 434.535 278.104C434.248 277.546 434.104 276.917 434.104 276.215ZM439.821 276.241C439.821 275.759 439.719 275.341 439.517 274.986C439.322 274.631 439.064 274.361 438.743 274.175C438.422 273.989 438.076 273.896 437.704 273.896C437.332 273.896 436.986 273.989 436.665 274.175C436.343 274.352 436.081 274.618 435.879 274.973C435.684 275.32 435.587 275.734 435.587 276.215C435.587 276.697 435.684 277.12 435.879 277.483C436.081 277.846 436.343 278.125 436.665 278.32C436.994 278.506 437.341 278.598 437.704 278.598C438.076 278.598 438.422 278.506 438.743 278.32C439.064 278.134 439.322 277.863 439.517 277.508C439.719 277.145 439.821 276.722 439.821 276.241ZM444.862 273.934V277.8C444.862 278.062 444.921 278.252 445.04 278.37C445.166 278.48 445.378 278.535 445.674 278.535H446.561V279.739H445.42C444.769 279.739 444.271 279.587 443.924 279.283C443.578 278.979 443.405 278.484 443.405 277.8V273.934H442.581V272.755H443.405V271.018H444.862V272.755H446.561V273.934H444.862Z" fill="#A5ADC0"/>
<line x1="150.419" y1="101.802" x2="448.717" y2="101.802" stroke="#EFF1FA" stroke-width="3.38015"/>
<line x1="150.419" y1="149.124" x2="448.717" y2="149.124" stroke="#EFF1FA" stroke-width="3.38015"/>
<line x1="150.419" y1="196.446" x2="448.717" y2="196.446" stroke="#EFF1FA" stroke-width="3.38015"/>
<line x1="150.419" y1="243.768" x2="448.717" y2="243.768" stroke="#EFF1FA" stroke-width="3.38015"/>
<path d="M150.419 174.443H175.77V244.581H150.419V174.443Z" fill="#1FADAD"/>
<path d="M205.346 150.782H230.697V244.581H205.346V150.782Z" fill="#1F3BB2"/>
<path d="M260.273 169.373H285.625V244.581H260.273V169.373Z" fill="#1FADAD"/>
<path d="M315.201 197.259H340.552V244.581H315.201V197.259Z" fill="#1F3BB2"/>
<path d="M370.128 130.501H395.479V244.581H370.128V130.501Z" fill="#1FADAD"/>
<path d="M425.056 102.615H450.407V244.581H425.056V102.615Z" fill="#1F3BB2"/>
<defs>
<filter id="filter0_d" x="0" y="0.646484" width="562.799" height="434.354" filterUnits="userSpaceOnUse" color-interpolation-filters="sRGB">
<feFlood flood-opacity="0" result="BackgroundImageFix"/>
<feColorMatrix in="SourceAlpha" type="matrix" values="0 0 0 0 0 0 0 0 0 0 0 0 0 0 0 0 0 0 127 0" result="hardAlpha"/>
<feOffset dy="40"/>
<feGaussianBlur stdDeviation="30"/>
<feColorMatrix type="matrix" values="0 0 0 0 0.741176 0 0 0 0 0.741176 0 0 0 0 0.741176 0 0 0 0.35 0"/>
<feBlend mode="normal" in2="BackgroundImageFix" result="effect1_dropShadow"/>
<feBlend mode="normal" in="SourceGraphic" in2="effect1_dropShadow" result="shape"/>
</filter>
</defs>
</svg>
