<svg width="42" height="48" viewBox="0 0 42 48" fill="none" xmlns="http://www.w3.org/2000/svg">
<path d="M40.3395 9.0944C37.3206 10.7925 34.3961 12.4906 31.3772 14.1887C31.0942 14.3774 30.9055 14.6604 30.9055 14.9435L30.9999 22.868L31.0942 30.7925C31.1885 36.0755 31.3772 41.4529 31.5659 46.7359C31.5659 46.8302 31.6602 46.9246 31.7546 46.9246C33.1697 46.9246 34.5848 46.8302 35.9999 46.7359C34.6791 46.6416 33.264 46.5472 31.9433 46.5472C32.1319 41.2642 32.3206 36.0755 32.415 30.7925L32.5093 22.868L32.6036 15.4152C34.9621 14.0944 37.3206 12.7736 39.6791 11.4529C39.6791 17.1133 39.7734 22.6793 39.8678 28.3397L40.0565 37.585C40.1508 40.6038 40.2451 43.6227 40.3395 46.6416C38.83 46.7359 37.415 46.7359 35.9055 46.8302C37.5093 46.9246 39.0187 47.0189 40.6225 47.0189C40.7168 47.0189 40.8112 46.9246 40.8112 46.8302C40.9055 43.717 41.0942 40.6982 41.0942 37.585L41.2829 28.3397C41.3772 22.2076 41.4716 16.0755 41.4716 9.84912C41.4716 9.66044 41.4716 9.5661 41.3772 9.37742C41.3772 9.00006 40.8112 8.81138 40.3395 9.0944Z" fill="#282C33"/>
<path d="M24.9623 19.0944C21.9434 20.7925 19.0189 22.4906 16 24.1887C15.717 24.3774 15.5283 24.6604 15.5283 24.9435C15.6227 32.9623 15.717 38.717 16.1887 46.7359C16.1887 46.8302 16.283 46.9246 16.3774 46.9246C17.6981 46.8302 19.0189 46.7359 20.3396 46.7359C19.1132 46.6416 17.8868 46.5472 16.6604 46.5472C17.0378 38.8114 17.2264 33.2453 17.3208 25.5095C19.6793 24.1887 22.1321 22.868 24.4906 21.5472C24.4906 25.5095 24.5849 29.4718 24.6793 33.434C24.7736 35.6982 24.7736 37.868 24.8679 40.1321C24.9623 42.3019 25.0566 44.4718 25.151 46.5472C23.5472 46.6416 22.0378 46.7359 20.434 46.8302C22.1321 46.9246 23.7359 47.0189 25.434 47.1133C25.6227 47.1133 25.717 47.0189 25.717 46.8302C25.8113 44.5661 25.9057 42.3963 26 40.1321C26.0944 37.868 26.0944 35.6982 26.1887 33.434C26.283 29.0001 26.3774 24.4718 26.3774 20.0378C26.3774 19.8491 26.3774 19.7548 26.283 19.5661C26 19.0944 25.434 18.9057 24.9623 19.0944Z" fill="#282C33"/>
<path d="M9.58486 29.1888C8.92448 29.5662 7.50939 30.3209 5.05656 31.736C1.84901 33.5285 0.811277 34.1888 0.622598 34.3775C0.339579 34.5662 0.245239 34.7549 0.245239 35.1322C0.245239 37.1134 0.339579 39.0945 0.433918 40.9813C0.433918 41.9247 0.528258 42.9624 0.528258 43.9058C0.622598 44.9435 0.716937 45.8869 0.716937 46.8303C0.716937 47.019 0.905617 47.1134 1.0943 47.1134C2.60373 47.019 4.11316 46.9247 5.52826 46.736C4.2075 46.6417 2.79241 46.453 1.47165 46.3586C1.56599 45.5096 1.56599 44.6605 1.66033 43.7171C1.66033 42.7737 1.75467 41.736 1.75467 40.7926C1.84901 39.0002 1.84901 37.2077 1.94335 35.4152C3.35845 34.6605 4.6792 33.9058 5.99996 33.1511C7.03769 32.5851 8.07543 32.019 9.11316 31.3586C9.2075 37.2077 9.39618 42.3964 9.6792 46.2643C8.35845 46.3586 6.94335 46.453 5.6226 46.6417C7.13203 46.8303 8.64146 46.9247 10.0566 47.019C10.2452 47.019 10.4339 46.9247 10.4339 46.736C10.4339 46.2643 10.6226 44.1888 10.8113 38.2454C10.9056 35.4152 11 32.6794 11 29.8492C11 29.6605 11 29.5662 10.9056 29.3775C10.6226 29.0945 10.0566 28.9058 9.58486 29.1888Z" fill="#282C33"/>
<path d="M34.6791 3.24533C34.3961 3.90571 34.2075 4.47175 33.9244 5.13212C33.7358 5.7925 33.5471 6.45288 33.3584 7.11326C33.1697 7.77363 32.981 8.43401 32.8867 9.18873C33.3584 8.62269 33.7358 8.15099 34.2075 7.58495C34.5848 7.01892 34.9622 6.45288 35.3395 5.88684C35.7169 5.3208 35.9999 4.75477 36.3773 4.09439C36.6603 3.52835 36.9433 2.86797 37.3207 2.30194C37.415 2.2076 37.415 2.01892 37.415 1.92458C37.415 1.45288 37.0376 0.98118 36.4716 0.98118C35.8112 0.98118 35.1508 0.98118 34.4905 0.98118C33.7358 0.886841 33.0754 0.886841 32.415 0.886841C31.0942 0.98118 29.7735 1.16986 28.4527 1.45288C29.7735 1.92458 31.0942 2.11326 32.415 2.30194C33.0754 2.39627 33.7358 2.49061 34.3961 2.49061H34.4905C31.9433 3.71703 29.4905 5.03778 27.0376 6.45288C24.0188 8.15099 21.0942 9.8491 18.1697 11.6416C15.2452 13.434 12.3207 15.3208 9.49047 17.2076C6.66028 19.0944 3.83009 21.0755 1.09424 23.2453C4.20745 21.7359 7.22632 20.1321 10.2452 18.434C13.2641 16.7359 16.1886 15.0378 19.1131 13.2453C22.0376 11.4529 24.9622 9.56608 27.7924 7.67929C30.2452 6.07552 32.6037 4.37741 34.9622 2.58495C34.8678 2.86797 34.7735 3.05665 34.6791 3.24533Z" fill="#282C33"/>
</svg>
