<svg width="40" height="48" viewBox="0 0 40 48" fill="none" xmlns="http://www.w3.org/2000/svg">
<path d="M39.4339 23.717C39.4339 23.434 39.1509 5.32082 39.2453 6.54724C39.2453 6.16988 39.2453 5.69818 39.1509 5.22648C39.0566 4.75478 38.9622 4.37742 38.7736 3.90573C38.1132 2.20761 36.5094 0.981198 34.8113 0.698179C33.9622 0.603839 33.1132 0.698179 32.2641 0.698179C28.6792 0.792518 25.9434 0.792518 20 0.981198C23.3019 1.07554 26.5094 1.16988 29.8113 1.26422L32.2641 1.35856C33.1132 1.35856 33.9622 1.35856 34.6226 1.4529C36.1321 1.73591 37.3585 2.86799 37.9245 4.28308C38.0188 4.66044 38.1132 4.94346 38.2075 5.32082V6.4529C38.2075 6.64158 38.1132 13.9057 38.1132 13.8114C37.8302 32.7737 37.9245 23.7171 37.8302 41.3586V41.8303C37.6415 43.6227 36.2264 44.9435 34.6226 45.2265C34.1509 45.3208 35 45.3208 20.0943 45.2265C18.8679 45.2265 24.6226 45.2265 7.83017 45.3208C6.98111 45.3208 6.13206 45.4152 5.56602 45.2265C4.24526 45.0378 3.11319 44.0001 2.54715 42.7737C2.45281 42.4906 2.35847 42.1133 2.26413 41.8303C2.26413 41.6416 2.26413 41.4529 2.26413 41.3586C2.16979 30.9812 2.26413 30.3208 2.16979 23.6227C1.88677 10.4152 1.88677 11.5472 1.79243 6.54724C1.79243 5.69818 1.79243 5.13214 2.07545 4.28308C2.64149 2.86799 3.86791 1.83025 5.37734 1.4529C6.13206 1.26422 6.98111 1.35856 7.73583 1.35856C11.1321 1.26422 14.0566 1.26422 20 1.07554C14.0566 0.886858 11.2264 0.886858 7.73583 0.792518C6.88677 0.792518 6.13206 0.698179 5.18866 0.792518C3.49055 1.07554 1.88677 2.30195 1.2264 4.00007C1.03772 4.37742 0.943377 4.84912 0.849038 5.22648V6.54724C0.849038 6.83025 0.754698 14.3774 0.754698 13.9057C0.566019 26.8303 0.47168 29.0001 0.47168 33.5284C0.47168 33.717 0.47168 41.3586 0.47168 40.8869V41.5472C0.47168 41.8303 0.47168 42.0189 0.566019 42.302C0.660359 42.7737 0.754699 43.2454 0.943378 43.7171C1.60376 45.5095 3.30187 46.9246 5.18866 47.2076C5.66036 47.302 6.2264 47.302 6.60375 47.302C25.6604 47.3963 17.6415 47.302 20.0943 47.3963C20.849 47.3963 34.1509 47.3963 35 47.2076C37.3585 46.7359 39.3396 44.7548 39.6226 42.302C39.6226 42.0189 39.6226 41.8303 39.717 41.5472C39.5283 29.6604 39.5283 29.7548 39.4339 23.717Z" fill="black"/>
<path d="M20 39.1887C17.7359 39.1887 15.3774 39.2831 13.1132 39.3774C10.8491 39.4717 8.49059 39.7548 6.22644 40.1321C8.49059 40.5095 10.8491 40.6982 13.1132 40.8869C15.3774 41.0755 17.7359 41.0755 20 41.0755C22.2642 41.0755 24.6227 40.9812 26.8868 40.8869C29.151 40.7925 31.5095 40.5095 33.7736 40.1321C31.5095 39.7548 29.151 39.5661 26.8868 39.3774C24.6227 39.1887 22.2642 39.1887 20 39.1887Z" fill="black"/>
<path d="M20 33.4341C17.7359 33.4341 15.3774 33.5284 13.1132 33.6228C10.8491 33.7171 8.49059 34.0001 6.22644 34.3775C8.49059 34.7548 10.8491 34.9435 13.1132 35.1322C15.3774 35.3209 17.7359 35.3209 20 35.3209C22.2642 35.3209 24.6227 35.2266 26.8868 35.1322C29.151 35.0379 31.5095 34.7548 33.7736 34.3775C31.5095 34.0001 29.151 33.8114 26.8868 33.6228C24.6227 33.5284 22.2642 33.4341 20 33.4341Z" fill="black"/>
<path d="M23.8678 8.05664C25.1886 7.9623 26.5093 7.67928 27.7357 7.30192C26.5093 6.92456 25.1886 6.73588 23.8678 6.5472C22.5471 6.45286 21.2263 6.35852 19.9999 6.35852C18.6791 6.35852 17.3584 6.45286 16.132 6.5472C14.8112 6.64154 13.4905 6.92456 12.264 7.30192C13.5848 7.67928 14.9055 7.86796 16.132 8.05664C18.6791 8.33965 21.132 8.33965 23.8678 8.05664Z" fill="black"/>
<path d="M23.4907 20.2265C22.2643 21.1699 21.1322 22.2076 20.0001 23.3397C21.3209 22.4906 22.6416 21.7359 23.9624 20.9812C25.2831 20.2265 26.6982 19.5661 28.019 19.1888C28.1133 19.1888 29.8115 18.6227 31.6039 20.1322C32.6416 20.8869 33.2077 22.1133 33.2077 23.434C33.2077 24.6604 32.6416 25.8869 31.6039 26.7359C30.3775 27.7737 29.2454 27.868 28.019 27.6793C26.6982 27.302 25.2831 26.6416 23.9624 25.8869C22.6416 25.1321 21.3209 24.3774 20.0001 23.5284C21.0379 24.6604 22.2643 25.6982 23.4907 26.6416C24.7171 27.585 26.0379 28.5284 27.6416 29.0944C33.302 29.1887 35.1888 26.7359 35.1888 23.5284C35.1888 21.6416 34.2454 19.9435 32.736 18.8114C30.0945 16.9246 27.736 17.9623 27.6416 17.9623C26.0379 18.434 24.7171 19.2831 23.4907 20.2265Z" fill="black"/>
<path d="M7.26435 18.7171C5.84926 19.7549 4.81152 21.5473 4.81152 23.4341C4.81152 25.3209 5.75492 27.019 7.26435 28.1511C10.0002 30.1322 12.2644 29.0001 12.3587 29.0001C13.9625 28.4341 15.1889 27.4907 16.5096 26.5473C17.7361 25.6039 18.8681 24.5662 20.0002 23.4341C18.6794 24.2832 17.3587 25.0379 16.0379 25.7926C14.7172 26.5473 13.3021 27.2077 11.9813 27.585C11.887 27.585 10.1889 28.1511 8.39643 26.6416C7.35869 25.8869 6.79266 24.6605 6.79266 23.3398C6.79266 22.1133 7.35869 20.8869 8.39643 20.0379C8.86813 19.6605 9.5285 19.2832 10.0945 19.1888C10.3776 19.0945 10.7549 19.0945 11.0379 19.0001H11.5096L11.9813 19.0945C13.3021 19.4718 14.7172 20.1322 16.0379 20.8869C17.3587 21.6416 18.6794 22.3964 20.0002 23.2454C18.9625 22.1133 17.7361 21.0756 16.5096 20.1322C15.2832 19.1888 13.9625 18.2454 12.3587 17.6794L11.6983 17.4907C11.5096 17.4907 11.2266 17.3964 10.9436 17.3964C10.4719 17.3964 10.0945 17.3964 9.62284 17.4907C8.86813 17.7737 8.01907 18.1511 7.26435 18.7171Z" fill="black"/>
</svg>
