<svg width="48" height="48" viewBox="0 0 48 48" fill="none" xmlns="http://www.w3.org/2000/svg">
<path d="M36.0756 0.792352C38.4341 0.981031 40.6983 2.11311 42.2077 3.81122C43.7171 5.50933 44.5662 7.77348 44.4719 9.9433C44.3775 12.1131 43.4341 14.2829 41.9247 15.7924C40.4153 17.3018 38.2455 18.1508 36.0756 18.1508C33.9058 18.1508 31.8304 17.3018 30.2266 15.7924C28.6228 14.2829 27.7738 12.2074 27.6794 9.9433C27.5851 7.77348 28.4341 5.50933 29.9436 3.81122C31.453 2.11311 33.7172 0.981031 36.0756 0.792352C33.7172 0.603673 31.17 1.45273 29.2832 3.15084C27.3964 4.84896 26.2643 7.30179 26.17 9.9433C26.0756 12.4905 27.1134 15.132 28.9058 17.0188C30.6983 18.9056 33.3398 20.0376 35.9813 20.0376C38.6228 20.0376 41.2643 18.9056 43.0568 17.0188C44.8492 15.132 45.9813 12.4905 45.7926 9.9433C45.6983 7.39613 44.5662 4.84896 42.6794 3.15084C40.9813 1.45273 38.5285 0.603673 36.0756 0.792352Z" fill="black"/>
<path d="M33.0568 13.7168C33.2455 14.0941 33.8115 14.1885 34.0945 13.9055L34.1889 13.8111C35.5096 12.7734 36.6417 11.7357 37.6794 10.5092C38.2455 9.9432 38.7172 9.28283 39.1889 8.62245C39.6605 7.96207 40.1322 7.30169 40.5096 6.45264C39.7549 6.83 39.0002 7.30169 38.3398 7.77339C37.6794 8.24509 37.019 8.71679 36.453 9.28283C35.4153 10.1319 34.5662 11.1696 33.7172 12.113C33.3398 11.6413 33.0568 11.264 32.6794 10.7923C32.1134 10.1319 31.5473 9.4715 30.887 8.81113C31.17 9.66018 31.5473 10.5092 31.9247 11.3583C32.2077 12.113 32.5851 12.9621 33.0568 13.7168Z" fill="black"/>
<path d="M0.792851 13.2452C0.792851 13.3395 0.792851 13.3395 0.792851 13.2452C2.01927 17.0188 3.71738 20.698 5.69851 24.0943C7.77398 27.4905 10.2268 30.6037 12.9627 33.4339C18.5287 39.0943 25.2268 43.4339 32.491 46.4527C33.9061 47.0188 34.1891 47.1131 34.5664 47.2075L34.7551 47.3018L35.0381 47.3961C35.2268 47.3961 35.3212 47.3961 35.5098 47.4905C36.6419 47.5848 37.774 47.3018 38.7174 46.8301C40.6042 45.8867 42.1136 44.4716 43.5287 42.9622C44.8495 41.4527 45.9815 39.7546 46.8306 37.8678C47.2079 36.9244 47.491 35.8867 47.491 34.6603C47.3966 33.5282 46.8306 32.3961 46.0759 31.6414C44.5664 30.0377 42.5853 29.2829 40.6985 28.7169C38.8117 28.1509 36.8306 27.7735 34.7551 27.8678C33.7174 27.9622 32.6796 28.1509 31.7362 28.7169C30.7929 29.2829 30.1325 30.2263 29.7551 31.1697C29.3778 32.2075 29.3778 33.1509 29.2834 34.1886C29.2834 35.0377 29.3778 35.7924 29.4721 36.6414C25.3211 35.132 21.4532 32.6792 18.2457 29.6603C21.4532 33.0565 25.4155 35.698 29.7551 37.3961C29.9438 37.4905 30.2268 37.3018 30.2268 37.1131C30.1325 36.0754 30.1325 35.0377 30.1325 34.0943C31.3589 33.3395 32.6796 33.2452 34.0004 33.3395C35.5098 33.4339 36.9249 33.8112 38.4344 34.1886C39.9438 34.566 41.3589 35.0377 42.5853 35.698C43.5287 36.1697 44.3778 36.8301 45.0381 37.7735C44.2834 39.1886 43.34 40.5094 42.3023 41.7358C41.0759 43.1509 39.6608 44.3773 38.057 45.132C37.3023 45.5094 36.4532 45.698 35.6985 45.6037H35.4155H35.3212L35.1325 45.5094C34.7551 45.3207 34.4721 45.3207 33.1513 44.7546C26.0759 41.8301 19.6608 37.4905 14.2834 32.0188C11.6419 29.2829 9.18908 26.2641 7.20794 23.0565C5.22681 19.849 3.62304 16.3584 2.39662 12.7735V12.6792C2.01927 11.3584 2.67964 9.75463 3.71738 8.33954C4.66078 6.92445 5.98153 5.69803 7.39662 4.6603C8.34002 3.99992 9.37776 3.2452 10.4155 2.7735C11.4532 3.33954 12.2079 4.28294 12.774 5.32067C13.4344 6.64143 13.9061 8.05652 14.2834 9.47162C14.6608 10.9811 15.0381 12.3961 15.1325 13.9056C15.2268 15.2263 15.1325 16.5471 14.3778 17.7735C13.1513 17.8678 11.9249 17.8678 10.7929 17.7735C10.6042 17.7735 10.4155 17.9622 10.5098 18.2452C12.2079 22.5848 14.8495 26.5471 18.2457 29.7546C15.2268 26.5471 12.774 22.6792 11.2645 18.5282C12.9627 18.7169 14.6608 18.8112 16.3589 18.3395C17.3023 18.0565 18.2457 17.4905 18.9061 16.6414C19.5664 15.7924 19.8495 14.849 20.0381 13.8112C20.3211 11.8301 19.9438 9.94331 19.4721 8.15086C19.0004 6.35841 18.34 4.47162 17.2079 2.86784C16.6419 2.11313 15.7928 1.35841 14.8495 0.886711C13.8117 0.415013 12.6796 0.415013 11.7362 0.698031C9.75511 1.16973 8.15134 2.20747 6.54757 3.33954C4.94379 4.47162 3.5287 5.79237 2.39662 7.39614C1.83059 8.15086 1.26455 9.09426 0.98153 10.0377C0.604171 10.981 0.415492 12.1131 0.792851 13.2452C0.698511 13.2452 0.792851 13.2452 0.792851 13.2452ZM43.4344 34.566C42.1136 33.5282 40.5098 32.8678 38.9061 32.3961C37.3023 31.9244 35.6985 31.7358 34.0004 31.8301C33.1513 31.9244 32.3023 32.1131 31.5476 32.4905C30.9815 32.7735 30.5098 33.1509 30.2268 33.6226C30.3211 32.8678 30.4155 32.1131 30.6985 31.4528C30.9815 30.6037 31.5476 29.9433 32.3023 29.4716C33.057 28.9999 33.9061 28.8112 34.8495 28.8112C36.6419 28.7169 38.5287 29.1886 40.3212 29.7546C42.1136 30.3207 43.9061 31.1697 45.0381 32.3961C45.6042 33.0565 45.9815 33.8112 45.9815 34.566C45.9815 35.3207 45.7929 36.1697 45.4155 37.0188C45.3212 36.8301 45.2268 36.5471 45.1325 36.3584C44.7551 35.7924 44.0947 35.132 43.4344 34.566ZM12.0193 2.11313C12.774 1.92445 13.623 1.92445 14.2834 2.20747C15.0381 2.49048 15.6042 3.05652 16.1702 3.7169C17.2079 5.03765 17.8683 6.73577 18.34 8.52822C18.8117 10.2263 19.1891 12.0188 19.0004 13.8112C18.9061 14.6603 18.623 15.5094 18.1513 16.1697C17.6796 16.8301 16.9249 17.3018 16.1702 17.5848C15.7929 17.6792 15.3212 17.7735 14.8495 17.8678C15.3212 17.4905 15.6985 17.0188 15.9815 16.5471C16.3589 15.7924 16.6419 14.9433 16.6419 14.0943C16.8306 12.3961 16.5476 10.698 16.0759 9.1886C15.6042 7.58482 14.9438 6.07539 13.9061 4.6603C13.34 3.99992 12.6796 3.33954 11.9249 2.96218C11.6419 2.7735 11.3589 2.67916 10.9815 2.58482C11.4532 2.39614 11.7362 2.20747 12.0193 2.11313ZM0.98153 13.6226C0.88719 13.5282 0.88719 13.4339 0.792851 13.3395C0.792851 13.4339 0.88719 13.5282 0.98153 13.6226ZM0.698511 12.8678V12.9622C0.698511 12.9622 0.698511 12.9622 0.698511 12.8678C0.698511 12.9622 0.698511 12.9622 0.698511 12.8678Z" fill="black"/>
</svg>
