<svg width="48" height="48" viewBox="0 0 48 48" fill="none" xmlns="http://www.w3.org/2000/svg">
<path d="M47.4907 34.9435C47.4907 31.3586 47.4907 27.6793 47.3963 24.0944C47.1133 6.35856 47.1133 5.69818 47.1133 5.0378C47.019 4.00007 46.6416 3.05667 45.9812 2.30195C45.3208 1.54724 44.3774 0.981198 43.434 0.792518C42.9623 0.698179 42.3963 0.698179 42.019 0.698179H40.6982C33.5284 0.886858 31.0756 0.886858 24.3774 1.07554C27.9623 1.16988 31.6416 1.26422 35.2265 1.35856L40.6982 1.4529C41.6416 1.4529 42.585 1.4529 43.3397 1.64157C44.0944 1.83025 44.8491 2.30195 45.3208 2.96233C45.7925 3.62271 46.1699 4.37742 46.1699 5.13214V7.77365C46.1699 7.96233 46.0756 13.717 46.0756 13.6227C42.4907 13.2453 38.9057 13.0567 35.3208 12.9623C31.5473 12.7737 27.7737 12.7737 24.0001 12.7737C20.2265 12.7737 16.4529 12.868 12.6793 12.9623C9.09443 13.0567 5.50952 13.2453 1.92462 13.6227C1.92462 13.434 1.83028 7.01893 1.83028 7.11327C1.83028 6.16988 1.73594 5.22648 1.92462 4.47176C2.11329 3.71705 2.58499 2.96233 3.15103 2.49063C3.71707 1.92459 4.56612 1.64158 5.32084 1.54724C6.1699 1.54724 7.11329 1.54724 8.05669 1.4529C15.0378 1.26422 17.6793 1.26422 24.3774 1.07554C17.6793 0.886858 15.1322 0.886858 8.05669 0.698179C7.11329 0.698179 6.26424 0.603839 5.32084 0.698179C4.28311 0.698179 3.33971 1.07554 2.58499 1.73591C1.83028 2.39629 1.26424 3.24535 0.981219 4.28308C0.88688 4.75478 0.88688 5.32082 0.88688 5.69818C0.88688 5.88686 0.79254 12.9623 0.79254 12.4906L0.603861 23.3397C0.509522 30.8869 0.509521 32.7737 0.509521 39.6604V42.3963C0.603861 43.5284 0.98122 44.5661 1.73594 45.4152C2.39631 46.2642 3.43405 46.8303 4.47179 47.1133C4.94348 47.2076 5.60386 47.302 5.98122 47.2076C29.6605 47.302 16.4529 47.2076 23.6227 47.302C42.2076 47.2076 42.019 47.2076 42.6793 47.2076C43.8114 47.1133 44.8491 46.7359 45.6982 45.9812C46.5473 45.3208 47.1133 44.2831 47.3963 43.2454C47.4907 42.7737 47.4907 42.1133 47.4907 41.7359C47.4907 41.5472 47.4907 34.4718 47.4907 34.9435ZM45.7925 34.9435V40.4152C45.7925 41.2642 45.8869 42.302 45.6982 42.9623C45.5095 43.6227 45.1322 44.2831 44.5661 44.7548C44.0001 45.2265 43.3397 45.5095 42.585 45.5095C41.8303 45.5095 40.7925 45.5095 39.9435 45.5095C38.0567 45.5095 34.1888 45.5095 23.6227 45.4152C21.9246 45.4152 29.6605 45.4152 7.30197 45.5095C6.45292 45.5095 5.41518 45.6038 4.7548 45.4152C4.09443 45.2265 3.52839 44.8491 3.05669 44.2831C2.58499 43.717 2.30197 43.0567 2.20763 42.302C2.20763 41.5472 2.20763 40.5095 2.20763 39.6604C2.20763 32.7737 2.20763 30.8869 2.11329 23.3397L1.92462 13.717C5.50952 14.0944 9.09443 14.2831 12.6793 14.3774C16.4529 14.5661 20.2265 14.5661 24.0001 14.5661C27.7737 14.5661 31.5473 14.4718 35.3208 14.3774C38.9057 14.2831 42.4907 14.0944 46.0756 13.717L45.9812 24.0944C45.8869 27.6793 45.7925 31.3586 45.7925 34.9435Z" fill="black"/>
<path d="M37.7739 9.28301C38.2456 9.84905 38.906 10.3207 39.755 10.3207C40.5097 10.4151 41.3588 10.1321 42.0192 9.56603C42.6795 8.99999 42.9626 8.15094 42.9626 7.30188C42.9626 6.45282 42.5852 5.60377 42.0192 5.03773C41.3588 4.47169 40.6041 4.18867 39.755 4.28301C39.0003 4.37735 38.2456 4.75471 37.7739 5.32075C37.3022 5.88679 37.2078 6.6415 37.3965 7.30188C37.7739 6.07547 38.906 5.60377 39.6607 5.79245C40.5097 5.88679 40.9814 6.6415 40.9814 7.39622C40.9814 8.15094 40.4154 8.81131 39.6607 8.90565C38.8116 9.09433 37.7739 8.5283 37.3965 7.30188C37.2078 7.96226 37.3965 8.71697 37.7739 9.28301Z" fill="black"/>
<path d="M31.9247 10.6039C32.7738 10.6039 33.6228 10.2266 34.1888 9.66053C34.7549 9.00015 35.0379 8.24543 34.9436 7.39638C34.9436 6.54732 34.4719 5.88694 33.9058 5.41524C33.3398 5.03789 32.5851 4.84921 31.9247 5.03789C33.1511 5.41524 33.6228 6.54732 33.4341 7.30204C33.3398 8.15109 32.5851 8.62279 31.8304 8.62279C31.0756 8.62279 30.4153 8.05676 30.3209 7.30204C30.1322 6.54732 30.6983 5.41524 31.9247 5.03789C31.3587 4.84921 30.6039 4.94355 29.9436 5.41524C29.3775 5.88694 28.9058 6.54732 28.9058 7.39638C28.8115 8.15109 29.0945 9.00015 29.6605 9.66053C30.2266 10.2266 31.0756 10.6039 31.9247 10.6039Z" fill="black"/>
<path d="M8.81135 4.66056C8.33965 4.66056 7.86795 4.66056 7.39625 4.94358C6.45286 5.41528 5.88682 6.35868 6.0755 7.30207C6.16984 6.35868 6.83022 5.60396 7.58493 5.41528C7.96229 5.32094 8.33965 5.32094 8.81135 5.41528L10.2264 5.50962C12.0189 5.60396 13.9057 5.6983 15.6981 5.79264C17.4906 5.88698 19.3774 5.88698 21.1698 5.98132H22.5849H22.9623C23.151 5.98132 23.434 5.98132 23.6227 6.07566C24.0944 6.26434 24.4717 6.83037 24.4717 7.39641C24.4717 7.96245 24.0944 8.43415 23.6227 8.71717C23.5283 8.81151 23.3397 8.8115 23.2453 8.8115C23.151 8.8115 22.9623 8.8115 22.5849 8.8115H21.1698C19.3774 8.90584 17.4906 8.90585 15.6981 9.00019C13.9057 9.09452 12.0189 9.18886 10.2264 9.2832L8.81135 9.37754C8.33965 9.37754 7.96229 9.47188 7.58493 9.37754C6.83022 9.18886 6.0755 8.43415 5.98116 7.49075C5.88682 8.43415 6.45286 9.47188 7.39625 9.84924C7.86795 10.1323 8.43399 10.1323 8.81135 10.1323L10.2264 10.2266C12.0189 10.3209 13.9057 10.4153 15.6981 10.5096C17.4906 10.604 19.3774 10.604 21.1698 10.6983H22.5849H22.9623H23.3397C23.6227 10.6983 24 10.604 24.283 10.5096C25.5095 10.0379 26.3585 8.81151 26.3585 7.49075C26.3585 6.17 25.5095 4.94358 24.283 4.47188C24 4.37754 23.6227 4.2832 23.3397 4.2832C23.151 4.2832 23.0566 4.2832 22.9623 4.2832H22.5849H21.1698C19.3774 4.37754 17.4906 4.37754 15.6981 4.47188C13.9057 4.56622 12.0189 4.66056 10.2264 4.7549L8.81135 4.66056Z" fill="black"/>
<path d="M38.3395 23.9059C38.2452 22.9625 37.5848 22.1134 36.7358 21.736C36.5471 21.6417 36.2641 21.5474 36.0754 21.5474C35.9811 21.5474 35.8867 21.5474 35.698 21.5474H35.415H34.2829C31.3584 21.736 28.5282 21.8304 25.6037 22.0191C28.5282 22.2077 31.3584 22.3021 34.2829 22.4908H35.415H35.8867C35.9811 22.4908 36.1697 22.5851 36.2641 22.5851C36.7358 22.7738 37.0188 23.3398 37.0188 23.8115C37.0188 23.9059 36.8301 29.5662 36.9245 29.1889C36.9245 29.4719 36.8301 29.6606 36.7358 29.8493C36.4528 30.2266 36.0754 30.4153 35.6037 30.4153L31.2641 30.321H30.5094C30.415 29.6606 30.2263 29.0945 30.0377 28.5285C29.4716 26.9247 28.6226 25.3209 27.4905 23.9059C26.9245 23.2455 26.3584 22.4908 25.6037 21.9247H25.698C22.7735 21.736 19.9433 21.6417 17.0188 21.453L12.6792 21.2643C11.8301 21.17 10.7924 21.6417 10.2263 22.4908C9.94332 22.8681 9.84898 23.4342 9.84898 23.9059V25.0379C9.84898 26.5474 9.75464 27.8681 9.75464 29.4719C9.75464 30.5096 10.415 31.453 11.4528 31.9247C11.7358 32.0191 11.9245 32.1134 12.2075 32.1134H12.5848H12.8678H13.9999L22.6792 32.2077L31.3584 32.1134L35.698 32.0191C36.0754 32.0191 36.7358 31.9247 37.1131 31.6417C37.5848 31.3587 37.9622 31.0757 38.1509 30.604C38.4339 30.1323 38.5282 29.6606 38.5282 29.1889V28.0568C38.4339 26.8304 38.3395 25.4153 38.3395 23.9059ZM13.9056 30.5096H12.7735H12.4905C12.3961 30.5096 12.3961 30.5096 12.3018 30.5096C12.2075 30.5096 12.1131 30.5096 12.0188 30.4153C11.6414 30.2266 11.3584 29.8493 11.3584 29.4719L11.2641 25.2266V24.0945C11.2641 23.8115 11.2641 23.6228 11.4528 23.4342C11.7358 22.9625 12.1131 22.7738 12.6792 22.6794L17.0188 22.4908C19.9433 22.3021 22.7735 22.2077 25.698 22.0191C25.7924 22.9625 25.9811 23.8115 26.2641 24.6606C26.5471 25.5096 26.9245 26.2643 27.3018 27.1134C27.6792 27.8681 28.1509 28.6228 28.7169 29.3776C28.9999 29.7549 29.2829 30.1323 29.6603 30.4153H22.5848L13.9056 30.5096Z" fill="black"/>
</svg>
