<?xml version="1.0" encoding="utf-8"?>
<!-- Generator: Adobe Illustrator 24.0.0, SVG Export Plug-In . SVG Version: 6.00 Build 0)  -->
<svg version="1.1" id="Layer_1" xmlns="http://www.w3.org/2000/svg" xmlns:xlink="http://www.w3.org/1999/xlink" x="0px" y="0px"
	 viewBox="0 0 1920 60.3" style="enable-background:new 0 0 1920 60.3;" xml:space="preserve">
<style type="text/css">
	.st0{fill:#EBEBEB;}
	.st1{fill:#FCFCFC;}
</style>
<g>
	<path class="st0" d="M1920,16.5v1l-0.1,0c-182.1-29-438.9-14.4-736.2,2.6c-31,1.8-63.1,3.6-95.3,5.4c-167.2,9.3-347.3,18-530.8,19
		c-11.7,0.1-23.4,0.1-35,0.1C330.2,44.6,158.9,35.7,0,17.5v-1c371.2,42.5,756.3,26.4,1088.2,8c32.2-1.8,64.3-3.6,95.3-5.4
		C1481,2.1,1737.8-12.5,1920,16.5z"/>
	<path class="st1" d="M1920,17v43.3H0V17l0.3,0c372.6,42.7,751.9,26.6,1088.4,8c32.2-1.8,64-3.6,95.3-5.4
		C1480.4,2.7,1737.9-12,1920,17z"/>
</g>
</svg>
