<svg width="76" height="85" viewBox="0 0 76 85" fill="none" xmlns="http://www.w3.org/2000/svg">
<path d="M73.2341 14.9915C67.72 18.0931 62.3782 21.1948 56.8641 24.2965C56.3472 24.6411 56.0026 25.1581 56.0026 25.675L56.1749 40.1496L56.3472 54.6241C56.5195 64.2738 56.8641 74.0958 57.2088 83.7455C57.2088 83.9178 57.3811 84.0901 57.5534 84.0901C60.1381 84.0901 62.7229 83.9178 65.3076 83.7455C62.8952 83.5732 60.3105 83.4008 57.898 83.4008C58.2427 73.7512 58.5873 64.2738 58.7596 54.6241L58.9319 40.1496L59.1042 26.5366C63.4121 24.1242 67.72 21.7118 72.0279 19.2994C72.0279 29.6383 72.2003 39.8049 72.3726 50.1439L72.7172 67.0308C72.8895 72.545 73.0618 78.0591 73.2341 83.5732C70.4771 83.7455 67.8924 83.7455 65.1353 83.9178C68.0647 84.0901 70.8217 84.2624 73.7511 84.2624C73.9234 84.2624 74.0957 84.0901 74.0957 83.9178C74.268 78.2314 74.6127 72.7173 74.6127 67.0308L74.9573 50.1439C75.1296 38.9434 75.3019 27.7428 75.3019 16.37C75.3019 16.0253 75.3019 15.853 75.1296 15.5084C75.1296 14.8191 74.0957 14.4745 73.2341 14.9915Z" fill="#1FADAD"/>
<path d="M45.1466 33.2569C39.6325 36.3586 34.2907 39.4603 28.7766 42.562C28.2597 42.9066 27.915 43.4236 27.915 43.9405C28.0874 58.5874 28.2597 69.0986 29.1212 83.7455C29.1212 83.9178 29.2936 84.0901 29.4659 84.0901C31.8783 83.9178 34.2907 83.7455 36.7031 83.7455C34.463 83.5732 32.2229 83.4009 29.9828 83.4009C30.6721 69.271 31.0167 59.1043 31.189 44.9744C35.4969 42.562 39.9771 40.1496 44.285 37.7372C44.285 44.9744 44.4574 52.2117 44.6297 59.449C44.802 63.5845 44.802 67.5478 44.9743 71.6834C45.1466 75.6466 45.3189 79.6099 45.4913 83.4009C42.5619 83.5732 39.8048 83.7455 36.8755 83.9178C39.9771 84.0901 42.9065 84.2624 46.0082 84.4347C46.3528 84.4347 46.5251 84.2624 46.5251 83.9178C46.6975 79.7822 46.8698 75.819 47.0421 71.6834C47.2144 67.5478 47.2144 63.5845 47.3867 59.449C47.559 51.3501 47.7314 43.0789 47.7314 34.9801C47.7314 34.6355 47.7314 34.4632 47.559 34.1185C47.0421 33.2569 46.0082 32.9123 45.1466 33.2569Z" fill="#1FADAD"/>
<path d="M17.0593 51.6948C15.8531 52.3841 13.2683 53.7626 8.78811 56.3473C2.92937 59.6213 1.0339 60.8275 0.689264 61.1722C0.172316 61.5168 0 61.8614 0 62.5507C0 66.1693 0.172316 69.788 0.344631 73.2343C0.344631 74.9574 0.516948 76.8529 0.516948 78.5761C0.689264 80.4715 0.861579 82.1947 0.861579 83.9179C0.861579 84.2625 1.20621 84.4348 1.55084 84.4348C4.3079 84.2625 7.06495 84.0902 9.64969 83.7455C7.23727 83.5732 4.65253 83.2286 2.24011 83.0563C2.41242 81.5054 2.41242 79.9546 2.58474 78.2314C2.58474 76.5083 2.75705 74.6128 2.75705 72.8897C2.92937 69.6157 2.92937 66.3417 3.10169 63.0676C5.68642 61.6891 8.09885 60.3106 10.5113 58.9321C12.4067 57.8982 14.3022 56.8643 16.1977 55.6581C16.37 66.3417 16.7146 75.819 17.2316 82.884C14.8192 83.0563 12.2344 83.2286 9.822 83.5732C12.5791 83.9179 15.3361 84.0902 17.9209 84.2625C18.2655 84.2625 18.6101 84.0902 18.6101 83.7455C18.6101 82.884 18.9547 79.093 19.2994 68.2371C19.4717 63.0676 19.644 58.0705 19.644 52.901C19.644 52.5564 19.644 52.3841 19.4717 52.0394C18.9547 51.5225 17.9209 51.1779 17.0593 51.6948Z" fill="#1FADAD"/>
<path d="M62.8952 4.3079C62.3783 5.51411 62.0336 6.548 61.5167 7.75421C61.1721 8.96042 60.8274 10.1666 60.4828 11.3728C60.1382 12.5791 59.7935 13.7853 59.6212 15.1638C60.4828 14.1299 61.1721 13.2683 62.0336 12.2344C62.7229 11.2005 63.4122 10.1666 64.1014 9.13274C64.7907 8.09884 65.3076 7.06495 65.9969 5.85874C66.5138 4.82484 67.0308 3.61863 67.7201 2.58474C67.8924 2.41242 67.8924 2.06779 67.8924 1.89547C67.8924 1.03389 67.2031 0.172316 66.1692 0.172316C64.963 0.172316 63.7568 0.172316 62.5506 0.172316C61.1721 -1.66901e-07 59.9658 0 58.7596 0C56.3472 0.172316 53.9348 0.516947 51.5224 1.03389C53.9348 1.89547 56.3472 2.24011 58.7596 2.58474C59.9658 2.75705 61.1721 2.92937 62.3783 2.92937H62.5506C57.8981 5.16947 53.4179 7.5819 48.9376 10.1666C43.4235 13.2683 38.0817 16.37 32.7399 19.644C27.3982 22.918 22.0564 26.3643 16.8869 29.8106C11.7174 33.257 6.54794 36.8756 1.55078 40.8389C7.2372 38.0818 12.7513 35.1524 18.2654 32.0507C23.7795 28.9491 29.1213 25.8474 34.4631 22.5734C39.8049 19.2994 45.1467 15.8531 50.3162 12.4067C54.7964 9.47737 59.1043 6.37569 63.4122 3.10168C63.2398 3.61863 63.0675 3.96326 62.8952 4.3079Z" fill="#1FADAD"/>
</svg>
