<svg width="143" height="45" viewBox="0 0 143 45" fill="none" xmlns="http://www.w3.org/2000/svg">
<path d="M49.7071 26.6098C49.8245 27.4749 50.0737 28.1201 50.4257 28.5453C51.0855 29.3225 52.1999 29.7184 53.7983 29.7184C54.7514 29.7184 55.5286 29.6158 56.1151 29.4105C57.2442 29.0146 57.8014 28.2814 57.8014 27.211C57.8014 26.5804 57.5228 26.0965 56.9803 25.7593C56.4231 25.422 55.5579 25.1287 54.3555 24.8795L52.3026 24.4249C50.2937 23.985 48.9006 23.5011 48.1528 22.9732C46.8771 22.0934 46.2465 20.7297 46.2465 18.8821C46.2465 17.1958 46.8771 15.7881 48.1235 14.659C49.3699 13.5445 51.2028 12.9727 53.6223 12.9727C55.6459 12.9727 57.3615 13.5005 58.7839 14.5563C60.2062 15.6121 60.9541 17.1518 61.0274 19.1607H57.2295C57.1562 18.0169 56.6577 17.2104 55.7045 16.7412C55.074 16.4186 54.2822 16.272 53.3437 16.272C52.3026 16.272 51.4668 16.4772 50.8509 16.8878C50.235 17.2984 49.9124 17.8703 49.9124 18.6035C49.9124 19.278 50.2204 19.7765 50.8362 20.1138C51.2322 20.3338 52.068 20.5977 53.3437 20.891L56.6577 21.6681C58.1094 22.0054 59.2091 22.4746 59.9276 23.0465C61.0567 23.941 61.6139 25.2167 61.6139 26.903C61.6139 28.6333 60.9394 30.0704 59.605 31.2141C58.2707 32.3579 56.3791 32.9297 53.9449 32.9297C51.4521 32.9297 49.5019 32.3725 48.0648 31.2434C46.6425 30.1143 45.924 28.5747 45.924 26.6098H49.7071Z" fill="#282C33"/>
<path d="M63.9223 21.1835V18.588H65.8726V14.6875H69.4945V18.588H71.7673V21.1981H69.4945V28.5885C69.4945 29.1604 69.5678 29.5123 69.7144 29.659C69.861 29.8056 70.3009 29.8643 71.0488 29.8643C71.1661 29.8643 71.2834 29.8643 71.4007 29.8643C71.518 29.8643 71.65 29.8496 71.7673 29.8496V32.577L70.037 32.6357C68.3067 32.6943 67.1336 32.4011 66.4884 31.7412C66.0778 31.316 65.8726 30.6708 65.8726 29.8056V21.1981H63.9223V21.1835Z" fill="#282C33"/>
<path d="M80.557 23.9406C81.2315 23.8526 81.7301 23.7499 82.0233 23.618C82.5512 23.398 82.8152 23.0461 82.8152 22.5768C82.8152 22.005 82.6099 21.6091 82.214 21.3891C81.818 21.1691 81.2168 21.0665 80.4397 21.0665C79.5598 21.0665 78.944 21.2865 78.5774 21.7117C78.3135 22.0343 78.1375 22.4595 78.0642 23.0021H74.5303C74.6036 21.785 74.9555 20.7732 75.5567 19.9814C76.5245 18.7497 78.1961 18.1338 80.557 18.1338C82.0966 18.1338 83.4604 18.4417 84.6481 19.0429C85.8359 19.6441 86.4371 20.8026 86.4371 22.4889V28.8822C86.4371 29.3221 86.4517 29.8646 86.4664 30.4952C86.4957 30.9791 86.569 31.3017 86.6863 31.4776C86.8036 31.6536 86.9796 31.7856 87.2289 31.9029V32.4454H83.2551C83.1378 32.1668 83.0644 31.9029 83.0204 31.6536C82.9765 31.4043 82.9471 31.1257 82.9178 30.8031C82.4046 31.3456 81.818 31.8149 81.1582 32.1961C80.3663 32.6507 79.4719 32.8707 78.4747 32.8707C77.199 32.8707 76.1432 32.5041 75.3221 31.7856C74.4863 31.067 74.0757 30.0406 74.0757 28.7062C74.0757 26.9906 74.7502 25.7442 76.0846 24.967C76.8178 24.5418 77.8882 24.2485 79.3106 24.0725L80.557 23.9406ZM82.8005 25.6415C82.5659 25.7882 82.3313 25.9055 82.0966 25.9935C81.862 26.0814 81.5248 26.1694 81.1142 26.2427L80.2784 26.3894C79.5012 26.5213 78.944 26.6973 78.5921 26.8879C78.0202 27.2252 77.7269 27.7384 77.7269 28.4423C77.7269 29.0728 77.9029 29.5127 78.2548 29.7913C78.6067 30.0699 79.032 30.2019 79.5452 30.2019C80.337 30.2019 81.0849 29.9673 81.7594 29.5127C82.4339 29.0435 82.7858 28.2076 82.8152 26.9906V25.6415H82.8005Z" fill="#282C33"/>
<path d="M93.3204 26.6088C93.4377 27.4739 93.687 28.1191 94.0389 28.5444C94.6988 29.3215 95.8132 29.7175 97.4116 29.7175C98.3647 29.7175 99.1419 29.6148 99.7284 29.4095C100.857 29.0136 101.415 28.2804 101.415 27.21C101.415 26.5795 101.136 26.0956 100.594 25.7583C100.036 25.421 99.1712 25.1278 97.9688 24.8785L95.9159 24.4239C93.907 23.984 92.5139 23.5001 91.7661 22.9722C90.4904 22.0924 89.8598 20.7287 89.8598 18.8811C89.8598 17.1948 90.4904 15.7871 91.7368 14.658C92.9832 13.5436 94.8161 12.9717 97.2356 12.9717C99.2592 12.9717 100.975 13.4996 102.397 14.5553C103.82 15.6111 104.567 17.1508 104.641 19.1597H100.843C100.77 18.0159 100.271 17.2094 99.3178 16.7402C98.6873 16.4176 97.8954 16.271 96.957 16.271C95.9159 16.271 95.08 16.4763 94.4642 16.8868C93.8483 17.2974 93.5257 17.8693 93.5257 18.6025C93.5257 19.277 93.8337 19.7756 94.4495 20.1128C94.8454 20.3328 95.6813 20.5967 96.957 20.89L100.271 21.6672C101.723 22.0044 102.822 22.4737 103.541 23.0455C104.67 23.94 105.227 25.2157 105.227 26.9021C105.227 28.6324 104.553 30.0694 103.218 31.2131C101.884 32.3569 99.9923 32.9288 97.5582 32.9288C95.0654 32.9288 93.1151 32.3716 91.6781 31.2425C90.2557 30.1134 89.5372 28.5737 89.5372 26.6088H93.3204Z" fill="#282C33"/>
<path d="M120.073 30.7299C118.885 32.1816 117.096 32.9148 114.691 32.9148C112.287 32.9148 110.498 32.1816 109.31 30.7299C108.122 29.2782 107.536 27.5186 107.536 25.4657C107.536 23.4421 108.122 21.6972 109.31 20.2161C110.483 18.7351 112.287 18.002 114.691 18.002C117.096 18.002 118.885 18.7351 120.073 20.2161C121.246 21.6972 121.847 23.4421 121.847 25.4657C121.847 27.5186 121.246 29.2782 120.073 30.7299ZM117.14 28.7063C117.712 27.9438 118.005 26.8587 118.005 25.4657C118.005 24.058 117.712 22.9876 117.14 22.2251C116.568 21.4625 115.747 21.096 114.677 21.096C113.606 21.096 112.785 21.4772 112.213 22.2251C111.641 22.9729 111.348 24.058 111.348 25.4657C111.348 26.8734 111.641 27.9438 112.213 28.7063C112.785 29.4688 113.621 29.8501 114.677 29.8501C115.747 29.8501 116.568 29.4688 117.14 28.7063Z" fill="#282C33"/>
<path d="M131.385 13.3526C131.575 13.3672 131.825 13.3819 132.162 13.4112V16.3879C131.957 16.3586 131.619 16.3439 131.135 16.3293C130.652 16.3146 130.314 16.4172 130.138 16.6519C129.948 16.8718 129.86 17.1357 129.86 17.3997C129.86 17.6783 129.86 18.0742 129.86 18.5874H132.265V21.1682H129.845V32.4445H126.208V21.1682H124.156V18.5874H126.164V17.693C126.164 16.1973 126.414 15.1708 126.927 14.599C127.455 13.7631 128.731 13.3379 130.769 13.3379C130.989 13.3379 131.194 13.3379 131.385 13.3526Z" fill="#282C33"/>
<path d="M134.573 21.1835V18.588H136.523V14.6875H140.145V18.588H142.418V21.1981H140.145V28.5885C140.145 29.1604 140.218 29.5123 140.365 29.659C140.512 29.8056 140.952 29.8643 141.699 29.8643C141.817 29.8643 141.934 29.8643 142.051 29.8643C142.169 29.8643 142.301 29.8496 142.418 29.8496V32.577L140.688 32.6357C138.957 32.6943 137.784 32.4011 137.139 31.7412C136.728 31.316 136.523 30.6708 136.523 29.8056V21.1981H134.573V21.1835Z" fill="#282C33"/>
<path d="M30.6458 25.2305C32.1915 26.738 33.0883 28.5317 33.0883 30.459C33.0883 35.8401 26.1043 40.1908 17.4792 40.1908C8.85408 40.1908 1.88913 35.8592 1.88913 30.478C1.88913 28.5507 2.78598 26.757 4.33163 25.2496C1.64106 27.1578 0 29.6766 0 32.4244C0 38.4543 7.82365 44.9995 17.4983 44.9995C27.1538 44.9995 34.9965 38.4543 34.9965 32.4244C34.9774 29.6766 33.3555 27.1578 30.6458 25.2305Z" fill="#282C33"/>
<path d="M12.4217 23.666V18.4375L5.26593 23.4943V29.3143L12.4217 23.666Z" fill="#282C33"/>
<path d="M12.4225 38.0543V29.4482L5.24768 33.1311V34.8866C7.09864 36.3369 9.57931 37.4436 12.4225 38.0543Z" fill="#282C33"/>
<path d="M14.5405 22.0066L20.1124 26.0329L21.0856 25.2696V9.50781L13.9108 14.5646V22.5027L14.5405 22.0066Z" fill="#282C33"/>
<path d="M17.4982 38.5885C18.7385 38.5885 19.9216 38.4931 21.0856 38.3213V32.3296L20.246 32.9784L14.2352 28.5322L13.9108 28.704V38.3404C15.0557 38.4931 16.2579 38.5885 17.4982 38.5885Z" fill="#282C33"/>
<path d="M29.7299 34.8874V25.499L22.5551 31.1473V38.055C25.3983 37.4444 27.879 36.3376 29.7299 34.8874Z" fill="#282C33"/>
<path d="M29.7299 18.4569V18.3615L27.9934 16.0335H29.7299V0.901367L22.5551 5.9772V24.1052L29.7299 18.4569Z" fill="#282C33"/>
<path d="M4.56055 31.6999L14.5786 23.5901L20.1315 27.6164L31.5044 18.6478L30.5122 17.293H38.0878L20.2269 31.3755L14.3496 27.0439L4.56055 31.6999Z" fill="#282C33"/>
</svg>
