<?xml version="1.0" encoding="utf-8"?>
<!-- Generator: Adobe Illustrator 28.0.0, SVG Export Plug-In . SVG Version: 6.00 Build 0)  -->
<svg version="1.1" id="图层_1" xmlns="http://www.w3.org/2000/svg" xmlns:xlink="http://www.w3.org/1999/xlink" x="0px" y="0px"
	 viewBox="0 0 505 105" style="enable-background:new 0 0 505 105;" xml:space="preserve">
<g>
	<path d="M83.36,61.92v19.71c0,5.1-1.42,7.6-4.39,7.6c-3.09,0-4.63-1.54-4.63-4.63V61.92H83.36z M121.35,84.59
		c0,3.09-1.42,4.63-4.27,4.63c-3.44,0-5.1-3.21-5.1-9.62c0-0.95,0.12-2.49,0.24-4.51c0.24-2.14,0.36-3.8,0.36-4.87
		c0-4.04-1.66-7.24-4.87-9.5c-2.97-2.02-6.53-2.97-10.8-2.97H74.45v-9.14h22.44c7.48,0,13.3,2.02,17.69,6.17
		c4.51,4.16,6.77,9.85,6.77,17.09V84.59z M157.67,84.59c0,3.09-1.43,4.63-4.27,4.63c-3.44,0-5.11-3.21-5.11-9.62
		c0-0.95,0.12-2.49,0.24-4.51c0.24-2.14,0.36-3.8,0.36-4.87c0-4.04-1.66-7.24-4.99-9.5c-2.85-2.02-6.41-2.97-10.68-2.97h-10.56
		c-2.26-4.75-7-8.55-9.85-9.14h20.42c7.48,0,13.3,2.02,17.69,6.17c4.51,4.16,6.77,9.85,6.77,17.09V84.59z"/>
	<path d="M204.8,72.13v-3.21c0-6.29-6.29-11.52-15.67-11.52c-8.07,0-15.31,4.04-15.31,11.52c0,5.1,5.7,11.52,15.67,11.52
		c12.7,0,21.13-7,24.1-9.97v10.21c-7.48,5.7-15.79,8.55-24.69,8.55c-6.05,0-11.4-1.9-16.26-5.7c-5.22-4.16-7.84-9.14-7.84-14.96
		c0-5.94,2.73-10.8,8.07-14.72c4.87-3.56,10.33-5.34,16.26-5.34c6.29,0,11.75,1.78,16.62,5.34c4.87,3.68,7.48,7.6,7.84,11.87
		C209.19,69.87,206.82,71.18,204.8,72.13z"/>
	<path d="M245.04,48.62c7.6,0,13.06,1.31,19.83,4.75c2.26,1.19,2.85,2.26,2.14,4.15c-1.19,3.09-4.99,4.15-7.12,2.97
		c-3.68-2.14-9.85-4.27-14.84-4.27c-8.19,0-14.96,2.02-14.96,4.51c0,2.26,4.63,4.04,12.58,4.51v7.6
		c-7.72-0.83-21.96-2.26-21.96-12.11C220.71,50.52,237.68,48.62,245.04,48.62z M223.8,77.94c2.02-2.97,4.51-2.61,6.29-1.54
		c3.92,2.26,7.6,4.27,13.77,4.51c5.7,0.24,16.5-1.42,16.5-4.39c0-2.37-7.24-2.85-13.06-3.21v-7.95c9.62,0.47,22.2,2.85,22.2,11.16
		c0,8.9-14.48,12.23-23.74,12.23c-7.24,0-14.48-0.83-20.18-4.87C223.56,82.57,222.13,80.44,223.8,77.94z"/>
	<path d="M288.85,31.29c0,3.56-2.02,5.34-6.17,5.34c-4.04,0-6.05-1.78-6.05-5.34c0-3.44,2.02-5.22,6.05-5.22
		C286.83,26.07,288.85,27.85,288.85,31.29z M277.81,53.25c0-3.09,1.54-4.63,4.63-4.63c2.73,0,4.16,1.54,4.16,4.63v31.34
		c0,3.09-1.42,4.63-4.16,4.63c-3.09,0-4.63-1.54-4.63-4.63V53.25z"/>
	<path d="M295.97,20.25c0-2.97,1.54-4.51,4.63-4.51c2.97,0,4.39,1.54,4.39,4.51v64.34c0,3.09-1.42,4.63-4.39,4.63
		c-3.09,0-4.63-1.54-4.63-4.63V20.25z"/>
	<path d="M324.34,31.29c0,3.56-2.02,5.34-6.17,5.34c-4.04,0-6.05-1.78-6.05-5.34c0-3.44,2.02-5.22,6.05-5.22
		C322.33,26.07,324.34,27.85,324.34,31.29z M313.3,53.25c0-3.09,1.54-4.63,4.63-4.63c2.73,0,4.16,1.54,4.16,4.63v31.34
		c0,3.09-1.42,4.63-4.16,4.63c-3.09,0-4.63-1.54-4.63-4.63V53.25z"/>
	<path d="M340.49,61.92v19.83c0,4.99-1.42,7.48-4.39,7.48c-3.09,0-4.63-1.54-4.63-4.63V61.92H340.49z M378.48,84.59
		c0,3.09-1.42,4.63-4.27,4.63c-3.44,0-5.1-3.21-5.1-9.5c0-1.07,0.12-2.61,0.24-4.63c0.24-2.14,0.36-3.8,0.36-4.87
		c0-4.04-1.66-7.24-4.87-9.5c-2.97-2.02-6.53-3.09-10.8-3.09h-22.44v-9.02h22.44c7.48,0,13.3,2.02,17.69,6.17
		c4.51,4.16,6.77,9.85,6.77,17.09V84.59z"/>
	<path d="M385.6,20.25c0-2.97,1.54-4.51,4.63-4.51c2.73,0,4.15,1.54,4.15,4.51v36.68l-8.78,5.82V20.25z M385.6,67.97l32.53-20.89
		c3.8-2.49,8.43,3.21,5.34,5.1l-18.99,12.23l25.64,20.42c2.73,2.26-5.46,6.05-8.55,3.68l-24.1-19.23l-11.87,7.6V67.97z
		 M394.38,84.59c0,3.09-1.42,4.63-4.15,4.63c-3.09,0-4.63-1.54-4.63-4.63v-2.73l8.78-5.58V84.59z"/>
</g>
</svg>
